<?xml version="1.0" encoding="utf-8"?>
<!-- Generator: Adobe Illustrator 23.0.6, SVG Export Plug-In . SVG Version: 6.00 Build 0)  -->
<svg version="1.1" id="Vrstva_1" xmlns="http://www.w3.org/2000/svg" xmlns:xlink="http://www.w3.org/1999/xlink" x="0px" y="0px"
	 viewBox="0 0 192.4 57.8" style="enable-background:new 0 0 192.4 57.8;" xml:space="preserve">
<style type="text/css">
	.st0{fill-rule:evenodd;clip-rule:evenodd;}
	.st1{fill-rule:evenodd;clip-rule:evenodd;fill:#9D9D9C;}
</style>
<path class="st0" d="M27.6,29.8l2.2-4.8c0.3-0.8,0.6-1.5,1-2.7c0.2,1.3,0.2,1.4,0.6,3.5l0.9,4H27.6L27.6,29.8z M25.5,34.3L25.5,34.3
	h8l1,4.2h6.1l-4.3-17.3c-1.2-2.5,0.2-5.2,4.8-5.7H28.2l-11.1,23h6.4L25.5,34.3z"/>
<polygon class="st0" points="143.3,20.5 148.1,20.5 148.7,15.5 133.1,15.5 132.5,20.5 137.4,20.5 135.2,38.5 141.1,38.5 "/>
<polygon class="st0" points="116.9,15.4 101.6,15.4 98.7,38.4 114.3,38.4 114.9,33.3 105.2,33.3 105.7,29.5 113.3,29.5 114,24.4 
	106.3,24.4 106.8,20.5 116.2,20.5 "/>
<path class="st0" d="M79.9,15.4l-2.8,23h7.6c3.7,0,5.9-0.4,7.9-1.3c3.6-1.8,6-6.1,6-11c0-3.7-1.4-6.9-3.8-8.8
	c-1.8-1.3-3.9-1.9-7.7-1.9L79.9,15.4L79.9,15.4z M85.1,20.5L85.1,20.5h2.1c1.9,0,3.1,0.4,3.9,1.2c0.9,1,1.4,2.4,1.4,4.4
	c0,2.3-0.7,4.3-1.9,5.6c-1.2,1.3-2.5,1.7-5.1,1.7h-2L85.1,20.5z"/>
<polygon class="st0" points="64.4,15.4 58.6,15.4 55.7,38.4 68.9,38.4 69.5,33.3 62.2,33.3 "/>
<polygon class="st0" points="49.5,15.4 43.7,15.4 40.8,38.4 54,38.4 54.6,33.3 47.3,33.3 "/>
<path class="st0" d="M131.4,15.5c-6.5-1-13.6-0.3-14.3,7.3c-0.3,2.9,1.3,4.6,5.3,6.6c2.1,1.1,3.5,1.6,3,3.1c-0.8,2.3-5.5,1.3-8.5,1
	l-0.5,4.9c7.9,1,13.7,1.5,15.1-5.6c0.6-3-1.6-6-5.4-7.7c-2.4-1.1-3.5-1.5-3.2-2.7c0.7-3,6.4-2.2,8.1-2L131.4,15.5z"/>
<path class="st1" d="M189.6,33.1h-10.3l12.3-17.9h-18.5l-0.6,5.1h9.1l-12.5,17.9H189L189.6,33.1L189.6,33.1z M170.7,16.6l-0.7,5.7
	c-1.7-1.4-3.6-2.1-5.7-2.1c-4.2,0-7.2,2.8-7.2,6.7c0,3.7,2.6,6.2,6.4,6.2c1.8,0,3.5-0.4,5.3-1.4l-0.7,5.9c-2.5,0.9-3.7,1.1-5.4,1.1
	c-6.8,0-11.6-4.7-11.6-11.5c0-3.7,1.4-6.8,4-9.2c2.3-2.1,5.5-3.3,8.5-3.3C166.2,14.7,168.2,15.3,170.7,16.6L170.7,16.6z"/>
<path class="st1" d="M38.2,24.9c0.7-2.6,0.8-5.4,0.3-8.2c-1.7,1-2.1,2.5-1.3,4.2L38.2,24.9L38.2,24.9z M2,23.9
	C-0.1,13.9,6.3,4,16.3,1.8c9.8-2.1,19.5,4.1,21.9,13.7h-3.3c-2-6.6-8.8-10.7-15.7-9.2C11.9,7.8,7.3,15,8.8,22.3
	c1.2,5.6,5.7,9.6,11,10.5l-2.7,5.6C9.8,37.2,3.6,31.6,2,23.9L2,23.9z"/>
<path class="st1" d="M187.7,48.6h1.2l0.2-1.3h-1.2l0.5-2.8h-1.3l-0.5,2.8h-0.8l-0.2,1.3h0.8l-0.9,4.7h1.3L187.7,48.6L187.7,48.6z
	 M182.7,47.3L182.7,47.3h-1.3l-1.1,6h1.3l0.5-3c0.3-1.3,0.6-1.9,1.3-1.9c0.3,0,0.5,0.1,0.7,0.3l0.9-1.1c-0.3-0.4-0.6-0.5-1.1-0.5
	s-0.9,0.2-1.4,0.7L182.7,47.3L182.7,47.3z M176.3,48.2L176.3,48.2c1,0,1.7,0.7,1.6,1.9c-0.1,1.2-0.9,2.1-1.9,2.1s-1.7-0.8-1.6-2
	C174.4,49.1,175.3,48.2,176.3,48.2L176.3,48.2z M176.4,47.1L176.4,47.1c-1.8,0-3.3,1.4-3.4,3.2c-0.1,1.8,1.1,3.1,2.9,3.1
	c1.8,0,3.2-1.4,3.3-3.2C179.4,48.3,178.2,47.1,176.4,47.1L176.4,47.1z M169.1,48.3L169.1,48.3c0.9,0,1.5,0.8,1.4,1.8
	c-0.1,1.2-0.9,2.1-1.9,2.1s-1.6-0.7-1.5-1.8C167.1,49.2,168,48.3,169.1,48.3L169.1,48.3z M167.7,47.3L167.7,47.3h-1.3l-1.7,9.4h1.3
	l0.8-4.3c0.6,0.8,1.1,1,1.9,1c1.7,0,3.1-1.5,3.2-3.3c0.1-1.7-0.9-2.9-2.4-2.9c-0.7,0-1.2,0.2-1.9,0.8L167.7,47.3L167.7,47.3z
	 M164.6,47.9l-0.8,0.8c-0.3-0.4-0.6-0.5-0.9-0.5c-0.4,0-0.7,0.3-0.8,0.6c0,0.3,0.1,0.5,0.8,0.9c1,0.6,1.2,1,1.2,1.8
	c-0.1,1.1-0.9,1.9-2.2,1.9c-0.9,0-1.5-0.3-2-1.2l0.9-0.6c0.4,0.5,0.7,0.7,1.1,0.7c0.4,0,0.8-0.3,0.8-0.7s-0.1-0.5-1-1
	c-0.8-0.5-1.1-0.9-1-1.6c0.1-1.1,1-1.9,2.1-1.9C163.6,47.1,164.1,47.3,164.6,47.9L164.6,47.9L164.6,47.9z M155.8,47.3L155.8,47.3
	h-1.3l-1.1,6h1.3l0.5-2.9c0.2-0.9,0.3-1.3,0.7-1.7c0.3-0.3,0.6-0.4,1-0.4c0.5,0,0.8,0.3,0.8,0.8c0,0.1-0.1,0.4-0.1,0.6l-0.6,3.5h1.3
	l0.6-3.2c0.1-0.5,0.1-0.8,0.2-1.1c0-0.6,0-0.9-0.3-1.2c-0.3-0.4-0.8-0.6-1.4-0.6c-0.6,0-1,0.2-1.6,0.7L155.8,47.3L155.8,47.3z
	 M149.4,48.3L149.4,48.3c0.9,0,1.5,0.7,1.4,1.8c-0.1,1.2-1,2.1-1.9,2.1s-1.5-0.7-1.4-1.8C147.5,49.2,148.4,48.3,149.4,48.3
	L149.4,48.3z M152.6,47.3L152.6,47.3h-1.3l-0.1,0.8c-0.5-0.7-1-0.9-1.8-0.9c-1.7,0-3,1.4-3.2,3.4c-0.1,0.9,0.1,1.6,0.6,2.1
	c0.4,0.5,1.1,0.8,1.7,0.8c0.7,0,1.1-0.2,1.8-0.8l-0.1,0.6h1.3L152.6,47.3L152.6,47.3z M143.7,47.3l-0.1,0.5c0.6-0.5,0.9-0.7,1.4-0.7
	s0.7,0.1,1.1,0.5l-0.9,1.1c-0.2-0.3-0.4-0.3-0.7-0.3c-0.7,0-1,0.5-1.3,1.9l-0.5,3h-1.3l1.1-6L143.7,47.3L143.7,47.3L143.7,47.3z
	 M140.1,44.8L140.1,44.8h2.1l0.2-1.3h-5.7l-0.2,1.3h2.2l-1.5,8.5h1.4L140.1,44.8L140.1,44.8z M131.8,47.9L131.8,47.9
	c-0.5-0.6-1-0.9-1.7-0.9c-1.2,0-2.1,0.8-2.1,1.9c0,0.7,0.2,1.1,1,1.6c0.9,0.5,1,0.6,1,1s-0.4,0.7-0.8,0.7c-0.5,0-0.8-0.2-1.1-0.7
	l-0.9,0.6c0.5,0.9,1.1,1.2,2,1.2c1.2,0,2.1-0.8,2.2-1.9c0-0.8-0.2-1.2-1.2-1.8c-0.7-0.4-0.8-0.6-0.8-0.9c0-0.4,0.4-0.6,0.8-0.6
	c0.3,0,0.6,0.2,0.9,0.5L131.8,47.9L131.8,47.9z M126.8,47.9L126.8,47.9c-0.5-0.6-1-0.9-1.7-0.9c-1.2,0-2.1,0.8-2.1,1.9
	c-0.1,0.7,0.2,1.1,1,1.6c0.9,0.5,1,0.6,1,1s-0.4,0.7-0.8,0.7c-0.4,0-0.8-0.2-1.1-0.7l-0.9,0.6c0.5,0.9,1.1,1.2,2,1.2
	c1.2,0,2.1-0.8,2.2-1.9c0.1-0.8-0.2-1.2-1.2-1.8c-0.7-0.4-0.8-0.6-0.8-0.9c0-0.4,0.4-0.6,0.8-0.6c0.3,0,0.6,0.2,0.9,0.5L126.8,47.9
	L126.8,47.9z M117.1,49.6L117.1,49.6c0.3-0.9,0.8-1.4,1.6-1.4s1.3,0.5,1.4,1.4H117.1L117.1,49.6z M121.4,50.8L121.4,50.8v-0.5
	c0.1-2-0.8-3.2-2.5-3.2s-3.1,1.4-3.3,3.4c-0.1,1.8,0.9,3,2.7,3c1.1,0,1.8-0.4,2.5-1.3l-1-0.6c-0.4,0.5-0.9,0.7-1.5,0.7
	c-0.9,0-1.5-0.6-1.5-1.5L121.4,50.8L121.4,50.8z M113.2,47.3l-0.1,0.5c0.6-0.5,0.9-0.7,1.4-0.7s0.7,0.1,1.1,0.5l-0.9,1.1
	c-0.2-0.3-0.4-0.3-0.7-0.3c-0.7,0-1,0.5-1.3,1.9l-0.5,3h-1.3l1.1-6L113.2,47.3L113.2,47.3L113.2,47.3z M107.1,48.3L107.1,48.3
	c0.9,0,1.5,0.8,1.4,1.8c-0.1,1.2-0.9,2.1-1.9,2.1s-1.6-0.7-1.5-1.8C105.2,49.2,106,48.3,107.1,48.3L107.1,48.3z M105.7,47.3
	L105.7,47.3h-1.3l-1.7,9.4h1.3l0.8-4.3c0.6,0.8,1.1,1,1.9,1c1.7,0,3.1-1.5,3.2-3.3c0.1-1.7-0.9-2.9-2.4-2.9c-0.7,0-1.2,0.2-1.9,0.8
	L105.7,47.3L105.7,47.3z M100.3,50l1.8,3.2h-1.5L99.4,51l-2,2.3h-1.7l3.1-3.3l-1.5-2.7h1.5l0.9,1.7l1.5-1.7h1.7L100.3,50L100.3,50
	L100.3,50z M96.8,43.4L96.8,43.4H92l-1.8,9.8H95l0.3-1.4h-3.4l0.6-3.3h3.4l0.2-1.3h-3.4l0.5-2.5h3.4L96.8,43.4L96.8,43.4z
	 M86.6,42.5L86.6,42.5h-1.3l-2,10.7h1.3L86.6,42.5L86.6,42.5z M79.3,48.3L79.3,48.3c0.9,0,1.5,0.7,1.4,1.8c-0.1,1.2-1,2.1-1.9,2.1
	s-1.5-0.7-1.4-1.8C77.5,49.2,78.3,48.3,79.3,48.3L79.3,48.3z M82.5,47.3L82.5,47.3h-1.3L81,48c-0.5-0.7-1-0.9-1.8-0.9
	c-1.7,0-3,1.4-3.2,3.4c-0.1,0.9,0.1,1.6,0.6,2.1c0.4,0.5,1.1,0.8,1.7,0.8c0.7,0,1.1-0.2,1.8-0.8L80,53.2h1.4L82.5,47.3L82.5,47.3z
	 M71.5,47.3L71.5,47.3h-1.3l-1.1,6h1.3l0.5-2.9c0.2-0.9,0.3-1.3,0.7-1.7c0.3-0.3,0.6-0.4,1-0.4c0.5,0,0.8,0.3,0.8,0.8
	c0,0.1-0.1,0.4-0.1,0.6l-0.6,3.5H74l0.6-3.2c0.1-0.5,0.1-0.8,0.2-1.1c0-0.6,0-0.9-0.3-1.2c-0.3-0.4-0.8-0.6-1.4-0.6s-1,0.2-1.6,0.7
	V47.3L71.5,47.3z M65.2,48.2L65.2,48.2c1,0,1.7,0.7,1.6,1.9s-0.9,2.1-1.9,2.1s-1.7-0.8-1.6-2C63.3,49.1,64.1,48.2,65.2,48.2
	L65.2,48.2z M65.2,47.1L65.2,47.1c-1.8,0-3.3,1.4-3.4,3.2s1.1,3.1,2.9,3.1s3.2-1.4,3.3-3.2C68.2,48.3,67.1,47.1,65.2,47.1L65.2,47.1
	z M60.9,47.3L60.9,47.3h-1.3l-1.1,6h1.3L60.9,47.3L60.9,47.3z M60.8,43.6L60.8,43.6c-0.4,0-0.7,0.3-0.8,0.8c0,0.4,0.3,0.8,0.7,0.8
	c0.4,0,0.8-0.3,0.8-0.8C61.5,44,61.2,43.6,60.8,43.6L60.8,43.6z M57.1,48.6l-0.9,4.7h-1.3l0.9-4.7H55l0.2-1.3H56l0.5-2.8h1.3
	l-0.5,2.8h1.2l-0.2,1.3L57.1,48.6L57.1,48.6L57.1,48.6z M50.8,48.3L50.8,48.3c0.9,0,1.5,0.7,1.4,1.8c-0.1,1.2-1,2.1-1.9,2.1
	s-1.5-0.7-1.4-1.8C49,49.2,49.8,48.3,50.8,48.3L50.8,48.3z M54,47.3L54,47.3h-1.3L52.6,48c-0.5-0.7-1-0.9-1.9-0.9
	c-1.7,0-3,1.4-3.2,3.4c-0.1,0.9,0.1,1.6,0.6,2.1c0.4,0.5,1.1,0.8,1.7,0.8c0.7,0,1.1-0.2,1.8-0.8l-0.1,0.6h1.3L54,47.3L54,47.3z
	 M43,47.3L43,47.3h-1.3l-1.1,6h1.3l0.5-2.9c0.2-0.9,0.3-1.3,0.7-1.7c0.3-0.3,0.6-0.4,1-0.4c0.5,0,0.8,0.3,0.8,0.8
	c0,0.1-0.1,0.4-0.1,0.6l-0.6,3.5h1.3l0.6-3.2c0.1-0.5,0.1-0.8,0.2-1.1c0-0.6,0-0.9-0.3-1.2c-0.3-0.4-0.8-0.6-1.4-0.6
	c-0.6,0-1,0.2-1.6,0.7L43,47.3L43,47.3z M38.2,47.3L38.2,47.3h-1.3l-1.1,6h1.3l0.6-3c0.3-1.3,0.6-1.9,1.3-1.9c0.3,0,0.5,0.1,0.7,0.3
	l0.9-1.1c-0.4-0.4-0.6-0.5-1.1-0.5s-0.9,0.2-1.4,0.7L38.2,47.3L38.2,47.3z M30.5,49.6L30.5,49.6c0.3-0.9,0.8-1.4,1.6-1.4
	s1.3,0.5,1.4,1.4H30.5L30.5,49.6z M34.7,50.8L34.7,50.8v-0.5c0.1-2-0.9-3.2-2.5-3.2c-1.7,0-3.1,1.4-3.3,3.4c-0.1,1.8,0.9,3,2.7,3
	c1.1,0,1.8-0.4,2.5-1.3l-1-0.6c-0.4,0.5-0.9,0.7-1.5,0.7c-0.9,0-1.5-0.6-1.5-1.5L34.7,50.8L34.7,50.8z M27.3,48.6L27.3,48.6h1.2
	l0.2-1.3h-1.2l0.5-2.8h-1.3l-0.5,2.8h-0.8l-0.2,1.3H26l-0.9,4.7h1.3L27.3,48.6L27.3,48.6z M20.7,47.3L20.7,47.3h-1.3l-1.1,6h1.3
	l0.5-2.9c0.2-0.9,0.3-1.3,0.7-1.7c0.3-0.3,0.6-0.4,1-0.4c0.5,0,0.8,0.3,0.8,0.8c0,0.1-0.1,0.4-0.1,0.6l-0.6,3.5h1.3l0.6-3.2
	c0.1-0.5,0.1-0.8,0.2-1.1c0-0.6,0-0.9-0.3-1.2c-0.3-0.4-0.8-0.6-1.4-0.6c-0.6,0-1,0.2-1.6,0.7L20.7,47.3L20.7,47.3z M18,43.4
	L18,43.4h-1.4l-1.8,9.8h1.4L18,43.4z"/>
</svg>
