<svg width="274" height="43" viewBox="0 0 274 43" fill="none" xmlns="http://www.w3.org/2000/svg">
<path d="M251.299 24.303C253.537 24.3062 255.725 23.6457 257.587 22.4051C259.449 21.1646 260.902 19.3997 261.761 17.3338C262.619 15.268 262.845 12.9939 262.411 10.7994C261.976 8.60498 260.9 6.58871 259.318 5.00573C257.737 3.42278 255.721 2.34427 253.528 1.90668C251.333 1.46908 249.058 1.69207 246.99 2.54744C244.922 3.4028 243.156 4.85208 241.912 6.71193C240.669 8.57175 240.005 10.7586 240.005 12.9956C240.003 14.4798 240.293 15.9499 240.86 17.3216C241.427 18.6934 242.259 19.9399 243.307 20.9903C244.357 22.0404 245.603 22.8735 246.973 23.442C248.344 24.0104 249.815 24.303 251.299 24.303ZM244.816 12.9319C244.276 12.3291 243.984 11.5433 244.003 10.7341C244.011 10.1778 244.153 9.63158 244.417 9.14155C244.674 8.64602 245.051 8.22396 245.517 7.91526C245.864 7.6903 246.246 7.52354 246.648 7.42155C247.172 7.31694 247.705 7.26887 248.241 7.27822H251.427V9.33266C251.564 9.08459 251.723 8.84998 251.905 8.63192C252.292 8.12999 252.787 7.72172 253.354 7.43748C253.907 7.17669 254.512 7.04594 255.122 7.05526C255.951 7.04696 256.758 7.31606 257.416 7.8197C258.132 8.39213 258.683 9.14539 259.009 10.0016L259.089 10.1608H257.799C257.482 9.62035 257.052 9.15351 256.54 8.79118C256.105 8.49171 255.588 8.3358 255.059 8.34526C254.589 8.35198 254.128 8.46943 253.713 8.68808C253.298 8.90671 252.94 9.22034 252.669 9.6034C252.018 10.4763 251.677 11.5408 251.697 12.6293C251.656 13.7723 252.005 14.8953 252.685 15.8145C252.959 16.1988 253.319 16.5132 253.737 16.7317C254.155 16.9503 254.619 17.0672 255.091 17.0726C255.471 17.0688 255.846 16.9879 256.195 16.8345C256.542 16.6812 256.854 16.4588 257.114 16.1808C257.705 15.5707 258.103 14.8011 258.261 13.9671H255.075V12.7408H259.535V12.9001C259.486 14.316 258.97 15.676 258.07 16.77C257.7 17.2664 257.219 17.6691 256.666 17.9457C256.113 18.2223 255.502 18.3652 254.884 18.3626C254.264 18.369 253.652 18.2279 253.098 17.9509C252.543 17.674 252.064 17.2693 251.697 16.77C251.554 16.5789 251.427 16.3878 251.299 16.1808V18.2034H250.104V8.64785H248.511C247.978 8.6285 247.444 8.66586 246.918 8.75933C246.644 8.83109 246.388 8.96149 246.17 9.14155C245.918 9.34467 245.72 9.60743 245.596 9.906C245.466 10.2074 245.4 10.5331 245.405 10.8616C245.394 11.1318 245.445 11.401 245.552 11.6491C245.66 11.8973 245.822 12.118 246.026 12.2949C246.474 12.6657 247.038 12.8635 247.619 12.8523H248.894L248.782 13.0275L245.453 18.1397H243.86L243.987 17.9486L246.584 13.9671C245.885 13.8575 245.254 13.4877 244.816 12.9319ZM270.941 12.8364H267.261C267.261 17.0707 265.579 21.1317 262.584 24.1259C259.589 27.12 255.527 28.8021 251.291 28.8021C247.055 28.8021 242.993 27.12 239.998 24.1259C237.003 21.1317 235.321 17.0707 235.321 12.8364H231.657C231.657 18.0443 233.727 23.039 237.41 26.7217C241.094 30.4042 246.09 32.473 251.299 32.473C256.508 32.473 261.504 30.4042 265.189 26.7217C268.872 23.039 270.941 18.0443 270.941 12.8364Z" fill="#0068B3"/>
<path d="M23.8953 1.59265L0 34.5115H4.11L13.2221 21.946H26.8902V34.5275H30.2674V1.59265H23.8953ZM26.938 18.5856H15.6753L25.4884 4.96895H26.8743L26.938 18.5856Z" fill="#1D1D1B"/>
<path d="M37.8662 4.77776V34.4796H34.6802V1.59257H43.5055C45.1108 1.54661 46.7156 1.69636 48.2846 2.0385C49.6632 2.36121 50.9518 2.98963 52.0546 3.87727C53.1577 4.76492 54.0469 5.8891 54.6567 7.16665C55.414 8.67944 55.8067 10.3483 55.8037 12.04C55.854 14.4313 55.0522 16.7626 53.5416 18.6174C52.8537 19.5006 51.9845 20.2264 50.9926 20.7455C50.0006 21.2647 48.9087 21.5654 47.7908 21.6274L55.7559 34.4796H51.8211L42.0718 18.6333H45.1782C47.0428 18.7183 48.8651 18.0595 50.244 16.8018C50.8976 16.1952 51.4115 15.4536 51.7499 14.6286C52.0883 13.8036 52.2429 12.9149 52.2034 12.0241C52.2246 10.9334 52.0242 9.84977 51.614 8.83887C51.2078 7.89051 50.5988 7.04254 49.8298 6.35443C49.1663 5.75516 48.3689 5.32372 47.504 5.09628C45.8959 4.81057 44.2611 4.70373 42.6294 4.77776H37.8662Z" fill="#1D1D1B"/>
<path d="M79.6512 30.5459C78.632 32.0057 77.2403 33.1661 75.6208 33.9063C73.916 34.7238 72.0475 35.1431 70.1567 35.1326C68.4632 35.1789 66.7787 34.8696 65.212 34.2251C63.6453 33.5804 62.231 32.6147 61.0606 31.39C59.851 30.1834 58.8984 28.7442 58.2605 27.1594C57.6225 25.5745 57.3125 23.8769 57.3488 22.1689C57.305 20.4457 57.6114 18.7316 58.2494 17.1301C58.8872 15.5287 59.8437 14.0734 61.0606 12.8522C62.2708 11.6227 63.7216 10.6558 65.3222 10.0119C66.9229 9.36792 68.6392 9.06079 70.3638 9.10965C72.1826 9.086 73.9819 9.48394 75.6208 10.2722C77.2266 11.0269 78.6135 12.1779 79.6512 13.6167V9.65113H82.8372V34.4796H79.6512V30.5459ZM79.6512 21.8981C79.6599 20.6196 79.4152 19.3519 78.9313 18.1683C78.4473 16.9847 77.7336 15.9086 76.8315 15.0022C76.0149 14.0835 75.0145 13.3465 73.8948 12.8389C72.7752 12.3314 71.5613 12.0646 70.332 12.0559C69.0545 12.0401 67.7881 12.2943 66.6159 12.8021C65.4436 13.3099 64.3919 14.0596 63.5298 15.0022C62.5905 15.967 61.852 17.1084 61.3571 18.3604C60.8621 19.6124 60.6206 20.9502 60.6464 22.2963C60.619 23.5928 60.853 24.8814 61.3347 26.0854C61.8165 27.2894 62.5359 28.384 63.4501 29.3037C64.3135 30.2167 65.3563 30.9412 66.5133 31.4317C67.6702 31.9224 68.9161 32.1685 70.1727 32.1544C71.4257 32.1535 72.664 31.8845 73.8043 31.3653C74.9446 30.8461 75.9606 30.0888 76.7837 29.1444C78.6589 27.2021 79.6897 24.5973 79.6512 21.8981Z" fill="#1D1D1B"/>
<path d="M84.9082 9.65112H88.5722L96.2505 29.7974L104.216 9.65112H107.927L94.5779 42.5063H91.1688L94.4823 34.4319L84.9082 9.65112Z" fill="#1D1D1B"/>
<path d="M129.72 13.5371C130.683 12.1739 131.976 11.0779 133.479 10.3519C135.041 9.59132 136.76 9.2094 138.497 9.23711C139.877 9.11437 141.266 9.32521 142.547 9.85186C143.827 10.3785 144.963 11.2055 145.857 12.263C147.402 14.206 148.151 17.5186 148.151 21.946V34.4797H145.124V21.293C145.349 18.8476 144.791 16.3939 143.531 14.2856C142.87 13.55 142.046 12.9785 141.125 12.6164C140.204 12.2542 139.212 12.1115 138.226 12.1993C136.927 12.1705 135.64 12.466 134.483 13.0593C133.412 13.6389 132.525 14.5046 131.918 15.5597C131.53 16.283 131.256 17.062 131.106 17.8689C130.9 19.3674 130.815 20.8799 130.851 22.3919V34.4797H127.824V20.5764C128.021 18.3141 127.405 16.0558 126.088 14.206C125.403 13.4965 124.569 12.9483 123.646 12.6012C122.722 12.2541 121.734 12.1168 120.751 12.1993C119.436 12.1685 118.133 12.464 116.96 13.0593C115.876 13.6327 114.977 14.4992 114.363 15.5597C113.96 16.2765 113.685 17.058 113.55 17.8689C113.353 19.3681 113.273 20.8804 113.312 22.3919V34.4797H110.125V9.65118H113.312V12.4701C114.22 11.3947 115.365 10.5443 116.657 9.98563C118.054 9.40589 119.557 9.12383 121.07 9.15748C122.86 9.1304 124.63 9.53464 126.231 10.336C127.672 11.0529 128.882 12.1626 129.72 13.5371Z" fill="#1D1D1B"/>
<path d="M150.987 22.0893C150.958 20.3605 151.275 18.6434 151.917 17.0384C152.56 15.4332 153.516 13.9722 154.73 12.7408C155.855 11.508 157.226 10.5251 158.754 9.85568C160.282 9.18629 161.934 8.84531 163.604 8.85485C165.323 8.83483 167.029 9.1696 168.612 9.83821C170.197 10.5068 171.626 11.4949 172.811 12.7408C174.032 13.9171 175 15.3306 175.655 16.8944C176.31 18.4582 176.638 20.1393 176.619 21.8345C176.663 23.5949 176.356 25.3465 175.715 26.987C175.077 28.6275 174.116 30.1244 172.891 31.39C171.749 32.6461 170.353 33.6459 168.797 34.3239C167.239 35.0019 165.557 35.3427 163.859 35.3237C162.152 35.3534 160.459 35.0256 158.887 34.362C157.315 33.6982 155.899 32.713 154.73 31.4697C153.5 30.2438 152.533 28.7793 151.889 27.1661C151.245 25.553 150.938 23.8254 150.987 22.0893ZM154.332 22.0893C154.257 24.7491 155.236 27.331 157.056 29.2719C157.918 30.2115 158.971 30.9562 160.144 31.456C161.318 31.9559 162.584 32.1995 163.859 32.1704C165.119 32.1971 166.371 31.952 167.527 31.452C168.685 30.9517 169.721 30.2082 170.565 29.2719C172.38 27.3092 173.353 24.7131 173.273 22.0415C173.323 20.7144 173.106 19.391 172.636 18.149C172.165 16.9071 171.451 15.7722 170.533 14.8111C169.635 13.8789 168.552 13.145 167.352 12.6568C166.154 12.1685 164.865 11.9367 163.572 11.9763C162.34 11.9676 161.122 12.2233 159.997 12.7261C158.873 13.2289 157.87 13.9671 157.056 14.8908C155.248 16.8266 154.27 19.3935 154.332 22.0415V22.0893Z" fill="#1D1D1B"/>
<path d="M178.976 9.65119H182.067V12.4701C182.992 11.3881 184.152 10.5327 185.46 9.9697C188.463 8.82393 191.794 8.89248 194.747 10.1608C196.119 10.8039 197.288 11.8122 198.124 13.0753C198.726 14.0519 199.142 15.132 199.351 16.2604C199.642 18.0124 199.765 19.7883 199.717 21.5637V34.5434H196.531V20.5763C196.724 18.3238 196.133 16.0739 194.859 14.206C194.177 13.5066 193.35 12.9645 192.436 12.6179C191.523 12.2713 190.545 12.1284 189.57 12.1993C188.249 12.1705 186.943 12.4658 185.762 13.0593C184.685 13.6305 183.795 14.4982 183.198 15.5597C182.79 16.2757 182.509 17.057 182.369 17.8689C182.172 19.368 182.092 20.8804 182.13 22.3919V34.4797H179.04L178.976 9.65119Z" fill="#1D1D1B"/>
<path d="M224.744 13.5689V1.59265H227.93V34.4797H224.744V30.7212C223.619 32.086 222.196 33.1755 220.586 33.9064C218.94 34.6738 217.145 35.0707 215.329 35.0689C213.64 35.1003 211.963 34.7796 210.405 34.1269C208.847 33.4743 207.442 32.5042 206.281 31.2786C205.078 30.0523 204.132 28.5976 203.499 27.0002C202.868 25.4029 202.562 23.6951 202.601 21.9778C202.561 20.2789 202.862 18.5893 203.486 17.0083C204.109 15.4274 205.044 13.9873 206.233 12.7727C207.407 11.5533 208.821 10.592 210.387 9.95035C211.953 9.30867 213.637 9.00066 215.329 9.04598C217.169 9.02251 218.993 9.40876 220.666 10.1767C222.278 10.963 223.676 12.1267 224.744 13.5689ZM224.839 22.3123C224.892 19.6195 223.879 17.015 222.02 15.066C221.199 14.1228 220.186 13.3662 219.049 12.847C217.911 12.3279 216.675 12.0581 215.424 12.056C214.163 12.0389 212.912 12.2851 211.753 12.7787C210.593 13.2723 209.548 14.0025 208.686 14.9227C207.772 15.8354 207.052 16.9242 206.569 18.1231C206.088 19.3222 205.854 20.6065 205.882 21.8982C205.842 23.2416 206.069 24.5797 206.55 25.8345C207.032 27.0894 207.757 28.2361 208.686 29.2082C209.546 30.1545 210.598 30.9078 211.77 31.4184C212.943 31.929 214.209 32.1852 215.488 32.1704C216.72 32.1628 217.935 31.8949 219.055 31.3843C220.175 30.8737 221.175 30.1322 221.988 29.2082C222.904 28.307 223.629 27.2302 224.118 26.0426C224.608 24.855 224.854 23.5809 224.839 22.2964V22.3123Z" fill="#1D1D1B"/>
<path d="M265.764 4.98482C265.761 4.31597 265.955 3.66115 266.325 3.10269C266.693 2.54422 267.217 2.10703 267.834 1.84609C268.45 1.58514 269.129 1.51207 269.787 1.63609C270.444 1.76009 271.05 2.07563 271.528 2.54304C272.007 3.01045 272.337 3.60886 272.476 4.26305C272.616 4.91724 272.558 5.59801 272.312 6.21978C272.065 6.84156 271.639 7.37657 271.09 7.75757C270.54 8.13856 269.89 8.34855 269.221 8.36111C268.772 8.36957 268.324 8.28859 267.907 8.12289C267.489 7.9572 267.107 7.71009 266.787 7.39595C266.465 7.0818 266.209 6.70685 266.033 6.29294C265.858 5.87901 265.766 5.43436 265.764 4.98482ZM272.041 4.98482C272.041 4.60419 271.966 4.22727 271.819 3.87561C271.674 3.52395 271.461 3.20441 271.192 2.93526C270.922 2.6661 270.602 2.45259 270.25 2.30694C269.9 2.16128 269.522 2.0863 269.141 2.0863C268.761 2.0863 268.383 2.16128 268.033 2.30694C267.681 2.45259 267.36 2.6661 267.091 2.93526C266.822 3.20441 266.608 3.52395 266.464 3.87561C266.317 4.22727 266.242 4.60419 266.242 4.98482C266.242 5.36546 266.317 5.74236 266.464 6.09404C266.608 6.4457 266.822 6.76522 267.091 7.03439C267.36 7.30354 267.681 7.51704 268.033 7.6627C268.383 7.80837 268.761 7.88333 269.141 7.88333C269.522 7.88333 269.9 7.80837 270.25 7.6627C270.602 7.51704 270.922 7.30354 271.192 7.03439C271.461 6.76522 271.674 6.4457 271.819 6.09404C271.966 5.74236 272.041 5.36546 272.041 4.98482ZM270.257 6.94371C270.177 6.74122 270.139 6.52441 270.145 6.30667C270.145 5.47852 269.922 5.30333 269.157 5.30333H268.186V6.89593H267.708V3.07371H269.396C270.161 3.07371 270.703 3.42408 270.703 4.12482C270.722 4.34264 270.66 4.55982 270.526 4.7337C270.394 4.90758 270.201 5.02555 269.986 5.06445C270.448 5.20778 270.623 5.43074 270.623 6.17926C270.599 6.4356 270.644 6.69359 270.75 6.92778L270.257 6.94371ZM269.221 4.85741C269.826 4.85741 270.193 4.63445 270.193 4.15667C270.193 3.67889 269.89 3.51963 269.269 3.51963H268.17V4.85741H269.221Z" fill="#1D1D1B"/>
</svg>
