<?xml version="1.0" encoding="UTF-8" standalone="no"?>
<!DOCTYPE svg PUBLIC "-//W3C//DTD SVG 1.0//EN" "http://www.w3.org/TR/2001/REC-SVG-20010904/DTD/svg10.dtd">
<!-- Created with Inkscape (http://www.inkscape.org/) by Steadfast-->
<svg
   xmlns:svg="http://www.w3.org/2000/svg"
   xmlns="http://www.w3.org/2000/svg"
   version="1.0"
   width="900"
   height="300"
   id="svg2532">
  <defs
     id="defs2534" />
  <g
     id="layer1">
    <g
       transform="matrix(0.5901983,0,0,0.5901983,-98.830071,98.378495)"
       id="g2562">
      <path
         d="M 572.66357,-61.376719 L 663.79276,-152.53532 L 663.79276,235.75458 L 860.4415,235.75458 L 769.31967,326.87642 L 572.66357,326.87642 L 572.66357,-61.376719"
         id="path45"
         style="fill:#fab70a;fill-opacity:1;fill-rule:nonzero;stroke:none" />
      <path
         d="M 184.39573,326.38375 L 544.58875,-33.823982 L 544.58875,326.38375 L 363.42602,326.38375 L 454.26107,235.54869 L 454.26107,167.94264 L 295.81997,326.38375 L 184.39573,326.38375"
         id="path47"
         style="fill:#514e4f;fill-opacity:1;fill-rule:evenodd;stroke:none" />
      <path
         d="M 975.10854,235.48251 L 950.76918,235.48251 L 950.76918,326.73671 L 1013.1985,326.73671 L 1013.1985,305.56661 L 975.10854,305.56661 L 975.10854,235.48251"
         id="path49"
         style="fill:#231f20;fill-opacity:1;fill-rule:nonzero;stroke:none" />
      <path
         d="M 1040.6777,235.48251 L 1065.0097,235.48251 L 1065.0097,326.73671 L 1040.6777,326.73671 L 1040.6777,235.48251 z"
         id="path51"
         style="fill:#231f20;fill-opacity:1;fill-rule:nonzero;stroke:none" />
      <path
         d="M 1178.3973,263.83676 C 1178.3973,234.87219 1161.6098,234.75454 1138.0057,234.75454 C 1111.2324,234.75454 1094.6876,239.25474 1094.6876,269.4326 L 1094.6876,293.03663 C 1094.6876,322.60416 1109.2838,327.46468 1138.0057,327.46468 C 1170.6102,327.46468 1178.3973,321.86883 1178.3973,291.08801 L 1178.3973,275.15345 L 1136.9101,275.15345 L 1136.9101,292.05864 L 1153.6976,292.05864 C 1153.6976,304.71363 1150.4107,307.51523 1138.0057,307.51523 C 1125.3507,307.51523 1119.7475,305.80927 1119.7475,289.62471 L 1119.7475,274.78579 C 1119.9975,260.06452 1120.4829,254.70398 1138.0057,254.70398 C 1145.3002,254.70398 1153.2123,254.58633 1153.6976,263.83676 L 1178.3973,263.83676"
         id="path53"
         style="fill:#231f20;fill-opacity:1;fill-rule:nonzero;stroke:none" />
      <path
         d="M 1289.4612,235.48251 L 1265.1219,235.48251 L 1265.1219,269.80027 L 1233.3631,269.80027 L 1233.3631,235.48251 L 1209.0311,235.48251 L 1209.0311,326.73671 L 1233.3631,326.73671 L 1233.3631,290.963 L 1265.1219,290.963 L 1265.1219,326.73671 L 1289.4612,326.73671 L 1289.4612,235.48251"
         id="path55"
         style="fill:#231f20;fill-opacity:1;fill-rule:nonzero;stroke:none" />
      <path
         d="M 1363.1558,256.6526 L 1387.7304,256.6526 L 1387.7304,235.48251 L 1315.4551,235.48251 L 1315.4551,256.6526 L 1338.8238,256.6526 L 1338.8238,326.73671 L 1363.1558,326.73671 L 1363.1558,256.6526"
         id="path57"
         style="fill:#231f20;fill-opacity:1;fill-rule:nonzero;stroke:none" />
      <path
         d="M 1413.5037,235.48251 L 1437.843,235.48251 L 1437.843,326.73671 L 1413.5037,326.73671 L 1413.5037,235.48251 z"
         id="path59"
         style="fill:#231f20;fill-opacity:1;fill-rule:nonzero;stroke:none" />
      <path
         d="M 1493.9191,256.6526 L 1494.8898,256.6526 L 1520.6851,326.73671 L 1562.1796,326.73671 L 1562.1796,235.48251 L 1537.8403,235.48251 L 1539.3036,305.56661 L 1538.3256,305.56661 L 1512.17,235.48251 L 1471.0431,235.48251 L 1471.0431,326.73671 L 1495.3751,326.73671 L 1493.9191,256.6526"
         id="path61"
         style="fill:#231f20;fill-opacity:1;fill-rule:nonzero;stroke:none" />
      <path
         d="M 1675.4201,263.83676 C 1675.4201,234.87219 1658.6252,234.75454 1635.0212,234.75454 C 1608.2553,234.75454 1591.7031,239.25474 1591.7031,269.4326 L 1591.7031,293.03663 C 1591.7031,322.60416 1606.3067,327.46468 1635.0212,327.46468 C 1667.633,327.46468 1675.4201,321.86883 1675.4201,291.08801 L 1675.4201,275.15345 L 1633.9256,275.15345 L 1633.9256,292.05864 L 1650.7205,292.05864 C 1650.7205,304.71363 1647.4336,307.51523 1635.0212,307.51523 C 1622.3662,307.51523 1616.7704,305.80927 1616.7704,289.62471 L 1616.7704,274.78579 C 1617.013,260.06452 1617.4984,254.70398 1635.0212,254.70398 C 1642.323,254.70398 1650.2352,254.58633 1650.7205,263.83676 L 1675.4201,263.83676"
         id="path63"
         style="fill:#231f20;fill-opacity:1;fill-rule:nonzero;stroke:none" />
      <path
         d="M 944.85715,205.08406 L 953.29136,205.08406 L 960.12991,193.45852 L 1004.2055,193.45852 L 1011.044,205.08406 L 1019.4856,205.08406 L 986.80761,150.06682 L 977.53512,150.06682 L 944.85715,205.08406 z M 1000.6391,187.37736 L 963.7036,187.37736 L 982.16769,156.14063 L 1000.6391,187.37736"
         id="path65"
         style="fill:#231f20;fill-opacity:1;fill-rule:evenodd;stroke:none" />
      <path
         d="M 1029.4566,191.25254 C 1029.4566,202.42217 1035.0745,205.68702 1049.0605,205.68702 L 1074.444,205.68702 C 1088.4226,205.68702 1094.0478,202.42217 1094.0478,191.25254 L 1094.0478,150.06682 L 1086.599,150.06682 L 1086.599,191.17901 C 1086.599,196.49543 1084.7753,199.61322 1074.6646,199.61322 L 1048.8325,199.61322 C 1038.7291,199.61322 1036.8981,196.49543 1036.8981,191.17901 L 1036.8981,150.06682 L 1029.4566,150.06682 L 1029.4566,191.25254"
         id="path67"
         style="fill:#231f20;fill-opacity:1;fill-rule:nonzero;stroke:none" />
      <path
         d="M 1132.0055,205.08406 L 1139.4543,205.08406 L 1139.4543,156.14063 L 1167.2644,156.14063 L 1167.2644,150.06682 L 1104.1954,150.06682 L 1104.1954,156.14063 L 1132.0055,156.14063 L 1132.0055,205.08406"
         id="path69"
         style="fill:#231f20;fill-opacity:1;fill-rule:nonzero;stroke:none" />
      <path
         d="M 1239.3854,187.9068 C 1239.3854,197.48077 1233.6131,199.61322 1226.4657,199.61322 L 1196.2952,199.61322 C 1189.1551,199.61322 1183.3828,197.48077 1183.3828,187.9068 L 1183.3828,167.23673 C 1183.3828,157.66276 1189.1551,155.53766 1196.2952,155.53766 L 1226.4657,155.53766 C 1233.6131,155.53766 1239.3854,157.66276 1239.3854,167.23673 L 1239.3854,187.9068 z M 1175.9339,185.09784 C 1175.9339,199.00289 1180.6474,205.68702 1195.5378,205.68702 L 1227.2304,205.68702 C 1242.1208,205.68702 1246.8343,199.00289 1246.8343,185.09784 L 1246.8343,170.05303 C 1246.8343,156.14063 1242.1208,149.4565 1227.2304,149.4565 L 1195.5378,149.4565 C 1180.6474,149.4565 1175.9339,156.14063 1175.9339,170.05303 L 1175.9339,185.09784"
         id="path71"
         style="fill:#231f20;fill-opacity:1;fill-rule:evenodd;stroke:none" />
      <path
         d="M 1261.0776,205.08406 L 1268.5264,205.08406 L 1268.5264,156.75095 L 1268.6809,156.75095 L 1302.1897,205.08406 L 1307.5135,205.08406 L 1341.0224,156.75095 L 1341.1768,156.75095 L 1341.1768,205.08406 L 1348.6257,205.08406 L 1348.6257,150.06682 L 1336.9928,150.06682 L 1304.8516,196.19394 L 1272.7031,150.06682 L 1261.0776,150.06682 L 1261.0776,205.08406"
         id="path73"
         style="fill:#231f20;fill-opacity:1;fill-rule:nonzero;stroke:none" />
      <path
         d="M 1426.3205,187.9068 C 1426.3205,197.48077 1420.5408,199.61322 1413.4007,199.61322 L 1383.2302,199.61322 C 1376.0828,199.61322 1370.3105,197.48077 1370.3105,187.9068 L 1370.3105,167.23673 C 1370.3105,157.66276 1376.0828,155.53766 1383.2302,155.53766 L 1413.4007,155.53766 C 1420.5408,155.53766 1426.3205,157.66276 1426.3205,167.23673 L 1426.3205,187.9068 z M 1362.8617,185.09784 C 1362.8617,199.00289 1367.5751,205.68702 1382.4655,205.68702 L 1414.1581,205.68702 C 1429.0485,205.68702 1433.762,199.00289 1433.762,185.09784 L 1433.762,170.05303 C 1433.762,156.14063 1429.0485,149.4565 1414.1581,149.4565 L 1382.4655,149.4565 C 1367.5751,149.4565 1362.8617,156.14063 1362.8617,170.05303 L 1362.8617,185.09784"
         id="path75"
         style="fill:#231f20;fill-opacity:1;fill-rule:evenodd;stroke:none" />
      <path
         d="M 1470.2784,205.08406 L 1477.7272,205.08406 L 1477.7272,156.14063 L 1505.5373,156.14063 L 1505.5373,150.06682 L 1442.4609,150.06682 L 1442.4609,156.14063 L 1470.2784,156.14063 L 1470.2784,205.08406"
         id="path77"
         style="fill:#231f20;fill-opacity:1;fill-rule:nonzero;stroke:none" />
      <path
         d="M 1515.876,150.06682 L 1523.3249,150.06682 L 1523.3249,205.08406 L 1515.876,205.08406 L 1515.876,150.06682 z"
         id="path79"
         style="fill:#231f20;fill-opacity:1;fill-rule:nonzero;stroke:none" />
      <path
         d="M 1564.4371,205.08406 L 1573.5552,205.08406 L 1604.0271,150.06682 L 1595.6665,150.06682 L 1568.9961,198.39257 L 1542.3258,150.06682 L 1533.9651,150.06682 L 1564.4371,205.08406"
         id="path81"
         style="fill:#231f20;fill-opacity:1;fill-rule:nonzero;stroke:none" />
      <path
         d="M 1614.4688,205.08406 L 1668.8022,205.08406 L 1668.8022,199.00289 L 1621.9103,199.00289 L 1621.9103,179.78142 L 1666.6771,179.78142 L 1666.6771,173.70026 L 1621.9103,173.70026 L 1621.9103,156.14063 L 1668.5007,156.14063 L 1668.5007,150.06682 L 1614.4688,150.06682 L 1614.4688,205.08406"
         id="path83"
         style="fill:#231f20;fill-opacity:1;fill-rule:nonzero;stroke:none" />
    </g>
  </g>
</svg>
