<svg xmlns="http://www.w3.org/2000/svg" width="63.5mm" height="16.9903mm" viewBox="0 0 180 48.1614">
  <title>Element 1</title>
  <g id="Ebene_2">
    <g id="Ebene_1-2">
      <g>
        <path d="M69.3465,44.8V38.0416a4.3889,4.3889,0,0,0-.175-1.3358,2.1348,2.1348,0,0,0-.49-.8582,1.83,1.83,0,0,0-.77-.46,3.3541,3.3541,0,0,0-.998-.1416,2.9468,2.9468,0,0,0-.98.1592,4.4217,4.4217,0,0,0-.8228.38,4.9106,4.9106,0,0,0-.6393.4511q-.2716.23-.4113.3539a1.63,1.63,0,0,0-.7879-1.0086,2.88,2.88,0,0,0-1.4357-.3361,2.9408,2.9408,0,0,0-1.0508.1858,4.8845,4.8845,0,0,0-.8577.4157,6.0676,6.0676,0,0,0-.7878.6017l-.35-1.0261H57.1954V44.8h1.9961V37.723a6.583,6.583,0,0,1,.63-.3715,4.3805,4.3805,0,0,1,.639-.2566,2.3705,2.3705,0,0,1,.7266-.1152,1.4127,1.4127,0,0,1,.7966.1948q.2889.1948.289.867V44.8h1.9959V37.723a7.4746,7.4746,0,0,1,.6566-.3715,4.79,4.79,0,0,1,.648-.2566,2.2632,2.2632,0,0,1,.6915-.1152,1.4135,1.4135,0,0,1,.7967.1948q.2888.1948.2887.867V44.8Zm6.7389-2.1055a3.3622,3.3622,0,0,1-.5253.3627,4.03,4.03,0,0,1-.5689.2478,2.0486,2.0486,0,0,1-.6917.115,2.27,2.27,0,0,1-.4989-.053.8533.8533,0,0,1-.4115-.2211,1.1733,1.1733,0,0,1-.28-.4689,2.4059,2.4059,0,0,1-.1052-.7786,2.221,2.221,0,0,1,.14-.8491,1.1484,1.1484,0,0,1,.4115-.5218,1.7937,1.7937,0,0,1,.6742-.2653,5.8416,5.8416,0,0,1,.9278-.0973l.928-.0178v2.5477ZM78.0814,44.8V38.2891a4.0421,4.0421,0,0,0-.2538-1.5657,2.2012,2.2012,0,0,0-.6917-.92,2.489,2.489,0,0,0-1.0241-.4423,6.41,6.41,0,0,0-1.2343-.115,8.0443,8.0443,0,0,0-1.1469.08q-.5514.08-.9717.177t-.928.2566v1.6454q.07-.0184.35-.1006t.674-.1743q.3939-.0915.8406-.165a5.2781,5.2781,0,0,1,.8491-.0732,5.2146,5.2146,0,0,1,.6478.0356,1.1936,1.1936,0,0,1,.4815.1606.79.79,0,0,1,.3064.3659,1.7167,1.7167,0,0,1,.105.6688v.8745H74.5271a6.872,6.872,0,0,0-1.173.1061,3.1465,3.1465,0,0,0-1.1381.4335,2.5686,2.5686,0,0,0-.8667.92,3.0829,3.0829,0,0,0-.3412,1.5479,3.792,3.792,0,0,0,.2626,1.5394,2.3977,2.3977,0,0,0,.6565.9021,2.0939,2.0939,0,0,0,.8665.4248,4.0839,4.0839,0,0,0,.8931.1061A2.9674,2.9674,0,0,0,74.7461,44.8a3.3527,3.3527,0,0,0,.77-.3981,3.9,3.9,0,0,0,.6214-.5751l.2278.9732Zm4.587-12.7384H80.6723V44.8h1.9961V32.0616ZM88.0963,44.8,84.98,39.3684l2.7664-3.9453H85.3824l-2.4162,4.0161L85.82,44.9769,88.0963,44.8Zm5.6707-5.3608H90.4578a4.0039,4.0039,0,0,1,.4553-2.1408,1.4874,1.4874,0,0,1,1.3131-.6368,1.2431,1.2431,0,0,1,1.1557.628,4.6505,4.6505,0,0,1,.3852,2.15Zm1.9434.6722a7.697,7.697,0,0,0-.2714-2.4857,3.734,3.734,0,0,0-.8228-1.4772,2.6311,2.6311,0,0,0-1.1469-.7167,4.3829,4.3829,0,0,0-1.2431-.1858,4.4336,4.4336,0,0,0-1.3393.2124,2.9447,2.9447,0,0,0-1.2169.7608,3.9532,3.9532,0,0,0-.8753,1.495,7.3277,7.3277,0,0,0-.3327,2.3972,7.286,7.286,0,0,0,.3764,2.5919,3.5848,3.5848,0,0,0,.9717,1.4687,2.943,2.943,0,0,0,1.3307.6546,7.1657,7.1657,0,0,0,1.4357.15,6.6533,6.6533,0,0,0,.9805-.0708q.4726-.071.8316-.1591t.7966-.23V42.8361q-.5059.1468-.8982.2478t-.8462.1745a5.3714,5.3714,0,0,1-.8548.0733,3.5849,3.5849,0,0,1-.68-.0713,1.5764,1.5764,0,0,1-.6893-.33,1.93,1.93,0,0,1-.54-.7659,3.6235,3.6235,0,0,1-.2182-1.3986h5.2353l.0173-.6546Zm7.2871.9465a2.4925,2.4925,0,0,0-.42-.7591,2.317,2.317,0,0,0-.6039-.5206,4.6575,4.6575,0,0,0-.7092-.3446l-.8929-.3354q-.2277-.0882-.4464-.1765a1.6828,1.6828,0,0,1-.394-.2206,1.0312,1.0312,0,0,1-.28-.3176.9813.9813,0,0,1-.105-.4857.8168.8168,0,0,1,.4027-.7854,2.2638,2.2638,0,0,1,1.0854-.2209,4.2954,4.2954,0,0,1,.6917.062q.376.0623.7.1326t.7616.1948V35.6574q-.35-.1253-.6654-.2055t-.7266-.143a5.8879,5.8879,0,0,0-.8841-.0627,5.1355,5.1355,0,0,0-1.2607.15,2.9783,2.9783,0,0,0-1.0418.4776,2.32,2.32,0,0,0-.709.8582,2.8473,2.8473,0,0,0-.2626,1.2739,2.6446,2.6446,0,0,0,.1926,1.0615,2.2966,2.2966,0,0,0,.49.7342,2.9643,2.9643,0,0,0,.63.4777,6.1107,6.1107,0,0,0,.63.31l.823.3361q.2626.1062.49.2033a1.3921,1.3921,0,0,1,.3852.239,1.0272,1.0272,0,0,1,.35.8316,1.1552,1.1552,0,0,1-.1313.5927.8735.8735,0,0,1-.35.336,1.6031,1.6031,0,0,1-.5077.1594,3.9818,3.9818,0,0,1-.6041.0442,3.7713,3.7713,0,0,1-.6654-.0708q-.3851-.0707-.7352-.1594t-.8406-.23V44.57q.42.1237.7618.2033t.7528.1416a5.467,5.467,0,0,0,.8142.062,7.8265,7.8265,0,0,0,1.2255-.0971,2.8918,2.8918,0,0,0,1.103-.4059,2.3062,2.3062,0,0,0,.7967-.8741,3.1515,3.1515,0,0,0,.3066-1.5,3.1019,3.1019,0,0,0-.1577-1.0415Zm8.194-5.6348h-1.9961V44.8h1.9961V35.4231Zm-.1137-3.5031a1.1815,1.1815,0,0,0-.8843-.3717,1.1534,1.1534,0,0,0-.8755.3717,1.3379,1.3379,0,0,0,0,1.8045,1.1531,1.1531,0,0,0,.8755.3715,1.1811,1.1811,0,0,0,.8843-.3715,1.3138,1.3138,0,0,0,0-1.8045Zm7.7054,12.703v-1.61q-.3675.1062-.6214.1591t-.5341.1062a2.5671,2.5671,0,0,1-.4552.0532.9912.9912,0,0,1-.5516-.1328q-.2014-.1325-.2014-.6458V36.8561H118.31l.21-1.433h-2.1011V32.5923l-1.8733.7254-.1226,2.1055h-1.5758v1.433h1.5758v5.6793a3.6571,3.6571,0,0,0,.175,1.2385,1.6355,1.6355,0,0,0,1.2255,1.1057,4.0432,4.0432,0,0,0,.9107.0973,5.7523,5.7523,0,0,0,1.0066-.0886,6.5586,6.5586,0,0,0,.753-.1679c.1689-.0532.2653-.0854.2887-.0974Zm14.1645.177V38.0416a4.0091,4.0091,0,0,0-.1926-1.3358,2.1259,2.1259,0,0,0-.5341-.8582,2.0249,2.0249,0,0,0-.8228-.46,3.7515,3.7515,0,0,0-1.0593-.1416,3.35,3.35,0,0,0-1.1382.1946,6.3831,6.3831,0,0,0-.9542.4247,6.9085,6.9085,0,0,0-.9019.6192v-4.423h-1.9958V44.8h1.9958V37.8114a6.89,6.89,0,0,1,.7794-.4156,7.9017,7.9017,0,0,1,.7527-.2832,2.5932,2.5932,0,0,1,.7967-.1328,1.8916,1.8916,0,0,1,.9455.1948q.3321.1948.3327.9024V44.8Zm6.7391-2.1055a3.3721,3.3721,0,0,1-.5252.3627,4.021,4.021,0,0,1-.5692.2478,2.0468,2.0468,0,0,1-.6915.115,2.2682,2.2682,0,0,1-.4989-.053.8521.8521,0,0,1-.4115-.2211,1.1713,1.1713,0,0,1-.28-.4689,2.4065,2.4065,0,0,1-.105-.7786,2.2156,2.2156,0,0,1,.14-.8491,1.1479,1.1479,0,0,1,.4112-.5218,1.7942,1.7942,0,0,1,.6742-.2653,5.8453,5.8453,0,0,1,.928-.0973l.928-.0178v2.5477ZM141.6826,44.8V38.2891a4.0369,4.0369,0,0,0-.2539-1.5657,2.2006,2.2006,0,0,0-.6915-.92,2.4889,2.4889,0,0,0-1.0244-.4423,6.4067,6.4067,0,0,0-1.2343-.115,8.0419,8.0419,0,0,0-1.1467.08q-.5517.08-.9719.177t-.9277.2566v1.6454q.07-.0184.35-.1006t.6741-.1743q.3939-.0915.84-.165a5.283,5.283,0,0,1,.8492-.0732,5.2113,5.2113,0,0,1,.6477.0356,1.1919,1.1919,0,0,1,.4816.1606.79.79,0,0,1,.3063.3659,1.7164,1.7164,0,0,1,.1052.6688v.8745h-1.5584a6.8756,6.8756,0,0,0-1.1731.1061,3.1451,3.1451,0,0,0-1.1379.4335,2.5646,2.5646,0,0,0-.8668.92,3.0807,3.0807,0,0,0-.3415,1.5479,3.7966,3.7966,0,0,0,.2626,1.5394,2.3973,2.3973,0,0,0,.6566.9021,2.0943,2.0943,0,0,0,.8667.4248,4.0815,4.0815,0,0,0,.8928.1061,2.9664,2.9664,0,0,0,1.0594-.1769,3.3491,3.3491,0,0,0,.77-.3981,3.9065,3.9065,0,0,0,.6217-.5751l.2275.9732Zm7.6688-2.937a2.7016,2.7016,0,0,1-.464,1.0263,1.3281,1.3281,0,0,1-.6478.46,2.4915,2.4915,0,0,1-.709.1061,3.882,3.882,0,0,1-.5253-.0354q-.2629-.0352-.49-.0884t-.3852-.1062c-.1052-.0354-.175-.0588-.21-.0708V37.4931a1.6386,1.6386,0,0,1,.2451-.186,3.4582,3.4582,0,0,1,.42-.23,3.2465,3.2465,0,0,1,.5429-.1946,2.3546,2.3546,0,0,1,.6127-.08,2.5538,2.5538,0,0,1,.7178.0971,1.0726,1.0726,0,0,1,.5692.4247,2.56,2.56,0,0,1,.3676.9732,9.2562,9.2562,0,0,1,.1313,1.76,7.4464,7.4464,0,0,1-.175,1.8045Zm1.83-4.4052a3.6932,3.6932,0,0,0-.8492-1.4421,2.3889,2.3889,0,0,0-1.1206-.628,5.0877,5.0877,0,0,0-1.1382-.1416,2.6173,2.6173,0,0,0-.8579.1328,3.4314,3.4314,0,0,0-.6739.3095,2.8049,2.8049,0,0,0-.4815.3627,3.8,3.8,0,0,0-.28.2919l-.3151-.92h-1.5406V48.1614H145.92V44.57a1.6447,1.6447,0,0,0,.21.1061,2.5648,2.5648,0,0,0,.3939.1326q.2365.0619.5253.1149a3.2328,3.2328,0,0,0,.5865.0532,5.5556,5.5556,0,0,0,.7178-.0532,3.6994,3.6994,0,0,0,.84-.2211,3.2163,3.2163,0,0,0,.8492-.4952,3.3144,3.3144,0,0,0,.7443-.8669,4.7706,4.7706,0,0,0,.534-1.3447,8.0933,8.0933,0,0,0,.2014-1.9373,7.9719,7.9719,0,0,0-.3414-2.6006Zm6.93,4.4052a2.7011,2.7011,0,0,1-.464,1.0263,1.3284,1.3284,0,0,1-.6478.46,2.4919,2.4919,0,0,1-.7091.1061,3.8824,3.8824,0,0,1-.5253-.0354q-.2629-.0352-.49-.0884t-.3852-.1062c-.105-.0354-.175-.0588-.21-.0708V37.4931a1.6346,1.6346,0,0,1,.2451-.186,3.457,3.457,0,0,1,.42-.23,3.2436,3.2436,0,0,1,.5429-.1946,2.3545,2.3545,0,0,1,.6127-.08,2.5539,2.5539,0,0,1,.7178.0971,1.0725,1.0725,0,0,1,.5692.4247,2.56,2.56,0,0,1,.3676.9732,9.2548,9.2548,0,0,1,.1313,1.76,7.4448,7.4448,0,0,1-.175,1.8045Zm1.83-4.4052a3.6923,3.6923,0,0,0-.8492-1.4421,2.3888,2.3888,0,0,0-1.1206-.628,5.0876,5.0876,0,0,0-1.1381-.1416,2.6174,2.6174,0,0,0-.8579.1328,3.43,3.43,0,0,0-.6739.3095,2.8017,2.8017,0,0,0-.4816.3627,3.7834,3.7834,0,0,0-.28.2919l-.3152-.92h-1.5406V48.1614h1.9959V44.57a1.66,1.66,0,0,0,.21.1061,2.5654,2.5654,0,0,0,.3939.1326q.2365.0619.5253.1149a3.2329,3.2329,0,0,0,.5865.0532,5.5554,5.5554,0,0,0,.7178-.0532,3.6993,3.6993,0,0,0,.84-.2211,3.216,3.216,0,0,0,.8491-.4952,3.3144,3.3144,0,0,0,.7443-.8669,4.7715,4.7715,0,0,0,.534-1.3447,8.0917,8.0917,0,0,0,.2014-1.9373,7.97,7.97,0,0,0-.3415-2.6006Zm7.4552,1.9814h-3.3093a4.0039,4.0039,0,0,1,.4553-2.1408,1.4875,1.4875,0,0,1,1.3131-.6368,1.2433,1.2433,0,0,1,1.1557.628,4.6506,4.6506,0,0,1,.3852,2.15Zm1.9434.6722a7.6974,7.6974,0,0,0-.2714-2.4857,3.7349,3.7349,0,0,0-.8228-1.4772,2.6312,2.6312,0,0,0-1.1469-.7167,4.3832,4.3832,0,0,0-1.2431-.1858,4.4332,4.4332,0,0,0-1.3393.2124,2.9445,2.9445,0,0,0-1.2169.7608,3.9491,3.9491,0,0,0-.8753,1.495,7.3273,7.3273,0,0,0-.3327,2.3972,7.2875,7.2875,0,0,0,.3763,2.5919,3.5854,3.5854,0,0,0,.9717,1.4687,2.9432,2.9432,0,0,0,1.3307.6546,7.1658,7.1658,0,0,0,1.4357.15,6.6544,6.6544,0,0,0,.98-.0708q.4727-.071.8316-.1591t.7966-.23V42.8361q-.5059.1468-.8985.2478t-.846.1745a5.3723,5.3723,0,0,1-.8548.0733,3.5847,3.5847,0,0,1-.68-.0713,1.5763,1.5763,0,0,1-.6892-.33,1.93,1.93,0,0,1-.54-.7659,3.6238,3.6238,0,0,1-.2182-1.3986h5.2353l.0173-.6546ZM178.4155,44.8V38.0416a4.0107,4.0107,0,0,0-.1926-1.3358,2.206,2.206,0,0,0-.5341-.867,1.895,1.895,0,0,0-.8228-.46,3.9742,3.9742,0,0,0-1.0593-.1328,3.5287,3.5287,0,0,0-1.1818.1946,5.7263,5.7263,0,0,0-.963.4335,7.7175,7.7175,0,0,0-.9019.628l-.35-1.0791h-1.5934V44.8h1.9959V37.7938q.4027-.2474.7266-.4068a4.7209,4.7209,0,0,1,.7442-.2832,3.0228,3.0228,0,0,1,.8579-.124,3.3411,3.3411,0,0,1,.5077.0354,1.0111,1.0111,0,0,1,.4028.1506.7516.7516,0,0,1,.2714.3273,1.4463,1.4463,0,0,1,.0964.5839V44.8Z" fill="#004996"/>
        <path d="M180,0H149.2207L164.61,27.2775,180,0ZM165.8451,18.8838l.0339-9.0927,7.6622-4.3854-7.6961,13.4782ZM155.691,5.4056l7.6622,4.3854.0322,9.0927L155.691,5.4056Zm16.7273-2.0274L164.61,7.89l-7.5819-4.5118Z" fill="#004996"/>
        <path d="M13.61,13.341a4.9112,4.9112,0,0,0,4.6807-4.9593V5.0036A4.9278,4.9278,0,0,0,13.4972.0456H0V27.3231l14.1658-.0117a4.8955,4.8955,0,0,0,4.5662-4.9592V18.2994A4.997,4.997,0,0,0,13.61,13.341Zm-1.3483-2.0271H6.0168v-6.31h6.2449v6.31Zm.4528,11.05H6.0168V15.596h6.6976v6.7676Z" fill="#004996"/>
        <path d="M139.4566,13.2954a4.9106,4.9106,0,0,0,4.6808-4.9585V4.9586A4.9285,4.9285,0,0,0,139.3439,0h-13.498V27.2773h6.0178V15.55h6.6973V27.2773h6.0176V18.2537a4.9975,4.9975,0,0,0-5.1221-4.9582Zm-1.3483-2.0274h-6.2448V4.9589h6.2448v6.3092Z" fill="#004996"/>
        <path d="M98.3476,27.2837A4.95,4.95,0,0,1,93.44,22.326V.0074h6.472V22.326h6.4589v4.9577Z" fill="#004996"/>
        <polygon points="63.35 27.277 63.35 4.5 57.775 4.5 57.775 0 75.396 0 75.396 4.5 69.821 4.5 69.821 27.277 63.35 27.277 63.35 27.277" fill="#004996"/>
        <path d="M37.9461,4.9789A4.95,4.95,0,0,1,42.8531.02h8.93A4.95,4.95,0,0,1,56.69,4.9789V27.2967H50.6613V4.5208H43.9751v22.776h-6.029V4.9789Z" fill="#004996"/>
        <path d="M25.6862,27.2755a4.95,4.95,0,0,1-4.907-4.9578V4.9685A4.95,4.95,0,0,1,25.6862.01H36.1687V4.9685H26.796v6.31h8.2509v4.2832H26.796v6.7676h9.3727V27.287l-10.4825-.0115Z" fill="#004996"/>
        <path d="M81.4317,27.2755a4.95,4.95,0,0,1-4.907-4.9578V4.9685A4.95,4.95,0,0,1,81.4317.01H91.9142V4.9685h-9.372v6.31h8.2509v4.2832H82.5423v6.7676h9.372V27.287l-10.4825-.0115Z" fill="#004996"/>
        <path d="M113.3337,27.2755a4.95,4.95,0,0,1-4.9079-4.9578V4.9685A4.95,4.95,0,0,1,113.3337.01h10.4826V4.9685h-9.3729v6.31h8.25v4.2832h-8.25v6.7676h9.3729V27.287l-10.4826-.0115Z" fill="#004996"/>
      </g>
    </g>
  </g>
</svg>