<?xml version="1.0" encoding="utf-8"?>
<!-- Generator: Adobe Illustrator 16.0.0, SVG Export Plug-In . SVG Version: 6.00 Build 0)  -->
<!DOCTYPE svg PUBLIC "-//W3C//DTD SVG 1.1//EN" "http://www.w3.org/Graphics/SVG/1.1/DTD/svg11.dtd">
<svg version="1.1" xmlns="http://www.w3.org/2000/svg" xmlns:xlink="http://www.w3.org/1999/xlink" x="0px" y="0px" width="95px"
	 height="34.571px" viewBox="0 0 95 34.571" enable-background="new 0 0 95 34.571" xml:space="preserve">
<g id="Vrstva_1">
</g>
<g id="Pracovní_plocha">
</g>
<g id="Vodicí_linky">
</g>
<g id="Mřížka" display="none">
</g>
<g id="Page_1">
	<g id="Vrstva_1_1_">
		<g>
			<polygon fill-rule="evenodd" clip-rule="evenodd" points="1.162,28.991 82.718,28.991 81.556,34.571 0,34.571 1.162,28.991 
				1.162,28.991 1.162,28.991 			"/>
			<path fill-rule="evenodd" clip-rule="evenodd" fill="#0073BD" d="M13.959,16.137h0.4l0,0l1.97-0.039l0.633,0.157l0.561,0.51
				l0.499,0.431l0.127,0.706l-0.179,0.863l-0.229,1.099l-0.815,0.902l-1.093,0.354l-0.59,0.196H14.89h-2.471l0,0l0.765-3.675
				l-9.406-1.166L1.609,26.884h9.963h3.138l0,0h2.746l2.859-0.353l1.526-0.549l2.727-0.957l2.087-1.784l0.909-2.502l0,0
				l-1.331,6.145h20.357l0.705-3.479l0,0l1.096,2.75l3.323,1.401h5.336h4.825l3.106-0.789l2.714-1.922l2.21-1.569l1.319-2
				l0.564-2.707l0.522-2.51l-0.455-1.961l-1.417-1.294l-1.263-1.099l-1.688-0.745l-3.389-0.863l-1.519-0.432l-1.15-0.314
				l-0.228-0.039l-0.446-0.118l-0.399-0.157L60.14,8.959l-0.68-0.314l-0.232-0.392l0.13-0.628l0.213-1.02l1.08-0.667h1.373h1.529
				l0.392,0.915l0.21,0.789l0,0l29.482-0.021L95,0.722H71.7l-0.277,1.407l0,0l-1.567-1.391l-2.503-0.632l-3.475-0.051L60.112,0
				l-2.9,0.604l-2.45,1.216l-1.709,0.831l-1.449,1.365L50.63,5.634l0,0l1.058-4.912H31.683L30.385,6.95h10.559v0.012h9.019l0,0
				l-0.365,0.894L49.362,8.82l-0.037,0.967l0,0h-9.532l0.279-1.342l-9.747-1.208l-1.913,9.182h9.998l0.001-0.002h9.963l1.065-5.115
				l0,0l0.174,0.86l0.359,0.777l0.533,0.648l0.762,0.863L52.174,15l1.822,0.667l0.986,0.353l2.145,0.628l1.776,0.509l2.529,0.667
				l0.709,0.549l-0.221,1.06l-0.27,1.295l-1.255,0.941h-1.452h-1.726l-0.752-0.437l0.392-1.882l0,0l-19.051-0.03l0.292-1.4
				l-9.747-1.209l-0.323,1.794l0,0l0.298-3.333l-2.116-1.491l-3.033-0.523l3.716-0.706l1.984-1.804l0.678-3.255l0.294-1.413
				l-0.183-1.569L29.065,3.35l-0.781-1.333L27.02,1.31l-2.123-0.354l-1.214-0.196l-0.737-0.039h-3.138l0,0H7.059L5.885,6.353h9.65
				l0.005-0.022l0,0h1.726h0.392l0.455,0.079l1.214,0.196l0.534,0.824l-0.27,1.294l-0.163,0.784l-0.508,0.746l-0.623,0.353
				l-0.63,0.393l-0.691,0.118h-1.687l0,0h-0.745l0.679-3.26L5.815,6.688l-1.967,9.444h10.111V16.137L13.959,16.137L13.959,16.137
				L13.959,16.137z M76.777,7.961l-4.015,18.923h10.395l3.753-17.685L76.777,7.961L76.777,7.961L76.777,7.961L76.777,7.961z"/>
			<path fill-rule="evenodd" clip-rule="evenodd" fill="#FFFFFF" d="M5.033,30.058l-0.188,0.907h1.016l-0.528,2.534h1.126
				l0.527-2.534h1.006l0.189-0.907H5.033L5.033,30.058L5.033,30.058L5.033,30.058z M14.631,30.86h0.539l0,0h0.234l0.181,0.114
				l-0.048,0.234l-0.035,0.167L15.4,31.542h-0.438l0,0h-0.473L14.631,30.86L14.631,30.86L14.631,30.86L14.631,30.86z M13.672,30.058
				l-0.716,3.44h1.126l0.25-1.203l0,0h0.058h0.052h0.057h0.215l0.203,0.009l0.138,0.048l0.309,0.119l-0.318,0.587l0.042,0.439l0,0
				h1.135l0.021-0.101l0,0h-0.091l-0.009-0.095l0.051-0.243l0,0l0.056-0.267l0,0l0.15-0.72l-0.222-0.057l-0.314-0.139l0.332-0.082
				l0.319-0.272l0.101-0.486l0.106-0.511l-0.089-0.468h-1.297l0,0H13.672L13.672,30.058L13.672,30.058L13.672,30.058z
				 M23.422,30.058l-1.947,3.44h1.098l0.229-0.458h1.116l0.042,0.458h1.121l-0.514-3.44H23.422L23.422,30.058L23.422,30.058
				L23.422,30.058z M23.161,32.325l0.604-1.231l0.106,1.231H23.161L23.161,32.325L23.161,32.325L23.161,32.325z M31.212,30.058
				l-0.716,3.44h1.083l0.227-1.092l0.125-0.783l0.831,1.875h1.063l0.717-3.44h-1.083l-0.231,1.112l-0.121,0.763l-0.831-1.875H31.212
				L31.212,30.058L31.212,30.058L31.212,30.058z M41.818,31.056h1.073l0,0l0.053-0.83l-0.609-0.258h-0.683h-0.958l-0.624,0.453
				l-0.133,0.592l-0.166,0.796l0.556,0.196l0.67,0.172l0.352,0.095l0.285,0.076l-0.046,0.219l-0.055,0.177l-0.244,0.047l-0.188,0.01
				h-0.186l-0.277-0.067l0.01-0.3l0,0h-1.083l0,0l-0.108,0.702l0.568,0.458h0.83h0.792l0.862-0.292l0.19-0.887l0.126-0.606
				l-0.359-0.267l-0.72-0.186l-0.335-0.086l-0.433-0.071l0.053-0.252l0.038-0.139l0.163-0.048h0.186h0.257l0.158,0.091
				L41.818,31.056L41.818,31.056L41.818,31.056L41.818,31.056L41.818,31.056z M48.67,30.058l-0.716,3.44h1.126l0.224-1.074h0.577
				l0,0h1.092l0.431-0.558l0.134-0.597l0.16-0.772l-0.385-0.439h-0.997l0,0H48.67L48.67,30.058L48.67,30.058L48.67,30.058z
				 M49.629,30.86h0.334l0,0h0.468l0.082,0.176l-0.039,0.186l-0.064,0.31l-0.234,0.091h-0.219l0,0h-0.486L49.629,30.86L49.629,30.86
				L49.629,30.86L49.629,30.86z M58.897,29.968l-1.225,0.02l-0.729,0.82l-0.214,0.94l-0.182,0.873l0.267,0.964l1.338,0.009h1.183
				l0.794-0.86l0.208-0.996l0.167-0.897l-0.371-0.873H58.897L58.897,29.968L58.897,29.968L58.897,29.968L58.897,29.968z
				 M58.723,30.808l0.495,0.004l0.091,0.458l-0.114,0.549l-0.109,0.477l-0.255,0.449l-0.503,0.009h-0.42l-0.183-0.338l0.124-0.639
				l0.134-0.645l0.339-0.324H58.723L58.723,30.808L58.723,30.808L58.723,30.808L58.723,30.808z M67.16,30.86h0.539l0,0h0.234
				l0.181,0.114l-0.048,0.234l-0.035,0.167l-0.102,0.167H67.49l0,0h-0.472L67.16,30.86L67.16,30.86L67.16,30.86L67.16,30.86z
				 M66.201,30.058l-0.716,3.44h1.126l0.25-1.203l0,0h0.057h0.052h0.058h0.214l0.203,0.009l0.138,0.048l0.31,0.119l-0.318,0.587
				l0.042,0.439l0,0h1.135l0.021-0.101l0,0h-0.09l-0.009-0.095l0.05-0.243l0,0l0.056-0.267l0,0l0.15-0.72l-0.221-0.057l-0.315-0.139
				l0.332-0.082l0.319-0.272l0.101-0.486l0.106-0.511l-0.089-0.468h-1.297l0,0H66.201L66.201,30.058L66.201,30.058L66.201,30.058z
				 M74.724,30.058l-0.188,0.907h1.016l-0.528,2.534h1.126l0.527-2.534h1.006l0.189-0.907H74.724L74.724,30.058L74.724,30.058
				L74.724,30.058z"/>
			<g>
				<path fill-rule="evenodd" clip-rule="evenodd" fill="#0073BD" d="M85.79,30.419l-0.068,0.327l0,0l-0.047,0.229l-0.012,0.029
					l-0.047,0.092l-0.069,0.109l-0.106,0.069h-0.109h-0.155l-0.041-0.109l0.055-0.264l0.08-0.384l0.095-0.098h0.305l0,0H85.79
					L85.79,30.419L85.79,30.419z M85.458,29.805l0.04-0.167l0.006-0.029l0.029-0.057l0.043-0.097l0.08-0.053h0.109h0.098
					l0.072,0.041l0.014,0.068l0.012,0.052l-0.01,0.074l-0.034,0.167l0,0l-0.045,0.218l0,0h-0.104l-0.086-0.006h-0.045h-0.749
					l-0.294,0.236l-0.147,0.711l-0.104,0.504l0.141,0.252h0.399h0.263l0.191-0.092l0.251-0.246l0,0l-0.05,0.297h0.751l0,0
					l0.02-0.263l0.002-0.011l0.064-0.309l0,0l0.223-1.073l0,0l0.099-0.477l-0.002-0.155l-0.096-0.149l-0.105-0.155l-0.257-0.085
					h-0.374h-0.332l-0.308,0.08l-0.182,0.132l-0.161,0.12l-0.058,0.115l-0.085,0.356l0,0H85.458L85.458,29.805L85.458,29.805z"/>
				<polygon fill-rule="evenodd" clip-rule="evenodd" fill="#0073BD" points="87.779,31.676 87.138,31.676 87.28,30.991 
					87.92,30.991 87.779,31.676 87.779,31.676 				"/>
				<polygon fill-rule="evenodd" clip-rule="evenodd" fill="#0073BD" points="89.974,29.822 89.984,29.771 89.987,29.73 
					89.993,29.702 90.036,29.495 89.985,29.403 89.829,29.403 89.69,29.403 89.585,29.49 89.557,29.628 89.533,29.742 
					89.569,29.822 89.669,29.897 89.734,29.943 89.725,29.937 89.942,30.058 90.458,30.35 90.588,30.545 90.511,30.918 
					90.455,31.188 90.279,31.434 90.04,31.571 89.877,31.668 89.638,31.72 89.367,31.72 88.713,31.72 88.455,31.451 88.574,30.877 
					88.574,30.877 88.587,30.815 89.294,30.815 89.294,30.815 89.289,30.867 89.281,30.907 89.276,30.93 89.229,31.182 
					89.274,31.274 89.453,31.274 89.604,31.274 89.731,31.159 89.766,30.993 89.811,30.775 89.771,30.74 89.198,30.425 
					88.854,30.241 88.74,30.046 88.803,29.742 88.901,29.271 89.316,29.003 89.947,29.003 90.292,29.003 90.515,29.083 
					90.634,29.249 90.726,29.386 90.736,29.529 90.675,29.822 90.675,29.822 89.974,29.822 89.974,29.822 				"/>
				<polygon fill-rule="evenodd" clip-rule="evenodd" fill="#0073BD" points="91.673,31.676 91.033,31.676 91.175,30.991 
					91.815,30.991 91.673,31.676 91.673,31.676 				"/>
			</g>
		</g>
	</g>
</g>
</svg>
