<?xml version="1.0" encoding="UTF-8"?>
<svg width="235px" height="44px" viewBox="0 0 235 44" version="1.1" xmlns="http://www.w3.org/2000/svg" xmlns:xlink="http://www.w3.org/1999/xlink">
    <!-- Generator: Sketch 59.1 (86144) - https://sketch.com -->
    <title>Group</title>
    <desc>Created with Sketch.</desc>
    <g id="Symbols" stroke="none" stroke-width="1" fill="none" fill-rule="evenodd">
        <g id="nav-white" transform="translate(1.000000, 0.000000)" fill="#009FE3">
            <g id="Group" transform="translate(-1.000000, 0.000000)">
                <g id="logo-white" transform="translate(1.000000, 0.000000)">
                    <path d="M66.797181,19.09908 C66.797181,20.52567 65.634921,21.68991 64.215261,21.68991 L56.409111,21.68991 C54.991431,21.68991 53.831151,20.52567 53.831151,19.09908 L53.831151,13.70061 C53.831151,12.27501 54.991431,11.1078 56.409111,11.1078 L64.215261,11.1078 C65.634921,11.1078 66.797181,12.27501 66.797181,13.70061 L66.797181,19.09908 Z M66.006171,6.99732 L54.589491,6.99732 C51.754131,6.99732 49.433571,9.32778 49.433571,12.177 L49.433571,20.39598 C49.433571,23.24421 51.754131,25.57368 54.589491,25.57368 L66.006171,25.57368 C68.840541,25.57368 71.164071,23.24421 71.164071,20.39598 L71.164071,12.177 C71.164071,9.32778 68.840541,6.99732 66.006171,6.99732 L66.006171,6.99732 Z" id="Fill-1"></path>
                    <path d="M106.632108,11.107998 L116.425188,11.107998 C117.457758,11.107998 117.592398,11.838618 117.592398,11.838618 L122.143428,11.838618 C122.143428,11.838618 121.629618,6.996528 117.592398,6.996528 L106.064838,6.996528 C105.584688,6.996528 100.989108,6.617358 100.989108,12.373218 C100.989108,18.131058 105.384708,18.185508 105.384708,18.185508 L115.738128,18.185508 C116.305398,18.185508 117.592398,18.416178 117.592398,19.909098 C117.592398,21.404988 116.478648,21.690108 115.787628,21.690108 L106.129188,21.690108 C105.462918,21.690108 105.384708,20.596158 105.384708,20.596158 L100.989108,20.596158 C100.989108,25.439238 104.987718,25.573878 105.696558,25.573878 L118.044828,25.573878 C118.623978,25.573878 122.143428,25.343208 122.143428,19.757628 C122.143428,14.170068 117.592398,14.231448 117.592398,14.231448 L106.894458,14.231448 C106.025238,14.231448 105.462918,13.649328 105.384708,12.754368 C105.384708,11.714868 105.973758,11.107998 106.632108,11.107998" id="Fill-3"></path>
                    <path d="M145.341207,21.005127 C145.341207,21.005127 145.280817,21.690207 144.321507,21.690207 L140.105097,21.690207 L140.105097,6.996627 L135.938187,6.996627 L135.938187,21.690207 L131.439627,21.690207 C131.014917,21.690207 130.630797,21.158577 130.630797,20.293317 L130.630797,6.996627 L126.006507,6.996627 L126.006507,20.973447 C126.006507,22.217877 127.617237,25.572987 130.630797,25.572987 L145.846107,25.572987 C147.846897,25.572987 149.707107,22.905927 149.707107,21.158577 L149.707107,6.996627 L145.341207,6.996627 L145.341207,21.005127 Z" id="Fill-6"></path>
                    <path d="M192.522825,14.455584 L183.101985,14.455584 L183.101985,11.107404 L192.974265,11.107404 C193.677165,11.107404 194.710725,11.373714 194.710725,12.728034 C194.710725,14.022954 193.466295,14.455584 192.522825,14.455584 M196.044255,16.281144 L196.477875,16.130664 C196.477875,16.130664 198.980595,15.216894 198.980595,11.944944 C198.980595,10.727244 198.206415,6.996924 194.157315,6.996924 L178.586595,6.996924 L178.586595,25.573284 L183.129705,25.573284 L183.090105,18.416574 L192.700035,18.416574 C193.581135,18.416574 194.523615,18.669024 194.523615,20.493594 L194.523615,25.573284 L199.021185,25.573284 L199.021185,19.348164 C199.021185,16.372224 196.044255,16.281144 196.044255,16.281144" id="Fill-8"></path>
                    <path d="M38.711772,14.455584 L29.288952,14.455584 L29.288952,11.107404 L39.159252,11.107404 C39.863142,11.107404 40.896702,11.373714 40.896702,12.728034 C40.896702,14.022954 39.654252,14.455584 38.711772,14.455584 M42.232212,16.281144 L42.664842,16.130664 C42.664842,16.130664 45.168552,15.216894 45.168552,11.944944 C45.168552,10.727244 44.394372,6.996924 40.344282,6.996924 L24.772572,6.996924 L24.772572,25.573284 L29.315682,25.573284 L29.278062,18.416574 L38.887002,18.416574 C39.768102,18.416574 40.711572,18.669024 40.711572,20.493594 L40.711572,25.573284 L45.208152,25.573284 L45.208152,19.348164 C45.208152,16.372224 42.232212,16.281144 42.232212,16.281144" id="Fill-10"></path>
                    <path d="M220.021956,14.455584 L215.744166,14.455584 C215.744166,14.455584 220.249656,12.174624 222.902856,10.803474 C225.552096,9.434304 225.071946,6.996924 225.071946,6.996924 L220.445676,6.996924 C220.445676,6.996924 220.369446,7.479054 219.341826,8.064144 C218.313216,8.648244 208.162746,14.455584 208.162746,14.455584 L208.162746,6.996924 L203.641416,6.996924 L203.641416,25.573284 L208.162746,25.573284 L208.162746,18.416574 L218.397366,18.416574 C219.035916,18.416574 220.021956,18.798714 220.021956,19.378854 L220.021956,25.573284 L224.570016,25.573284 L224.570016,18.416574 C224.570016,16.512804 222.370236,14.455584 220.021956,14.455584" id="Fill-12"></path>
                    <path d="M91.890414,21.357963 C90.280674,21.357963 89.005554,18.327573 88.737264,17.734563 C88.329384,16.831683 86.271174,12.620223 85.511844,10.975833 C84.757464,9.354213 82.977444,6.997023 79.989624,6.997023 L75.437604,6.997023 L75.437604,25.573383 L79.989624,25.573383 L79.989624,11.461923 C80.726184,11.461923 81.808254,12.912273 82.555704,14.501223 C83.305134,16.091163 85.047534,19.625463 85.863294,21.108483 C86.459274,22.194513 88.025454,25.573383 91.890414,25.573383 L96.287994,25.573383 L96.287994,6.997023 L91.890414,6.997023 L91.890414,21.357963 Z" id="Fill-14"></path>
                    <path d="M153.636813,12.176307 L153.636813,20.395287 C153.636813,23.243517 155.950443,25.572987 158.792733,25.572987 L173.849643,25.572987 L173.849643,21.690207 L159.384753,21.690207 C158.194773,21.690207 158.150223,20.565567 158.150223,20.565567 L158.150223,18.416277 L173.849643,18.416277 L173.849643,14.455287 L158.150223,14.455287 L158.150223,12.498057 C158.150223,12.498057 158.150223,11.108097 159.235263,11.108097 L173.849643,11.108097 L173.849643,6.996627 L158.792733,6.996627 C155.950443,6.996627 153.636813,9.328077 153.636813,12.176307" id="Fill-16"></path>
                    <path d="M230.483583,2.188791 L229.847013,2.188791 L229.847013,3.326301 L230.483583,3.326301 C230.849883,3.326301 231.100353,3.075831 231.100353,2.758041 C231.100353,2.439261 230.849883,2.188791 230.483583,2.188791 L230.483583,2.188791 Z M231.100353,5.371641 L230.329143,3.876741 L229.847013,3.876741 L229.847013,5.371641 L229.153023,5.371641 L229.153023,1.600731 L230.569713,1.600731 C231.284493,1.600731 231.785433,2.131371 231.785433,2.758041 C231.785433,3.288681 231.457743,3.635181 231.042933,3.779721 L231.881463,5.371641 L231.100353,5.371641 Z M230.367753,0.645381 C228.805533,0.645381 227.571003,1.899711 227.571003,3.490641 C227.571003,5.081571 228.805533,6.334911 230.367753,6.334911 C231.929973,6.334911 233.154603,5.081571 233.154603,3.490641 C233.154603,1.899711 231.929973,0.645381 230.367753,0.645381 L230.367753,0.645381 Z M230.367753,6.981381 C228.439233,6.981381 226.877013,5.419161 226.877013,3.490641 C226.877013,1.562121 228.439233,-9.9e-05 230.367753,-9.9e-05 C232.296273,-9.9e-05 233.858493,1.562121 233.858493,3.490641 C233.858493,5.419161 232.296273,6.981381 230.367753,6.981381 L230.367753,6.981381 Z" id="Fill-20"></path>
                    <path d="M14.046318,14.455584 L4.625478,14.455584 L4.625478,11.107404 L14.493798,11.107404 C15.197688,11.107404 16.231248,11.373714 16.231248,12.728034 C16.231248,14.022954 14.989788,14.455584 14.046318,14.455584 M14.046318,22.039974 L4.625478,22.039974 L4.625478,18.692784 L14.493798,18.692784 C15.197688,18.692784 16.231248,18.957114 16.231248,20.312424 C16.231248,21.606354 14.989788,22.039974 14.046318,22.039974 M17.891478,16.130664 C17.891478,16.130664 20.394198,15.216894 20.394198,11.944944 C20.394198,10.727244 20.093238,6.996924 16.046118,6.996924 L0.000198,6.996924 L0.000198,25.573284 L17.938998,25.573284 C17.938998,25.573284 20.925828,24.885234 20.925828,20.699514 C20.925828,16.512804 17.891478,16.130664 17.891478,16.130664" id="Fill-18"></path>
                </g>
                <path d="M2.912,33.34 L0.952,33.34 L0.952,43 L2.912,43 L2.912,38.828 L6.258,38.828 L6.258,43 L8.218,43 L8.218,33.34 L6.258,33.34 L6.258,37.176 L2.912,37.176 L2.912,33.34 Z M20.636,33.34 L20.636,43 L26.656,43 L26.656,41.348 L22.596,41.348 L22.596,38.828 L26.236,38.828 L26.236,37.176 L22.596,37.176 L22.596,35.006 L26.656,35.006 L26.656,33.34 L20.636,33.34 Z M39.606,43 L40.194,41.166 L43.428,41.166 L44.016,43 L46.102,43 L42.742,33.34 L40.866,33.34 L37.506,43 L39.606,43 Z M41.804,36.112 L42.896,39.514 L40.712,39.514 L41.804,36.112 Z M56.154,33.34 L56.154,35.006 L58.814,35.006 L58.814,43 L60.774,43 L60.774,35.006 L63.434,35.006 L63.434,33.34 L56.154,33.34 Z M88.158,33.34 L88.158,35.006 L90.818,35.006 L90.818,43 L92.778,43 L92.778,35.006 L95.438,35.006 L95.438,33.34 L88.158,33.34 Z M114.422,43 L112.42,38.884 C113.47,38.45 114.072,37.596 114.072,36.294 C114.072,34.334 112.686,33.34 110.46,33.34 L107.002,33.34 L107.002,43 L108.962,43 L108.962,39.206 L110.53,39.206 L112.266,43 L114.422,43 Z M108.962,37.554 L108.962,35.006 L110.278,35.006 C111.44,35.006 112.112,35.286 112.112,36.294 C112.112,37.302 111.44,37.554 110.278,37.554 L108.962,37.554 Z M127.33,43 L127.918,41.166 L131.152,41.166 L131.74,43 L133.826,43 L130.466,33.34 L128.59,33.34 L125.23,43 L127.33,43 Z M129.528,36.112 L130.62,39.514 L128.436,39.514 L129.528,36.112 Z M150.64,33.34 L150.64,39.402 L146.86,33.34 L145.236,33.34 L145.236,43 L147.098,43 L147.098,37.022 L150.864,43 L152.502,43 L152.502,33.34 L150.64,33.34 Z M171.416,34.796 C170.73,33.732 169.568,33.214 168.028,33.214 C165.732,33.214 164.724,34.404 164.724,35.93 C164.724,37.526 165.676,38.436 167.58,38.94 C169.148,39.346 169.554,39.724 169.554,40.396 C169.554,40.984 169.176,41.474 168.056,41.474 C167.062,41.474 166.474,41.152 165.956,40.508 L164.458,41.544 C165.312,42.664 166.488,43.126 168.182,43.126 C170.45,43.126 171.514,41.894 171.514,40.312 C171.514,38.6696923 170.672654,37.9075621 168.815718,37.403312 L168.588,37.344 C167.3,37.022 166.684,36.686 166.684,35.93 C166.684,35.272 167.16,34.866 168.042,34.866 C169.022,34.866 169.526,35.188 169.946,35.846 L171.416,34.796 Z M183.47,33.34 L183.47,43 L185.43,43 L185.43,39.052 L189.07,39.052 L189.07,37.4 L185.43,37.4 L185.43,35.006 L189.49,35.006 L189.49,33.34 L183.47,33.34 Z M201.264,33.34 L201.264,43 L207.284,43 L207.284,41.348 L203.224,41.348 L203.224,38.828 L206.864,38.828 L206.864,37.176 L203.224,37.176 L203.224,35.006 L207.284,35.006 L207.284,33.34 L201.264,33.34 Z M226.562,43 L224.56,38.884 C225.61,38.45 226.212,37.596 226.212,36.294 C226.212,34.334 224.826,33.34 222.6,33.34 L219.142,33.34 L219.142,43 L221.102,43 L221.102,39.206 L222.67,39.206 L224.406,43 L226.562,43 Z M221.102,37.554 L221.102,35.006 L222.418,35.006 C223.58,35.006 224.252,35.286 224.252,36.294 C224.252,37.302 223.58,37.554 222.418,37.554 L221.102,37.554 Z" id="HEATTRANSFER" fill-rule="nonzero"></path>
            </g>
        </g>
    </g>
</svg>