<svg width="300" height="112" viewBox="0 0 300 112" fill="none" xmlns="http://www.w3.org/2000/svg">
<path d="M85.1697 52.4821C85.6265 51.3037 85.8812 50.0288 85.8812 48.6927C85.8812 42.9362 81.2257 38.2442 75.4722 38.1654C75.1823 32.6104 70.5795 28.1988 64.9402 28.1988C61.7867 28.1988 58.9626 29.5788 57.0302 31.7649C55.0977 29.5788 52.2692 28.1988 49.1202 28.1988C43.5072 28.1988 38.9176 32.571 38.5926 38.0909V25.2593H25.6449V38.1698H38.4344C32.7468 38.3275 28.1703 42.9844 28.1703 48.6927C28.1703 50.0288 28.4251 51.3081 28.8818 52.4821C26.8044 54.4054 25.5 57.1522 25.5 60.2013C25.5 66.0103 30.239 70.733 36.0584 70.733H47.5039L51.8213 75.0394V85.4571H62.2215V75.0832L66.5872 70.7286H77.9888C83.8126 70.7286 88.5472 66.006 88.5472 60.1969C88.5472 57.1522 87.2427 54.4054 85.1653 52.4778L85.1697 52.4821ZM57.0258 56.5651H51.5094V51.0715H38.5794V38.161H51.5226V51.0627H57.0214V56.5651H57.0258Z" fill="#FF5539"/>
<path d="M146.122 57.0295V56.9507C147.22 56.5082 148.16 55.8423 148.946 54.9574C149.728 54.0724 150.303 53.0999 150.672 52.0441C151.036 50.9883 151.291 49.9982 151.436 49.0738C151.581 48.1494 151.651 47.2295 151.651 46.3182C151.651 41.2101 149.842 37.1227 146.223 34.0605C142.604 30.9982 137.896 29.4649 132.094 29.4649H101.561V85.4528H133.35C139.204 85.4528 143.935 83.9676 147.54 80.9974C151.146 78.0271 152.951 74.0142 152.951 68.9543C152.951 66.1943 152.323 63.6841 151.072 61.4279C149.815 59.1718 148.173 57.7086 146.135 57.0295H146.122ZM115.707 41.6657H131.035C133.047 41.6657 134.624 42.1608 135.757 43.1508C136.894 44.1409 137.461 45.407 137.461 46.9447C137.461 48.4824 136.899 49.8142 135.774 50.778C134.65 51.7418 133.069 52.2237 131.031 52.2237H115.703V41.6701L115.707 41.6657ZM137.127 71.9859C136.042 72.9628 134.443 73.4535 132.327 73.4535H115.707V62.7816H132.327C134.47 62.7816 136.077 63.2591 137.149 64.2098C138.221 65.1605 138.756 66.4572 138.756 68.1C138.756 69.7429 138.212 71.0133 137.131 71.9903L137.127 71.9859Z" fill="#002870"/>
<path d="M190.336 65.8263C190.336 68.6389 189.682 70.8425 188.377 72.4327C187.068 74.023 185.07 74.8159 182.382 74.8159C179.694 74.8159 177.823 74.023 176.462 72.4327C175.105 70.8425 174.424 68.6389 174.424 65.8263V45.81H160.312V65.8263C160.312 73.0461 162.065 78.3382 165.565 81.6983C169.066 85.0629 174.67 86.7407 182.382 86.7407C190.095 86.7407 195.339 85.0541 198.984 81.6764C202.629 78.3031 204.452 73.1468 204.452 66.2119V45.8013H190.34V65.8176L190.336 65.8263Z" fill="#002870"/>
<path d="M228.766 72.7263C227.866 71.9333 227.413 70.7023 227.413 69.0332V29.4649H213.267V68.7177C213.267 72.0779 213.623 74.8685 214.343 77.0852C215.063 79.302 216.205 81.0149 217.773 82.2284C219.341 83.4419 221.15 84.2787 223.202 84.7518C225.253 85.2206 227.804 85.4571 230.866 85.4571H241.371V73.9222H233.022C231.09 73.9222 229.671 73.5236 228.771 72.7306L228.766 72.7263Z" fill="#002870"/>
<path d="M266.146 73.9179C264.214 73.9179 262.795 73.5192 261.895 72.7263C260.995 71.9333 260.542 70.7023 260.542 69.0332V29.4649H246.391V68.7177C246.391 72.0779 246.751 74.8685 247.472 77.0852C248.192 79.302 249.334 81.0149 250.902 82.2284C252.47 83.4419 254.279 84.2787 256.33 84.7518C258.381 85.2206 260.933 85.4571 263.994 85.4571H274.5V73.9222H266.151L266.146 73.9179Z" fill="#002870"/>
</svg>
