<svg xmlns="http://www.w3.org/2000/svg" viewBox="0 0 351 80" xml:space="preserve"><path fill-rule="evenodd" clip-rule="evenodd" fill="#E20714" d="M285.9 10.2c-.8-3.8-1.5-3.7-1.5.2v65.3c0 3.9 2.2 4.9 4.9 2.3l30.4-29.9c2.7-2.7 2.3-3.3-.9-1.3l-16.3 9.8c-3.2 1.9-6.5.4-7.3-3.4l-9.3-43z"/><path fill-rule="evenodd" clip-rule="evenodd" fill="#E20714" d="M345 36.2c3.5 1.2 3.8.5.6-1.5L292.3 2.1c-3.2-2-5.1-.4-4.3 3.4l9.2 42.9c.8 3.8 1.5 3.7 1.6-.2l.1-19.9c0-3.9 2.9-6.2 6.5-5L345 36.2z"/><path fill-rule="evenodd" clip-rule="evenodd" fill="#E20714" d="M294.6 77.4c-2.7 2.7-2.3 3.2.9 1.3L348.8 46c3.2-2 2.9-4.5-.6-5.7l-39.6-13c-3.5-1.2-3.8-.5-.6 1.5L324.1 39c3.2 2 3.6 5.8.9 8.5l-30.4 29.9z"/><path fill="#1D1D1B" d="M78.4 17.5c-13.4 0-22 9.5-22 23.9 0 14.4 8.7 23.8 22 23.8 13.5 0 22.1-9.5 22.1-23.8.1-14.4-8.6-23.9-22.1-23.9zm0 38.4c-7.9 0-10.3-7.3-10.3-14.5 0-7.3 2.4-14.5 10.3-14.5 8 0 10.4 7.3 10.4 14.5s-2.4 14.5-10.4 14.5z"/><path fill="#1D1D1B" d="M29 54c-11.7 0-16-10.5-16-21 0-11 4.4-21.5 16-21.5 6.4 0 12.1 4.7 12.9 11h12.5C52.8 8.1 41.9 0 29 0 10.7 0 0 14.5 0 33c0 18 10.7 32.5 29 32.5 14.4 0 24.6-10 25.9-25.6H42.3C41.3 48.2 36.9 54 29 54z"/><path fill="#1D1D1B" d="M252.2 17.5c-5.3 0-9.9 2.2-12.7 7h-.2v-5.8h-11.1V80h11.7V58.4h.2c2.8 4.5 7.7 6.8 12.8 6.8 12.5 0 18.7-11.3 18.7-23.4 0-12.8-6.1-24.3-19.4-24.3zm-2.5 38.4c-7.6 0-10.2-7-10.2-14.4s2.5-14.6 10.2-14.6c7.5 0 10.2 7.4 10.2 14.6-.1 7.4-2.5 14.4-10.2 14.4z"/><path fill="#1D1D1B" d="M153.7 17.5c-5.9 0-10.4 3.6-12.9 7.5-2.3-5.4-7.1-7.5-12.5-7.5-5.5 0-10 2.7-13 7.4h-.2v-6.1H104v45.3h11.7V37.8c0-8.9 5.6-10.4 7.9-10.4 7.4 0 7.1 6 7.1 11.3v25.4h11.7V38.8c0-5.7 1.2-11.5 7.8-11.5 6.7 0 7.2 5 7.2 11V64h11.7V33.7c.2-11.7-6.3-16.2-15.4-16.2z"/><path fill="#1D1D1B" d="M192.4 1.5 170 64.1h13.1l4.6-13.9h22l4.5 13.9h13.4l-22-62.6h-13.2zm-1.3 38.4 7.7-23h.2l7.4 23h-15.3z"/></svg>