<?xml version="1.0" encoding="iso-8859-1"?>
<!-- Generator: Adobe Illustrator 18.1.0, SVG Export Plug-In . SVG Version: 6.00 Build 0)  -->
<svg version="1.1" id="Layer_1" xmlns="http://www.w3.org/2000/svg" xmlns:xlink="http://www.w3.org/1999/xlink" x="0px" y="0px"
	 viewBox="0 0 164.273 54.771" style="enable-background:new 0 0 164.273 54.771;" xml:space="preserve">
<rect y="-0.001" style="fill:#D9291C;" width="164.273" height="54.759"/>
<g>
	<defs>
		<rect id="SVGID_1_" y="0.001" width="164.273" height="54.77"/>
	</defs>
	<clipPath id="SVGID_2_">
		<use xlink:href="#SVGID_1_"  style="overflow:visible;"/>
	</clipPath>
	<path style="clip-path:url(#SVGID_2_);fill:#FFFFFF;" d="M130.704,36.902l0.398-2.901h-0.293c-0.489,0.965-1.142,1.599-3.981,1.599
		h-3.339c-0.126-0.049-0.182-0.139-0.182-0.294l0.009-6.524h3.248c1.339-0.039,2.663,0.38,2.76,1.029h0.263v-3.413h-0.263
		c-0.097,0.679-1.302,1.253-2.76,1.275h-3.248l-0.004-5.528c0-0.162,0.051-0.25,0.191-0.298h3.822c2.158,0,2.898,0.746,3.186,1.17
		h0.309l-0.384-2.44h-11.385v0.289c0.788,0.16,1.19,0.666,1.239,1.396v12.935c-0.049,0.749-0.705,1.212-1.253,1.417v0.288H130.704z"
		/>
	<path style="clip-path:url(#SVGID_2_);fill:#FFFFFF;" d="M140.846,27.573c0.58-0.471,1.081-0.931,1.534-1.336
		c0.487-0.437,0.982-0.87,1.47-1.311c0.977-0.874,1.953-1.747,2.935-2.624c0.748-0.664,1.517-1.154,2.49-1.401
		c0-0.111,0.004-0.22,0.004-0.329c-1.779,0-3.411,0.005-5.185,0.005v0.316c0.363,0.029,0.579,0.38,0.51,0.713
		c-0.067,0.334-0.329,0.589-0.577,0.821c-2.01,1.874-4.018,3.743-6.032,5.617c0.005-1.783,0.005-3.559,0.008-5.341
		c0-0.333,0.007-0.684,0.151-0.988c0.204-0.434,0.665-0.698,1.123-0.854v-0.284h-5.57c0,0.097-0.006,0.198-0.006,0.301
		c0.545,0.097,1.021,0.517,1.187,1.044c0.094,0.298,0.094,0.619,0.094,0.931v11.923c0,0.291-0.004,0.59-0.117,0.854
		c-0.244,0.567-0.651,0.806-1.243,0.984v0.288h5.655c0-0.095,0.003-0.191,0.003-0.288c-0.529-0.153-0.769-0.345-1.055-0.813
		c-0.222-0.349-0.225-0.79-0.225-1.205c0.003-2.098,0.003-4.039,0.01-6.135c2.076,2.112,4.152,4.07,6.23,6.184
		c0.619,0.63,1.251,1.274,2.035,1.685c1.403,0.742,2.738,0.68,4.321,0.567c0-0.087-0.01-0.265-0.01-0.265s-0.628-0.171-1.658-1.035
		C148.477,35.221,141.746,28.397,140.846,27.573"/>
	<path style="clip-path:url(#SVGID_2_);fill:#FFFFFF;" d="M115.187,36.902v-0.291c-0.719-0.238-1.721-0.766-1.721-2.085V16.424
		c0.016-0.223,0.134-0.576,0.507-0.576h4.051c3.122,0,4.351,0.921,4.745,1.76h0.294l-0.57-3.398h-21.515l-0.608,3.381h0.301
		c0.6-0.905,1.665-1.743,4.79-1.743h4.014c0.372,0,0.52,0.353,0.536,0.576v18.102c0,1.319-1.102,1.858-1.769,2.085v0.291H115.187z"
		/>
	<path style="clip-path:url(#SVGID_2_);fill:#FFFFFF;" d="M35.987,14.57l0.219,3.4H35.83c-1.298-2.173-5.027-2.897-8.171-2.882
		c-5.856,0.028-10.147,4.595-10.147,9.732c0,7.342,5.986,10.548,10.604,10.548c4.14,0,6.865-0.859,7.985-3.173h0.404l-0.362,3.98
		c-0.792,0.449-4.204,1.068-6.966,1.068c-4.548,0-8.351-0.921-11.376-3.277c-3.264-2.584-4.124-5.921-4.124-8.822
		c0-2.039,0.715-5.558,3.887-8.183c2.392-1.978,5.54-3.18,10.493-3.18C30.484,13.781,34.532,14.401,35.987,14.57"/>
	<path style="clip-path:url(#SVGID_2_);fill:#FFFFFF;" d="M105.062,32.334c0-1.931-1.719-3.283-4.673-5.324l-0.696-0.452
		c-2.043-1.397-2.715-2.289-2.683-3.14c0.055-1.319,1.232-2.232,3.031-2.232c1.852,0,3.072,0.316,3.493,1.477h0.416l-0.307-2.091
		c-0.571-0.121-1.402-0.556-3.566-0.556c-3.377,0-5.658,1.727-5.658,4.133c0,2.121,1.489,3.231,4.192,5.117l1.133,0.794
		c2.045,1.391,2.398,2.125,2.398,3.589c0,1.173-1.138,2.394-3.335,2.394c-2.548,0-3.413-1.138-3.855-2.175h-0.348l0.227,2.401
		c0.457,0.11,2.328,0.973,4.279,0.973C102.927,37.242,105.062,35.441,105.062,32.334"/>
	<path style="clip-path:url(#SVGID_2_);fill:#FFFFFF;" d="M88.235,30.31l-0.869-1.17c0,0,3.896-0.745,3.896-4.237
		c0-3.377-3.502-4.359-6.451-4.359H77.74v0.292c0.646,0.144,1.24,0.667,1.285,1.402v12.997c-0.045,0.748-0.516,1.114-1.172,1.379
		v0.294h5.344v-0.294c-0.626-0.122-1.072-0.631-1.123-1.379l0.017-13.095c0-0.178,0.06-0.267,0.231-0.313
		c0.241-0.064,1.295-0.09,1.9-0.09c1.422,0,4.104,0.368,4.104,3.464c0,3.208-4.375,3.544-5.542,3.544v0.512
		c0.769,0.163,1.354,0.305,1.9,1.137l3.778,5.039c0.732,0.948,1.25,1.475,3.479,1.515h1.709V36.62
		C92.103,36.292,89.213,31.512,88.235,30.31"/>
	<path style="clip-path:url(#SVGID_2_);fill:#FFFFFF;" d="M66.26,20.059c-3.181,0-5.675,0.959-7.38,2.513
		c0.505,0.679,1.015,1.559,1.396,2.651c1.02-2.202,3.075-3.805,6.01-3.805c4.116,0,6.759,3.144,6.759,7.172
		c0,4.057-2.8,7.152-6.826,7.152c-4.027,0-5.794-3.443-7.382-7.152c-1.95-4.534-4.362-8.531-10.567-8.531
		c-6.214,0-9.999,3.812-9.999,8.544c0,4.735,3.649,8.598,9.999,8.598c3.173,0,5.665-0.987,7.368-2.533
		c-0.782-1.176-1.017-1.547-1.411-2.693c-1.048,2.394-3.035,3.738-5.963,3.738c-4.117,0-6.776-3.026-6.776-7.084
		c0-4.027,2.663-7.307,6.696-7.307c4.025,0,6.065,3.566,7.584,7.307c1.855,4.579,4.284,8.572,10.492,8.572
		c6.214,0,10.007-3.863,10.007-8.598C76.267,23.871,72.611,20.059,66.26,20.059"/>
</g>
</svg>
