<?xml version="1.0" encoding="utf-8"?>
<!-- Generator: Adobe Illustrator 16.0.0, SVG Export Plug-In . SVG Version: 6.00 Build 0)  -->
<!DOCTYPE svg PUBLIC "-//W3C//DTD SVG 1.1//EN" "http://www.w3.org/Graphics/SVG/1.1/DTD/svg11.dtd">
<svg version="1.1" xmlns="http://www.w3.org/2000/svg" xmlns:xlink="http://www.w3.org/1999/xlink" x="0px" y="0px" width="189px"
	 height="59.354px" viewBox="0 0 189 59.354" enable-background="new 0 0 189 59.354" xml:space="preserve">
<g id="Vrstva_1">
</g>
<g id="Pracovní_plocha">
</g>
<g id="Vodicí_linky">
</g>
<g id="Mřížka" display="none">
</g>
<g id="Page_1">
	<g id="Vrstva_1_1_">
		<g>
			<path fill-rule="evenodd" clip-rule="evenodd" fill="#0073BD" d="M115.084,0c-3.198,0-6.468,0.71-9.383,1.849
				c-2.915,1.137-5.829,2.843-8.317,5.046c-2.559,1.92-4.621,4.337-6.54,7.321c-1.564,2.631-2.915,5.545-3.554,8.957L82.6,46.133
				h4.833c0.711-3.412,2.275-6.611,4.265-9.17l-1.919,9.17h4.834l0.284-1.351c1.848-6.397,8.104-9.81,13.15-9.81l14.714,0.142
				l-2.204,11.019h4.833c1.564-7.748,3.128-15.425,4.692-22.96c0.213-1.279,0.355-2.346,0.284-3.554
				c0.071-2.204-0.426-3.839-1.137-5.829c-0.498-0.854-0.995-1.422-1.279-1.849h2.985c0.427,0.711,0.782,1.636,1.208,2.488
				c0.924,2.63,0.782,5.331,0.284,8.246c-1.564,7.819-3.199,15.709-4.763,23.457h4.976l4.621-22.96
				c0.853-4.051,0.568-8.032-0.64-11.231h31.063c7.108,0,10.165,5.332,8.886,11.09c-1.208,5.402-6.255,11.018-13.364,11.018h-11.444
				l4.052-19.833h-4.763l-5.047,24.738h16.35c2.132-0.143,3.838-0.427,6.042-1.138c2.275-0.854,3.981-1.92,5.971-3.554
				c2.204-1.92,3.696-3.91,5.047-6.256c2.346-4.763,2.985-9.384,1.279-13.577l-0.568-1.279c-1.92-3.27-4.834-5.118-8.815-5.828
				h-57.649c-1.208,0-2.417,0-3.768,0.354c-2.772,0.569-5.047,1.564-7.322,3.128c-3.767,2.773-5.9,5.758-7.464,9.668l-0.426,1.777
				l-1.422,6.967c-0.996,0.853-2.132,1.635-2.915,2.701c0.568-2.986,1.137-5.758,1.777-8.744c0.355-1.635,0.782-3.128,1.493-4.763
				c1.066-1.919,2.204-3.696,3.696-5.687c3.057-3.128,6.256-5.332,10.236-6.896l1.848-0.354c1.564-0.427,2.986-0.569,4.762-0.569
				c27.226,0,22.392,0,49.83,0c2.985,0,6.042-0.213,8.886,0.213c2.061,0.641,3.625,1.138,5.331,2.274
				c1.777,1.352,2.985,2.702,4.123,4.621c1.635,3.483,1.99,6.824,1.28,11.019l-0.285,1.137c-0.995,4.052-2.985,7.321-6.113,10.521
				l-1.421,1.208c-3.483,2.915-6.966,4.479-11.018,5.189l-1.777,0.071h-19.691l5.474-26.941h-4.905l-6.54,31.917h23.742
				c3.057,0,6.185-0.71,9.241-1.848c2.915-1.138,5.616-2.985,7.961-4.977c2.701-1.919,4.904-4.479,6.54-7.321
				c1.706-2.63,3.057-5.615,3.696-8.743l0.071-0.497c0.64-2.986,0.498-6.042-0.142-8.531c-0.498-2.984-1.635-5.401-3.554-7.321
				c-1.493-2.203-3.483-3.909-5.971-5.046C176.359,0.71,173.516,0,170.459,0H115.084L115.084,0z M110.464,23.173h14.786
				c1.422-7.037-2.986-11.231-9.099-11.231h-3.412c-5.971,0-12.226,4.194-13.648,11.231l-0.497,2.63
				C102.29,24.168,106.128,23.173,110.464,23.173L110.464,23.173z M124.254,27.793h-14.714c-4.407,0.214-8.459,1.564-12.156,3.84
				l-0.64,3.197c3.341-2.913,7.535-4.691,12.298-4.691h14.785L124.254,27.793L124.254,27.793z"/>
			<polygon fill-rule="evenodd" clip-rule="evenodd" fill="#0073BD" points="43.717,0 36.963,0 34.689,1.777 37.532,5.261 43.717,0 
							"/>
			<polygon fill-rule="evenodd" clip-rule="evenodd" fill="#0073BD" points="54.45,0 47.626,0 39.025,7.107 41.797,10.52 54.45,0 
							"/>
			<path fill-rule="evenodd" clip-rule="evenodd" fill="#0073BD" d="M54.592,10.52c-1.919,2.417-2.63,4.621-2.204,7.18
				c0.711,2.274,2.062,3.483,4.407,4.194h15.283c3.768,0.568,6.042,2.915,6.54,6.54c0.284,1.705,0,3.483-0.782,5.401
				c-1.137,2.844-3.27,4.977-5.971,6.327c-1.635,0.71-3.199,0.995-4.691,0.995H23.458l-1.848-0.071
				c-3.626-0.711-6.611-2.203-8.957-5.189l-0.995-1.066c-0.071-0.07-0.071-0.142-0.071-0.213c-1.634-3.199-2.274-6.469-1.706-10.449
				l0.214-1.137c0.924-4.408,2.701-7.82,5.829-11.09c1.777-1.848,3.625-3.198,5.829-4.55c1.351-0.639,2.559-1.137,3.696-1.563
				l-2.914-3.625c-2.63,1.138-5.047,2.63-7.25,4.479c-5.047,4.122-8.814,9.88-10.023,16.065l-0.142,0.497
				C3.981,28.931,4.905,34.83,8.672,39.309c3.128,4.266,8.388,6.824,14.572,6.824h42.864c3.981,0,7.891-1.636,10.876-4.194
				c3.127-2.63,5.473-6.042,6.255-10.021l0.142-0.712c1.421-6.895-2.772-12.795-9.099-13.79c-0.213-0.142-0.213-0.142-0.427-0.142
				c-0.071,0-0.071,0-0.071,0h-0.213c-0.142,0-0.142,0-0.213,0H59.213c-1.493,0-2.204-0.996-1.919-2.488l0.071-0.142
				c0.284-1.493,1.493-2.702,2.915-2.702h28.86c1.066-1.848,2.417-3.198,3.91-4.619c-18.837,0-14.003,0-32.699,0
				C57.934,7.676,56.156,8.743,54.592,10.52L54.592,10.52z"/>
			<path fill-rule="evenodd" clip-rule="evenodd" fill="#0073BD" d="M62.341,0c-3.555,0-6.967,1.421-9.952,3.554
				c-4.976,3.554-6.966,8.459-7.535,14.146c0.213,1.423,0.427,2.702,0.782,3.91c0.995,2.701,2.204,4.193,4.621,5.758l2.346,1.138
				c1.279,0.354,2.559,0.497,3.838,0.711h13.648c0.498,0.142,0.853,0.426,1.066,0.853c0.071,0.284,0.213,0.427,0.355,0.711
				c0,1.635-1.137,3.27-2.985,3.27H25.164c-4.336-0.143-7.322-2.772-8.104-7.108c-0.498-2.56,0.071-5.331,1.564-7.818
				c2.488-4.124,6.468-6.896,11.089-7.181h0.71l-3.341-4.122c-6.469,1.776-11.8,6.682-14.074,12.866l-0.143,0.497
				c-1.919,6.326-0.426,13.15,5.829,16.278c1.564,0.924,3.34,1.351,5.189,1.351h44.072c3.625-0.284,6.682-2.56,7.819-6.043
				c1.138-3.767-0.071-6.824-3.199-8.104l-0.924-0.07H57.365c-0.355,0-0.782-0.214-1.279-0.284c-2.56-0.427-4.407-1.991-5.332-3.909
				c-0.711-1.279-0.995-2.844-0.924-4.479c0.284-1.635,0.782-3.696,1.848-5.261c2.132-3.34,5.331-5.545,9.312-5.758
				c19.264,0,15.283,0,34.547,0c2.346-1.919,4.833-3.696,7.606-4.904H62.341L62.341,0z"/>
			<polygon fill-rule="evenodd" clip-rule="evenodd" fill="#0073BD" points="24.24,0 30.211,0 39.736,11.941 33.623,11.941 24.24,0 
							"/>
			<polygon fill-rule="evenodd" clip-rule="evenodd" fill="#0073BD" points="149.418,52.459 148.21,58.43 180.269,58.43 
				181.477,52.459 149.418,52.459 			"/>
			<polygon fill-rule="evenodd" clip-rule="evenodd" fill="#0073BD" points="31.063,52.459 1.28,52.459 0,58.43 29.855,58.43 
				31.063,52.459 			"/>
			<path fill-rule="evenodd" clip-rule="evenodd" d="M37.106,53.881c0.355,0,0.426,0,0.569,0c0.284,0.071,0.355,0.284,0.355,0.568
				c-0.071,0.144-0.213,0.356-0.355,0.428c-0.143,0.07-0.285,0.07-0.64,0.07h-0.214L37.106,53.881L37.106,53.881z M35.187,52.602
				l-1.279,5.9h2.274h0.711c0.64,0,1.279-0.072,1.635-0.143c0.711-0.284,1.208-0.853,1.351-1.493c0.071-0.426,0-0.781-0.213-0.994
				c-0.142-0.214-0.427-0.356-0.853-0.428c0.853-0.213,1.279-0.567,1.421-1.35c0.071-0.284,0.071-0.64-0.071-0.854
				c-0.213-0.355-0.498-0.497-0.996-0.568c-0.213-0.071-0.426-0.071-1.137-0.071H35.187L35.187,52.602z M36.608,56.085h0.213
				c0.427,0,0.569,0.071,0.711,0.143c0.143,0.142,0.143,0.283,0.071,0.497c0,0.213-0.213,0.427-0.426,0.498
				c-0.142,0.07-0.285,0.07-0.782,0.07L36.608,56.085L36.608,56.085z"/>
			<path fill-rule="evenodd" clip-rule="evenodd" d="M43.717,53.952h0.213c0.64,0,0.782,0.143,0.71,0.497
				c-0.071,0.285-0.142,0.428-0.355,0.498c-0.142,0.071-0.284,0.143-0.71,0.143h-0.071L43.717,53.952L43.717,53.952z M41.727,52.602
				l-1.208,5.9h2.346l0.427-2.133h0.142c0.355,0,0.498,0.071,0.568,0.213c0,0.143,0.071,0.355,0,0.995
				c-0.071,0.568-0.071,0.712-0.071,0.996l2.346-0.071c-0.072-0.356,0-0.711,0-1.422c0.071-0.782,0.071-1.066-0.072-1.208
				c-0.142-0.214-0.355-0.285-0.782-0.356c0.356-0.071,0.498-0.142,0.782-0.213c0.356-0.284,0.711-0.71,0.783-1.208
				c0.071-0.356,0-0.712-0.142-0.995c-0.214-0.284-0.569-0.427-1.209-0.498c-0.213,0-0.426,0-1.066,0H41.727L41.727,52.602z"/>
			<polygon fill-rule="evenodd" clip-rule="evenodd" points="51.322,52.602 51.82,56.085 52.531,52.602 54.45,52.602 53.242,58.502 
				50.398,58.502 49.83,54.947 49.119,58.502 47.2,58.502 48.408,52.602 51.322,52.602 			"/>
			<path fill-rule="evenodd" clip-rule="evenodd" d="M58.218,54.023c0.498,0,0.568,0.355,0.284,1.492
				c-0.213,1.209-0.498,1.636-0.995,1.636c-0.427,0-0.498-0.427-0.284-1.493C57.507,54.379,57.72,54.023,58.218,54.023
				L58.218,54.023z M58.573,52.459c-0.853,0-1.635,0.214-2.275,0.641c-0.71,0.497-1.279,1.421-1.493,2.416
				c-0.213,1.066-0.071,1.849,0.355,2.417c0.427,0.497,1.137,0.782,1.99,0.782c1.991,0,3.412-1.208,3.768-3.128
				C61.346,53.597,60.492,52.459,58.573,52.459L58.573,52.459z"/>
			<polygon fill-rule="evenodd" clip-rule="evenodd" points="64.046,55.729 63.762,57.08 61.203,57.08 61.488,55.729 64.046,55.729 
							"/>
			<path fill-rule="evenodd" clip-rule="evenodd" d="M70.373,56.369c-0.284,1.422-1.563,2.346-3.341,2.346
				c-1.919,0-2.772-1.138-2.346-3.199c0.426-1.919,1.777-3.057,3.696-3.057c1.777,0,2.63,0.854,2.274,2.347h-2.204
				c0.142-0.569,0-0.782-0.355-0.782c-0.285,0-0.498,0.142-0.64,0.426c-0.142,0.215-0.213,0.569-0.355,1.066
				c-0.214,1.209-0.142,1.636,0.355,1.636c0.213,0,0.427-0.142,0.569-0.356c0.071-0.142,0.071-0.284,0.142-0.426H70.373
				L70.373,56.369z M67.458,52.033l-0.711-1.351h1.564l0.213,0.639l0.568-0.639h1.564l-1.279,1.351H67.458L67.458,52.033z"/>
			<polygon fill-rule="evenodd" clip-rule="evenodd" points="76.628,52.602 76.344,54.165 74.069,54.165 73.927,54.806 
				75.989,54.806 75.705,56.298 73.643,56.298 73.501,56.938 75.775,56.938 75.491,58.502 70.871,58.502 72.079,52.602 
				76.628,52.602 			"/>
			<path fill-rule="evenodd" clip-rule="evenodd" d="M79.756,53.952h0.213c0.569,0,0.782,0.143,0.711,0.497
				c-0.071,0.285-0.213,0.428-0.426,0.498c-0.143,0.071-0.213,0.143-0.711,0.143h-0.071L79.756,53.952L79.756,53.952z
				 M77.766,52.602l-1.279,5.9h2.346l0.498-2.133h0.142c0.355,0,0.427,0.071,0.498,0.213c0.071,0.143,0.071,0.355,0,0.995
				c0,0.568,0,0.712,0,0.996l2.275-0.071c0-0.356,0-0.711,0.071-1.422c0.071-0.782,0.071-1.066-0.142-1.208
				c-0.142-0.214-0.355-0.285-0.782-0.356c0.355-0.071,0.568-0.142,0.782-0.213c0.427-0.284,0.711-0.71,0.853-1.208
				c0.071-0.356,0-0.712-0.142-0.995c-0.213-0.284-0.569-0.427-1.208-0.498c-0.284,0-0.427,0-1.137,0H77.766L77.766,52.602z"/>
			<polygon fill-rule="evenodd" clip-rule="evenodd" points="87.291,52.602 87.86,56.085 88.57,52.602 90.49,52.602 89.21,58.502 
				86.367,58.502 85.869,54.947 85.087,58.502 83.168,58.502 84.448,52.602 87.291,52.602 			"/>
			<path fill-rule="evenodd" clip-rule="evenodd" d="M94.257,54.023c0.427,0,0.498,0.355,0.285,1.492
				c-0.285,1.209-0.569,1.636-0.996,1.636c-0.498,0-0.568-0.427-0.284-1.493C93.476,54.379,93.76,54.023,94.257,54.023
				L94.257,54.023z M94.613,52.459c-0.853,0-1.635,0.214-2.275,0.641c-0.782,0.497-1.28,1.421-1.493,2.416
				c-0.213,1.066-0.142,1.849,0.355,2.417c0.355,0.497,1.137,0.782,1.99,0.782c1.919,0,3.341-1.208,3.768-3.128
				C97.385,53.597,96.532,52.459,94.613,52.459L94.613,52.459z"/>
			<polygon fill-rule="evenodd" clip-rule="evenodd" points="100.441,52.602 100.37,57.151 102.147,52.602 104.493,52.602 
				101.508,58.502 98.451,58.502 98.025,52.602 100.441,52.602 			"/>
			<polygon fill-rule="evenodd" clip-rule="evenodd" points="107.479,52.602 106.199,58.502 103.853,58.502 105.133,52.602 
				107.479,52.602 			"/>
			<path fill-rule="evenodd" clip-rule="evenodd" d="M113.521,56.369c-0.284,1.422-1.563,2.346-3.34,2.346
				c-1.919,0-2.772-1.138-2.346-3.199c0.427-1.919,1.777-3.057,3.697-3.057c1.777,0,2.629,0.854,2.274,2.347h-2.204
				c0.143-0.569,0-0.782-0.355-0.782c-0.285,0-0.498,0.142-0.64,0.426c-0.143,0.215-0.214,0.569-0.356,1.066
				c-0.213,1.209-0.142,1.636,0.356,1.636c0.213,0,0.426-0.142,0.568-0.356c0.072-0.142,0.072-0.284,0.142-0.426H113.521
				L113.521,56.369z"/>
			<polygon fill-rule="evenodd" clip-rule="evenodd" points="119.776,52.602 119.492,54.165 117.217,54.165 117.075,54.806 
				119.137,54.806 118.853,56.298 116.791,56.298 116.648,56.938 118.923,56.938 118.639,58.502 114.019,58.502 115.227,52.602 
				119.776,52.602 			"/>
			<polygon fill-rule="evenodd" clip-rule="evenodd" points="122.264,56.795 120.914,59.354 119.208,59.354 120.274,56.795 
				122.264,56.795 			"/>
			<path fill-rule="evenodd" clip-rule="evenodd" d="M131.079,56.156h-0.995l0.995-2.346V56.156L131.079,56.156z M129.87,52.602
				l-3.127,5.9h2.203l0.498-0.925h1.706v0.925h2.488l-0.711-5.9H129.87L129.87,52.602z"/>
			<polygon fill-rule="evenodd" clip-rule="evenodd" points="136.624,56.795 136.268,58.502 134.207,58.502 134.562,56.795 
				136.624,56.795 			"/>
			<path fill-rule="evenodd" clip-rule="evenodd" d="M139.68,56.653c-0.071,0.427,0.071,0.711,0.498,0.711
				c0.284,0,0.569-0.213,0.64-0.498c0.072-0.284-0.071-0.355-0.64-0.497c-0.426-0.142-0.924-0.284-1.137-0.355
				c-0.427-0.142-0.64-0.285-0.782-0.498c-0.213-0.284-0.355-0.71-0.213-1.137c0.142-0.641,0.568-1.209,1.208-1.493
				c0.498-0.284,1.208-0.427,2.062-0.427c1.635,0,2.346,0.641,2.061,1.849h-2.061c0.071-0.355-0.071-0.497-0.426-0.497
				c-0.356,0-0.569,0.142-0.64,0.354c0,0.143,0.071,0.214,0.213,0.284c0,0.071,0.143,0.071,0.214,0.144
				c0.071,0,0.355,0.071,0.64,0.142c0.782,0.213,1.208,0.355,1.493,0.64c0.284,0.284,0.355,0.711,0.284,1.279
				c-0.142,0.64-0.427,1.066-0.924,1.422c-0.64,0.427-1.351,0.64-2.417,0.64c-1.706,0-2.56-0.711-2.275-1.99v-0.071H139.68
				L139.68,56.653z"/>
			<polygon fill-rule="evenodd" clip-rule="evenodd" points="145.935,56.795 145.58,58.502 143.519,58.502 143.874,56.795 
				145.935,56.795 			"/>
		</g>
	</g>
</g>
</svg>
