<svg width="131" height="35" viewBox="0 0 131 35" fill="none" xmlns="http://www.w3.org/2000/svg">
<path d="M16.1558 0.619141C7.22987 0.619141 0 8.18549 0 17.5268C0 26.8681 7.22987 34.4344 16.1558 34.4344C25.0816 34.4344 32.3115 26.8681 32.3115 17.5268C32.3115 8.18549 25.0719 0.619141 16.1558 0.619141ZM16.1558 32.3654C8.32501 32.3654 1.97707 25.722 1.97707 17.5268C1.97707 9.3316 8.32501 2.68822 16.1558 2.68822C23.9865 2.68822 30.3344 9.3316 30.3344 17.5268C30.3344 25.722 23.9865 32.3654 16.1558 32.3654Z" fill="#051E2E"/>
<path d="M28.3295 17.5262C28.3295 24.5651 22.8731 30.2652 16.1569 30.2652C9.4407 30.2652 3.98438 24.5651 3.98438 17.5262C3.98438 10.4872 9.4407 4.78711 16.1569 4.78711C22.8731 4.78711 28.3295 10.4872 28.3295 17.5262Z" fill="#990C08"/>
<path d="M24.5172 16.3713H24.5269L22.8018 14.5558L24.4396 12.8417L22.637 10.9552L20.9991 12.6693L16.134 7.58789L14.3508 9.45412L19.2062 14.5457L16.1534 17.7406L14.6027 16.1178C12.7711 14.2414 9.83452 14.2414 8.02221 16.1381C6.19051 18.055 6.19051 21.1688 8.02221 23.0756C9.85391 24.9925 12.8195 24.9925 14.6512 23.0756L16.1728 21.4933C16.1728 21.4933 17.5684 22.9843 17.6653 23.0857C19.497 25.0027 22.4626 25.0027 24.2943 23.0857C26.0581 21.2398 26.126 18.2984 24.4978 16.3713H24.5172ZM12.8583 21.1992C12.0151 22.0918 10.668 22.1019 9.82483 21.2093C8.98167 20.3269 8.98167 18.8867 9.82483 18.0043C10.6583 17.132 11.9957 17.132 12.8389 17.9739L14.3798 19.5967L12.8583 21.1891V21.1992ZM19.623 21.3615L17.9657 19.617L21.0185 16.4221L22.4916 17.9637C22.4916 17.9637 22.511 17.9942 22.5304 18.0043C23.3057 18.9577 23.3736 20.3269 22.5304 21.2093C21.7357 22.041 20.4758 22.0918 19.623 21.3513V21.3615Z" fill="white"/>
<path d="M38.1172 7.06055H47.295C49.1074 7.06055 50.5708 7.32425 51.6756 7.83138C52.7901 8.34865 53.7108 9.08906 54.4377 10.0425C55.1646 11.006 55.6879 12.1217 56.0174 13.3996C56.3469 14.6776 56.5117 16.0266 56.5117 17.4567C56.5117 19.6982 56.2694 21.4326 55.7848 22.6598C55.3002 23.8972 54.6218 24.9317 53.7593 25.7634C52.8967 26.5951 51.9664 27.153 50.9778 27.4268C49.621 27.8021 48.3999 27.9948 47.295 27.9948H38.1172V7.06055ZM44.3004 11.8073V23.2481H45.8122C47.1012 23.2481 48.0122 23.0959 48.5646 22.8018C49.1074 22.4975 49.5338 21.9803 49.8439 21.2297C50.154 20.4893 50.3091 19.2722 50.3091 17.5987C50.3091 15.3774 49.9602 13.8561 49.2721 13.0447C48.584 12.2231 47.4404 11.8174 45.8413 11.8174H44.3004V11.8073Z" fill="#051E2E"/>
<path d="M70.004 24.526H63.0358L62.0279 27.9948H55.7188L63.2103 7.06055H70.004L77.4665 27.9948H71.0023L70.004 24.526ZM68.6957 19.9923L66.5248 12.4767L64.3442 19.9923H68.6957Z" fill="#051E2E"/>
<path d="M78.8672 7.06055H85.0504V27.9948H78.8672V7.06055Z" fill="#051E2E"/>
<path d="M88.6562 7.06055H94.8394V14.3733H101.575V7.06055H107.787V27.9948H101.575V19.5156H94.8394V27.9948H88.6562V7.06055Z" fill="#051E2E"/>
<path d="M110.289 17.5361C110.289 14.1181 111.2 11.4506 113.012 9.5438C114.834 7.63699 117.364 6.68359 120.611 6.68359C123.857 6.68359 126.493 7.61671 128.296 9.49308C130.099 11.3695 131 13.9862 131 17.3637C131 19.8182 130.602 21.8264 129.817 23.3884C129.032 24.9605 127.899 26.1776 126.406 27.0499C124.923 27.9221 123.072 28.3583 120.853 28.3583C118.633 28.3583 116.734 27.983 115.261 27.2324C113.788 26.4819 112.586 25.2851 111.665 23.6622C110.745 22.0293 110.289 19.9906 110.289 17.5463V17.5361ZM116.463 17.5767C116.463 19.6965 116.841 21.2179 117.587 22.151C118.333 23.074 119.351 23.5405 120.64 23.5405C121.929 23.5405 122.995 23.0841 123.722 22.1814C124.448 21.2686 124.807 19.6458 124.807 17.2927C124.807 15.3149 124.429 13.8747 123.673 12.9618C122.917 12.049 121.89 11.5926 120.591 11.5926C119.292 11.5926 118.352 12.0592 117.596 12.9821C116.841 13.9051 116.463 15.4366 116.463 17.5767Z" fill="#051E2E"/>
</svg>
