<?xml version="1.0" encoding="UTF-8"?>
<svg width="236" height="64" viewbox="0 0 236 64.3836" fill="none" xmlns="http://www.w3.org/2000/svg" aria-label="Logo" role="img"><g transform="translate(-112 -95)"><path d="M120.142 105.709C115.08 111.372 112 118.837 112 127.024C112 135.21 115.08 142.675 120.142 148.33V105.709Z" fill="#F28E04" /><path d="M126.856 154.033C128.677 155.194 130.627 156.172 132.672 156.957V97.0906C130.627 97.8675 128.677 98.8528 126.856 100.014V154.041V154.033Z" fill="#F28E04" /><path d="M138.496 158.551C140.309 158.871 142.17 159.039 144.071 159.039C144.151 159.039 144.232 159.039 144.312 159.039V95C144.232 95 144.151 95 144.071 95C142.17 95 140.309 95.1762 138.496 95.4886V158.543V158.551Z" fill="#F28E04" /><path d="M149.165 158.631C151.17 158.31 153.119 157.806 154.98 157.133V96.9063C153.119 96.2335 151.17 95.7288 149.165 95.4084V158.639V158.631Z" fill="#F28E04" /><path d="M158.983 155.363C161.069 154.265 163.018 152.944 164.799 151.438V102.601C163.018 101.087 161.069 99.7739 158.983 98.6765V155.363Z" fill="#F28E04" /><path d="M167.968 148.362C173.046 142.699 176.134 135.218 176.134 127.016C176.134 118.813 173.046 111.34 167.968 105.669V148.354V148.362Z" fill="#F28E04" /><path d="M190.573 112.726H199.87C208.221 112.726 213.612 118.477 213.612 126.895V127.264C213.612 135.682 208.221 141.473 199.87 141.473H190.573V112.726ZM196.533 118.108V136.099H199.822C204.347 136.099 207.435 132.935 207.435 127.224V127.015C207.435 121.304 204.347 118.1 199.822 118.1H196.533V118.108Z" fill="#58585A" /><path d="M224.176 112.566H229.856L240.18 141.481H234.011L231.869 135.242H221.954L219.853 141.481H213.844L224.168 112.566H224.176ZM230.056 129.979L226.928 120.616L223.759 129.979H230.056Z" fill="#58585A" /><path d="M243.389 112.726H248.86L259.881 129.483V112.726H265.721V141.473H260.619L249.229 124.1V141.473H243.389V112.726Z" fill="#58585A" /><path d="M269.876 136.916L283 118.02H270.294V112.726H290.364V117.283L277.24 136.179H290.364V141.473H269.884V136.916H269.876Z" fill="#58585A" /><path d="M294.543 112.726H313.089V118.108H300.463V124.308H311.565V129.691H300.463V136.099H313.258V141.481H294.543V112.726Z" fill="#58585A" /><path d="M332.927 141.481H339.433L333.368 129.787C336.497 128.337 338.262 125.333 338.262 121.913C338.262 116.723 334.78 112.726 328.924 112.726H317.445V141.473H323.261V130.716H327.657L332.927 141.473V141.481ZM330.898 118.733C331.933 119.374 332.51 120.471 332.526 121.721C332.51 122.97 331.933 124.06 330.898 124.709C330.272 125.093 329.478 125.309 328.555 125.309H323.261V118.133H328.555C329.478 118.133 330.264 118.357 330.898 118.733Z" fill="#58585A" /></g></svg>