<svg baseProfile="basic" xmlns="http://www.w3.org/2000/svg" width="154.976" height="50.004" viewBox="0 0 154.976 50.004"><path fill="#B50938" d="M154.645 10.54c-.448-2.074-1.29-3.894-2.522-5.465-1.24-1.572-2.797-2.81-4.666-3.718C145.577.453 143.48 0 141.152 0h-28.48c-1.805 0-3.324.572-4.555 1.716-1.235 1.143-2.02 2.478-2.353 4-.378 1.668-.144 3.037.71 4.108.857 1.073 2.113 1.608 3.773 1.608h28.49c.71 0 1.37.158 1.988.467.617.308 1.14.736 1.566 1.283.428.55.727 1.17.894 1.86.166.69.18 1.39.036 2.106l-2.424 11.432c-.138.716-.45 1.418-.922 2.11a9.778 9.778 0 0 1-1.676 1.856c-.64.55-1.343.977-2.098 1.283-.762.314-1.5.468-2.213.468h-19.933c-.81 0-1.43-.272-1.854-.823-.42-.544-.546-1.225-.36-2.037.147-.808.553-1.487 1.215-2.036.667-.547 1.4-.822 2.206-.822h14.244a5.93 5.93 0 0 0 2.277-.465 8.863 8.863 0 0 0 2.107-1.215 7.29 7.29 0 0 0 1.633-1.787c.45-.69.747-1.44.892-2.25.333-1.572.06-2.918-.82-4.037-.88-1.118-2.098-1.68-3.662-1.68h-14.247c-1.943 0-3.864.382-5.766 1.143a19.569 19.569 0 0 0-5.195 3.073 18.721 18.721 0 0 0-3.993 4.538 17.368 17.368 0 0 0-2.277 5.537c-.43 1.956-.452 3.802-.073 5.538.385 1.74 1.082 3.252 2.105 4.538 1.023 1.285 2.313 2.312 3.88 3.073 1.567.762 3.325 1.143 5.268 1.143h19.94c2.322 0 4.615-.452 6.87-1.358a22.745 22.745 0 0 0 6.19-3.718 24.711 24.711 0 0 0 4.848-5.465c1.35-2.073 2.287-4.277 2.81-6.612l2.423-11.433c.47-2.33.486-4.534.032-6.604zM90.36 38.87l-2.67.02-2.043-2.286-.898-1.14-1.287-1.617-.874-1.14c-1.435-1.817-2.34-2.723-2.715-2.72-.18 0-.367.07-.568.203-.206.134-.308.277-.305.43-.004.152.215.546.645 1.178.434.633 1.063 1.82 1.885 3.566.827 1.74 1.234 2.79 1.234 3.145 0 .14-.098.24-.29.306-.198.065-.99.11-2.37.132-1.385.03-2.606.138-3.655.33-.122-.103-.42-.472-.905-1.11-.484-.633-.814-1.01-.993-1.13-.173-.11-.493-.166-.95-.16-.248.003-.41.033-.498.102 0 .443.365 1.463 1.09 3.06-.727 1.772-1.092 2.8-1.092 3.083.083.064.25.096.494.093.46 0 .783-.066.962-.188.177-.122.51-.503.99-1.146.48-.64.78-1.01.903-1.12 1.053.198 2.788.292 5.21.284.74.015 1.106.137 1.106.372 0 .366-.413 1.422-1.238 3.175-.825 1.756-1.454 2.955-1.89 3.596-.428.64-.65 1.04-.65 1.19 0 .154.102.297.304.43.205.13.4.198.57.198.377-.005 1.282-.927 2.715-2.78l.878-1.16 1.287-1.635.9-1.16 2.047-2.327 2.668-.02c.574-.006 3.416-.294 3.417-1.003.002-.722-1.135-1.07-3.416-1.052zM54.78 8.754c-.406-1.738-1.115-3.25-2.14-4.538-1.016-1.285-2.313-2.307-3.873-3.07C47.197.383 45.44 0 43.49 0H23.56c-2.33 0-4.622.453-6.872 1.36a23.318 23.318 0 0 0-6.232 3.715 24.034 24.034 0 0 0-4.878 5.466c-1.356 2.073-2.27 4.275-2.742 6.61L.41 28.585c-.522 2.334-.545 4.538-.073 6.61.32 1.382.826 2.643 1.48 3.805H49.41c.093-1.215-.187-2.25-.863-3.092-.858-1.072-2.112-1.608-3.774-1.608h-28.48a4.363 4.363 0 0 1-1.995-.466 4.544 4.544 0 0 1-1.568-1.283 4.846 4.846 0 0 1-.893-1.857 4.925 4.925 0 0 1-.035-2.108l2.422-11.435c.145-.715.45-1.417.93-2.107a9.572 9.572 0 0 1 1.67-1.86 7.768 7.768 0 0 1 2.103-1.283c.753-.31 1.494-.466 2.205-.466h19.94c.807 0 1.422.274 1.85.823.43.547.567 1.227.43 2.034a3.716 3.716 0 0 1-1.285 2.04c-.67.546-1.402.82-2.206.82H25.618c-.804 0-1.572.154-2.313.465a8.996 8.996 0 0 0-2.06 1.214 6.945 6.945 0 0 0-1.64 1.82 6.415 6.415 0 0 0-.893 2.214c-.332 1.574-.057 2.92.82 4.038.878 1.12 2.103 1.68 3.673 1.68H37.44c1.943 0 3.866-.378 5.768-1.145a19.45 19.45 0 0 0 5.195-3.072 19.411 19.411 0 0 0 4.027-4.536 16.846 16.846 0 0 0 2.316-5.54c.426-1.95.433-3.796.035-5.536zM7.574 44.377c1.872.907 3.968 1.357 6.298 1.357h28.48c1.81 0 3.326-.572 4.557-1.715.964-.892 1.644-1.905 2.058-3.027H3.2a13.017 13.017 0 0 0 4.373 3.384zm47.083-.252c.855 1.075 2.11 1.608 3.774 1.608 1.523 0 2.958-.5 4.308-1.5 1.098-.81 1.86-1.9 2.315-3.24H53.795c-.102 1.23.175 2.28.86 3.132zm45.786-42.408C99.68.574 98.402 0 96.597 0h-17.09c-2.23 0-4.476.453-6.726 1.36a23.859 23.859 0 0 0-6.23 3.68 24.969 24.969 0 0 0-4.915 5.357c-1.38 2.026-2.3 4.18-2.78 6.47L54.16 39h11.392l4.698-22.134a5.018 5.018 0 0 1 .927-2.036 8.621 8.621 0 0 1 1.677-1.716 8.73 8.73 0 0 1 2.096-1.215c.762-.308 1.475-.467 2.134-.467H94.18c1.662 0 3.126-.536 4.41-1.607 1.284-1.072 2.114-2.442 2.5-4.11.324-1.522.113-2.856-.648-4z"/></svg>