<?xml version="1.0" encoding="UTF-8"?>
<!DOCTYPE svg PUBLIC "-//W3C//DTD SVG 1.0//EN" "http://www.w3.org/TR/2001/REC-SVG-20010904/DTD/svg10.dtd">
<!-- Creator: CorelDRAW X8 -->
<svg xmlns="http://www.w3.org/2000/svg" xml:space="preserve" width="263.977mm" height="68.5728mm" version="1.0" style="shape-rendering:geometricPrecision; text-rendering:geometricPrecision; image-rendering:optimizeQuality; fill-rule:evenodd; clip-rule:evenodd"
viewBox="0 0 26398 6857"
 xmlns:xlink="http://www.w3.org/1999/xlink">
 <defs>
  <style type="text/css">
   <![CDATA[
    .fil0 {fill:#E31E24}
    .fil1 {fill:#E31E24;fill-rule:nonzero}
   ]]>
  </style>
 </defs>
 <g id="Vrstva_x0020_1">
  <metadata id="CorelCorpID_0Corel-Layer"/>
  <g id="_1539974197840">
   <g>
    <path class="fil0" d="M5696 1256l-3622 0 -223 965 3622 0 223 -965zm-2267 -1256c1893,0 3428,1535 3428,3429 0,1893 -1535,3428 -3428,3428 -1894,0 -3429,-1535 -3429,-3428 0,-1894 1535,-3429 3429,-3429zm-1736 2897l547 -289 -2053 0c-67,262 -102,537 -102,820 0,1840 1492,3332 3332,3332 1840,0 3332,-1492 3332,-3332 0,-283 -35,-558 -102,-820l-3688 0 412 289 -658 -225 -181 220 -93 -220 -746 225zm569 -386l-414 -289 649 225 192 -221 76 221 762 -225 -546 289 3640 0c-398,-1394 -1682,-2415 -3204,-2415 -1522,0 -2806,1021 -3204,2415l2049 0zm3055 386l-3622 0 -613 2656 3622 0 223 -965 -2656 0 167 -725 2656 0 223 -966z"/>
    <polygon class="fil1" points="7889,2230 9808,2230 9682,2778 8536,2778 8458,3117 9423,3117 9297,3666 8331,3666 8246,4035 9437,4035 9311,4583 7346,4583 "/>
    <polygon class="fil1" points="10136,2230 11005,2230 11195,2830 11673,2230 12542,2230 11481,3359 12001,4583 11137,4583 10907,3921 10376,4583 9512,4583 10629,3359 "/>
    <path class="fil1" d="M12780 2230l1126 0c171,0 315,18 433,55 118,37 211,90 278,160 66,70 108,156 126,258 18,103 11,222 -20,356 -27,109 -67,210 -121,303 -55,93 -127,176 -219,250 -91,73 -204,131 -339,173 -135,42 -293,63 -472,63l-396 0 -169 735 -771 0 544 -2353zm643 548l-120 522 333 0c85,0 160,-21 227,-64 66,-42 111,-112 133,-210 38,-165 -76,-248 -344,-248l-229 0z"/>
    <polygon class="fil1" points="15229,2230 16003,2230 15586,4035 16643,4035 16517,4583 14686,4583 "/>
    <path class="fil1" d="M18270 2167c267,0 481,57 640,169 159,112 263,261 312,446 49,185 50,384 6,597 -40,172 -104,335 -193,489 -89,154 -199,290 -330,406 -131,117 -281,208 -451,275 -170,66 -354,99 -550,99 -288,-2 -510,-64 -668,-185 -157,-122 -255,-278 -293,-469 -40,-191 -34,-394 15,-609 42,-165 105,-320 189,-465 84,-144 191,-272 318,-385 129,-112 277,-200 447,-266 169,-65 356,-98 558,-102zm-132 575c-92,0 -178,24 -259,74 -81,49 -152,124 -213,224 -62,100 -109,222 -142,364 -46,217 -42,383 13,498 55,115 155,172 300,172 159,-4 289,-64 389,-184 99,-119 172,-272 219,-456 47,-204 47,-370 1,-498 -45,-128 -148,-192 -308,-194z"/>
    <path class="fil1" d="M20941 2912c12,-135 -79,-203 -271,-203 -153,0 -242,43 -268,128 -9,40 -1,75 24,106 26,30 64,55 114,75 49,20 105,39 168,55 63,16 123,31 179,44 170,44 307,97 410,156 103,61 174,136 213,228 39,92 43,206 12,341 -45,191 -133,347 -263,468 -131,121 -285,208 -462,260 -177,52 -362,78 -555,78 -189,0 -355,-32 -496,-98 -141,-66 -245,-159 -311,-279 -67,-121 -86,-259 -59,-415l742 0c-5,92 24,157 87,194 63,38 136,56 218,56 192,-9 304,-62 337,-160 16,-68 -9,-119 -73,-154 -65,-34 -173,-72 -325,-113 -139,-37 -253,-72 -344,-107 -91,-35 -169,-80 -235,-137 -67,-57 -113,-131 -138,-221 -24,-90 -22,-201 9,-332 34,-136 103,-258 209,-367 106,-108 243,-194 411,-255 168,-62 358,-93 570,-93 123,0 237,13 341,39 104,25 195,66 273,124 79,58 137,135 177,232 39,97 52,213 40,350l-734 0z"/>
    <polygon class="fil1" points="22280,2230 23054,2230 22511,4583 21737,4583 "/>
    <path class="fil1" d="M24198 2230l783 0 299 2353 -767 0 -23 -313 -763 0 -164 313 -750 0 1385 -2353zm-214 1550l485 0 -53 -842 -432 842z"/>
   </g>
   <path class="fil1" d="M26003 2898c-53,0 -103,-9 -151,-29 -48,-19 -91,-47 -128,-82 -37,-36 -66,-78 -87,-125 -21,-48 -31,-100 -31,-154 0,-55 11,-106 32,-153 21,-49 49,-90 86,-125 37,-35 79,-62 127,-82 49,-19 99,-29 152,-29 53,0 103,10 151,29 48,20 90,47 127,81 36,36 65,77 85,125 21,48 32,99 32,154 0,73 -18,139 -54,199 -36,59 -84,106 -145,140 -60,34 -126,51 -196,51zm-317 -390c0,61 14,116 41,166 29,49 67,89 116,117 48,28 102,42 160,42 58,0 111,-14 160,-42 48,-28 87,-68 114,-117 28,-50 42,-105 42,-166 0,-46 -8,-89 -24,-128 -16,-40 -38,-75 -67,-104 -29,-30 -63,-52 -101,-68 -39,-17 -80,-25 -124,-25 -44,0 -86,8 -124,25 -39,16 -73,39 -102,68 -29,30 -51,64 -67,104 -17,40 -24,82 -24,128zm235 30l0 194 -69 0 0 -448 174 0c53,0 92,10 117,30 26,21 39,53 39,97 0,38 -10,67 -31,87 -21,20 -49,33 -84,38l128 196 -78 0 -119 -194 -77 0zm0 -57l82 0c35,0 62,-5 81,-14 19,-9 28,-30 28,-60 0,-44 -33,-66 -99,-66l-92 0 0 140z"/>
  </g>
 </g>
</svg>
