<?xml version="1.0" encoding="UTF-8" standalone="no"?>
<!DOCTYPE svg PUBLIC "-//W3C//DTD SVG 1.0//EN" "http://www.w3.org/TR/2001/REC-SVG-20010904/DTD/svg10.dtd">
<!-- Created with Inkscape (http://www.inkscape.org/) -->
<svg
   xmlns:svg="http://www.w3.org/2000/svg"
   xmlns="http://www.w3.org/2000/svg"
   version="1.0"
   width="800"
   height="450"
   id="svg2">
  <defs
     id="defs4" />
  <g
     id="layer1">
    <text
       x="225.71429"
       y="652.7193"
       id="text2405"
       xml:space="preserve"
       style="font-size:18.01987267px;font-style:normal;font-variant:normal;font-weight:normal;font-stretch:normal;text-align:start;line-height:100%;writing-mode:lr-tb;text-anchor:start;fill:#000000;fill-opacity:1;stroke:none;stroke-width:1px;stroke-linecap:butt;stroke-linejoin:miter;stroke-opacity:1;font-family:Arial Black;-inkscape-font-specification:Arial Black"><tspan
         x="225.71429"
         y="652.7193"
         id="tspan2407" /></text>
    <text
       x="293.44931"
       y="642.24023"
       id="text3214"
       xml:space="preserve"
       style="font-size:18.01987267px;font-style:normal;font-variant:normal;font-weight:bold;font-stretch:normal;text-align:start;line-height:100%;writing-mode:lr-tb;text-anchor:start;fill:#000000;fill-opacity:1;stroke:none;stroke-width:1px;stroke-linecap:butt;stroke-linejoin:miter;stroke-opacity:1;font-family:DejaVu Sans;-inkscape-font-specification:DejaVu Sans Bold"><tspan
         x="293.44931"
         y="642.24023"
         id="tspan3216" /></text>
    <text
       x="197.48482"
       y="443.74527"
       id="text3222"
       xml:space="preserve"
       style="font-size:144px;font-style:normal;font-variant:normal;font-weight:bold;font-stretch:normal;text-align:start;line-height:100%;writing-mode:lr-tb;text-anchor:start;fill:#000000;fill-opacity:1;stroke:none;stroke-width:1px;stroke-linecap:butt;stroke-linejoin:miter;stroke-opacity:1;font-family:Frutiger Bold;-inkscape-font-specification:'Frutiger Bold, Bold'"><tspan
         x="197.48482"
         y="443.74527"
         id="tspan3224" /></text>
    <path
       d="M 36.002156,420.6666 C 33.846719,422.41865 31.772099,423.6554 29.778366,424.37683 C 27.784569,425.09823 25.6453,425.45896 23.360564,425.45896 C 19.58853,425.45896 16.689476,424.57781 14.663404,422.8154 C 12.637297,421.05307 11.624226,418.80118 11.624226,416.0597 C 11.624226,414.45196 12.006811,412.98334 12.772008,411.65382 C 13.537172,410.32433 14.539451,409.25766 15.778845,408.45379 C 17.018203,407.64992 18.413822,407.04183 19.965769,406.62959 C 21.108135,406.34101 22.832478,406.06275 25.138798,405.79478 C 29.837603,405.25888 33.297084,404.6199 35.517203,403.87782 C 35.53872,403.11517 35.549512,402.63081 35.549512,402.42464 C 35.549512,400.15731 34.999877,398.55985 33.900607,397.63225 C 32.413346,396.37496 30.204014,395.74626 27.272655,395.74622 C 24.535238,395.74626 22.514546,396.20488 21.210506,397.12212 C 19.906465,398.03937 18.941907,399.66262 18.316864,401.99179 L 12.626505,401.24975 C 13.143799,398.92058 13.995195,397.03968 15.180698,395.60708 C 16.366164,394.17458 18.079752,393.07181 20.321389,392.29884 C 22.563025,391.5259 25.160315,391.13943 28.113293,391.13939 C 31.044656,391.13943 33.426416,391.46919 35.258542,392.12876 C 37.090634,392.78842 38.437774,393.61803 39.299962,394.61772 C 40.162117,395.61743 40.765644,396.87993 41.110538,398.40523 C 41.304484,399.35343 41.401475,401.06426 41.401508,403.5377 L 41.401508,410.95816 C 41.401475,416.13189 41.525428,419.40407 41.773335,420.77481 C 42.021172,422.14552 42.511537,423.45959 43.244428,424.71692 L 37.166109,424.71692 C 36.562549,423.56264 36.174588,422.21251 36.002156,420.6666 L 36.002156,420.6666 z M 35.517203,408.23736 C 33.40483,409.06187 30.236356,409.76266 26.011747,410.33982 C 23.619195,410.66958 21.927191,411.04063 20.935703,411.45288 C 19.944183,411.86512 19.179019,412.46804 18.640175,413.26159 C 18.101299,414.05517 17.831879,414.93636 17.831879,415.90514 C 17.831879,417.38922 18.419234,418.62598 19.593942,419.61537 C 20.768653,420.60474 22.487584,421.09945 24.750804,421.09945 C 26.99244,421.09945 28.986206,420.63054 30.732132,419.69265 C 32.477992,418.7548 33.760486,417.4717 34.579574,415.84328 C 35.204614,414.58595 35.51717,412.73085 35.517203,410.27795 L 35.517203,408.23736 z M 94.315364,424.71692 L 94.315364,419.89363 C 91.642633,423.60386 88.010724,425.45896 83.419668,425.45896 C 81.39356,425.45896 79.502164,425.08794 77.745513,424.3459 C 75.988829,423.60386 74.684788,422.67113 73.833388,421.54775 C 72.981992,420.42437 72.383881,419.04854 72.038983,417.42015 C 71.801905,416.32767 71.683364,414.59627 71.683364,412.22585 L 71.683364,391.88143 L 77.503022,391.88143 L 77.503022,410.09246 C 77.503022,412.99882 77.62156,414.95697 77.858675,415.96697 C 78.225086,417.43044 79.001041,418.57959 80.186544,419.4144 C 81.37201,420.2492 82.837692,420.6666 84.583617,420.6666 C 86.329477,420.6666 87.967624,420.23888 89.497988,419.38346 C 91.028316,418.52808 92.111415,417.36348 92.747316,415.88966 C 93.383114,414.4159 93.701049,412.27736 93.701083,409.47408 L 93.701083,391.88143 L 99.520737,391.88143 L 99.520737,424.71692 L 94.315364,424.71692 z M 147.00686,419.73903 L 147.84746,424.65509 C 146.20932,424.98488 144.74364,425.14977 143.45039,425.14977 C 141.33805,425.14977 139.69994,424.83029 138.53598,424.1913 C 137.37207,423.55232 136.55298,422.71239 136.07882,421.67145 C 135.60459,420.63054 135.36751,418.44045 135.36751,415.10124 L 135.36751,396.21004 L 131.09977,396.21004 L 131.09977,391.88143 L 135.36751,391.88143 L 135.36751,383.74984 L 141.15486,380.41063 L 141.15486,391.88143 L 147.00686,391.88143 L 147.00686,396.21004 L 141.15486,396.21004 L 141.15486,415.41046 C 141.15483,416.99759 141.25723,418.01792 141.462,418.47138 C 141.66674,418.92488 142.00084,419.28557 142.46428,419.55351 C 142.92768,419.82148 143.59048,419.95549 144.45267,419.95546 C 145.09926,419.95549 145.95065,419.88334 147.00686,419.73903 L 147.00686,419.73903 z M 175.27434,408.29916 C 175.27434,402.21854 177.04179,397.71476 180.57671,394.78776 C 183.52962,392.35554 187.12919,391.13943 191.37541,391.13939 C 196.09577,391.13943 199.954,392.61835 202.95008,395.57621 C 205.94609,398.53408 207.44411,402.62049 207.44415,407.83538 C 207.44411,412.06093 206.78132,415.38466 205.45576,417.80662 C 204.13014,420.22859 202.20102,422.10946 199.66841,423.44926 C 197.13577,424.78907 194.37143,425.45896 191.37541,425.45896 C 186.56876,425.45896 182.6836,423.9852 179.7199,421.03762 C 176.7562,418.09007 175.27434,413.84391 175.27434,408.29916 L 175.27434,408.29916 z M 181.25564,408.29916 C 181.25564,412.50414 182.21482,415.65263 184.13314,417.74476 C 186.05147,419.83696 188.46557,420.88303 191.37541,420.88303 C 194.26364,420.88303 196.66695,419.8318 198.58531,417.72934 C 200.50363,415.62689 201.46278,412.42166 201.46281,408.11367 C 201.46278,404.05303 200.49822,400.97662 198.56914,398.88446 C 196.64003,396.79236 194.24209,395.74626 191.37541,395.74622 C 188.46557,395.74626 186.05147,396.7872 184.13314,398.86901 C 182.21482,400.95089 181.25564,404.09428 181.25564,408.29916 L 181.25564,408.29916 z M 237.36544,424.71692 L 237.36544,391.88143 L 242.57081,391.88143 L 242.57081,396.4883 C 243.6485,394.88056 245.08187,393.58713 246.8709,392.60802 C 248.65989,391.62895 250.69676,391.13943 252.98153,391.13939 C 255.52492,391.13943 257.6103,391.64443 259.23769,392.65437 C 260.86501,393.66441 262.01276,395.07637 262.68096,396.89022 C 265.3968,393.05639 268.93168,391.13943 273.28569,391.13939 C 276.69125,391.13943 279.31009,392.04119 281.14224,393.84474 C 282.9743,395.64837 283.89035,398.42587 283.89042,402.17729 L 283.89042,424.71692 L 278.10307,424.71692 L 278.10307,404.03238 C 278.10304,401.8063 277.91443,400.20369 277.5373,399.22458 C 277.16003,398.24554 276.47568,397.45708 275.48423,396.85928 C 274.49271,396.26158 273.32876,395.96272 271.99244,395.96268 C 269.57831,395.96272 267.57378,396.73049 265.97877,398.26611 C 264.38372,399.80177 263.58622,402.25976 263.58625,405.64016 L 263.58625,424.71692 L 257.7666,424.71692 L 257.7666,403.38314 C 257.76656,400.90967 257.29237,399.05453 256.34402,397.81778 C 255.3956,396.58106 253.84368,395.96272 251.68828,395.96268 C 250.05013,395.96272 248.53594,396.37496 247.1457,397.1994 C 245.75542,398.02395 244.74777,399.22974 244.12273,400.81687 C 243.49762,402.40403 243.1851,404.69201 243.1851,407.68081 L 243.1851,424.71692 L 237.36544,424.71692 z M 314.34271,408.29916 C 314.34271,402.21854 316.11017,397.71476 319.64506,394.78776 C 322.598,392.35554 326.1976,391.13943 330.44377,391.13939 C 335.16417,391.13943 339.02237,392.61835 342.01845,395.57621 C 345.0145,398.53408 346.5125,402.62049 346.51254,407.83538 C 346.5125,412.06093 345.8497,415.38466 344.52415,417.80662 C 343.19854,420.22859 341.2694,422.10946 338.73681,423.44926 C 336.20418,424.78907 333.43981,425.45896 330.44377,425.45896 C 325.63715,425.45896 321.75198,423.9852 318.78829,421.03762 C 315.82457,418.09007 314.34271,413.84391 314.34271,408.29916 L 314.34271,408.29916 z M 320.32405,408.29916 C 320.32405,412.50414 321.28317,415.65263 323.20156,417.74476 C 325.11987,419.83696 327.53393,420.88303 330.44377,420.88303 C 333.33203,420.88303 335.73534,419.8318 337.65372,417.72934 C 339.57201,415.62689 340.53117,412.42166 340.5312,408.11367 C 340.53117,404.05303 339.56661,400.97662 337.63754,398.88446 C 335.70841,396.79236 333.31049,395.74626 330.44377,395.74622 C 327.53393,395.74626 325.11987,396.7872 323.20156,398.86901 C 321.28317,400.95089 320.32405,404.09428 320.32405,408.29916 L 320.32405,408.29916 z M 389.99445,419.73903 L 390.83507,424.65509 C 389.19693,424.98488 387.73124,425.14977 386.43798,425.14977 C 384.32564,425.14977 382.68753,424.83029 381.52362,424.1913 C 380.35965,423.55232 379.54059,422.71239 379.06642,421.67145 C 378.59222,420.63054 378.35512,418.44045 378.35512,415.10124 L 378.35512,396.21004 L 374.08735,396.21004 L 374.08735,391.88143 L 378.35512,391.88143 L 378.35512,383.74984 L 384.14246,380.41063 L 384.14246,391.88143 L 389.99445,391.88143 L 389.99445,396.21004 L 384.14246,396.21004 L 384.14246,415.41046 C 384.14246,416.99759 384.24482,418.01792 384.4496,418.47138 C 384.65438,418.92488 384.98844,419.28557 385.45186,419.55351 C 385.91528,419.82148 386.57809,419.95549 387.44025,419.95546 C 388.08688,419.95549 388.93829,419.88334 389.99445,419.73903 L 389.99445,419.73903 z M 420.46043,385.79046 L 420.46043,379.39033 L 426.2801,379.39033 L 426.2801,385.79046 L 420.46043,385.79046 z M 420.46043,424.71692 L 420.46043,391.88143 L 426.2801,391.88143 L 426.2801,424.71692 L 420.46043,424.71692 z M 468.63039,424.71692 L 455.56851,391.88143 L 461.71146,391.88143 L 469.08305,411.54561 C 469.88054,413.6687 470.61338,415.87421 471.28158,418.16216 C 471.79886,416.43076 472.52095,414.34891 473.44782,411.91666 L 481.07802,391.88143 L 487.05933,391.88143 L 474.06209,424.71692 L 468.63039,424.71692 z M 537.91773,414.14278 L 543.93135,414.85392 C 542.98295,418.21374 541.2263,420.82116 538.66135,422.67629 C 536.09637,424.53142 532.82009,425.45896 528.83256,425.45896 C 523.81041,425.45896 519.82828,423.98004 516.88609,421.02214 C 513.94394,418.06427 512.47283,413.91603 512.47286,408.57742 C 512.47283,403.05334 513.96008,398.76599 516.93459,395.71533 C 519.9091,392.66473 523.76727,391.13943 528.50925,391.13939 C 533.10033,391.13943 536.85075,392.6338 539.76062,395.62256 C 542.67042,398.6114 544.12532,402.81631 544.12535,408.23736 C 544.12532,408.56713 544.11457,409.06187 544.09303,409.72144 L 518.48652,409.72144 C 518.70202,413.32862 519.76896,416.09064 521.68732,418.0076 C 523.60563,419.92456 525.99816,420.88303 528.86492,420.88303 C 530.99877,420.88303 532.82009,420.34709 534.32891,419.27525 C 535.8377,418.20341 537.03396,416.49262 537.91773,414.14278 L 537.91773,414.14278 z M 518.8098,405.14548 L 537.98237,405.14548 C 537.7237,402.38346 536.99086,400.3119 535.78384,398.93087 C 533.93017,396.7872 531.52686,395.71536 528.57396,395.71533 C 525.90119,395.71536 523.65413,396.57074 521.83281,398.28156 C 520.01146,399.99242 519.0038,402.28037 518.8098,405.14548 L 518.8098,405.14548 z"
       id="text3343"
       style="font-size:19.57287598px;font-style:normal;font-variant:normal;font-weight:normal;font-stretch:normal;text-align:start;line-height:100%;writing-mode:lr-tb;text-anchor:start;fill:#4a4643;fill-opacity:1;stroke:none;stroke-width:1px;stroke-linecap:butt;stroke-linejoin:miter;stroke-opacity:1;font-family:Arial;-inkscape-font-specification:Arial" />
    <path
       d="M 10.366071,11.075893 L 10.366071,344.27811 L 83.560976,344.27811 L 83.560976,199.54244 L 166.26708,199.54244 L 166.26708,147.54097 L 83.560976,147.54097 L 83.560976,85.51139 L 166.26708,85.51139 L 166.26708,11.075893 L 83.560976,11.075893 L 21.014482,11.075893 L 10.366071,11.075893 z M 184.56581,11.075893 L 184.56581,85.51139 L 236.05036,85.51139 L 236.05036,344.27811 L 309.24526,344.27811 L 309.24526,85.51139 L 364.24483,85.51139 L 364.24483,11.075893 L 184.56581,11.075893 z M 383.68076,11.075893 L 383.68076,344.27811 L 456.97905,344.27811 L 543.82046,344.27811 L 543.82046,269.84263 L 456.97905,269.84263 L 456.97905,199.54244 L 543.82046,199.54244 L 543.82046,147.54097 L 456.97905,147.54097 L 456.97905,85.51139 L 543.82046,85.51139 L 543.82046,11.075893 L 456.97905,11.075893 L 383.68076,11.075893 z"
       id="path3386"
       style="fill:#4a4643;fill-opacity:1;fill-rule:nonzero;stroke:none;stroke-width:1;stroke-linecap:round;stroke-linejoin:miter;stroke-miterlimit:6;stroke-opacity:1" />
    <path
       d="M 601.09444,11.075893 L 792.5,11.075893 L 601.09444,344.27811 L 601.09444,11.075893 z"
       id="rect3347"
       style="fill:#dc2b19;fill-opacity:1;fill-rule:nonzero;stroke:none;stroke-width:1;stroke-linecap:round;stroke-linejoin:miter;stroke-miterlimit:6;stroke-opacity:1" />
  </g>
</svg>
