<svg xmlns="http://www.w3.org/2000/svg" viewBox="0 0 176 93.53"><title>gg_logo_blue</title><path d="M133.23,0H176V27.73l-42.77,0a19.11,19.11,0,0,0-18.74,19.09A19.4,19.4,0,0,0,133.56,66a18.84,18.84,0,0,0,19-17.76H176V93.53l-42.77-.15a46.73,46.73,0,0,1-43.9-31.14V93.53l-42.77-.15A46.69,46.69,0,0,1,46.56,0H89.33V27.73l-42.77,0A19.1,19.1,0,0,0,27.82,46.84,19.4,19.4,0,0,0,46.89,66,19.13,19.13,0,0,0,64.4,54.62a19.34,19.34,0,0,0,1.52-6.43H86.7l0-1.5A46.71,46.71,0,0,1,133.23,0" style="fill:#009cc4"/></svg>