<svg version="1.2" xmlns="http://www.w3.org/2000/svg" viewBox="0 0 1546 861" width="1546" height="861"><style>.a{fill:#151617}.b{fill:#e51e26}</style><path fill-rule="evenodd" class="a" d="m54.1 793l-5.1-3.1-18.9-0.4-4.9 3-4.6 13-2.9 10.4 3.6 2.6 4.1 0.3 0.2 2.9-0.4 0.4c-3.2-0.2-7.2-0.2-13-0.6-4.2-0.1-8.8-0.1-12.1 0.2l0.2-3.2 4.1-0.4 7.6-6c2.4-5.9 6-13.9 11.5-27.9l13.4-33.7 2.3-8.9 6.5-4.7 1.9 1.2c1.5 5.5 3.4 11.4 5.3 16.9l16.4 50.7c3.4 10.9 5.1 12.8 10.4 13.6l3.5 0.3v3.2c-5.2-0.2-9.5-0.6-15.1-0.6-5.7-0.1-10.9-0.1-14.5 0.2l-0.2-3.1 0.2-0.2 3.6-0.3 4.5-2.2-1.6-6.6m-30.6-28.7l2.6 3.1 15.7 0.2 2.7-3.8-6.5-20.7-2.8-7.9-3.1 7.4zm114 6c0-4.9 0.2-5.5-3.2-7.9l-1.1-0.6v-2.3c4.5-1.5 8.6-3.4 12.6-5.7l1.4 0.9-0.2 5.8 1.2 1.6h0.2c5.1-3.6 11.3-5.9 17.7-6.2 7.7-0.3 14.2 5.7 14.6 13.4l-0.2 2.4-0.3 21.7c-0.2 9.1-0.2 10.3 4.6 11l2.8 0.3v3.3c-3.8 0-7.4-0.5-11.7-0.5-4.3 0-8.3-0.2-11.7 0.2v-3.1l2.4-0.4c4.6-0.7 4.8-1.9 5-10.8l0.3-18.8c0.9-6-3.1-11.5-9.1-12.5l-2.4-0.2c-4-0.1-7.9 1.4-10.8 4.3l-2.1 7.6-0.3 19.3c-0.2 9.1-0.2 10.1 4.6 11l2.2 0.3v3.1l-0.1 0.2c-3.5 0-7.1-0.5-11.4-0.5-4.5-0.2-8.2-0.2-11.7 0.1v-3.1l2.6-0.3c4.6-0.5 4.8-1.9 5-10.8l0.3-22.1zm79.1 5l-3.4 3.5c-0.2 12.5 7 23.5 20.5 23.7 4.6 0.3 9.1-1.9 11.8-5.7l2.1 1.1 0.1 0.6c-3.9 7.3-11.7 11.7-19.9 11.4-7.1 0.2-13.8-2.9-18.1-8.6-3.4-4.8-5.1-10.5-4.9-16.3 0.1-15.4 10.6-28.2 25.6-28.1 8.9-0.5 16.7 6.2 17.3 15.2l-0.5 3.2c-0.3 0.7-2 0.9-7.4 0.7zm7.9-3.6c9.3 0.2 12.1-0.3 13.1-1l0.9-2.4c0-3.6-2.3-7.9-9.7-8.1-6.5 0-12.3 4.5-14.1 10.6l0.9 0.7zm45.2-0.6c-2.7-7.1-4.3-8.3-7.4-9.1l-2-0.6 0.5-2.9 11.2 0.5 10.8-0.2 0.2 2.8-0.2 0.2-2.9 0.5-2.8 1.7 1.9 6.5 7.6 19.3 2.2 5.5 2.9-5.8 6.4-15.2 1.2-7.2-5.8-4.5-1.9-0.5v-2.7l0.3-0.2 10.5 0.5c3.3 0 7.7 0.2 11.7-0.2l0.3 3.1-2.5 0.4c-5 0.8-4.9 1.4-3.3 5.8 1.4 4.5 7.9 20.3 9.1 23.6l1.7 3.4 1.7-3.4c1.8-3.6 6.9-16.9 9-22l1.4-5.4-2.3-1.7-3.2-0.5-0.2-2.9 0.2-0.2 9.9 0.5 8.1-0.1 0.4 2.9-2.6 0.5c-3.1 0.5-4.2 2.2-6.9 7.7-3.6 6.9-9.8 22-12.2 28.4-1.9 4.5-3.4 8.1-4.5 11.4l-1.7 0.5-1.4-0.5c-0.7-2.5-2.9-8.8-5-14l-5.6-14.6-2.8-6.3-2.9 5.8-6.7 15.6c-2.4 5.4-4.1 9.9-5.2 12.8l-1.5 0.5-1.6-0.5-3.6-10.5-11.3-28.6zm132.4 1.9c-2.8-7-4.3-8.2-7.4-9.1l-2.1-0.5 0.4-3.1 11.1 0.5 11-0.2 0.2 2.8-0.2 0.2-2.9 0.5-2.7 1.7 1.9 6.5 7.5 19.5 2.1 5.3 3.1-5.9 6.3-15.1 1.2-7.2-5.8-4.5-1.9-0.5 0.2-2.8 0.1-0.1 10.5 0.5c3.3 0.2 7.8 0.2 11.7-0.2l0.4 3.1-2.6 0.4c-5 1-4.8 1.3-3.4 5.8 1.3 4.5 7.9 20.3 9.2 23.6l1.6 3.6 1.9-3.5c1.7-3.6 6.9-16.8 8.9-22l1.2-5.3-2.2-1.7-3.3-0.5-0.1-3 0.1-0.1 10 0.5 8.1-0.2 0.3 2.9-2.6 0.5c-3.1 0.7-4.1 2.3-6.8 7.8-3.6 7-9.8 22-12.3 28.4-1.8 4.4-3.4 8-4.4 11.3l-1.7 0.5-1.4-0.5c-0.7-2.2-2.9-8.8-5-13.9l-5.7-14.6-2.7-6.4-2.9 5.8-6.8 15.7c-2.2 5.3-4.1 9.8-5.1 12.7l-1.6 0.5-1.5-0.5-3.6-10.5-11.4-28.5zm112.3 13.1l2.3-3.7 0.1-5.8c0.2-4.6-1.2-11-8.9-11-3.6 0-7.9 1.7-8.1 5.8l-1.2 4.2-7.2 2.2-1.7-1.4v-0.3c0.1-6.6 14.4-15.2 23.7-15.2 9.3 0.2 13.4 5.5 12.9 15l-1.6 22c-0.1 5.9 0.7 10.9 5.7 11l3.3-0.7 1.7-0.8 0.9 1.7c-2.6 3.4-6.6 5.3-10.7 5.3l-8.1-3.9-2-1.9-5 2.4-9.1 3.1-8.8-3.1-3.8-8.9c0-5 2.6-7.8 10.7-10.5zm-8.1 22l7.7-3.1 1.7-5.9 0.2-7.4-1.2-1.7-5.1 1.2c-7.4 2.4-11 4.1-11.2 9.1-0.2 4.2 3.2 7.6 7.4 7.8zm40.5 30.4l4.5-5h3.1l4.1-2.2c3-4.5 5.5-9.1 7.6-13.9l1.2-5.4-2.1-8.7-9.4-27c-2.1-5.9-2.9-9-7.2-10l-3.3-0.7 0.3-3.3c4 0.2 7.8 0.5 11.7 0.5 4 0.2 6.9 0.2 11-0.1v3.1l-3.2 0.7-2.8 1.5c0.9 4 2.1 7.9 3.5 11.9l3.9 11.8 3.5 9 4.8-9.3 4.4-10q2.9-5.9 4.7-12.4l-2.9-2.2-3.8-0.7v-3.3c4.1 0.2 7.7 0.6 11 0.6l9.4-0.2 0.2 2.9-0.2 0.2-2 0.3c-4.2 0.7-6.6 4.3-10.9 13.3l-7.2 14.4c-4.3 8.3-14.9 30.1-21.3 43.7l-8.1 5.8-5.5-4.6v-0.9zm126.2-68.2l-2.2 3.6-0.3 26.5c-0.2 9.1-0.2 10.5 4.6 11l4.6 0.3v3.1l-0.1 0.2c-5.9-0.2-9.3-0.5-13.6-0.7-4.5 0-8.3-0.2-12.1 0.2v-3.1l3-0.4c4.6-0.5 4.8-1.9 5-10.8l0.3-26.5-2.4-3.6-4.5-0.2-0.3-2.4 5.5-2.6 1.9-2.4c-0.2-7.5 1.3-15.1 4.1-22 3.6-9.4 12.7-15.6 22.9-15.6 6.5 0.1 12.2 3.2 12.2 7.7l-4.8 4.5-3-1.6-9.9-5.6c-4.2 0.1-7.8 2.9-9 6.7q-3.3 10.3-3.1 21.1v3.6l2.1 3.5 14.3 0.1-1.1 5.4-13.4-0.2z"/><path fill-rule="evenodd" class="a" d="m757.7 807.1c0.5 14.1-10.5 26-24.6 26.7h-2.2c-13.8 0.3-25.1-10.5-25.5-24.3v-2.1c-0.1-14.6 11.6-26.6 26-26.8h1c14-0.2 25.1 11.2 25.3 24.9v1.8m-26.6-22.6c-8.3-0.1-14.7 7.8-14.8 21.5-0.2 11.6 4.8 23.6 15.8 23.8 11 0.1 14.6-11.6 14.8-21 0.2-10.7-4-24.3-15.8-24.4zm52.6 12.3c0-5 0-5.6-3.3-8l-1-0.6v-2.3c4.4-1.5 8.6-3.4 12.7-5.7l1 0.9-0.1 7.4 0.3 1c3.8-3.8 8.6-6.3 13.9-7.2l5.9 4.7v0.5l-5.5 5.8-2.8-0.8-5.5-2.1-4.6 2.4-1.7 9.6-0.4 17.1c-0.2 9.1-0.2 10.6 4.8 11l4.5 0.3v3.1l-0.2 0.2c-5.8-0.2-9.4-0.5-13.9-0.5-4.5 0-8.3-0.2-11.7 0.1v-3.1h0.2l2.4-0.3c4.6-0.7 4.8-1.9 4.8-10.8l0.3-22.1zm108.6 11.5l2.2-3.6 0.2-5.8c0.2-4.7-1.2-10.8-9-11-3.6 0-7.9 1.7-8 5.8l-1.4 4.3-7.2 2.3-1.8-1.4v-0.4c0.2-6.5 14.5-15.1 23.8-15.1 9.3 0.2 13.4 5.5 12.9 15l-1.1 21.8c-0.1 5.9 0.7 11 5.7 11l3.3-0.7 1.7-0.8 0.9 1.7c-2.5 3.4-6.4 5.3-10.7 5.3l-8.1-3.9-2-1.7-5 2.4-9 2.5-8.7-3.1-3.8-8.9c0.1-5 2.6-7.7 10.6-10.5zm-8 22.1l7.7-3.1 1.8-5.8 0.1-7.4-1.2-1.7-5.1 1.1c-7.4 2.5-11 4.2-11.2 9.2 0 4.1 3.3 7.5 7.4 7.7zm91.3-31c0-4.9 0-5.5-3.2-7.9l-1.1-0.8v-2.3c4.5-1.5 8.6-3.4 12.6-5.6l1.4 0.8-0.2 5.9 1.2 1.5h0.2c5.1-3.6 11.3-5.8 17.7-6.2 7.7-0.3 14.2 5.5 14.6 13.3l-0.2 2.6-0.3 21.6c-0.2 9-0.2 10.3 4.6 11l2.8 0.4v3.2c-3.8 0-7.4-0.5-11.7-0.5-4.3 0-8.3-0.1-11.7 0.2v-3.1l2.4-0.3c4.6-0.7 4.8-1.9 5-10.9l0.1-18.7c1.1-6-3.1-11.5-8.9-12.6l-2.6-0.1c-3.9-0.2-7.9 1.3-10.6 4.2l-2.1 7.6-0.3 19.3c-0.2 9.1-0.2 10.1 4.6 11l2.2 0.3 0.2 3.1-0.2 0.2c-3.4 0-7-0.5-11.5-0.5-4.5-0.2-8.2-0.2-11.7 0.2v-3.1l2.6-0.4c4.6-0.5 4.8-1.9 4.8-10.8l0.3-22zm79.1 5.3l-3.5 3.3c-0.1 12.7 7.1 23.5 20.5 23.7 4.6 0.2 9.1-1.9 11.9-5.7l2 1.1 0.2 0.5c-3.9 7.2-11.7 11.7-19.9 11.5-7.1 0.2-13.8-2.9-18.1-8.6-3.4-4.8-5.2-10.5-5-16.3 0.2-15.5 10.7-28.3 25.6-28.1 9-0.5 16.7 6.2 17.4 15.2l-0.5 3.2c-0.4 0.7-2.1 0.9-7.4 0.7zm7.7-3.6c9.3 0.1 12-0.4 13.1-1.1l0.8-2.4c0-3.6-2.2-7.9-9.6-8.1-6.5 0-12.4 4.3-14.1 10.7l0.9 0.7zm45.1-0.9c-2.7-7.1-4.3-8.3-7.4-9.1l-2-0.6 0.5-3.1 11.1 0.6 11.1-0.2 0.1 2.7-0.1 0.2-3 0.5-2.7 1.7 1.9 6.6 7.5 19.4 2.3 5.3 2.9-5.8 6-15.1 1.2-7.3-5.8-4.4-1.9-0.5 0.2-2.8 0.1-0.2 10.5 0.5c3.3 0.2 7.8 0.2 11.7-0.1l0.3 3.1-2.5 0.3c-5 0.9-4.8 1.4-3.5 5.9 1.4 4.4 7.9 20.3 9.3 23.5l1.6 3.6 1.7-3.4c1.7-3.6 6.9-16.9 8.9-22l1.4-5.3-2.2-1.8-3.3-0.5-0.2-2.9 0.2-0.2 10 0.5 8-0.1 0.4 2.9-0.2 0.2-2.6 0.5c-3.1 0.7-4.1 2.2-6.8 7.7-3.5 6.9-9.8 22-12.2 28.4-1.9 4.5-3.5 8.1-4.5 11.3l-1.7 0.6-1.4-0.6c-0.7-2.4-2.9-8.7-5-13.9l-5.7-14.6-2.9-6.4-2.9 5.9-6.7 15.6c-2.4 5.4-4.1 9.8-5.4 12.8l-1.5 0.5-1.5-0.5-3.7-10.5-11.3-28.6zm132.8 2c-2.8-7.1-4.3-8.3-7.4-9.1l-2.1-0.5 0.4-3.1 11.1 0.5 11-0.2 0.2 2.8-0.2 0.1-2.9 0.5-2.7 1.8 1.9 6.5 7.5 19.3 2.2 5.5 3-5.9 6.3-15.1 1.2-7.2-5.8-4.5-2.1-0.5 0.2-2.8 0.2-0.1 10.5 0.5c3.2 0 7.7 0.1 11.7-0.2l0.3 3.1-2.6 0.3c-5 0.9-4.8 1.4-3.4 5.9 1.4 4.5 7.9 20.3 9.3 23.5l1.5 3.5 1.9-3.5c1.7-3.6 6.9-16.8 8.9-22l1.3-5.3-2.3-1.7-3.1-0.5-0.3-2.8 0.3-0.3 10 0.5 8.1-0.2 0.3 2.9-0.2 0.2-2.5 0.5c-2.9 0.5-4.2 2.3-6.9 7.8-3.4 6.8-9.8 22-12.2 28.3-1.9 4.5-3.4 8.1-4.5 11.4l-1.7 0.5-1.4-0.5c-0.7-2.4-2.9-8.8-5-13.9l-5.6-14.7-2.8-6.3-2.9 5.8-6.7 15.7c-2.4 5.3-4.1 9.8-5.2 12.7l-1.5 0.5-1.1-0.5-3.6-10.5-11.3-28.5zm139.1 14c0.5 14.1-10.5 25.9-24.6 26.6h-2.3c-13.7 0.3-25.1-10.5-25.4-24.2v-2.1c0-14.6 11.7-26.5 26.3-26.5h0.9c13.9 0 25.1 11.2 25.1 25.1zm-26.7-22.5c-8.2-0.1-14.6 7.8-14.8 21.5-0.1 11.6 4.8 23.6 15.8 23.8 11 0.1 14.7-11.6 14.8-21 0.2-10.7-3.9-24.3-15.8-24.4zm52.8 12.1c0-5 0.2-5.5-3.3-7.9l-1-0.7v-2.2c4.5-1.5 8.6-3.4 12.7-5.7l1.1 0.9-0.2 7.4 0.3 1c3.8-3.8 8.6-6.4 14-7.4l5.8 4.7v0.5l-5.5 5.8-2.8-0.8-5.5-2.1-4.4 2.4-1.9 9.6-0.4 17.1c-0.1 9.1-0.1 10.6 4.8 11l4.5 0.3v3.1l-0.1 0.2c-5.9-0.2-9.5-0.5-14-0.5-4.4 0-8.2-0.2-11.7 0.2v-3.2h0.2l2.4-0.3c4.7-0.7 4.8-1.9 5-10.8l0.3-22.1zm58.4 23.1c-0.2 9.1-0.2 10.3 4.7 11l2.9 0.3v3.1l-0.2 0.2c-4.1 0-7.7-0.5-12.2-0.5-4.5-0.2-8.3-0.2-12 0.2v-3.2l2.9-0.3c4.6-0.5 4.8-1.9 5-10.8l0.8-56.8c0.2-7.4 0.2-8.1-3.7-10.5l-1.3-0.7v-2.5c4.7-1.4 9.3-3.1 13.6-5l1.2 0.7c-0.1 3.7-0.5 9.9-0.7 15.6l-0.8 59.5zm72.9-3.3c-0.1 9.9-0.1 14.6 3.5 14.6l5.3-1.2v3.9c-5.7 0.9-11.3 2.1-16.7 3.8l-1.3-1v-5.9h-0.6c-4.6 3.6-10.1 5.5-15.9 5.7-12.8 0-23.3-10.3-23.3-23v-1.4c0-15.8 12.8-28.6 28.4-28.6l2.4 0.2 8.4 1.2 0.9-1.7 0.3-18.9c0.2-7.4 0.2-8.1-3.7-10.5l-1.2-0.9v-2.6c4.6-1.2 9.2-2.9 13.5-4.9l1.2 0.8c-0.1 3.8-0.5 10-0.5 15.7zm-8.5-19l-1.4-5c-2.4-3.4-6.4-5.3-10.5-5.3-11.5-0.2-17.7 9.6-17.9 20.6-0.2 11 6 22.4 18.4 22.6l9.6-3.3 1.1-4.6 0.3-24.8z"/><path fill-rule="evenodd" class="b" d="m953.9 170.6c-1.4 91.3-80.8 165.6-175.4 164.2-94.6-1.4-172.1-77.5-170.7-169.4 1.4-92 80.3-165.8 175.7-164.4 42.5 0.7 118.5 27.7 144.4 73.8l-99.7 93.9zm-132.6 13.2l-101.4-1.5-0.7 48.3c0.5 26.7 21.7 48.5 48.3 49.7 28 1.4 51.8-20.1 53.2-48.1zm1.2-73.8c-0.6-26.7-21.7-48.5-48.4-49.7-27.8-1.4-51.7 20.1-53.1 48.1l-0.7 48.5 101.5 1.6zm-635.4 526.4c-0.8 21.5-6.9 38.2-18.4 50.4-9.6 10.7-25.1 19.5-46.1 26.5l-8.7-13.6c7.9-1.7 15.1-5.8 20.4-11.8 3.8-6.9 5.5-14.7 5.2-22.6l0.5-20.4c-20.8 11.7-37.8 17.5-50.9 17.2-16.3-0.7-32-7.1-44.3-17.9-13.3-10.2-23.3-23.9-28.8-39.7-4.1-12.4-6-25.5-5.6-38.4-0.5-27.2 11-53.1 31.4-70.9 13.6-11.8 36.5-24 68.5-36.1 22.8 0.4 46.4 11.4 70.5 33.2l-25.7 38.4c-16.1-25.2-35.9-40.3-59.3-45.3-14.6 3.3-24.9 9.3-30.8 18.1q-9.5 14.2-9.9 46.8c-0.9 22.5 5.6 44.7 18.7 63.1 12.6 17.2 26.5 26 41.8 26.1 3.6 0 12.2-7.9 26-23.9l1.2-32c0.1-5.8-1.2-8.9-4.7-9.6h-1.9l-6.5-0.2 0.2-13.7 60.1-6-3 82.2zm110.5 20.4c-8.6 1.4-17.3 1.6-26.1 0.2l-17.6-1.4-11.3 0.5-18.7 1.2 2-185.4q0-4.3-4.6-30.9c-0.9-5-2.3-7.6-4.7-7.6l-1.9-0.3-6.3 1.7 0.3-15.1 52.1-13.6c6.9 24.9 10.8 50.5 11.5 76.5l-0.3 26.5-3.4 122.8 11.7 2 4.9 0.6 3.8 0.5 5.7-1.7 18.9-11.6 9.6 11.9c-9.9 12.9-18.4 20.6-25.6 23.2zm172.6-12.9c-9.6 7.8-21.1 12.9-33.3 15l-35.9 6.2c-23.1-2.6-44.2-14-59-31.7-14.8-18.4-22.4-41.6-21.2-65.1 0.5-30.3 10.7-53.9 30.5-71.1 14.9-13.2 38.5-24.2 70.5-33.3q33 0.5 66 34.5l-32 26.2c-9.3-10.5-20.1-19.5-32-26.9-6.7-4.6-14.3-7.7-22.2-9.1-10.3-0.2-18.9 7.4-26.1 22.4-5.5 11.5-8.8 23.9-9.6 36.6l68.4 2.6c11.4 0 22.2-3.3 31.8-9.3l7.6 13.9c-9.6 6.6-20.1 11.9-31.1 16-11.4 3.5-23.1 5-34.9 4.7l-41.1-0.4c2.4 16.7 10.3 32.2 22.1 44.1q20.4 21.4 40.8 21.6c12.5 0.2 22.7-15.5 30.1-46.9l30.3 11.3c-4.9 17.9-11.4 30.6-19.5 38.2v0.5zm168.2 22.2q-4.9 0-8.3-7.2c-1.9-3.6-2.9-7.8-2.6-11.7l0.2-5.9 0.4-4.9 10.5-91.7 0.1-4.1c0.2-9.7-5-19-15.3-28.1-8.9-8.6-20.6-13.6-33-14.4-8.4 5.8-14.9 13.7-18.9 23.2-5.2 9.5-8.1 20-8.8 30.6l-3.1 106.8-44.3 6 4.1-129.1-0.9-10.5-1.5-9.3-4.8-18.4-0.5-2.4-1.2-0.7-5.9-0.2-3.6-15.3 50.6-12.7 8.2 24.4 2.2 9.5c20.2-18.9 38.7-30.1 55.9-33.4 18.4 2.9 34.9 12.2 47 26.3 13 13.3 20.1 31.3 19 49.9l-0.8 7.7-11.2 85.7 0.9 7.4v0.8h0.8l8.3-0.8 1.4 16.1zm292.3 4.9l-2.3-2.1-0.7-0.7c-4.4-4.1-6.2-11.9-5.5-22.4l0.2-4.9 10.7-95.3c0.5-10.2-3.1-20.1-9.8-27.9-5.7-8.2-14.6-13.4-24.6-13.9l-9.6 1.7c-5.2 7.4-10 15.1-14.1 23.1l-1.6 3.7-3.1 131.3-44.3 5.8 4.4-125.4c0.5-10.1-2.4-20.1-8.2-28.3-5.5-8.3-14.6-13.5-24.6-13.5l-3.6 0.4-7.1 2-10.8 17.6-3.8 8.1-3.3 131.9-44.3 5.8 4.1-128.9-0.9-10.5-1.5-9.3-5-18.4-0.5-2.4-1.2-0.7-5.8-0.2-3.7-15.3 50.2-12.7c4.2 12 7.1 21.1 8.6 27.3 11.9-13.1 27.4-22.3 44.2-27.3h2.4c19.5 0.3 36 11.7 49.9 34.4 12.6-16 29.9-27.6 49.5-32.9 16.3 0.4 31.1 8.3 44.4 24.1 13.2 15.8 19.8 31.5 19.6 46.8l-0.9 5.1-0.8 7.9-10.4 80.9c-0.5 4.4-0.3 9.1 0.6 13.6h1.5l7.9-2.3 1.4 17.2zm197.9 7.2l-17.2-24.7-6.5-12.2c-22.4 16.5-48.5 27.1-76 30.6-8.3-2.8-15.7-7.6-21.5-13.9-6.4-6.2-10-14.8-10-23.6 0.4-25.3 27.3-49.9 81-74-5.3-18.2-8.6-28.3-9.5-30.4-3.7-10-10.3-18.6-18.9-24.8l-16.5 10.9-9.8-11.9 28-21.7 10.5-6.7 8.3-2c11.2 0.1 22.3 7.7 33.3 22.7 6.2 8.6 13.4 30.1 21.4 64.5 7.4 33 20.9 64.3 40.2 92.1zm-46.4-95.4c-11.5-0.5-22.9 2.9-32.2 9.6-7.9 5.2-12.9 13.8-13.4 23.2q-0.3 11.4 20.1 28.9h1.4l2.8 0.2c16.3 0.2 27.3-9.1 33-28.2l-9.4-33.6zm150.4 38.8l-1.3 47.8-44.2 5.5 4.1-128.6-0.8-10.5-1.4-9.4-5.2-18.5-0.3-2.4-1.6-0.6-5.5-0.2-3.4-15.2 50.2-13 6.2 16.7 2.2 7.5c13.3-9.9 27.7-17.9 43-23.9 19.1 1.2 37.3 9.1 51.4 22 14.1 13.8 21.5 32.9 20.5 52.7-0.6 27.3-18.8 47.8-54.7 61.2 24.9 30.8 42.8 46.4 53.6 46.6h2.8l7.7-0.9-0.1 13.6c-9 4.7-18.8 7.1-28.8 7.1l-10.5 0.7c-16.5-0.2-34.2-10-52.9-29.3l-14.3-14.8-2.7-3.2c-4.1-4.2-8.6-7.9-13.4-11.2zm0.1-15l5.2 0.2c14.4 0.8 28.7-2.2 41.6-8.6 13.4-6.7 21.7-20.5 21.2-35.4 0.3-14.3-4.8-27.9-14.3-38.6-7.4-10.1-18.9-16.3-31.5-17.2l-3.1 0.4-5 1.9c-5.1 9.4-8.9 19.4-11.3 30.1-1 5.8-1.5 11.7-1.7 17.5zm223-25.9c7.5 3.6 17.2 13.4 28.9 29.2l11.5 15.3 2.4 3.9c16.1 21.6 28.5 32.4 37.3 32.5l2.4 13.1-21.3 6.4-16.2 1.7c-8-0.2-17.5-5.8-28.2-17.4-2.9-2.9-10.1-12-22.2-27.3l-2.4-3.4c-9.8-12.6-16.5-19.3-19.9-20.5l-4.1 4.5-0.9 53.3-44.4 6.5 2.3-150.1c0.3-19.1-0.7-38.2-3.1-57-1.7-12.3-3.3-18.5-4.7-18.7h-2.2l-5.5 1-3.3-15.3 51.3-14.1c8.6 22.9 12.5 60.9 11.7 114.2l-0.7 45.8c30.8-35.1 49.2-68.8 55.2-101l46.6 0.7c-7.4 15.3-16.4 29.7-26.5 43.2-11.7 15.1-26.5 32.8-44 53.1z"/></svg>