<?xml version="1.0" encoding="UTF-8" standalone="no"?>
<svg
   width="88"
   height="54"
   class="header_logo"
   fill="none"
   version="1.1"
   id="svg8"
   sodipodi:docname="image(1).svg"
   inkscape:version="1.4 (e7c3feb1, 2024-10-09)"
   xmlns:inkscape="http://www.inkscape.org/namespaces/inkscape"
   xmlns:sodipodi="http://sodipodi.sourceforge.net/DTD/sodipodi-0.dtd"
   xmlns="http://www.w3.org/2000/svg"
   xmlns:svg="http://www.w3.org/2000/svg">
  <sodipodi:namedview
     id="namedview8"
     pagecolor="#505050"
     bordercolor="#eeeeee"
     borderopacity="1"
     inkscape:showpageshadow="0"
     inkscape:pageopacity="0"
     inkscape:pagecheckerboard="0"
     inkscape:deskcolor="#505050"
     inkscape:current-layer="svg8" />
  <g
     clip-path="url(#a)"
     fill="#fff"
     id="g7"
     style="fill:#005195;fill-opacity:1">
    <path
       d="M35.684 22.135c-.16-.1-.39-.204-.658-.317l-.824-.348-3.295-1.394-5.235-2.214c-.004.15-.005.303-.005.455 0 7.3 4.273 13.6 10.456 16.543V22.884a.971.971 0 0 0-.122-.456.939.939 0 0 0-.317-.293Z"
       id="path1"
       style="fill:#005195;fill-opacity:1" />
    <path
       d="M38.54 19.885c-.244-.476-.625-.836-1.162-1.166a7.977 7.977 0 0 0-.42-.241l-.479-.255-.968-.52-1.938-1.039-7.08-3.796c-.22.705-.398 1.428-.532 2.168l5.912 2.99 3.194 1.616.798.404c.272.139.582.298.91.54.325.237.663.59.864 1.022.205.43.26.883.25 1.276V35.59c.34.12.683.229 1.032.33V21.622c-.02-.651-.133-1.262-.38-1.738Z"
       id="path2"
       style="fill:#005195;fill-opacity:1" />
    <path
       d="M41.365 18.2a6.617 6.617 0 0 0-.957-1.91 6.142 6.142 0 0 0-.695-.794c-.121-.128-.262-.234-.391-.35l-.21-.159-.104-.079-.11-.072-.223-.146-.26-.163-.522-.327-1.043-.654-8.245-5.172c-.408.63-.782 1.288-1.112 1.969l7.191 4.37 1.878 1.141.94.571.476.29c.17.102.343.213.515.334.344.24.69.524 1 .869.31.342.573.745.76 1.17.186.424.303.863.365 1.29.066.427.08.843.071 1.25v14.707c.341.062.686.114 1.032.157V20.369a8.003 8.003 0 0 0-.353-2.166l-.003-.003Z"
       id="path3"
       style="fill:#005195;fill-opacity:1" />
    <path
       d="m47.338 13.576.27-.225.136-.113.141-.103.283-.205.252-.175.507-.35 1.012-.699 7.868-5.436A18.287 18.287 0 0 0 44 0a18.29 18.29 0 0 0-13.807 6.271l7.866 5.435 1.011.7.507.35.253.174.282.205.141.103.136.113.27.225c.17.163.348.316.504.492.329.336.61.711.873 1.095.508.78.9 1.633 1.127 2.519.234.884.335 1.79.318 2.685V36.625a16.079 16.079 0 0 0 1.032 0V20.365c-.016-.894.085-1.8.318-2.685a8.554 8.554 0 0 1 1.127-2.518 8.24 8.24 0 0 1 .873-1.095c.157-.176.335-.328.504-.492l.003.001Z"
       id="path4"
       style="fill:#005195;fill-opacity:1" />
    <path
       d="m50.023 16.713.476-.29.94-.57 1.878-1.141 7.19-4.37c-.33-.68-.7-1.34-1.108-1.97l-8.248 5.173-1.043.654-.521.327-.26.162-.224.147-.11.072-.104.079-.21.158c-.128.117-.27.223-.39.35-.258.24-.481.515-.696.794a6.621 6.621 0 0 0-.957 1.91 8.02 8.02 0 0 0-.353 2.167V36.49a19.71 19.71 0 0 0 1.032-.158V21.623a7.269 7.269 0 0 1 .07-1.25c.063-.426.18-.865.366-1.29.186-.424.45-.827.76-1.17a5.747 5.747 0 0 1 1-.868c.172-.12.345-.232.515-.335l-.003.003Z"
       id="path5"
       style="fill:#005195;fill-opacity:1" />
    <path
       d="m52.934 19.642 3.195-1.616 5.907-2.989a18.264 18.264 0 0 0-.531-2.17l-7.078 3.797-1.938 1.04-.968.519-.478.255a7.158 7.158 0 0 0-.421.241c-.537.33-.918.69-1.163 1.166-.247.476-.36 1.087-.38 1.738v14.295c.349-.1.693-.21 1.032-.331V22.881c-.01-.392.046-.846.25-1.276.2-.432.54-.785.864-1.023.328-.241.638-.4.91-.538l.798-.405.001.003Z"
       id="path6"
       style="fill:#005195;fill-opacity:1" />
    <path
       d="m62.325 17.863-5.232 2.213-3.295 1.394-.824.349a4.878 4.878 0 0 0-.657.316.926.926 0 0 0-.318.293.971.971 0 0 0-.123.456V34.86c6.184-2.943 10.457-9.244 10.457-16.543 0-.152-.005-.303-.008-.454ZM6.732 40.67c1.174 0 2.37.192 3.445.502l-.458 2.067a8.917 8.917 0 0 0-2.709-.445c-2.171 0-3.983.985-3.983 4.463 0 3.477 1.514 4.52 3.466 4.52.438 0 .935 0 1.514-.058v-4.25h2.668V53.4c-1.454.464-2.927.599-4.322.599-3.367 0-6.334-1.41-6.354-6.685.14-5.081 3.385-6.646 6.731-6.646l.002.002ZM32.844 53.839l-.966-3.053h-4.083l-.93 3.053h-2.802l4.308-12.906h3.025l4.158 12.906h-2.71Zm-2.99-10.24-1.43 5.081h2.823L29.855 43.6ZM42.928 52.196l-2.483-7.612-.375 9.255h-2.314l.732-12.906h2.825l2.705 8.211 2.67-8.211h2.826l.732 12.906h-2.349l-.357-9.235-2.501 7.593h-2.11v-.002ZM57.755 52.196l-2.483-7.612-.375 9.255h-2.314l.732-12.906h2.824l2.706 8.211 2.67-8.211h2.826l.732 12.906h-2.349l-.357-9.235-2.501 7.593h-2.11v-.002ZM75.952 53.839h-8.647V40.933h8.46v2.241H70.08v2.898h5.364v2.164h-5.364V51.6h5.87v2.24ZM78.401 41.15c1.058-.213 2.58-.368 4.066-.368 2.525 0 4.976.696 4.976 4.328 0 2.26-1.002 3.536-2.507 4.038L88 53.824h-2.97l-2.617-4.425c-.409-.04-.835-.115-1.263-.213v4.636h-2.747V41.15H78.4Zm4.047 6.317c1.281 0 2.358-.368 2.358-2.28 0-1.911-1.207-2.356-2.339-2.356-.482 0-.946.019-1.318.115v4.406c.426.058.872.115 1.3.115ZM13.094 41.164c1.058-.213 2.58-.368 4.066-.368 2.524 0 4.976.696 4.976 4.328 0 2.26-1.002 3.536-2.507 4.038l3.064 4.675h-2.97l-2.619-4.424c-.409-.04-.835-.115-1.263-.213v4.636h-2.747V41.162v.002Zm4.047 6.317c1.28 0 2.358-.368 2.358-2.28 0-1.911-1.208-2.356-2.339-2.356-.482 0-.947.019-1.319.115v4.405c.427.059.874.116 1.3.116Z"
       id="path7"
       style="fill:#005195;fill-opacity:1" />
  </g>
  <defs
     id="defs8">
    <clipPath
       id="a">
      <path
         fill="#fff"
         d="M0 0h88v54H0z"
         id="path8" />
    </clipPath>
  </defs>
</svg>
