<?xml version="1.0" encoding="UTF-8" standalone="no"?>
<svg
   xmlns:svg="http://www.w3.org/2000/svg"
   xmlns="http://www.w3.org/2000/svg"
   version="1.1"
   width="551.1875"
   height="265.79056"
   id="svg3991">
  <defs
     id="defs3993" />
  <g
     transform="translate(-74.40625,-399.4669)"
     id="layer1">
    <path
       d="m 495.12869,503.11827 c -8.46553,-17.2387 -18.3243,-37.46191 -25.90933,-52.44102 l 21.13554,-32.11881 c 4.86927,-5.97608 7.47541,-7.19605 13.25347,-7.19605 l 0,-6.89548 c -8.61758,0.72844 -15.01447,1.08913 -21.0436,1.08913 -8.3453,0 -19.35685,-0.55164 -27.69155,-1.08913 l 0,6.89548 c 3.27094,0 6.51005,1.44275 6.51005,5.25825 0,3.77306 -1.24119,9.06667 -28.33867,42.63883 l -0.36422,0 0,-40.28376 c 0,-6.90609 4.08778,-7.61332 8.02705,-7.61332 l 0,-6.89548 c -8.18618,0.72844 -16.35114,1.08913 -26.11797,1.08913 -8.82268,0 -17.63122,-0.55164 -25.4461,-1.08913 l 0,6.89548 c 3.5609,0 7.97755,0.70723 7.97755,7.61332 l 0,88.12072 c 0,6.87073 -4.41665,7.60272 -7.97755,7.60272 l 0,6.89548 c 7.81488,-0.5481 16.62342,-1.09267 25.4461,-1.09267 9.76683,0 17.93179,0.54457 26.11797,1.09267 l 0,-6.89548 c -3.93927,0 -8.02705,-0.73199 -8.02705,-7.60272 l 0,-46.75136 0.36422,0 c 10.42102,18.65316 21.82862,42.55043 29.53742,61.24956 10.02143,-0.97598 16.36528,-1.09267 24.88385,-1.09267 7.26678,0 13.29944,0.37129 22.27064,1.09267 l 0,-6.89548 c -6.5348,0 -11.40407,-5.11681 -14.60782,-11.58088 m -120.7452,-17.42966 c -0.66125,12.52503 -7.0935,16.3087 -17.31296,16.3087 l -31.33378,0 0,-79.03637 31.66264,0 c 9.56527,0 13.501,7.25617 13.8334,13.9607 l 5.28654,0 c -0.32887,-7.80074 -0.82746,-15.77121 -1.32606,-24.66107 l 0,-6.701 -93.46031,0 0,6.87073 c 3.62455,0 8.09424,0.74259 8.09424,7.62746 l 0,85.946 c 0,6.89902 -4.46969,7.60271 -8.09424,7.60271 l 0,6.89902 96.11242,0 c 0.46324,-11.60209 1.62309,-23.20418 2.45762,-34.81688 l -5.91951,0 M 90.820039,547.50042 c -0.650651,-1.25887 -1.460428,-2.4753 -1.460428,-2.4753 23.469389,-7.91389 26.008349,-21.62706 26.008349,-33.0382 l 0,-87.21194 c 0,-11.42882 -5.09559,-13.41259 -10.54125,-13.41259 l 0,-6.89549 c 7.90328,0.5375 17.81863,1.08914 28.18307,1.08914 9.89059,0 18.14749,-0.55164 26.37256,-1.08914 l 0,6.89549 c -3.95341,0 -8.08362,0.70015 -8.08362,7.61331 l 0,78.86311 c 0,32.10465 -25.26222,46.63821 -59.000572,53.51954 0,0 -0.604681,-2.17472 -1.478109,-3.85793 M 269.6747,405.55957 l -99.7016,0 c -0.14852,11.67635 -1.67967,23.48354 -3.16485,35.44278 l 6.72574,0 c 3.25679,-12.59221 7.20667,-14.78816 21.0719,-14.78816 l 6.87426,0 0,79.42535 c 0,8.15435 -4.9011,9.06314 -9.97193,9.06314 l 0,6.89195 c 9.1374,-0.54457 18.28894,-1.08914 27.57486,-1.08914 9.47333,0 18.93959,0.54457 28.41646,1.08914 l 0,-6.89195 c -6.05742,0 -10.45992,-1.7999 -10.45992,-9.06314 l 0,-79.42535 7.51431,0 c 13.02716,0 18.22883,3.16839 20.69706,14.78816 l 6.47821,0 c -1.19521,-11.59502 -1.61601,-23.65681 -2.0545,-35.44278 m 338.16507,0 -99.71575,0 c -0.14851,11.67635 -1.69381,23.48354 -3.15777,35.44278 l 6.72221,0 c 3.27447,-12.59221 7.21373,-14.78816 21.07896,-14.78816 l 6.86012,0 0,79.42535 c 0,8.15435 -4.89403,9.06314 -9.94364,9.06314 l 0,6.89195 c 9.11264,-0.54457 18.26772,-1.08914 27.57839,-1.08914 9.44504,0 18.91484,0.54457 28.37756,1.08914 l 0,-6.89195 c -6.0362,0 -10.4387,-1.7999 -10.4387,-9.06314 l 0,-79.42535 7.51078,0 c 13.03069,0 18.22529,3.16839 20.70059,14.78816 l 6.48529,0 c -1.20936,-11.59502 -1.63724,-23.65681 -2.05804,-35.44278"
       id="path764"
       style="fill:#231f20;fill-opacity:1;fill-rule:nonzero;stroke:none" />
    <path
       d="m 581.25856,608.49538 1.60541,0.36776 c 0,0 5.20875,1.28716 5.63662,1.40031 1.28362,0.39959 2.02975,0.77088 2.06157,1.13511 0.0354,0.41019 -0.50567,1.73624 -0.66479,2.33385 -0.0813,0.44556 -0.11316,0.86636 -0.11316,1.25533 l -0.18388,7.81488 -0.0424,2.1712 c 2.07925,0.62943 3.95341,1.2624 5.64015,1.88122 1.96609,0.69663 3.80135,1.44629 5.46688,2.24899 3.88622,1.75039 7.24909,3.77307 10.12752,6.05388 -1.09621,3.0128 -2.52835,5.76038 -4.28581,8.24629 -2.25606,-2.90317 -4.83037,-5.51285 -7.77598,-7.83963 -1.52762,-1.25887 -2.98451,-2.34446 -4.353,-3.22143 -1.57712,-1.07145 -3.14717,-1.95549 -4.70661,-2.66625 l 0,23.84069 c 0,1.69381 0.053,4.02767 0.11316,5.36079 l -7.56735,0 c 0.14498,-3.18253 0.23692,-6.19179 0.28996,-9.61831 0.0778,-3.16839 0.11316,-6.46054 0.11316,-9.86938 l 0,-7.18191 0.0424,-8.10838 0,-3.13303 c 0,-0.49506 -0.007,-3.39116 -0.0884,-5.22642 -0.0424,-0.587 -0.0566,-1.05731 -0.15205,-1.41799 -0.13791,-0.47385 -0.38544,-0.8416 -0.74967,-1.11742 -0.39604,-0.27229 -1.00073,-0.66126 -1.85294,-1.05731 -0.28996,-0.12377 -0.61882,-0.25107 -0.73905,-0.2935 l 2.17826,-3.35934 m -16.14957,7.17484 -3.75892,2.74758 -15.7995,1.11035 1.69028,-4.20447 0.53396,-1.58773 c 0.22631,-0.87343 0.22631,-1.45689 0,-1.82112 -0.15913,-0.24045 -0.67187,-0.59053 -1.53115,-1.0078 -0.94769,-0.43494 -2.76173,-1.24826 -3.77661,-1.62662 -1.21289,-0.49153 -2.38689,-0.831 -3.51139,-1.07499 l -1.82465,2.82891 c 1.52054,0.57639 2.3869,1.24473 2.57078,1.94135 0.13084,0.5092 0.13084,1.25533 -0.36776,2.82184 -0.18034,0.57639 -0.39959,1.14925 -0.48445,1.42153 -1.41092,4.42372 -2.7688,7.1218 -5.38909,11.01155 -1.03255,1.53823 -2.17826,2.98451 -3.65637,4.6076 -1.06792,1.08913 -2.50006,2.51066 -4.34946,4.23984 l 2.87842,3.04462 c 4.09486,-2.82892 6.87073,-4.83037 9.49101,-7.76537 2.00854,-2.25606 3.78368,-4.82331 5.3608,-7.65929 3.19668,-0.35715 13.22165,-1.20583 17.81156,-1.55591 -0.44555,1.69028 -0.85928,3.13656 -1.23765,4.353 -0.4703,1.58065 -0.95829,3.22496 -1.49932,4.51565 -2.07926,5.16985 -5.33605,12.05472 -13.93595,18.09446 -1.90245,1.30837 -4.20448,2.64503 -6.57369,3.73417 -1.99793,0.91586 -4.26106,1.80343 -6.81416,2.66979 l 2.70516,3.39823 c 0.94061,-0.15205 1.8494,-0.34301 2.70161,-0.57639 1.48164,-0.40312 3.0623,-0.93354 4.72075,-1.5948 0.73906,-0.27936 3.69881,-1.61956 4.5192,-2.01561 4.46261,-2.10754 8.04119,-4.66771 10.66501,-7.387 4.39189,-4.58638 5.62601,-7.26678 7.74062,-11.66221 0.91233,-1.88123 1.72564,-4.29641 2.52127,-6.52772 0.72491,-1.87416 1.39678,-3.98524 2.07218,-6.29434 l 2.0545,-1.82111 -5.52699,-6.35799 m -86.05207,0.62236 c 0.77795,1.00427 1.46042,1.50286 2.08632,1.77515 0.63651,0.35007 1.54883,0.53042 2.77234,0.53042 l 3.35226,-0.0672 c 0.86282,-0.0283 1.88123,-0.0778 3.0623,-0.11316 1.24826,-0.0318 10.89487,-0.56578 17.11495,-1.21997 2.32678,-0.25106 4.39542,-0.54103 6.23775,-0.77795 -0.31118,-1.17046 -0.64357,-2.09693 -1.03255,-2.99865 -0.43495,-1.06438 -0.94061,-2.0156 -1.53822,-2.8961 -4.94707,0.83099 -9.83402,1.52054 -14.7139,2.13937 -0.90879,0.10962 -3.61394,0.52688 -8.805,0.75673 l -3.24265,0.11316 c -0.89818,0.046 -1.71856,-0.11316 -2.17826,-0.34301 -0.3324,-0.12023 -0.79917,-0.47384 -1.4675,-1.06791 -0.12023,-0.0778 -0.53396,-0.44202 -0.65419,-0.51982 l -3.05876,2.21363 0.70723,0.84867 1.35788,1.62663 m 39.30424,8.18264 -3.19667,0.18388 c -1.05024,0.0389 -2.19948,0.0849 -3.38763,0.17327 -1.07145,0.0919 -5.63661,0.32886 -6.77879,0.41019 -1.13864,0.0778 -2.26667,0.17327 -3.4053,0.23692 l -7.35165,0.59761 -6.24483,0.41727 c -0.85221,0.0813 -1.83172,0.14498 -2.8855,0.21924 -0.47384,0.046 -4.45907,0.27582 -5.22642,0.36069 -0.45262,0.0318 -2.30556,0.1273 -2.65918,0.1273 -1.17046,-0.046 -2.28788,-0.70723 -3.3558,-2.01207 l -3.28154,2.30557 c 0.73198,1.0962 1.47103,2.08632 2.17119,2.99157 0.88757,1.16693 1.7115,2.04036 2.41165,2.64858 0.22985,0.18034 0.54103,0.24753 0.93354,0.22631 0.28643,-0.007 0.63297,-0.0672 1.12096,-0.16973 0.31472,-0.0495 3.85794,-0.48446 4.2363,-0.53396 l 5.53761,-0.62944 c 0.82392,-0.13791 4.12668,-0.43141 7.41883,-0.60114 -0.0849,2.14998 -0.21571,4.07364 -0.44202,5.76038 -0.20863,2.04743 -0.59054,3.87561 -1.09974,5.45981 -0.58347,1.81404 -1.40031,3.4831 -2.4753,4.95414 -1.40385,2.04035 -3.44421,3.76599 -6.11753,5.18045 -1.0856,0.57639 -2.32679,1.13864 -3.69881,1.62309 -0.587,0.26167 -1.23411,0.5092 -1.94488,0.72137 -0.50567,0.20156 -1.13157,0.41727 -1.88477,0.64358 l 2.47177,3.66345 c 1.99792,-0.38544 3.82611,-0.88404 5.47042,-1.4675 2.33032,-0.80271 4.37067,-1.72918 6.18471,-2.83953 2.12523,-1.25533 3.88623,-2.67332 5.283,-4.29641 1.02902,-1.174 1.90952,-2.52835 2.64858,-4.04889 0.6754,-1.34373 1.24472,-2.81477 1.7221,-4.48383 0.34654,-1.39324 0.76027,-2.95622 0.93708,-4.68893 0.33239,-3.30276 0.4208,-4.9506 0.4703,-6.37213 0.86282,0 3.02694,-0.0566 3.64931,-0.0566 0.62236,0 3.13656,-0.0424 3.76599,-0.0424 l 7.57442,0 c 1.35081,0.0212 2.61675,0.0636 3.84026,0.12376 -0.42788,-2.36214 -1.24473,-4.62174 -2.41166,-6.78586 M 464.831,614.53866 c -0.54103,-0.78503 -1.41446,-1.65138 -2.64857,-2.59553 -0.45616,-0.38191 -0.98659,-0.77088 -1.57712,-1.174 -0.39959,-0.27936 -0.8805,-0.60468 -1.47811,-1.00073 l -1.75039,-1.17754 -2.77588,1.93427 c 0.55518,0.82746 1.06792,1.6726 1.2518,2.13937 0.1273,0.38898 0.046,0.81685 -0.55518,1.58066 l -1.29776,1.63016 c -1.66552,2.26313 -3.77307,4.48737 -6.28373,6.72928 -3.56797,3.12595 -7.19252,5.69673 -10.87011,7.69112 -2.95268,1.61955 -5.70734,2.99865 -8.3064,4.19033 -2.97036,1.31898 -5.87,2.46469 -8.6282,3.42299 l 2.6309,3.46188 c 1.93427,-0.44555 3.88975,-0.97951 5.88414,-1.66199 1.87062,-0.61528 3.77307,-1.36848 5.69319,-2.17472 1.81405,-0.7532 3.67759,-1.61602 5.59772,-2.58846 1.69028,-0.81685 3.47249,-1.76454 5.35372,-2.82185 l 0,4.82684 0.0778,7.94572 -0.13437,8.39127 -0.12377,5.80989 7.24556,0 c -0.11316,-4.75612 -0.13791,-10.09923 -0.13791,-15.08166 0,-4.63942 0.0636,-12.03704 0.1273,-17.03361 3.39117,-2.57078 7.03339,-5.49163 10.23361,-8.74135 0,0 1.49225,-1.41092 1.82818,-1.88477 0.66833,-0.82038 0.87697,-1.42506 0.64358,-1.81757 m -99.74758,-7.28093 c 2.57078,1.05377 5.01779,2.7193 6.92731,4.72429 0,0 -1.52761,1.86709 -3.63869,3.27093 0,0 -1.28008,-2.08278 -2.07925,-3.10119 -0.94769,-1.28716 -1.98024,-2.39751 -3.11535,-3.29923 l 1.90598,-1.5948 m -4.39542,3.79075 c 2.33032,1.53822 4.41665,3.75892 5.88415,6.11753 0,0 -1.57005,1.86355 -3.9817,3.1896 0,0 -1.10328,-3.09059 -1.66906,-4.26105 -0.70016,-1.45689 -1.41446,-2.57431 -2.3374,-3.68113 l 2.10401,-1.36495 m -26.0331,-0.52335 c 1.33666,0.39251 2.53188,0.79563 3.57858,1.18461 1.26947,0.43141 2.42226,0.88757 3.48664,1.39678 1.06084,0.53395 2.16058,1.12095 3.29568,1.77514 0.93001,0.55871 1.97317,1.20936 3.10827,2.01914 -0.43141,1.19875 -1.04316,2.38336 -1.81757,3.58919 -0.70723,0.95476 -1.56298,1.98377 -2.592,3.05169 -1.88123,-2.28435 -3.67052,-4.14436 -5.35372,-5.58711 -0.95122,-0.78856 -1.96963,-1.58419 -3.10827,-2.36214 -0.90879,-0.61883 -2.005,-1.32606 -3.29569,-2.12876 l 2.69808,-2.93854 m -5.28654,37.36998 c 0.96537,1.02548 1.78929,1.64077 2.4647,1.81757 0.70722,0.21217 1.63016,0.0919 3.16131,-0.38897 1.47811,-0.47738 4.1974,-1.20936 9.07728,-3.90744 10.20532,-5.60479 15.77828,-11.38639 20.2904,-17.25285 1.53115,-1.96256 3.04109,-4.22923 4.53334,-6.74343 l 3.41238,3.88269 c -2.86074,5.9089 -6.54894,11.17068 -11.11057,15.70402 -5.626,5.59064 -8.78025,7.32335 -13.72378,10.29018 -2.95268,1.80343 -6.17057,3.55029 -9.33895,4.95414 -0.37484,0.15205 -2.04743,0.96183 -2.48238,1.10681 -1.29423,0.47384 -2.20302,0.65772 -2.69454,0.54457 -0.55164,-0.14852 -1.16693,-0.61176 -1.82112,-1.35081 -0.4314,-0.43848 -0.98304,-1.07853 -1.65137,-1.94488 -0.1167,-0.1662 -0.45263,-0.59761 -0.54457,-0.7143 -0.93708,-1.23765 -1.77161,-2.52481 -2.51066,-3.82611 l 2.93853,-2.17119 m -2.56016,-25.33648 c 1.28715,0.47384 2.44701,0.90172 3.4442,1.28716 1.23058,0.48091 2.348,0.96537 3.36288,1.46396 2.09339,1.08206 4.0312,2.33739 5.83817,3.84733 -0.86282,2.2702 -2.32325,4.47676 -4.35299,6.63027 -0.15559,-0.18742 -0.33947,-0.37483 -0.54103,-0.58346 -1.99793,-2.31972 -3.60687,-3.99231 -4.75612,-4.99304 -1.53822,-1.3791 -3.52907,-2.91378 -6.05034,-4.60053 l 3.05523,-3.05169 m -34.79568,31.00845 0,-24.67168 -8.29933,0 -1.46043,-3.46896 9.75976,0 0,-16.78608 6.49944,0 0,16.78608 3.96048,0 3.00926,-3.3947 5.13448,5.18399 -1.91305,1.67967 -10.19117,0 0,24.67168 5.37847,0 3.21436,-3.44774 5.66137,5.35019 -1.81051,1.66906 -31.16051,0 -1.6337,-3.57151 13.85108,0 m -23.3138,-35.14928 0,-9.77744 6.12107,0.0106 0,9.76683 1.46042,0 2.87843,-2.71576 5.09558,6.38274 -2.24192,1.37203 -0.74966,1.28716 c -0.64358,1.22704 -1.37556,2.46822 -2.21009,3.7377 -0.67187,1.09974 -1.48518,2.30203 -2.42226,3.63162 1.86709,1.02902 3.45835,2.06511 4.74197,3.04462 0.86636,0.67541 2.05097,1.69028 3.55029,3.04109 -1.08206,2.35861 -2.68393,4.47322 -4.80208,6.45346 -1.3791,-3.23557 -3.03402,-6.23069 -4.95768,-8.99242 l 0,23.97507 -5.94426,0 0,-20.54147 c -2.30556,1.89537 -4.93646,3.97816 -7.13594,5.20167 l -2.03682,-2.71222 c 1.78576,-1.50286 3.69174,-3.21082 4.93292,-4.44494 1.57359,-1.53822 2.95622,-3.0623 4.12315,-4.52626 4.49798,-5.63662 5.22642,-8.36652 6.06095,-10.78878 l -12.39772,0 -1.34727,-3.40531 m -16.93106,18.08384 3.39469,-3.10827 5.70734,4.61467 -1.92366,1.55591 -22.96372,0 c -1.30484,3.10827 -1.86708,4.452 -3.56443,7.20666 -1.42507,2.33032 -2.5531,3.93573 -4.0595,5.9584 l 1.97671,-0.1662 4.75257,-0.39251 c 0,0 7.78659,-0.63297 13.68488,-1.46396 -0.65419,-0.94062 -1.43567,-1.99792 -2.37629,-3.11888 -0.55517,-0.62944 -1.43921,-1.60188 -2.6026,-2.88196 -0.2051,-0.22278 -0.37837,-0.44555 -0.55518,-0.6754 l 3.70942,-2.03682 1.5453,1.07852 c 2.88549,2.0934 5.38554,4.32117 7.46126,6.67271 1.50286,1.64784 2.89964,3.53261 4.18326,5.65783 -0.87343,0.96537 -1.81051,1.83879 -2.82538,2.59199 -1.01134,0.74613 -2.23484,1.50994 -3.69173,2.26314 -1.09975,-2.91379 -2.49652,-5.47396 -3.06584,-6.54894 -14.92961,3.74831 -33.5085,5.97962 -33.5085,5.97962 l -2.48238,-6.3297 8.59284,-0.39959 c 1.88122,-4.27166 3.39823,-9.31774 4.5298,-13.39491 l -12.66647,0 -1.24473,-3.06231 37.99234,0 m -11.29445,-27.6385 -0.57639,0.95476 c 1.83172,2.28081 3.69173,4.15143 5.54114,5.66136 3.00926,2.56017 6.35798,4.80209 10.00375,6.72575 1.3013,0.65772 2.75112,1.28362 4.28227,1.93074 1.26241,0.50566 2.75112,1.07852 4.48737,1.69735 -0.22278,0.1768 -0.45263,0.36775 -0.68248,0.55871 -1.13864,0.94061 -1.96963,1.67613 -2.50005,2.21716 -0.5481,0.55871 -1.36849,1.45335 -2.41872,2.69101 -0.0354,0.0813 -0.0743,0.14498 -0.12023,0.18034 -1.23765,-0.67894 -2.35154,-1.31545 -3.32752,-1.92366 -1.18107,-0.67541 -2.26313,-1.36142 -3.28154,-2.03329 -2.29142,-1.51347 -4.31409,-3.07291 -6.03973,-4.68539 -3.18253,-2.935 -5.95841,-6.50651 -8.35238,-9.98607 -1.72564,2.42933 -3.84024,4.94353 -6.02912,7.2597 -2.26667,2.31971 -4.86927,4.63235 -7.80427,6.55955 l 18.74863,0 2.98805,-2.78294 4.97535,4.43786 -1.91659,1.59126 -25.6335,0 -1.07146,-1.99438 c -2.76526,1.69735 -5.71087,3.21082 -8.87926,4.5687 l -2.71929,-3.10828 c 2.21716,-1.21997 4.26813,-2.43994 6.10338,-3.7377 2.03329,-1.38617 3.90391,-2.85013 5.61187,-4.39896 4.03827,-3.53615 7.55674,-7.90329 10.56246,-13.11557 m -40.48532,0.33948 c 3.16131,1.50993 5.67551,3.55383 7.51784,6.1246 -0.92293,1.07853 -1.74685,1.92013 -2.50005,2.53542 -0.91586,0.70723 -1.55237,1.13864 -2.67333,1.58773 -1.14217,-3.13303 -2.71576,-6.02559 -4.77026,-8.71306 l 2.4258,-1.53469 m -9.78805,12.01936 c -0.14145,-1.92367 -0.25107,-3.95695 -0.32533,-6.06449 -0.0778,-1.88477 -0.11316,-3.90037 -0.11316,-6.03974 l 6.49944,0 c 0,1.06792 -0.0177,2.41873 -0.0566,3.32398 0,1.02548 0.10962,6.95913 0.22632,8.78025 l 8.53271,0 2.82185,-3.15424 5.76391,4.77379 -1.98377,1.94488 -14.73865,0 c 0.19095,1.99439 0.4208,4.76319 0.72137,6.48529 0.30411,1.9661 0.70369,3.80843 1.21997,5.55175 1.08206,3.86147 2.59199,7.31275 4.55102,10.30432 0.0318,0.0248 0.0636,0.046 0.0636,0.0849 0.43494,0.68248 0.84867,1.25887 1.19168,1.70089 0.59053,0.81685 1.67613,1.77868 2.12169,2.11461 0.61175,0.43848 1.01487,0.13791 1.20228,-0.90525 0.22985,-1.25533 0.4102,-2.62028 0.55518,-4.13729 0.0778,-0.60468 0.13791,-1.27655 0.22631,-2.02621 0.0424,-0.4986 0.0955,-1.19522 0.17327,-2.08633 l 3.28862,1.26948 c -0.15206,1.78575 -0.23692,3.34166 -0.26875,4.71014 -0.0601,1.68321 0,3.25679 0.0919,4.67125 0.12377,1.90245 0.82039,3.179 2.10754,3.86147 -0.72137,2.68394 -2.16765,3.85086 -4.36714,3.55736 -0.89464,-0.11669 -1.89183,-0.4703 -2.9845,-1.06791 -0.91233,-0.48092 -1.86709,-1.14218 -2.90318,-1.9272 -2.2313,-1.76807 -4.20094,-3.91805 -5.86646,-6.44286 -1.47457,-2.26313 -2.72283,-4.85159 -3.74478,-7.74769 -0.47031,-1.31545 -0.89818,-2.70869 -1.28362,-4.18326 -0.37483,-1.35081 -0.72845,-2.79002 -1.02902,-4.29995 -0.26521,-1.34374 -0.4986,-2.81831 -0.71784,-4.34239 -0.20509,-1.26947 -0.39605,-3.55736 -0.62236,-5.14509 l -25.241,0 -1.61956,-3.56443 26.50695,0 z m -15.04276,15.4282 -8.31348,0 -1.30837,-3.39824 17.29174,0 2.88903,-3.16838 5.09205,4.73843 -2.05096,1.82819 -7.49309,0 0,13.24286 c 7.5921,-0.90525 12.36944,-1.98024 12.36944,-1.98024 l 0,3.41591 c -13.80865,3.85087 -28.09821,6.26252 -28.09821,6.26252 l -2.72284,-6.22362 c 1.07499,-0.0495 2.22424,-0.11315 3.53261,-0.18034 3.86147,-0.17681 8.81208,-0.68248 8.81208,-0.68248 m -48.82709,-16.08239 -0.91586,-3.23204 12.44015,0 0,-8.2958 -5.46334,0 c -1.33313,2.6309 -2.85013,5.80989 -4.20448,7.78306 l -2.9456,-2.31264 c 0.65418,-1.39678 1.18814,-2.66625 1.6443,-3.85086 0.48799,-1.40031 0.89111,-2.7193 1.18461,-4.00645 0.39251,-1.55591 0.71077,-3.19314 1.02195,-4.85513 0.23692,-1.5559 0.43494,-3.19667 0.62589,-4.93999 l 6.09278,1.76453 c -0.10255,0.67187 -0.21217,1.25887 -0.32886,1.74332 -0.14498,0.65419 -0.55164,2.53895 -1.53822,5.26886 l 3.91097,0 0,-10.46699 5.48456,0 0,10.46699 4.52981,0 3.05169,-3.27801 4.52626,5.13802 -2.37275,1.54529 -9.73501,0 0,8.2958 6.34385,0 2.99158,-3.26033 4.96828,5.1062 -1.7999,1.38617 -11.31566,0 c 1.69381,3.48664 3.53614,6.9662 5.9973,9.94717 2.06865,2.51774 4.55809,5.15924 7.4648,7.89975 l -0.45616,0.4208 c -2.00853,1.60895 -3.49371,3.07998 -4.45908,4.39543 -2.04389,-2.00146 -3.87208,-4.58285 -5.55528,-7.74416 -0.80271,-1.54176 -1.59127,-3.21789 -2.3091,-5.02486 -0.65419,-1.55237 -1.25534,-3.28862 -1.87063,-5.21228 l 0,21.20273 -5.48456,0 0,-18.13689 c -2.14644,3.74831 -4.6571,7.12887 -7.52845,10.09923 -2.02621,2.16766 -4.30349,4.11961 -6.8389,5.89122 l -2.77588,-2.59553 c 3.26033,-2.94208 5.96194,-5.87354 8.09778,-8.76257 1.43213,-1.95903 2.62382,-4.05596 3.55028,-5.75331 1.08914,-1.99438 1.89538,-4.3636 2.50713,-6.62673 l -8.53625,0 m -18.907768,-9.94718 -1.290693,-3.34519 7.379935,0 0,-12.27042 5.675516,0 0,12.27042 0.85221,0 2.6026,-2.98451 3.95341,4.84452 -1.9272,1.48518 -5.48102,0 0,4.40604 c 2.51773,2.1818 4.7844,4.37774 6.79647,6.94499 -0.48799,1.28008 -1.06438,2.3975 -1.69382,3.33812 -0.73552,1.13156 -1.52408,2.03328 -2.44701,2.72636 -0.68248,-2.95975 -1.55237,-5.55882 -2.65564,-7.86438 l 0,26.51401 -5.675516,0 0,-19.65035 c -0.845139,1.80697 -1.771609,3.79074 -2.722832,5.32543 -1.025482,1.69735 -2.086325,3.47603 -3.260325,4.87281 l -2.08279,-2.71223 c 1.976705,-3.41238 3.666983,-7.13594 4.97182,-11.12471 1.251795,-3.76953 2.135831,-7.28446 2.726368,-12.77609 m 318.652625,27.27783 c -0.41019,-0.86282 -0.85928,-1.82465 -1.40385,-2.92439 l -2.52834,0.35008 c -1.58773,0.18741 -3.26033,0.36068 -5.07791,0.51627 -0.78149,0.0884 -1.58773,0.17681 -2.45762,0.2546 -0.86282,0.0778 -1.73625,0.1556 -2.59553,0.23693 l -3.17546,0.16266 0.35008,-17.58171 c 1.49225,-0.0849 3.18607,-0.19803 4.6571,-0.34655 2.81477,-0.24045 5.51639,-0.59053 8.10838,-1.01133 -0.43494,-1.80344 -1.3402,-3.47603 -2.77233,-5.0673 -1.19168,0.28289 -2.31264,0.48092 -3.28862,0.65419 -2.25606,0.41726 -6.0857,0.90879 -8.19325,1.13156 -1.82111,0.18388 -3.36641,0.28997 -5.11326,0.4208 0,0 -5.76038,0.55164 -8.21447,0.0318 -0.66833,-0.15205 -1.62662,-0.62943 -2.86781,-1.40031 l -2.84306,2.12876 c 0.93708,1.12095 1.92366,2.06864 2.935,2.80416 0.86282,0.6754 1.99085,0.99012 3.36995,1.05731 1.40031,0.0778 3.4442,0 3.97462,0 1.35081,-0.0283 2.5531,-0.0919 3.60333,-0.16267 l 0,17.69487 -2.8183,0.1167 -4.6465,0.23692 -3.64223,0.11315 c -0.74966,0.0495 -1.37202,-0.053 -1.83879,-0.27935 -0.31472,-0.17327 -0.72137,-0.50213 -1.22704,-1.01134 -0.31472,-0.30057 -0.57993,-0.5481 -0.77442,-0.70015 l -2.75466,2.11107 0.77442,1.06438 c 0.0672,0.11316 0.1662,0.25107 0.28996,0.41727 0.053,0.10962 0.16974,0.25106 0.28997,0.40312 1.0573,1.53115 1.93427,2.54956 2.57431,3.0623 0.32886,0.22985 0.88757,0.33593 1.7221,0.30057 0.30411,-0.0424 3.06584,-0.36068 3.2285,-0.36068 1.32959,-0.1167 2.72284,-0.22278 4.17265,-0.34655 1.2907,-0.12376 2.65919,-0.22277 4.12669,-0.2935 1.25533,-0.0743 2.63796,-0.16973 4.17618,-0.26167 0.69309,-0.0106 4.25752,-0.21571 4.34946,-0.21571 1.61248,-0.0955 3.00219,-0.13791 4.19387,-0.17327 1.46396,-0.0813 2.85013,-0.14498 4.109,-0.18034 1.42506,-0.053 2.83599,-0.053 4.16911,0 1.40739,0 2.79356,0.0354 4.11254,0.12023 -0.26521,-0.97951 -0.60114,-1.98732 -1.05377,-3.07291"
       id="path740"
       style="fill:#231f20;fill-opacity:1;fill-rule:nonzero;stroke:none" />
    <path
       d="m 388.70134,460.9356 c 0,0 -31.48583,11.00095 -70.34452,11.00095 -38.8198,0 -70.32685,-11.00095 -70.32685,-11.00095 0,0 31.50705,-10.99741 70.32685,-10.99741 38.85869,0 70.34452,10.99741 70.34452,10.99741"
       id="path760"
       style="fill:#ed1c24;fill-opacity:1;fill-rule:nonzero;stroke:none" />
    <path
       d="m 79.401824,574.37512 541.196356,0"
       id="path768"
       style="fill:none;stroke:#231f20;stroke-width:3.26739788;stroke-linecap:butt;stroke-linejoin:miter;stroke-miterlimit:4;stroke-opacity:1;stroke-dasharray:none" />
  </g>
</svg>
