<?xml version="1.0" encoding="UTF-8"?>
<svg xmlns="http://www.w3.org/2000/svg" aria-labelledby="logo-title" fill="none" height="34" role="img" viewBox="0 0 92 34" width="92">
  <title id="logo-title">Kermi</title>
  <path clip-rule="evenodd" d="M44.0671 15.133V20.3235C44.0671 20.3235 51.7743 21.3796 51.662 17.7395C51.5946 14.0544 44.0671 15.133 44.0671 15.133ZM37.4609 9.71771C47.7073 9.71771 58.3805 7.96505 58.3805 18.0765C58.3805 20.5258 56.5155 23.2446 53.6843 25.0422L58.9872 33.7831H52.2687L46.9882 25.4018H44.0671V33.8055H37.4609V9.71771Z" fill="black" fill-rule="evenodd"></path>
  <path d="M0 12.8213C21.6836 0.305558 56.1975 -7.26683 90.7115 11.5181C90.7115 11.5181 36.4239 -4.72772 10.2913 19.9443L19.4366 33.7859H11.999L6.69607 26.7977V33.7859H0L0 12.8213Z" fill="black"></path>
  <path d="M19.9062 14.0547H35.3881V18.3689H26.7147V21.9417H35.3881V26.211H26.7147V29.7612H35.3881V33.8058H19.9062V14.0547Z" fill="black"></path>
  <path d="M60.3731 13.9922H66.8669L71.4058 21.2275L75.9448 13.9922H82.4386V33.8107H75.9448V24.8677L71.4508 31.0919L66.8444 25.1148V33.8107H60.3281L60.3731 13.9922Z" fill="black"></path>
  <path d="M91.1862 14.0156V33.8117H84.8047V14.0156H91.1862Z" fill="black"></path>
</svg>
