<?xml version="1.0" encoding="UTF-8"?>
<!-- Generator: Adobe Illustrator 27.6.1, SVG Export Plug-In . SVG Version: 6.00 Build 0)  -->
<svg xmlns="http://www.w3.org/2000/svg" xmlns:xlink="http://www.w3.org/1999/xlink" version="1.1" id="FINAL" x="0px" y="0px" viewBox="0 0 500 124" style="enable-background:new 0 0 500 124;" xml:space="preserve">
<style type="text/css">
	.st0{fill:#FFFFFF;}
	.st1{fill:#014D52;}
</style>
<g>
	<path class="st1" d="M413.27,61.65c-9.1,6.76-35.58,0.13-35.58,17.65c0,7.72,6.62,10.48,13.8,10.48c15.44,0,21.79-9.52,21.79-16.14   V61.65z M432.31,98.19c-2.07,1.24-4.97,1.93-8.41,1.93c-6.07,0-9.93-3.31-9.93-11.04c-6.48,7.73-15.17,11.04-25.1,11.04   c-12.96,0-23.58-5.66-23.58-20c0-16.14,12-19.72,24.14-21.93c12.82-2.62,23.99-1.52,23.99-10.48c0-10.34-8.55-11.86-15.86-11.86   c-9.92,0-17.24,3.03-17.79,13.52l-11.72,0c0.69-17.65,14.2-23.86,30.2-23.86c12.83,0,26.76,2.89,26.76,19.58l0,36.68   c0,5.52,0,8,3.72,8c1.1,0,2.34-0.28,3.59-0.69V98.19z"></path>
	<path class="st1" d="M440.98,27.17l11.03,0v11.31h0.28c4.96-8.83,12.82-12.96,23.17-12.96c18.76,0,24.54,10.75,24.54,26.06l0,46.89   l-11.72,0V50.2c0-8.83-5.51-14.34-14.48-14.34c-14.2,0-21.1,9.52-21.1,22.34v40.27l-11.72,0L440.98,27.17z"></path>
	<path class="st1" d="M296,35.86c-15.86,0-21.79,13.65-21.79,26.89c0,13.93,6.34,27.03,22.48,27.03c16,0,21.38-13.65,21.38-27.58   C318.07,48.82,311.17,35.86,296,35.86 M262.9,27.17l11.72,0v9.65h0.27c3.86-7.86,12.83-11.31,22.76-11.31   c21.93,0,32.82,17.37,32.82,37.51c0,20.27-10.76,37.1-32.55,37.1c-7.17,0-17.93-2.76-23.03-11.17h-0.27l0,34.06l-11.72,0   L262.9,27.17z"></path>
	<path class="st1" d="M189.01,27.17l11.03,0l0,11.31l0.28,0c4.97-8.83,12.83-12.96,23.17-12.96c18.76,0,24.55,10.75,24.55,26.06   l0,46.89h-11.72l0-48.27c0-8.83-5.52-14.34-14.48-14.34c-14.21,0-21.1,9.52-21.1,22.34l0,40.27h-11.72L189.01,27.17z"></path>
	<path class="st1" d="M143.32,89.78c12.28,0,22.2-9.65,22.2-26.89c0-17.24-9.93-27.03-22.2-27.03c-12.27,0-22.2,9.79-22.2,27.03   C121.12,80.13,131.05,89.78,143.32,89.78 M143.32,25.51c22.62,0,34.62,16.41,34.62,37.37c0,20.82-12,37.24-34.62,37.24   c-22.62,0-34.62-16.41-34.62-37.24C108.71,41.92,120.71,25.51,143.32,25.51"></path>
	<polygon class="st1" points="46.9,0 58.63,0 58.63,58.34 91.17,27.17 106.89,27.17 78.62,53.1 108.97,98.47 94.07,98.47    69.66,61.23 58.63,71.44 58.63,98.47 46.9,98.47  "></polygon>
	<rect x="23.23" y="16.78" class="st1" width="11.72" height="81.69"></rect>
	<rect x="0" y="33.68" class="st1" width="11.72" height="64.79"></rect>
	<rect x="342.24" y="0" class="st1" width="11.72" height="98.47"></rect>
</g>
</svg>
