<svg width="208" height="74" viewBox="0 0 208 74" fill="none" xmlns="http://www.w3.org/2000/svg">
<g clip-path="url(#clip0_10_6)">
<path d="M30.6901 27.8701H25.5601V44.7401H37.8001C38.9101 44.7401 39.9401 44.1701 40.5301 43.2301C40.9201 42.6101 42.0901 40.7501 42.0901 40.7501H30.6801L30.6901 27.8701Z" fill="#004B85"/>
<path d="M57.73 27.8701H52.62L42.74 44.7401H46.54C47.33 44.7401 48.07 44.3201 48.47 43.6401C48.6 43.4201 48.99 42.7501 48.99 42.7501H61.36C61.36 42.7501 61.75 43.4201 61.88 43.6401C62.28 44.3201 63.02 44.7401 63.81 44.7401H67.6L57.73 27.8701ZM59.04 38.7501H51.35L55.19 32.2001L59.04 38.7501Z" fill="#004B85"/>
<path d="M80.4901 31.3601C83.1301 31.3601 85.4701 32.2001 86.8701 33.4901L89.9601 31.1401C87.7101 28.8601 84.0101 27.3701 79.8201 27.3701C72.9601 27.3701 67.3901 31.3701 67.3901 36.3101C67.3901 41.2501 72.9501 45.2501 79.8201 45.2501C83.9701 45.2501 87.6501 43.7801 89.9101 41.5301L86.8201 39.1801C85.4101 40.4401 83.1101 41.2601 80.4901 41.2601C76.2001 41.2601 72.7301 39.0501 72.7301 36.3201C72.7301 33.5701 76.2001 31.3601 80.4901 31.3601Z" fill="#004B85"/>
<path d="M109.69 30.3101C110.05 29.7001 111.12 27.8701 111.12 27.8701H92.1301V31.8601H98.1901V44.7401H103.32V31.8601H106.99C108.1 31.8601 109.13 31.2701 109.69 30.3101Z" fill="#004B85"/>
<path d="M122.45 27.8701H122.44H117.34L107.46 44.7401H111.26C112.05 44.7401 112.79 44.3201 113.19 43.6401C113.32 43.4201 113.71 42.7501 113.71 42.7501H126.08C126.08 42.7501 126.47 43.4201 126.6 43.6401C127 44.3201 127.74 44.7401 128.53 44.7401H132.32L122.45 27.8701ZM123.75 38.7501H116.06L119.9 32.2001L123.75 38.7501Z" fill="#004B85"/>
<path d="M139.76 27.8701H134.63V44.7401H146.28C148.43 44.7401 150.34 43.3501 150.99 41.2901C151.03 41.1501 151.16 40.7501 151.16 40.7501H139.75V27.8701H139.76Z" fill="#004B85"/>
<path d="M153.9 44.7301H159.02V27.8701L153.89 27.9001L153.9 44.7301Z" fill="#004B85"/>
<path d="M180.28 36.39C178.9 35.56 176.66 34.9 173.58 34.41C171.3 34.04 169.78 33.7 169.01 33.43C168.24 33.15 167.85 32.82 167.85 32.42C167.83 31.84 169.33 31.04 172.97 31.04C176.61 31.04 178.91 32.02 179.8 32.42L181.1 29.56C179.44 28.24 176.09 27.29 172.86 27.29C168.83 27.29 162.99 28.91 162.99 32.48C162.99 34.06 163.68 35.27 165.06 36.08C166.44 36.91 168.68 37.58 171.79 38.11C174.03 38.48 175.53 38.82 176.29 39.09C177.06 39.37 177.44 39.7 177.44 40.07C177.44 40.75 175.53 41.51 172.06 41.51C168.59 41.51 164.68 40.08 163.55 39.51L162.63 42.24C164.25 43.81 167.96 45.23 172.19 45.23C177.23 45.23 182.34 43.64 182.34 39.77C182.35 38.36 181.66 37.23 180.28 36.39Z" fill="#004B85"/>
<path d="M51.03 68.9201C64.99 70.7301 80.67 70.8801 97.21 70.8801C161 70.8801 200.63 50.0201 199.93 30.7201C199.88 29.2101 199.54 27.7201 198.93 26.2801C196.98 21.6501 208 25.8601 208 36.2701C208 56.2601 172.49 73.9501 103.96 73.9501C84.63 73.9401 66.54 72.1101 51.03 68.9201Z" fill="#5BC5F2"/>
<path d="M156.97 5.08006C143.01 3.27006 127.32 2.53006 110.79 3.12006C53.36 5.19006 7.37 22.5001 8.06 41.8001C8.11 43.3101 8.45 44.8001 9.06 46.2401C11.02 50.8701 0 46.6601 0 36.2501C0 16.2601 46.58 0.0600586 104.04 0.0600586C123.37 0.0600586 141.46 1.89006 156.97 5.08006Z" fill="#5BC5F2"/>
</g>
<defs>
<clipPath id="clip0_10_6">
<rect width="208" height="74" fill="white"/>
</clipPath>
</defs>
</svg>
