<?xml version="1.0" encoding="UTF-8"?>
<svg enable-background="new 0 0 328 129" version="1.1" viewBox="0 0 328 129" xml:space="preserve" xmlns="http://www.w3.org/2000/svg">
<style type="text/css">
	.st0{fill:#FFFFFF;}
	.st1{fill-rule:evenodd;clip-rule:evenodd;fill:#004388;}
	.st2{fill:#004388;}
</style>
<path class="st0" d="m321.2 34.4c-8.7-6.3-22.3-7.4-22.3-7.4 0.7-3.8-1.3-11.9-3.5-14.8-5.2-6.9-13.9-12-26.2-12.1l-207.2-0.1c-16.3 0-25.7 6.6-29.6 13.8-2.9 5.4-2.8 7.9-2.6 13.8l0.2 0.2c-10.6 1.4-18.5 4.7-23 8.3-4 3.1-8.9 10.3-6.2 18.1 1.9 5.5 31.9 74.6 31.9 74.6l7.1-6.5c17.7-12.3 61.2-23.3 125-23.3 61.8 0 106.8 11.2 124 23.6l7.5 6.4 30.9-76.4c2.2-6.7-0.2-14.1-6-18.2"/>
<path class="st1" d="m295.7 33.9c0.7 3.1-0.2 7.9-1.1 14.5l-8.9 47.2h-69.1c36.2 4 68 12.2 77.5 22.1l27.2-67.6c0.8-9-9-13.8-25.6-16.2"/>
<path class="st1" d="m35.1 48.7c-1-4.7-2.2-10.1-1.5-14.3-16.6 2-27.7 7.4-25.9 18l27.8 65.3c10.8-10.3 38.9-18.2 75.6-22.2l-67.1 0.2-8.9-47"/>
<path class="st2" d="m254.6 34.2-4.4 19.9h8.3l-3.9-19.9zm-7.5-2.9-3.4-6.9h16.3l12.8 47.5h-9.7l-2.5-9.9h-12.5l-2.6 9.9h-9l10.6-40.6zm-26.2 1.3-6.9 0.1-4.6-8.4 31.6 0.1-3.9 8.1h-7.4v39.5h-8.9l0.1-39.4zm-36.3-1.7-4.7-6.4h28.1v8.5h-14.6v10.3h13.8v8h-13.8v11.7h15.1v9h-24l0.1-41.1zm-27.7 32.2h3.2c6.6 0 10.3-5.4 10.3-14.8s-3.7-15.4-10.3-15.5h-3.2v30.3zm-9.1-31.8-4.7-6.8h16.8c11.6 0 19.7 5.2 19.7 23.5 0 17.8-8.3 23.9-19.7 23.9h-12.1v-40.6zm-21.8 3-4.4 19.6h8.3l-3.9-19.6zm-7.5-3-3.4-6.8h16.4l12.8 47.5h-9.7l-2.5-9.9h-12.5l-2.6 9.9h-9l10.5-40.7zm-53.8 0-4.7-7h18.2l5.7 31.7h0.1l3.8-25-4-6.6h18.2l4.7 47.5h-9.7l-2.3-35.7 0.2-0.7-6.1 36.5h-10.1l-6.1-35.3 0.1-0.7-2.7 36.2h-10l4.7-40.9"/>
<path class="st2" d="m291.6 38.1c4.1-15.7-0.8-31.7-25.4-31.7h-204.9c-20.3 0-28.9 14.4-23.7 30.7 1.5 6.5 13.1 51.1 13.1 51.1l228.8 0.1s11.3-45.5 12.1-50.2zm-14.9 46.7h-223.3s-10.4-41.1-11.8-47c-5.4-18 2.4-28.1 23.2-27.9h199.6c20.3-0.6 28.1 10.1 23.5 28.5-0.8 4.4-11.2 46.4-11.2 46.4"/>
</svg>
