<?xml version="1.0" encoding="UTF-8" ?>
<!DOCTYPE svg PUBLIC "-//W3C//DTD SVG 1.1//EN" "http://www.w3.org/Graphics/SVG/1.1/DTD/svg11.dtd">
<svg width="1359pt" height="490pt" viewBox="0 0 1359 490" version="1.1" xmlns="http://www.w3.org/2000/svg">
<g id="#ffffffff">
</g>
<g id="#008644ff">
<path fill="#008644" opacity="1.00" d=" M 336.04 0.00 L 381.15 0.00 C 413.30 74.05 445.34 148.16 477.45 222.22 C 460.42 222.24 443.40 222.23 426.37 222.23 C 419.57 205.76 412.89 189.23 406.09 172.76 C 374.01 172.76 341.93 172.76 309.84 172.76 C 303.04 189.25 296.41 205.81 289.53 222.26 C 272.95 222.20 256.37 222.26 239.79 222.23 C 271.84 148.14 303.98 74.09 336.04 0.00 M 357.72 59.16 C 347.53 82.66 337.45 106.20 327.29 129.71 C 347.75 129.70 368.21 129.72 388.67 129.70 C 378.50 106.18 368.42 82.63 358.23 59.13 C 358.10 59.14 357.84 59.15 357.72 59.16 Z" />
<path fill="#008644" opacity="1.00" d=" M 0.00 1.49 C 17.52 1.50 35.04 1.50 52.56 1.49 C 71.92 32.53 91.27 63.57 110.63 94.61 C 129.98 63.57 149.34 32.55 168.68 1.51 C 186.21 1.49 203.74 1.49 221.28 1.51 C 221.28 75.08 221.29 148.65 221.27 222.22 C 205.13 222.24 189.00 222.23 172.86 222.23 C 172.85 174.25 172.83 126.26 172.87 78.28 C 152.80 108.73 132.64 139.13 112.57 169.58 C 111.78 170.75 110.89 171.84 110.00 172.94 C 109.23 172.02 108.49 171.08 107.79 170.12 C 87.78 139.83 67.77 109.54 47.76 79.26 C 47.80 126.91 47.77 174.57 47.77 222.23 C 31.85 222.24 15.92 222.22 0.00 222.24 L 0.00 1.49 Z" />
<path fill="#008644" opacity="1.00" d=" M 741.99 1.50 C 757.04 1.52 772.09 1.44 787.15 1.55 C 823.60 46.80 860.22 91.93 896.74 137.14 C 896.70 91.93 896.72 46.72 896.72 1.50 C 912.77 1.49 928.82 1.50 944.87 1.50 C 944.86 75.08 944.88 148.65 944.86 222.23 C 931.01 222.23 917.17 222.24 903.32 222.23 C 865.69 175.51 827.92 128.90 790.27 82.19 C 790.39 128.87 790.10 175.55 790.15 222.23 C 774.10 222.24 758.06 222.23 742.02 222.23 C 741.97 148.66 742.03 75.08 741.99 1.50 Z" />
<path fill="#008644" opacity="1.00" d=" M 1109.63 1.13 C 1125.04 1.12 1140.45 1.13 1155.87 1.13 C 1155.86 30.28 1155.88 59.43 1155.86 88.59 C 1185.96 88.61 1216.05 88.58 1246.15 88.60 C 1246.15 103.98 1246.16 119.35 1246.14 134.72 C 1216.05 134.72 1185.96 134.71 1155.87 134.73 C 1155.85 163.89 1155.89 193.06 1155.86 222.23 C 1140.45 222.23 1125.04 222.24 1109.64 222.23 C 1109.61 193.06 1109.66 163.89 1109.61 134.72 C 1079.42 134.73 1049.22 134.70 1019.02 134.73 C 1018.98 119.35 1019.01 103.98 1019.00 88.60 C 1049.21 88.59 1079.42 88.60 1109.63 88.59 C 1109.64 59.44 1109.62 30.29 1109.63 1.13 Z" />
<path fill="#008644" opacity="1.00" d=" M 497.36 222.23 C 497.34 148.65 497.34 75.07 497.36 1.49 C 512.36 1.49 527.37 1.51 542.37 1.48 C 579.01 46.67 615.49 91.97 652.15 137.13 C 652.10 91.92 652.15 46.71 652.13 1.50 C 668.18 1.50 684.23 1.49 700.28 1.50 C 700.28 75.08 700.28 148.65 700.28 222.23 C 686.44 222.24 672.61 222.22 658.78 222.24 C 620.97 175.55 583.28 128.78 545.51 82.07 C 545.48 128.79 545.52 175.51 545.49 222.23 C 529.45 222.24 513.40 222.23 497.36 222.23 Z" />
<path fill="#008644" opacity="1.00" d=" M 0.00 265.86 C 16.28 265.83 32.56 265.85 48.84 265.84 C 48.84 294.95 48.72 324.05 48.79 353.16 C 81.35 353.19 113.92 353.15 146.48 353.18 C 146.55 324.07 146.45 294.96 146.53 265.85 C 162.77 265.84 179.02 265.84 195.27 265.85 C 195.30 339.45 195.28 413.05 195.28 486.65 C 179.02 486.66 162.76 486.67 146.50 486.65 C 146.50 457.15 146.51 427.65 146.50 398.15 C 113.92 398.12 81.35 398.14 48.77 398.14 C 48.78 427.65 48.78 457.15 48.77 486.66 C 32.52 486.67 16.26 486.65 0.00 486.66 L 0.00 265.86 Z" />
<path fill="#008644" opacity="1.00" d=" M 238.73 265.85 C 255.03 265.84 271.33 265.84 287.63 265.85 C 287.68 303.57 287.63 341.29 287.65 379.01 C 287.72 388.69 287.17 398.49 289.20 408.03 C 291.28 418.94 296.45 429.73 305.50 436.51 C 315.83 444.34 329.51 446.08 342.08 444.70 C 353.29 443.57 364.42 438.40 371.23 429.20 C 379.22 418.62 381.37 404.94 381.47 392.00 C 381.56 349.95 381.45 307.90 381.53 265.85 C 397.77 265.85 414.02 265.84 430.26 265.85 C 430.30 302.56 430.27 339.28 430.28 375.99 C 430.49 393.83 430.42 412.00 425.18 429.23 C 420.21 446.59 409.96 462.71 395.07 473.17 C 378.96 484.66 358.97 489.27 339.44 490.00 L 328.54 490.00 C 308.58 489.30 288.07 484.45 271.89 472.26 C 257.87 461.84 248.29 446.26 243.62 429.57 C 239.58 415.76 238.59 401.28 238.72 386.96 C 238.73 346.59 238.70 306.22 238.73 265.85 Z" />
<path fill="#008644" opacity="1.00" d=" M 473.64 265.84 C 491.16 265.84 508.67 265.85 526.18 265.84 C 544.48 296.88 562.70 327.97 580.98 359.02 C 599.29 327.98 617.49 296.87 635.82 265.84 C 653.33 265.85 670.84 265.84 688.36 265.85 C 688.39 339.45 688.35 413.05 688.37 486.65 C 672.21 486.68 656.04 486.65 639.88 486.66 C 639.82 438.73 639.85 390.79 639.86 342.85 C 620.24 374.17 600.72 405.56 580.99 436.81 C 580.64 436.78 579.95 436.72 579.61 436.69 C 560.20 405.78 540.88 374.79 521.51 343.85 C 521.49 391.45 521.50 439.05 521.50 486.65 C 505.54 486.67 489.58 486.67 473.62 486.65 C 473.65 413.05 473.61 339.44 473.64 265.84 Z" />
<path fill="#008644" opacity="1.00" d=" M 730.38 265.86 C 747.91 265.83 765.45 265.85 782.98 265.84 C 801.29 296.88 819.49 327.98 837.79 359.02 C 856.09 327.97 874.30 296.86 892.63 265.83 C 910.14 265.87 927.64 265.83 945.14 265.85 C 945.11 339.46 945.26 413.08 945.07 486.69 C 928.92 486.62 912.77 486.69 896.63 486.65 C 896.63 438.75 896.64 390.85 896.62 342.95 C 878.04 372.61 859.48 402.28 840.91 431.95 C 839.70 433.80 838.74 435.90 836.95 437.29 C 817.11 406.31 797.87 374.94 778.28 343.80 C 778.28 391.42 778.28 439.03 778.28 486.65 C 762.30 486.67 746.33 486.66 730.35 486.65 C 730.37 413.05 730.31 339.46 730.38 265.86 Z" />
<path fill="#008644" opacity="1.00" d=" M 987.05 265.84 C 1043.41 265.85 1099.78 265.83 1156.14 265.85 C 1156.16 280.29 1156.15 294.74 1156.15 309.18 C 1115.89 309.20 1075.63 309.18 1035.37 309.20 C 1035.37 324.06 1035.37 338.92 1035.37 353.78 C 1071.17 353.79 1106.98 353.77 1142.78 353.79 C 1142.77 368.26 1142.79 382.73 1142.77 397.20 C 1106.97 397.21 1071.17 397.20 1035.38 397.20 C 1035.43 412.57 1035.22 427.94 1035.48 443.30 C 1075.70 443.18 1115.93 443.27 1156.15 443.25 C 1156.16 457.72 1156.14 472.18 1156.16 486.65 C 1099.78 486.68 1043.39 486.64 987.01 486.67 C 987.02 413.06 986.94 339.45 987.05 265.84 Z" />
<path fill="#008644" opacity="1.00" d=" M 1197.86 265.85 C 1214.11 265.83 1230.36 265.86 1246.61 265.84 C 1246.70 324.68 1246.63 383.52 1246.65 442.36 C 1283.43 442.35 1320.21 442.37 1356.99 442.35 C 1357.01 457.12 1357.01 471.89 1356.99 486.67 C 1303.93 486.59 1250.86 486.79 1197.81 486.57 C 1197.91 413.00 1197.80 339.42 1197.86 265.85 Z" />
</g>
</svg>
