<?xml version="1.0" encoding="utf-8"?>
<!-- Generator: Adobe Illustrator 25.0.0, SVG Export Plug-In . SVG Version: 6.00 Build 0)  -->
<svg version="1.1" xmlns="http://www.w3.org/2000/svg" xmlns:xlink="http://www.w3.org/1999/xlink" x="0px" y="0px"
	 viewBox="0 0 155.9 110.99" style="enable-background:new 0 0 155.9 110.99;" xml:space="preserve">
<style type="text/css">
	.st0{fill:#E30613;}
	.st1{fill:#FFDE14;}
</style>
<g id="Rot">
	<g>
		<path class="st0" d="M0.07,69.68c0.33,0.01,33,0.91,68.86-1.77c46.17-3.45,75.71-11.26,85.44-22.59l1.53-1.78V0H0v69.68
			L0.07,69.68z"/>
	</g>
</g>
<g id="Swoosh">
	<path class="st1" d="M13.97,71.86c-8.45,0-13.7-0.14-13.96-0.15H0v4.83h155.9V46.66C136.21,69.55,48.45,71.86,13.97,71.86z"/>
</g>
<g id="Mea">
	<path class="st1" d="M125.64,53.16c0.76,0,1.57-1.02,1.25-1.95l-11.14-30.19c-0.46-1.09-1.65-1.96-2.91-1.96c0,0-3.53,0-3.66,0
		c-1.33,0-2.47,0.86-2.93,2l-11.16,30.1c-0.35,0.91,0.44,2,1.34,2l4.3,0c1.13,0,2.15-0.97,2.58-1.92l1.32-3.73h12.69l1.33,3.75
		c0.3,0.91,1.44,1.9,2.45,1.9L125.64,53.16z M107.13,40.26l3.89-11.45l3.89,11.45L107.13,40.26z"/>
	<path class="st1" d="M90.49,45.9l-15.99,0l0-6.84h13.35c1.06,0,2.04-0.91,2.04-1.92v-3.21c0-1.03-1-1.91-2-1.91H74.5l0-5.65
		l14.85,0c1.3,0,2.29-1.04,2.29-2.3v-2.73c0-1.17-0.82-2.28-2.03-2.28H68.32c-1.02,0-2.01,0.98-2.01,2.01l0,29.75
		c0,1.19,0.91,2.32,2.03,2.32l22.14,0c1.17,0,2.04-1.13,2.04-2.32v-2.6C92.53,47.04,91.62,45.9,90.49,45.9"/>
	<path class="st1" d="M59.33,19.05c1.14,0,1.91,0.82,1.91,1.88l0,29.93c0,1.14-0.7,2.3-1.88,2.3h-4.23c-1.15,0-1.87-1.16-1.87-2.3
		l0-16.76l-5.18,9.07c-0.26,0.41-0.73,1.09-1.5,1.09h-2.59c-0.78,0-1.19-0.67-1.45-1.09l-5.23-9.07l0,16.71
		c0,1.19-0.7,2.35-1.81,2.35l-4.5,0c-1.13,0-1.83-1.16-1.83-2.35l0-29.87c0-0.95,0.82-1.88,1.76-1.88h4.1c1.5,0,2.48,0.56,3.2,1.88
		l7.05,12.59l7.1-12.59c0.64-1.19,1.4-1.88,2.84-1.88h3.97"/>
</g>
<g id="Claim">
	<g>
		<path d="M7.12,109.88c-0.85,0.39-2.27,0.58-3.74,0.48c-1.32-0.06-2.25-0.21-2.73-0.6c-0.68-0.62-0.46-2.46-0.46-2.86l0.02-9.04
			c0-0.72,3.43-0.41,3.43-0.41c3.37-0.48,4.53,0.89,4.57,3.43c0.04,2.27-2.32,2.19-2.29,2.69c0.02,0.27,2.69-0.5,2.81,3.14
			C8.77,108.31,8.17,109.38,7.12,109.88z M3.33,104.42c0,0-0.64-0.12-0.93,0.08c-0.43,0.27-0.17,3.83,0.06,4.03
			c0.29,0.19,0.93,0.12,0.93,0.12c1.39,0,1.84-0.04,2.25-0.31c0.35-0.27,0.5-0.97,0.5-1.63C6.13,105.12,5.34,104.5,3.33,104.42z
			 M3.97,98.89c0,0-1.51-0.33-1.64,0.21c0,0-0.19,3.74,0.1,3.97c0.33,0.31,1.32-0.08,1.32-0.08c1.34,0,1.98-0.79,1.98-1.94
			C5.71,99.87,5.3,98.89,3.97,98.89z"/>
		<path d="M18.57,109.36c-0.74,0.77-1.65,1.22-3.23,1.22c-1.88,0-3.25-0.66-3.81-1.72c-0.33-0.66-0.46-1.55-0.46-3.23v-7.16
			c0-0.91,0.12-1.18,1.16-0.97l0.56,0.12c0.95,0.19,1.04,0.56,1.04,1.35l-0.04,7.24c0,0.87-0.08,1.67,0.1,1.96
			c0.25,0.41,0.72,0.83,1.39,0.83c0.72,0,1.24-0.25,1.45-0.74c0.17-0.39,0.39-1.08,0.43-1.93l0.43-7.47
			c0.08-0.81,0.17-1.04,0.58-1.16c0.21-0.06,0.52-0.02,0.52-0.02c1.01,0,1.08,0.08,1.08,0.97v6.99
			C19.77,108.1,19.26,108.62,18.57,109.36z M18.43,107.52l-0.33,0.29l0.6-0.1c-0.23-0.43,0.06-0.78,0.1-0.93L18.43,107.52z"/>
		<path d="M26.45,110.52c-0.56,0-1.12-0.1-1.66-0.1c-0.46,0-1.14,0.04-1.7,0.04c-1.01,0-0.91-0.46-0.91-1.08
			c0-0.37-0.06-0.72,0.95-0.64c0,0,0.19,0.17,0.19,0.12c0.15-1.32,0.21-5.92-0.21-9.76c0-0.1-0.1-0.04-0.33-0.04
			c-0.25,0-0.74-0.04-0.74-0.43c0-0.37-0.17-0.99,0.6-1.18c0.19,0.02,0.87-0.02,1.18,0.1c0.08,0.02,0.77-0.14,0.83-0.12
			c0.56,0.25,1.01,0.02,1.59,0.02c0.35,0,0.54,0.89,0.37,1.14C26.31,99,25.44,98.42,25.44,99c0,0-0.02,1.24,0,2.87
			c0,0.14-0.25,0.21-0.25,0.37c0,0.15,0.21,0.23,0.23,0.39c0.08,2.61,0.14,5.87,0.23,6.1c0,0.06,0.41,0.04,0.41,0.04
			c0.62,0.19,0.81-0.06,0.83,0.5C26.9,109.36,26.8,110.38,26.45,110.52z"/>
		<path d="M35.05,110.37l-4.99-0.1c-1.06-0.02-0.89-0.06-0.89-0.97l0.04-10.88c0-0.89,0.08-0.97,1.1-0.97c0,0,1.49,0.12,1.49,0.93
			c0,0-0.58,10.07-0.17,10.03c1.03-0.08,3.39-0.04,3.39-0.04c1.03,0,0.56,0.79,0.56,0.79C35.57,110.06,36.09,110.38,35.05,110.37z"
			/>
		<path d="M45.97,108.91c-0.72,0.97-2.09,1.45-4.32,1.45H39.7c-0.95,0-1.84-0.43-1.84-1.26l-0.08-10.69c0-0.89,0.08-0.97,1.1-0.97
			h2.75c2.67,0,3.99,0.54,4.59,1.8c0.33,0.68,0.46,1.88,0.46,4.76C46.69,107.35,46.55,108.14,45.97,108.91z M41.77,98.98
			c0,0-1.51-0.06-1.45,0.41c0.12,0.81,0.06,7.86,0.12,8.89c0.04,0.52,0.91,0.29,0.91,0.29c1.51-0.06,2.32-0.41,2.54-1.28
			c0.1-0.35,0-1.78,0.04-3.12C43.98,102.02,44.01,98.83,41.77,98.98z M44.46,99.79l0.45,0.37C44.69,99.45,44.98,99.68,44.46,99.79z"
			/>
		<path d="M52.94,110.52c-0.56,0-1.12-0.1-1.66-0.1c-0.46,0-1.14,0.04-1.7,0.04c-1.01,0-0.91-0.46-0.91-1.08
			c0-0.37-0.06-0.72,0.95-0.64c0,0,0.19,0.17,0.19,0.12c0.16-1.32,0.21-5.92-0.21-9.76c0-0.1-0.1-0.04-0.33-0.04
			c-0.25,0-0.74-0.04-0.74-0.43c0-0.37-0.17-0.99,0.6-1.18c0.19,0.02,0.87-0.02,1.18,0.1c0.08,0.02,0.77-0.14,0.83-0.12
			c0.56,0.25,1.01,0.02,1.59,0.02c0.35,0,0.54,0.89,0.37,1.14C52.81,99,51.94,98.42,51.94,99c0,0-0.02,1.24,0,2.87
			c0,0.14-0.25,0.21-0.25,0.37c0,0.15,0.21,0.23,0.23,0.39c0.08,2.61,0.14,5.87,0.23,6.1c0,0.06,0.41,0.04,0.41,0.04
			c0.62,0.19,0.81-0.06,0.83,0.5C53.39,109.36,53.29,110.38,52.94,110.52z"/>
		<path d="M65,109.4c0,0.89-0.1,0.95-1.12,0.95h-1.37c-0.83,0-0.97-0.1-1.12-0.56c0-0.06-0.06-0.14-0.06-0.16l-2.79-7.34
			c-0.48-1.24-0.45-1.57-0.76-1.57c-0.35,0-0.1,0.93-0.1,0.93s0.46,5.61,0.31,8.38c-0.02,0.44-0.81,0.19-1.06,0.27
			c-0.83,0.56-1.28,0.02-1.28-0.91l0.04-10.98c0-0.87,0.08-0.87,1.08-0.95l1.03-0.08c0.83-0.04,1.49,0.13,1.74,0.81l2.59,6.76
			c0.04,0.13,0.21,0.6,0.43,1.22c0.46,1.34,0,1.65,0.62,1.45c0.45-0.13-0.54-9.21-0.54-9.21c-0.04-0.87,0.08-0.95,1.1-0.95h0.21
			c1.03,0,1.1,0.08,1.1,0.95L65,109.4z M56.78,98.65v0.97c0.14-0.06,0.23-0.15,0.23-0.39c0-0.21-0.02-0.27,0-0.46
			c-0.12,0.21-0.02,0.13-0.23,0.23V98.65z"/>
		<path d="M75.85,109.51c-0.87,0.6-2.36,1.06-4.05,1.06c-2.32,0-3.39-0.99-3.83-2.5c-0.16-0.41-0.41-1.65-0.39-3.46l0.02-3
			c0.12-2.32,1.47-4.34,4.38-4.34c1.96,0,3.1,0.48,3.79,1.61c0.33,0.5,0.5,1.08,0.5,1.7c0,0.72-0.13,0.85-1.14,0.85h-0.35
			c-1.01,0-0.99,0.17-1.26-1.47c-0.1-0.48-0.85-1.22-1.65-1.22c-1.14,0-1.72,0.72-1.86,1.67c-0.02,0.08-0.1,0.25-0.1,0.33
			l-0.02,0.79c-0.04,1.26,0.15,4.16,0.15,4.16c0,1.94,0.02,2.07,0.33,2.48c0.25,0.37,1.01,0.7,1.68,0.7c0.72,0,1.43-0.08,2.03-0.39
			c0.56-0.29,0.29-3.27-0.15-3.52c-0.45-0.23-1.37-0.16-1.37-0.16c-1.05-0.12-0.95-0.64-0.95-0.64c0-0.89-0.12-0.93,0.91-0.93h1.84
			c0.89,0,1.92,0.45,1.92,1.22v4.28C76.3,109.36,76.08,109.36,75.85,109.51z"/>
		<path d="M91.17,101.92l-0.37,0.04c-1.08,0.1-1.04-0.23-1.06-1.47c0-0.68-0.62-1.74-1.49-1.82c-1.34-0.12-1.82,1.03-1.86,1.96
			c-0.02,0.68,0.27,1.14,1.03,1.63c0.29,0.19,0.02,0.04,0.89,0.46l0.83,0.41c2.28,1.08,2.96,2.05,2.88,3.87
			c-0.08,2.28-1.7,3.58-4.59,3.58c-2.92,0-4.41-1.34-4.32-3.75c0.06-1.01,0.14-1.08,1.14-1.08c0,0,0.27-0.02,0.45,0
			c0.35,0.02,0.7,0.04,0.87,0.19c0.16,0.15,0.02,0,0.02,1.2c-0.02,0.95,0.91,2.07,2.03,2.07c1.2,0,1.78-0.77,1.82-1.8
			c0.06-1.01-0.83-1.59-2.58-2.4c-2.75-1.28-3.15-2.52-3.08-4.32c0.08-2.19,1.59-3.41,4.3-3.41c2.75,0,4.2,1.22,4.1,3.43
			C92.18,101.38,92.12,101.87,91.17,101.92z"/>
		<path d="M101.98,109.36c-0.74,0.77-1.64,1.22-3.23,1.22c-1.88,0-3.25-0.66-3.81-1.72c-0.33-0.66-0.46-1.55-0.46-3.23v-7.16
			c0-0.91,0.12-1.18,1.16-0.97l0.56,0.12c0.95,0.19,1.04,0.56,1.04,1.35l-0.04,7.24c0,0.87-0.08,1.67,0.1,1.96
			c0.25,0.41,0.72,0.83,1.4,0.83c0.72,0,1.24-0.25,1.45-0.74c0.17-0.39,0.39-1.08,0.43-1.93l0.43-7.47
			c0.08-0.81,0.17-1.04,0.58-1.16c0.21-0.06,0.52-0.02,0.52-0.02c1.01,0,1.08,0.08,1.08,0.97v6.99
			C103.17,108.1,102.67,108.62,101.98,109.36z M101.84,107.52l-0.33,0.29l0.6-0.1c-0.23-0.43,0.06-0.78,0.1-0.93L101.84,107.52z"/>
		<path d="M109.92,110.58c-2.71,0-3.97-0.97-4.22-3.08c-0.02-0.29-0.04-0.33,0-1.61c0,0-0.19-1.37-0.11-2.17
			c0.11-1.95-0.19-3.08,0.33-4.32c0.95-2.27,2.17-2.13,3.89-2.13c2.73,0,4.18,1.26,4.18,3.62c0,0.5-0.23,0.7-1.12,0.7
			c-1.28-0.04-1.14-0.1-1.26-1.51c-0.04-0.62-1.03-1.38-1.82-1.38c-0.83,0-1.41,0.54-1.53,1.22c-0.19,0.85-0.15,2.17-0.15,3.25
			c0,0,0.12,1.04,0.13,2.21c0.02,2.81,0.12,2.63,0.48,3.08c0.25,0.29,0.74,0.45,1.26,0.45c0.97,0,1.34-0.77,1.38-1.68
			c0.02-1.32,0.29-1.35,1.49-1.32c0.99,0,1.14,0.15,1.14,0.87C113.98,109.3,112.61,110.58,109.92,110.58z"/>
		<path d="M120.26,110.58c-2.71,0-3.97-0.97-4.22-3.08c-0.02-0.29-0.04-0.33,0-1.61c0,0-0.19-1.37-0.12-2.17
			c0.12-1.95-0.19-3.08,0.33-4.32c0.95-2.27,2.17-2.13,3.89-2.13c2.73,0,4.18,1.26,4.18,3.62c0,0.5-0.23,0.7-1.12,0.7
			c-1.28-0.04-1.14-0.1-1.26-1.51c-0.04-0.62-1.03-1.38-1.82-1.38c-0.83,0-1.41,0.54-1.53,1.22c-0.19,0.85-0.15,2.17-0.15,3.25
			c0,0,0.12,1.04,0.13,2.21c0.02,2.81,0.12,2.63,0.48,3.08c0.25,0.29,0.74,0.45,1.26,0.45c0.97,0,1.34-0.77,1.37-1.68
			c0.02-1.32,0.29-1.35,1.49-1.32c0.99,0,1.14,0.15,1.14,0.87C124.32,109.3,122.95,110.58,120.26,110.58z"/>
		<path d="M132.67,110.37h-5.13c-1.03,0-1.12-0.08-1.1-0.97c0,0,0.12-3.5,0.08-6c-0.02-1.78-0.08-4.96-0.08-4.96
			c-0.08-0.89,0.08-0.99,1.1-0.99l4.34,0.08c1.03,0,1.14,1.03,1.14,1.03c0,0.89-0.21,0.74-1.26,0.75l-2.26,0.02
			c-0.25,0-0.54,0.06-0.5,0.27c-0.15,1.28-0.23,2.9,0.1,3.29c0.17,0.21,2.98-0.06,2.98-0.06c1.04,0.02,1.2,0.1,1.2,0.97v0.06
			c0,0.89-0.16,0.95-1.2,0.95c0,0-2.44-0.33-3.08-0.12c-0.52,0.17-0.39,3.76,0.25,3.76c2.11,0,3.45,0.08,3.45,0.08
			c1.06,0.02,1.08,0.89,1.08,0.89C133.77,110.31,133.7,110.37,132.67,110.37z M127.37,98.65c0,0.33,0.06,0.45,0.12,0.74
			c0.27-0.12,0.31-0.06,0.31-0.39c0-0.29-0.16-0.5-0.27-0.66c-0.12,0.16-0.16,0.25-0.23,0.46L127.37,98.65z"/>
		<path d="M143.57,101.92l-0.37,0.04c-1.08,0.1-1.04-0.23-1.06-1.47c0-0.68-0.62-1.74-1.49-1.82c-1.34-0.12-1.82,1.03-1.86,1.96
			c-0.02,0.68,0.27,1.14,1.03,1.63c0.29,0.19,0.02,0.04,0.89,0.46l0.83,0.41c2.28,1.08,2.96,2.05,2.88,3.87
			c-0.08,2.28-1.7,3.58-4.59,3.58c-2.92,0-4.41-1.34-4.32-3.75c0.06-1.01,0.13-1.08,1.14-1.08c0,0,0.27-0.02,0.45,0
			c0.35,0.02,0.7,0.04,0.87,0.19c0.16,0.15,0.02,0,0.02,1.2c-0.02,0.95,0.91,2.07,2.03,2.07c1.2,0,1.78-0.77,1.82-1.8
			c0.06-1.01-0.83-1.59-2.57-2.4c-2.75-1.28-3.16-2.52-3.08-4.32c0.08-2.19,1.59-3.41,4.3-3.41c2.75,0,4.2,1.22,4.1,3.43
			C144.58,101.38,144.52,101.87,143.57,101.92z"/>
		<path d="M154.59,101.92l-0.37,0.04c-1.08,0.1-1.05-0.23-1.07-1.47c0-0.68-0.62-1.74-1.49-1.82c-1.34-0.12-1.82,1.03-1.86,1.96
			c-0.02,0.68,0.27,1.14,1.03,1.63c0.29,0.19,0.02,0.04,0.89,0.46l0.83,0.41c2.28,1.08,2.96,2.05,2.88,3.87
			c-0.08,2.28-1.7,3.58-4.59,3.58c-2.92,0-4.42-1.34-4.32-3.75c0.06-1.01,0.14-1.08,1.14-1.08c0,0,0.27-0.02,0.44,0
			c0.35,0.02,0.7,0.04,0.87,0.19c0.16,0.15,0.02,0,0.02,1.2c-0.02,0.95,0.91,2.07,2.03,2.07c1.2,0,1.78-0.77,1.82-1.8
			c0.06-1.01-0.83-1.59-2.58-2.4c-2.75-1.28-3.16-2.52-3.08-4.32c0.08-2.19,1.59-3.41,4.3-3.41c2.75,0,4.2,1.22,4.1,3.43
			C155.6,101.38,155.54,101.87,154.59,101.92z"/>
	</g>
</g>
<g id="help">
</g>
</svg>
