<svg xmlns="http://www.w3.org/2000/svg" xmlns:xlink="http://www.w3.org/1999/xlink" version="1.1" id="layer" x="0px" y="0px" style="enable-background:new 0 0 652 652;" xml:space="preserve" viewBox="21.6 254.1 600 134.5">
<style type="text/css">
	.st0{fill:#DA2027;}
</style>
<path class="st0" d="M621.6,254.1v124.1c0,5.6-4.5,10.1-10.1,10.1h-23.5V278.7c0.1-6.8,4.2-12.6,10.1-15.2L621.6,254.1z   M554.5,297.1c-5.9,2.6-10,8.4-10.1,15.2l0,76h23.5c5.6,0,10.1-4.5,10.1-10.1v-90.5L554.5,297.1z M510.9,330.6  c-5.9,2.6-10,8.4-10.1,15.2l0,42.5h23.5c5.6,0,10.1-4.5,10.1-10.1v-57L510.9,330.6z M21.6,387.5H37v-26.1c0-4.9,2.8-7.6,6.9-7.6  c3.5,0,5.8,2.2,5.8,6.8v26.9H65v-26.1c0-4.9,2.8-7.6,6.9-7.6c3.5,0,5.8,2.2,5.8,6.8v26.9h15.4V358c0-11.3-6.2-16.8-14.8-16.8  c-5.7,0-11,2.2-14.9,7.5c-2.2-4.9-6.3-7.5-12.3-7.5c-7,0-11.7,3.8-14.2,8.1v-6.9H21.6V387.5z M98.4,365.5c0,14.6,10.8,23,24.7,23  c13.9,0,24.7-8.8,24.7-23.5v-0.7c0-14.3-10.7-23.2-24.6-23.2c-14,0-24.8,9.2-24.8,23.6V365.5 M132.1,365.2c0,7.5-3.1,11.8-8.9,11.8  c-6,0-9-4.2-9-12v-0.7c0-7.6,3.2-11.7,9-11.7c5.9,0,8.9,4.2,8.9,11.8V365.2 M154.6,373c0,10.6,5.7,15.5,15.9,15.5  c3.6,0,6.6-0.8,8.5-1.3v-11.7c-1.4,0.5-2.7,0.8-4.4,0.8c-2.9,0-4.6-1.5-4.6-4.8v-18.6h8.9v-10.5h-8.9V333l-15.5,6.2v3.2h-5.4v10.5  h5.4V373 M185.3,387.5h15.4v-25.3c0-5.8,3.1-8.5,7.7-8.5c4.5,0,6.5,2.5,6.5,7.6v26.2h15.4v-29.3c0-11.6-6-17-14.8-17  c-7.5,0-12.4,3.8-14.9,8.5v-28.9l-15.4,6.3V387.5z M235.5,365.5c0,14.8,10.4,23,24.5,23c13.6,0,21.5-5.8,22.9-16h-14.5  c-0.6,3-2.8,5.4-7.9,5.4c-5.5,0-9-3.5-9.4-9.4h31.8v-4.1c0-16.2-10.6-23.3-23-23.3c-13.6,0-24.4,9.1-24.4,23.6V365.5 M251.3,359.8  c0.8-5.4,4-8.5,8.6-8.5c5,0,7.7,3,7.9,8.5H251.3z M288.8,387.5h15.5v-21.4c0-7.2,5.2-10.2,14.6-9.9v-14.4c-7-0.1-11.7,2.8-14.6,9.6  v-9h-15.5V387.5z M321.3,373.2c0.3,10,7.9,15.4,20.7,15.4c12.5,0,20.5-4.8,20.5-15.5c0-9.7-6-12.9-18.6-14.5  c-5.5-0.7-7.6-1.5-7.6-3.7c0-2.1,1.7-3.5,5.1-3.5c3.5,0,5.2,1.5,5.8,4.5h14c-1-10.8-8.8-14.6-19.9-14.6c-10.4,0-19.3,4.8-19.3,14.8  c0,9.4,5.1,12.9,17.2,14.5c6.2,0.9,8.4,1.9,8.4,4.1c0,2.2-1.7,3.7-5.5,3.7c-4.4,0-5.9-1.8-6.4-5.1H321.3 M365.2,365.5  c0,14.6,10.8,23,24.7,23c13.9,0,24.7-8.8,24.7-23.5v-0.7c0-14.3-10.7-23.2-24.6-23.2c-14,0-24.8,9.2-24.8,23.6V365.5 M398.9,365.2  c0,7.5-3.1,11.8-8.9,11.8c-6,0-9-4.2-9-12v-0.7c0-7.6,3.2-11.7,9-11.7c5.9,0,8.9,4.2,8.9,11.8V365.2 M420.1,387.5h15.5v-25.3  c0-5.8,3.1-8.5,7.7-8.5c4.5,0,6.5,2.5,6.5,7.6v26.2h15.4v-29.3c0-11.6-6-17-14.8-17c-7.5,0-12.4,3.8-14.8,8.5v-7.2h-15.5V387.5z"/>
</svg>