<svg xmlns="http://www.w3.org/2000/svg" xmlns:xlink="http://www.w3.org/1999/xlink" viewBox="0 0 237 84" width="474" height="168"><defs><path id="mubea-logo-a" d="M.033.133h236.146v77.523H.033z"> </path></defs><g fill="none" fill-rule="evenodd"><g transform="translate(.41 5.73)"><mask id="mubea-logo-b" fill="#fff"><use xlink:href="#mubea-logo-a"></use></mask><path d="M0 73.314h2.229V60.696H0v12.618zm10.283-10.086c.272-.259.409-.579.409-.958 0-.369-.137-.683-.41-.943a1.384 1.384 0 0 0-.986-.389c-.383 0-.71.134-.976.397a1.271 1.271 0 0 0-.402.935c0 .368.134.684.402.949.266.266.593.398.976.398.385 0 .714-.13.987-.39zM8.18 73.314h2.23v-8.591H8.18v8.59zM22.974 76.7c.883-.66 1.325-1.469 1.325-2.429 0-.82-.26-1.447-.782-1.88-.52-.433-1.254-.65-2.203-.65h-1.351c-.516 0-.87-.037-1.062-.11-.194-.076-.29-.213-.29-.417 0-.238.14-.42.422-.544.175.033.332.053.473.06.14.006.27.008.386.008 1.206 0 2.136-.282 2.792-.85.655-.568.984-1.337.984-2.307 0-.499-.147-.88-.44-1.148h1.176v-1.711h-2.949a12.182 12.182 0 0 0-.799-.146 5.132 5.132 0 0 0-.73-.045c-1.238 0-2.208.317-2.905.953-.696.634-1.044 1.43-1.044 2.384 0 .542.114 1.026.342 1.452.23.428.547.743.958.951-.317.114-.569.31-.756.585-.186.273-.28.572-.28.892 0 .31.072.57.218.782.148.212.36.388.642.524a2.44 2.44 0 0 0-.967.851c-.245.37-.368.78-.368 1.231 0 .834.327 1.468.984 1.9.654.435 1.574.65 2.756.65 1.428 0 2.584-.328 3.468-.986zm-1.448-8.986c0 .48-.153.857-.457 1.123-.305.264-.715.396-1.229.396-.552 0-.974-.135-1.273-.405-.298-.271-.447-.65-.447-1.132 0-.472.153-.85.465-1.132.31-.282.728-.423 1.255-.423 1.123 0 1.686.523 1.686 1.573zm.204 6.057c.225.191.34.452.34.787 0 .416-.195.756-.584 1.02-.388.266-.938.397-1.645.397-.569 0-1.018-.111-1.35-.337a1.057 1.057 0 0 1-.496-.924c0-.531.262-.939.783-1.228h1.917c.464 0 .81.096 1.035.285zm15.474-.458v-6.032c0-.829-.204-1.496-.608-1.996-.404-.502-1.07-.754-1.998-.754-.67 0-1.251.142-1.744.425-.494.282-.88.67-1.162 1.165.07-.297.113-.555.132-.767.016-.213.025-.54.025-.978v-3.681h-2.23v12.618h2.23v-4.149c0-.76.2-1.414.6-1.96.4-.548.883-.823 1.448-.823.412 0 .695.117.846.346.155.232.232.593.232 1.09v5.496h2.229zm10.709-.052v-1.781c-.339.093-.702.14-1.088.14-.398 0-.67-.1-.817-.304-.146-.2-.218-.572-.218-1.115v-3.768h2.123v-1.711H45.79v-3.236l-2.231.589v2.647h-1.51v1.711h1.51v4.357c0 1.014.182 1.716.546 2.108.361.393 1.023.588 1.982.588.61 0 1.217-.073 1.826-.225zm7.393-2.162a1.38 1.38 0 0 0-1.001-.414c-.399 0-.738.138-1.02.414-.28.278-.42.614-.42 1.004 0 .393.14.725.42 1.003.282.276.621.415 1.02.415.409 0 .75-.139 1.018-.415a1.39 1.39 0 0 0 .405-1.003c0-.39-.14-.726-.422-1.004zm13.133-2.14v-.603c0-1.125-.309-2.043-.922-2.755-.616-.712-1.53-1.07-2.749-1.07-1.286 0-2.291.422-3.01 1.263-.72.843-1.08 1.943-1.08 3.303 0 1.497.365 2.602 1.097 3.318.73.714 1.806 1.071 3.223 1.071 1.133 0 2.177-.183 3.125-.547l-.21-1.736a5.731 5.731 0 0 1-2.547.573c-1.603 0-2.405-.808-2.405-2.42h5.407c.012-.08.036-.213.07-.396zm-2.622-2.358c.261.299.392.715.392 1.25H62.96c.058-.523.241-.938.55-1.241.308-.302.698-.453 1.17-.453.498 0 .877.148 1.136.444zm13.367-5.925a7.439 7.439 0 0 0-.616-.11 8.206 8.206 0 0 0-.807-.027c-1.181 0-2.056.288-2.624.86-.569.572-.852 1.449-.852 2.63v.693h-1.527v1.711h1.527v6.88h2.23v-6.88h2.038v-1.711h-2.037v-.732c0-1.1.472-1.653 1.42-1.653.176 0 .361.011.554.034.193.024.372.064.536.12l.158-1.815zm9.725 0a7.382 7.382 0 0 0-.614-.11 8.206 8.206 0 0 0-.807-.027c-1.183 0-2.058.288-2.625.86-.567.572-.851 1.449-.851 2.63v.693h-1.53v1.711h1.53v6.88h2.229v-6.88h2.036v-1.711H86.24v-.732c0-1.1.475-1.653 1.423-1.653.175 0 .36.011.552.034.195.024.371.064.536.12l.157-1.815zm6.474 2.55c.273-.258.41-.578.41-.957 0-.369-.137-.683-.41-.943a1.388 1.388 0 0 0-.987-.389c-.384 0-.71.134-.976.397a1.273 1.273 0 0 0-.402.935c0 .368.134.684.402.949.266.266.592.398.976.398.385 0 .713-.13.987-.39zm-2.1 10.087h2.228v-8.591h-2.229v8.59zm12.79.053c.438-.08.803-.173 1.097-.277l-.176-1.902c-.48.254-1.053.38-1.72.38-.716 0-1.238-.219-1.572-.656-.334-.437-.501-1.043-.501-1.814 0-.843.185-1.495.553-1.964.37-.466.9-.7 1.59-.7.281 0 .543.028.791.079.244.052.507.13.789.231l.228-1.916a6.711 6.711 0 0 0-1.79-.242c-1.487 0-2.611.435-3.372 1.304-.76.872-1.142 2.015-1.142 3.431 0 1.429.343 2.48 1.029 3.156.682.674 1.652 1.01 2.904 1.01.422 0 .853-.04 1.292-.12zm8.466-10.14a1.27 1.27 0 0 0 .41-.957c0-.369-.138-.683-.41-.943a1.391 1.391 0 0 0-.988-.389c-.383 0-.71.134-.979.397a1.28 1.28 0 0 0-.399.935c0 .368.134.684.4.949.268.266.595.398.978.398.385 0 .713-.13.988-.39zm-2.1 10.087h2.227v-8.591h-2.227v8.59zm15.323-4.353v-.604c0-1.125-.305-2.043-.92-2.755-.615-.712-1.53-1.07-2.748-1.07-1.287 0-2.292.422-3.01 1.263-.72.843-1.08 1.943-1.08 3.303 0 1.497.365 2.602 1.097 3.318.731.714 1.807 1.071 3.22 1.071 1.136 0 2.177-.183 3.125-.547l-.21-1.736a5.724 5.724 0 0 1-2.544.573c-1.606 0-2.407-.808-2.407-2.42h5.41c.011-.08.033-.213.067-.396zm-2.619-2.359c.261.299.393.715.393 1.25h-3.25c.058-.523.242-.938.552-1.241.305-.302.696-.453 1.17-.453.497 0 .876.148 1.135.444zm15.598 6.712v-6.032c0-.829-.205-1.496-.607-1.996-.405-.502-1.07-.754-1.994-.754-.678 0-1.277.157-1.79.467a3.237 3.237 0 0 0-1.195 1.246c.06-.276.094-.522.107-.734.008-.215.015-.476.015-.788h-2.124v8.59h2.23v-4.148c0-.76.201-1.414.6-1.96.402-.548.884-.823 1.45-.823.412 0 .694.117.848.346.151.232.228.593.228 1.09v5.496h2.232zm10.709-.052v-1.781c-.342.093-.702.14-1.09.14-.398 0-.67-.1-.817-.304-.146-.2-.218-.572-.218-1.115v-3.768h2.125v-1.711h-2.125v-3.236l-2.23.589v2.647h-1.51v1.711h1.51v4.357c0 1.014.18 1.716.543 2.108.362.393 1.026.588 1.985.588.61 0 1.217-.073 1.827-.225zm7.39-2.162a1.374 1.374 0 0 0-1-.414c-.399 0-.738.138-1.02.414-.28.278-.418.614-.418 1.004 0 .393.139.725.419 1.003.28.276.62.415 1.02.415.409 0 .747-.139 1.018-.415.268-.278.401-.61.401-1.003 0-.39-.14-.726-.42-1.004zm12.598 5.6c.883-.659 1.327-1.468 1.327-2.428 0-.82-.261-1.447-.784-1.88-.518-.433-1.253-.65-2.201-.65h-1.353c-.515 0-.87-.037-1.062-.11-.194-.076-.289-.213-.289-.417 0-.238.14-.42.42-.544.177.033.332.053.475.06.14.006.269.008.385.008 1.207 0 2.135-.282 2.793-.85.653-.568.983-1.337.983-2.307 0-.499-.147-.88-.44-1.148h1.177v-1.711h-2.95a12.16 12.16 0 0 0-.797-.146 5.143 5.143 0 0 0-.73-.045c-1.242 0-2.21.317-2.905.953-.698.634-1.045 1.43-1.045 2.384 0 .542.115 1.026.341 1.452.23.428.547.743.958.951-.317.114-.567.31-.755.585a1.545 1.545 0 0 0-.281.892c0 .31.072.57.218.782.148.212.362.388.64.524-.395.198-.718.48-.963.851-.246.37-.369.78-.369 1.231 0 .834.327 1.468.983 1.9.654.435 1.574.65 2.757.65 1.428 0 2.583-.328 3.467-.986zm-1.448-8.985c0 .48-.152.857-.458 1.123-.304.264-.713.396-1.228.396-.55 0-.975-.135-1.272-.405-.3-.271-.448-.65-.448-1.132 0-.472.155-.85.466-1.132.31-.282.727-.423 1.254-.423 1.125 0 1.686.523 1.686 1.573zm.206 6.057c.224.191.338.452.338.787 0 .416-.196.756-.583 1.02-.388.266-.938.397-1.647.397-.567 0-1.017-.111-1.347-.337a1.057 1.057 0 0 1-.498-.924c0-.531.263-.939.784-1.228h1.916c.463 0 .81.096 1.037.285zm7.89-.458h2.227V60.696h-2.227v12.618zm14.825-1.132c.836-.87 1.254-1.98 1.254-3.328 0-1.44-.359-2.517-1.078-3.232-.722-.714-1.717-1.072-2.995-1.072-1.323 0-2.395.43-3.221 1.289-.826.86-1.238 1.968-1.238 3.326 0 1.487.354 2.58 1.061 3.277.709.697 1.713 1.045 3.011 1.045 1.3 0 2.37-.435 3.206-1.305zm-1.063-3.206c0 .842-.181 1.49-.544 1.945-.363.455-.832.683-1.405.683-1.298 0-1.95-.886-1.95-2.663 0-.842.191-1.47.573-1.892.378-.421.851-.63 1.414-.63 1.274 0 1.912.851 1.912 2.557zm14.362 3.172c.83-.893 1.246-2.084 1.246-3.57 0-1.29-.275-2.283-.827-2.981-.553-.697-1.35-1.047-2.395-1.047-.61 0-1.146.135-1.61.407-.465.27-.81.644-1.048 1.116.092-.484.14-1.045.14-1.678v-3.7h-2.231v12.376c.516.14 1.03.243 1.544.312.518.068 1.084.104 1.704.104 1.488 0 2.646-.446 3.477-1.34zm-1.107-3.345c0 1.015-.2 1.754-.6 2.222-.4.466-.934.7-1.605.7-.47 0-.865-.052-1.182-.157V69.15c0-.76.174-1.412.52-1.954.346-.542.801-.814 1.37-.814.997 0 1.497.808 1.497 2.42zm14.501 4.51l-.05-2.213v-3.575c0-.992-.271-1.74-.806-2.24-.541-.501-1.472-.753-2.794-.753-.538 0-1.08.05-1.623.148a9.7 9.7 0 0 0-1.503.39l.194 1.849c.375-.218.8-.386 1.27-.5.47-.118.91-.174 1.32-.174.623 0 1.066.11 1.323.328.26.22.39.565.39 1.038v.466c-1.54 0-2.766.271-3.683.812-.917.542-1.375 1.32-1.375 2.335 0 .713.218 1.27.66 1.667.438.397 1.049.596 1.834.596.655 0 1.228-.146 1.72-.44.49-.294.855-.69 1.088-1.186-.036.22-.06.453-.07.7-.012.249-.017.5-.017.753h2.122zm-2.279-3.595c0 .55-.178 1.028-.53 1.441-.353.41-.801.618-1.344.618-.33 0-.587-.084-.767-.248a.85.85 0 0 1-.277-.662c0-.41.214-.742.64-.987.423-.246 1.18-.368 2.278-.368v.206zm8.199 3.596h2.229V60.696h-2.23v12.618zm10.234-2.214a1.375 1.375 0 0 0-.998-.414 1.4 1.4 0 0 0-1.02.414c-.281.278-.421.614-.421 1.004 0 .393.14.725.42 1.003.283.276.62.415 1.02.415.41 0 .747-.139 1.018-.415.267-.278.402-.61.402-1.003 0-.39-.14-.726-.42-1.004zM16.553.133H27.92l5.249 35.769L50.124.133l11.583.062v50.014l-9.782-.122-.031-35.126-16.677 35.248h-9.503L20.56 14.747 10.466 50.209H.001L16.553.133" fill="#004B95" mask="url(#mubea-logo-b)"></path></g><path d="M70.626 17.726h10.217v25.313c.808 9.171 13.292 4.83 13.385-6.97V17.725h9.938v37.756h-9.38l.156-6.298c-4.75 10.18-24.378 9.018-24.316-4.617V17.726M113.451.514h9.782v16.784c.093 2.14-.093 4.158-.434 6.297.745-2.75 3.788-4.921 7.484-5.838 5.62-1.437 12.732 0 15.528 6.572 4.223 10.028 3.384 29.47-15.528 31.366-4.534.46-10.093-.092-16.832-2.048V.514zm16.832 24.946c-4.472.52-6.428 4.8-7.205 10.823a95.656 95.656 0 0 0 0 11.158c2.67.673 5.124.856 7.205.428 3.602-.764 6.21-3.424 7.267-9.018.559-8.225-1.056-13.758-6.335-13.452-.342.031-.621.031-.932.061zM172.735 48.144c3.633.734 8.51.03 14.44-1.865l.932 7.245c-5.93 1.774-11.055 2.568-15.372 2.446-11.428-.367-17.204-7.245-17.577-19.442.652-12.137 6.429-18.771 17.577-19.138.342 0 .652-.031.994-.031 10.31.092 15.559 5.503 15.776 16.172v1.437a57.906 57.906 0 0 1-.186 3.18l-16.584-.03h-7.298c.187 5.9 2.764 9.078 7.298 10.026zm0-23.6c-4.254.488-6.149 2.995-6.894 7.092h13.82c.03-4.372-2.05-6.818-6.74-7.092h-.186zM198.48 19.285c4.72-1.13 9.161-1.895 13.167-1.987 5.341-.153 9.876.887 13.167 3.76 5.28 5.258 1.988 21.034 3.354 34.179h-9.689l.652-6.084a15.438 15.438 0 0 1-7.484 5.931c-6.397 2.354-13.695.153-15.528-6.573a17.1 17.1 0 0 1-.186-1.712v-1.681c.404-6.482 5.621-10.7 15.714-12.076 1.863-.276 3.913-.428 6.118-.489.776-5.595-2.112-7.643-6.118-7.827-3.696-.152-8.385 1.254-12.112 2.874l-1.055-8.315zm13.167 20.391c-4.969.917-6.18 2.843-6.242 5.411.218 2.232 2.018 3.485 4.472 3.607.466 0 1.087-.091 1.77-.275 2.826-.764 6.677-3.332 6.242-9.385-2.546.091-4.596.306-6.242.642z" fill="#004B95"></path></g></svg>