<svg id="Group_19031" data-name="Group 19031" xmlns="http://www.w3.org/2000/svg" xmlns:xlink="http://www.w3.org/1999/xlink" width="153.295" height="22" viewBox="0 0 153.295 22">
  <defs>
    <clipPath id="clip-path">
      <rect id="Rectangle_1" data-name="Rectangle 1" width="153.295" height="22"/>
    </clipPath>
  </defs>
  <path id="Path_1" data-name="Path 1" d="M90.02,3.008V23.192h13.811V20.683H92.9V3.008Z" transform="translate(-40.841 -1.365)"/>
  <g id="Group_2" data-name="Group 2" transform="translate(0 0)">
    <g id="Group_1" data-name="Group 1" clip-path="url(#clip-path)">
      <path id="Path_2" data-name="Path 2" d="M120.267,3.085a1.7,1.7,0,0,1-.533-1.269,1.749,1.749,0,0,1,.533-1.283A1.819,1.819,0,0,1,121.608,0a1.88,1.88,0,0,1,1.341.5,1.66,1.66,0,0,1,.533,1.254,1.786,1.786,0,0,1-.533,1.312,1.82,1.82,0,0,1-1.341.533,1.844,1.844,0,0,1-1.341-.519m-.043,3.46h2.768V21.827h-2.768Z" transform="translate(-54.322 0)"/>
      <path id="Path_3" data-name="Path 3" d="M147.437,7.74a7.058,7.058,0,0,1,2.753,2.739,8.111,8.111,0,0,1,1,4.066,8.19,8.19,0,0,1-1,4.08,7.022,7.022,0,0,1-2.753,2.753,8.031,8.031,0,0,1-3.979.981,7.222,7.222,0,0,1-3.115-.664,5.98,5.98,0,0,1-2.335-1.932v2.422h-2.653V.791h2.769v8.42A5.883,5.883,0,0,1,140.43,7.38a7.328,7.328,0,0,1,3.028-.62,8.036,8.036,0,0,1,3.979.98m-1.572,11.519a4.869,4.869,0,0,0,1.845-1.9,5.708,5.708,0,0,0,.677-2.811,5.708,5.708,0,0,0-.677-2.811,4.774,4.774,0,0,0-1.845-1.889,5.551,5.551,0,0,0-5.263,0,4.654,4.654,0,0,0-1.845,1.889,5.8,5.8,0,0,0-.663,2.811,5.8,5.8,0,0,0,.663,2.811,4.744,4.744,0,0,0,1.845,1.9,5.449,5.449,0,0,0,5.263,0" transform="translate(-61.409 -0.359)"/>
      <path id="Path_4" data-name="Path 4" d="M183.931,20.425h-12.4a4.8,4.8,0,0,0,1.773,3.244,5.787,5.787,0,0,0,3.763,1.225,5.669,5.669,0,0,0,4.411-1.845l1.528,1.788a6.7,6.7,0,0,1-2.581,1.845,9.724,9.724,0,0,1-7.742-.361,7.086,7.086,0,0,1-2.9-2.782,7.976,7.976,0,0,1-1.023-4.037,8.1,8.1,0,0,1,.994-4.008,7.125,7.125,0,0,1,2.74-2.782,7.8,7.8,0,0,1,3.936-.995,7.645,7.645,0,0,1,3.907.995,6.986,6.986,0,0,1,2.681,2.782,8.476,8.476,0,0,1,.966,4.095,7.993,7.993,0,0,1-.058.836M173.1,15.264a4.88,4.88,0,0,0-1.572,3.172h9.8a4.919,4.919,0,0,0-1.572-3.158,5.16,5.16,0,0,0-6.66-.014" transform="translate(-76.567 -5.316)"/>
      <path id="Path_5" data-name="Path 5" d="M208.437,12.408a7.744,7.744,0,0,1,3.431-.692V14.4a5.427,5.427,0,0,0-.634-.029A4.659,4.659,0,0,0,207.7,15.71a5.31,5.31,0,0,0-1.283,3.82v7.612H203.65V11.86H206.3v2.566a4.722,4.722,0,0,1,2.134-2.018" transform="translate(-92.393 -5.315)"/>
      <path id="Path_6" data-name="Path 6" d="M237.289,20.425h-12.4a4.794,4.794,0,0,0,1.773,3.244,5.787,5.787,0,0,0,3.763,1.225,5.669,5.669,0,0,0,4.411-1.845l1.528,1.788a6.7,6.7,0,0,1-2.581,1.845,9.724,9.724,0,0,1-7.742-.361,7.086,7.086,0,0,1-2.9-2.782,7.976,7.976,0,0,1-1.023-4.037,8.1,8.1,0,0,1,.994-4.008,7.125,7.125,0,0,1,2.74-2.782,7.8,7.8,0,0,1,3.936-.995,7.644,7.644,0,0,1,3.907.995,6.986,6.986,0,0,1,2.681,2.782,8.477,8.477,0,0,1,.966,4.095,8.009,8.009,0,0,1-.058.836m-10.827-5.161a4.88,4.88,0,0,0-1.572,3.172h9.8a4.918,4.918,0,0,0-1.572-3.158,5.16,5.16,0,0,0-6.66-.014" transform="translate(-100.774 -5.316)"/>
      <path id="Path_7" data-name="Path 7" d="M258.33,26.306a7.394,7.394,0,0,1-2.869-2.782,7.806,7.806,0,0,1-1.038-4.022,7.806,7.806,0,0,1,1.038-4.022,7.3,7.3,0,0,1,2.869-2.768,8.584,8.584,0,0,1,4.166-.995,8,8,0,0,1,3.705.836,5.959,5.959,0,0,1,2.523,2.422l-2.1,1.355a4.708,4.708,0,0,0-1.788-1.644,5.107,5.107,0,0,0-2.364-.547,5.473,5.473,0,0,0-2.7.663A4.727,4.727,0,0,0,257.9,16.69a5.715,5.715,0,0,0-.677,2.811,5.769,5.769,0,0,0,.677,2.84,4.72,4.72,0,0,0,1.874,1.889,5.462,5.462,0,0,0,2.7.663,5.094,5.094,0,0,0,2.364-.548,4.7,4.7,0,0,0,1.788-1.643l2.1,1.326a6.045,6.045,0,0,1-2.523,2.437,7.885,7.885,0,0,1-3.705.851,8.483,8.483,0,0,1-4.166-1.01" transform="translate(-115.429 -5.315)"/>
      <path id="Path_8" data-name="Path 8" d="M37.089,25.254l6.325-8.465H38.355l-9.71,12.65H48.182V25.254Z" transform="translate(-12.996 -7.617)"/>
      <path id="Path_9" data-name="Path 9" d="M17.256,3.969l-6.064,7.6-6.657-7.6H0V23.623H4.84V11.06l6.353,7.182L19.4,8.035l13.158.007,3.093-4.073Z" transform="translate(0 -1.801)"/>
    </g>
  </g>
</svg>
