<svg width="700" height="256" xmlns="http://www.w3.org/2000/svg" viewBox="0 0 175 64"><path d="M140.69,25.41c-3.34,0-6.1,2.71-6.1,6.59a6.22,6.22,0,0,0,6.1,6.56c3.38,0,6.11-2.71,6.11-6.56S144.07,25.41,140.69,25.41Z" /><path d="M59.27,25.41c-3.34,0-6.1,2.71-6.1,6.59a6.22,6.22,0,0,0,6.1,6.56c3.37,0,6.1-2.71,6.1-6.56S62.64,25.41,59.27,25.41Z" /><path d="M0,9.35v45.3H174.37V9.35ZM43.58,42.3a5.9,5.9,0,0,1-6-1.84,21.62,21.62,0,0,1-1.67-2.14l-6.4-8.88V42.3H24.75V21.7a5.94,5.94,0,0,1,6.06,1.84,21.62,21.62,0,0,1,1.67,2.14l6.39,8.88V21.7h4.71Zm15.72.53A10.65,10.65,0,0,1,48.46,32a10.83,10.83,0,1,1,21.65,0A10.63,10.63,0,0,1,59.3,42.83ZM89.8,25.7H83.47V42.3H78.76V25.7H72.44v-4H89.8Zm9.88,16.6H95V21.7h4.7Zm25.33,0A5.93,5.93,0,0,1,119,40.46a21.62,21.62,0,0,1-1.67-2.14l-6.39-8.88V42.3h-4.71V21.7a5.92,5.92,0,0,1,6,1.84,21.62,21.62,0,0,1,1.67,2.14l6.4,8.88V21.7H125Zm15.71.53A10.66,10.66,0,0,1,129.88,32a10.83,10.83,0,1,1,21.65,0A10.63,10.63,0,0,1,140.72,42.83Z" /></svg>