<?xml version="1.0" encoding="utf-8"?>
<!-- Generator: Adobe Illustrator 23.0.3, SVG Export Plug-In . SVG Version: 6.00 Build 0)  -->
<svg version="1.1" id="Vrstva_1" xmlns="http://www.w3.org/2000/svg" xmlns:xlink="http://www.w3.org/1999/xlink" x="0px" y="0px"
	 viewBox="0 0 685.6 339.3" style="enable-background:new 0 0 685.6 339.3;" xml:space="preserve">
<style type="text/css">
	.st0{clip-path:url(#SVGID_2_);fill:url(#SVGID_3_);}
	.st1{clip-path:url(#SVGID_5_);fill:url(#SVGID_6_);}
	.st2{clip-path:url(#SVGID_8_);fill-rule:evenodd;clip-rule:evenodd;}
	.st3{clip-path:url(#SVGID_10_);fill:url(#SVGID_11_);}
</style>
<g>
	<defs>
		<path id="SVGID_1_" d="M342.9,0c-50.4,0-93.6,31-111.6,75c5,16,13.4,30.6,24.3,42.8c21.9-23.1,53-37.5,87.3-37.5
			c52.5,0,97.1,33.5,113.6,80.3c4.4-12.6,6.9-26.1,6.9-40.2C463.3,53.9,409.4,0,342.9,0z"/>
	</defs>
	<clipPath id="SVGID_2_">
		<use xlink:href="#SVGID_1_"  style="overflow:visible;"/>
	</clipPath>
	
		<radialGradient id="SVGID_3_" cx="-2.293842e-06" cy="339.345" r="1" gradientTransform="matrix(99.781 0 0 -99.781 347.2967 33940.5117)" gradientUnits="userSpaceOnUse">
		<stop  offset="0" style="stop-color:#E20C7C"/>
		<stop  offset="3.743390e-07" style="stop-color:#E20C7C"/>
		<stop  offset="1" style="stop-color:#970F5C"/>
		<stop  offset="1" style="stop-color:#970F5C"/>
	</radialGradient>
	<rect x="231.3" class="st0" width="232.1" height="160.6"/>
</g>
<g>
	<defs>
		<path id="SVGID_4_" d="M222.4,123.2c1.5,64.9,54.9,117.4,119.8,117.7c50.7,0.3,94.2-30.8,112.2-75c-5-16-13.4-30.6-24.3-42.8
			c-21.9,23.1-53,37.5-87.3,37.5c-52.5,0-97.1-33.5-113.6-80.3C224.5,93.7,222.1,108.2,222.4,123.2"/>
	</defs>
	<clipPath id="SVGID_5_">
		<use xlink:href="#SVGID_4_"  style="overflow:visible;"/>
	</clipPath>
	
		<radialGradient id="SVGID_6_" cx="-1.540084e-03" cy="339.3437" r="1.0014" gradientTransform="matrix(99.7811 0 0 -99.7811 338.4037 34020.8359)" gradientUnits="userSpaceOnUse">
		<stop  offset="0" style="stop-color:#0089CF"/>
		<stop  offset="1" style="stop-color:#004185"/>
	</radialGradient>
	<rect x="222.1" y="80.3" class="st1" width="232.4" height="160.9"/>
</g>
<g>
	<defs>
		<rect id="SVGID_7_" width="685.6" height="339.3"/>
	</defs>
	<clipPath id="SVGID_8_">
		<use xlink:href="#SVGID_7_"  style="overflow:visible;"/>
	</clipPath>
	<path class="st2" d="M172.7,281.7L172.7,281.7l0,0.2v5.4v20v5.4v19.5v5.4v0.1h0v0h0.2h5.4h31.2v-5.5h-0.3v-0.1
		c-10.3,0-20.6,0-30.9,0c0-6.5,0-13,0-19.5c10.3,0,20.6,0,30.9,0v-0.1h0.3v-5.5c-10.4,0-20.8,0-31.2,0c0-6.6,0-13.2,0-19.8
		c10.4,0,20.7,0,31.2,0v-0.2h0.3v-5.5H172.7z"/>
	<polygon class="st2" points="138.7,281.9 112.7,327.6 86.5,281.9 85.2,281.9 76.2,337.6 82.6,337.6 88.7,297.4 111.8,337.6 
		113.5,337.6 136.3,297.7 142.7,337.6 149,337.6 139.7,281.9 	"/>
	<polygon class="st2" points="651.4,299.4 635.9,282 626.4,282 646.6,304.6 	"/>
	<path class="st2" d="M29,280.8c-5.2,0-10,1.3-14.5,3.9c-4.5,2.6-8,6.2-10.6,10.7C1.3,300,0,305,0,310.3c0,8,2.8,14.9,8.5,20.5
		c5.7,5.7,12.6,8.5,20.9,8.5c8.2,0,15.1-2.8,20.7-8.5c5.7-5.7,8.5-12.6,8.5-20.8c0-8.2-2.8-15.2-8.5-20.8S37.4,280.8,29,280.8
		 M49.8,322.2c-2.1,3.6-4.9,6.5-8.6,8.6c-3.7,2.1-7.7,3.1-12,3.1c-6.5,0-12-2.3-16.6-6.8c-4.6-4.6-6.9-10.1-6.9-16.7
		c0-4.5,1-8.5,3.1-12.2c2.1-3.6,5-6.5,8.7-8.7c3.7-2.1,7.6-3.2,11.7-3.2c4.2,0,8.2,1.1,11.9,3.2c3.7,2.1,6.6,5,8.7,8.6
		c2.1,3.6,3.1,7.6,3.1,12C52.9,314.5,51.9,318.5,49.8,322.2"/>
	<path class="st2" d="M256.8,312.7h27.1c-0.1,6.3-2.4,12.4-7.4,16.5c-4,3.2-8.8,4.8-14.6,4.8c-4.7,0-9.1-1.1-13.1-3.2
		c-4-2.2-7.1-5.1-9.3-8.9c-2.3-3.8-3.4-7.8-3.4-12c0-4.1,1.1-8,3.3-11.7c2.2-3.7,5.3-6.6,9.2-8.7c4-2.1,8.1-3.2,12.5-3.2
		c3.5,0,7.2,0.8,10.9,2.4c3.7,1.6,7.1,3.9,10.2,6.9l4.3-4.1c-4-3.8-8.1-6.5-12.2-8.2c-4.2-1.7-8.6-2.5-13.4-2.5
		c-5.8,0-11.1,1.3-15.7,3.8c-4.6,2.6-8.3,6.1-10.9,10.7c-2.7,4.6-4,9.5-4,14.7c0,7.1,2.3,13.3,6.9,18.8c6,7,14.2,10.5,24.5,10.5
		c8.5,0,15.3-2.5,20.4-7.6c4.8-4.8,7.3-10.3,7.6-18.2l0-0.8v-5.4h-33V312.7z"/>
	<polygon class="st2" points="537.3,286.9 551.7,286.9 551.7,337.2 558.2,337.2 558.2,286.9 572.6,286.9 572.6,281.5 537.3,281.5 	
		"/>
	<rect x="594.2" y="281.5" class="st2" width="6.5" height="55.7"/>
	<path class="st2" d="M659.9,308.9L684,282h-9.5c-8.1,9-16.1,17.9-24.2,26.9l0,0l-0.1,0.1c8.6,9.5,17.2,19.1,25.8,28.7h9.5
		L659.9,308.9z"/>
	<path class="st2" d="M429.3,280.4c-5.2,0-10,1.3-14.5,3.9c-4.5,2.6-8,6.2-10.6,10.7c-2.6,4.6-3.9,9.5-3.9,14.9
		c0,8,2.9,14.9,8.5,20.5c5.7,5.6,12.6,8.5,20.9,8.5c8.2,0,15.1-2.8,20.7-8.5c5.7-5.7,8.5-12.6,8.5-20.8c0-8.2-2.8-15.2-8.5-20.8
		C444.8,283.2,437.7,280.4,429.3,280.4 M450.1,321.7c-2.1,3.6-4.9,6.5-8.6,8.6c-3.7,2.1-7.7,3.1-12,3.1c-6.5,0-12-2.3-16.6-6.8
		c-4.6-4.6-6.9-10.1-6.9-16.7c0-4.5,1-8.5,3.1-12.2c2.1-3.6,5-6.5,8.7-8.7c3.7-2.1,7.6-3.2,11.7-3.2c4.2,0,8.2,1.1,11.9,3.2
		c3.7,2.1,6.7,5,8.7,8.6c2,3.6,3.1,7.6,3.1,12C453.2,314.1,452.2,318.1,450.1,321.7"/>
	<path class="st2" d="M507.2,282.3c-2.6-0.6-7.5-0.8-14.9-0.8h-12.8v55.7h6.5v-25.9h4.6c8,0,13.5-0.3,16.4-0.9
		c4-0.8,7.1-2.5,9.4-4.9c2.3-2.4,3.4-5.5,3.4-9.2c0-3.7-1.2-6.8-3.5-9.2C513.9,284.7,510.9,283.1,507.2,282.3 M511.3,301.6
		c-1.2,1.5-2.8,2.7-4.8,3.4c-2,0.7-5.3,1-9.7,1l-10.9-0.1v-18.9h11.4c4.4,0,7.5,0.3,9.4,1c1.9,0.7,3.5,1.8,4.6,3.3
		c1.2,1.6,1.7,3.3,1.7,5.1C513.1,298.3,512.5,300,511.3,301.6"/>
	<path class="st2" d="M332.9,281.9l-30.4,55.7h7.2l10-18.3h27.9l10.1,18.3h6.9l-30-55.7H332.9z M322.6,313.9l11.1-20.3l11,20.3
		H322.6z"/>
	<polygon class="st2" points="624.6,337.7 634.1,337.7 651.3,318.5 646.6,313.2 	"/>
</g>
<g>
	<defs>
		<path id="SVGID_9_" d="M674.6,282c-8.1,9-16.1,17.9-24.2,26.9l0,0l-0.1,0.1c8.6,9.5,17.2,19.1,25.8,28.7h9.5l-25.7-28.8L684,282
			H674.6z"/>
	</defs>
	<clipPath id="SVGID_10_">
		<use xlink:href="#SVGID_9_"  style="overflow:visible;"/>
	</clipPath>
	
		<radialGradient id="SVGID_11_" cx="-7.858367e-06" cy="339.345" r="1" gradientTransform="matrix(23.3007 0 0 -23.3007 667.9877 8216.834)" gradientUnits="userSpaceOnUse">
		<stop  offset="0" style="stop-color:#E20C7C"/>
		<stop  offset="3.743390e-07" style="stop-color:#E20C7C"/>
		<stop  offset="1" style="stop-color:#970F5C"/>
		<stop  offset="1" style="stop-color:#970F5C"/>
	</radialGradient>
	<rect x="650.4" y="282" class="st3" width="35.2" height="55.7"/>
</g>
</svg>
