<svg version="1.2" xmlns="http://www.w3.org/2000/svg" viewBox="0 0 1579 351" width="1579" height="351">
	<title>logodddd-svg</title>
	<style>
		.s0 { fill: #0e73ba } 
	</style>
	<g id="#0e73baff">
		<path id="Layer" class="s0" d="m1182.3 1.4c72.2-0.7 144.5-0.1 216.7-0.3c14 0.4 28.6-1.9 41.9 3.7c51.6 15.6 103.3 46.1 126.6 96.8c-120.4-0.1-240.8 0.1-361.2-0.1c-23.7 18.6-46.7 43.8-48.2 75.4c0.8 32 24.9 57.1 48.9 75.4q100.2 0.1 200.5 0c10.5 0.2 20.6-4.5 28.2-11.6c12-11.4 17.6-27.5 22.2-43c-29.8-0.1-59.7 0-89.5 0c0.1-15 0.1-30 0.1-45c69.8-0.1 139.6 0.2 209.4-0.2c1.5 41.7-4.8 85.1-27 121.3c-24.5 40.9-68.5 67.9-115 76.1c-4.1 0.6-8.1 0.7-12.1 0.8q-118.7-0.1-237.3 0c-7.9 0.3-14.9-3.8-21.9-6.7c-38.7-17.6-74.4-44.2-97.2-80.6c-26.8-42.3-31.2-97.2-13.9-143.9c21.5-56.7 73.2-97.3 128.8-118.1z" />
		<path id="Layer" class="s0" d="m527.7 3.7q63.4 0 126.8 0c28.6 69.8 56.6 140 88.4 208.5c6 16.5 25.3 21 40.7 22.9c15.3 1.9 29.7-5.3 42.2-13.2c6.7-6.4 10.1-15.4 14.5-23.4c31-64.1 56.5-130.7 83.8-196.4c41.8 0.4 83.6 0.2 125.3 0.1c-34.4 82.4-68 165.2-103.3 247.3c-8.7 22-25.3 39.7-42.4 55.6c-31 28.2-72.6 45.2-114.8 44.4c-44.2 0.9-88.1-16.9-120.2-47.1c-15.5-14.8-30.1-31.6-38.1-51.7c-35.1-82-68.5-164.7-102.9-247z" />
		<path id="Layer" class="s0" d="m112.1 17c14.7-5 28.7-14.7 44.9-13.1c75.4 0.2 150.8 0.1 226.2 0.1c39.4 2.2 76.9 21.6 103.5 50.4c22.4 24 37.1 54.2 46.9 85.3c-41.5 2.2-83 0.5-124.5 0.2c-11.8-12-27.9-21.5-45.2-20.5c-65.4 0.2-130.8-0.1-196.1 0.2c-32 2.5-55.7 36.8-48.4 67.6c5.9 21.6 22.6 42.4 45.7 46.2c68.2 0.2 136.4 0.1 204.7 0.1c16.2-2.2 30.7-12.3 41.3-24.5c39.4-0.1 78.7 0 118.1-0.1c-3.8 40.9-27.5 78.3-60.4 102.2c-23.9 17.4-51.6 30-80.5 36.5c-78 0.2-156.1 0.3-234.1-0.1c-31.3-5.3-61-19.1-86.2-38.1c-33.6-25.5-56.6-63.7-64.6-105c-7.8-34.1 0.1-70 14.4-101.3c18.2-39.9 53.3-71.1 94.3-86.1z" />
	</g>
</svg>