<svg clip-rule="evenodd" fill-rule="evenodd" stroke-linejoin="round" stroke-miterlimit="2" viewBox="0 0 560 400" xmlns="http://www.w3.org/2000/svg"><g fill-rule="nonzero" transform="matrix(.3602 0 0 .3602 95.5775 121.837)"><path d="m891.156 136.739c0-23.317-.82-45.008-2.185-65.074 6.285.812 12.578 1.088 18.863 1.088 6.293 0 12.31-.276 18.327-1.088v18.978c11.213-14.632 24.887-21.691 42.11-21.691 13.681 0 24.887 4.89 32.269 13.29 8.21 9.489 8.48 22.236 8.48 39.589 0 7.32-.27 18.702-.27 33.886 0 15.728.54 30.911 1.91 45.827-6.83-.82-13.677-1.357-20.514-1.357-6.829 0-13.39.537-20.227 1.357 1.356-14.647 2.184-35.794 2.184-63.18 0-31.993-1.916-46.633-21.883-46.633-17.767 0-23.239 14.64-23.239 44.739 0 15.184.552 36.875 1.908 65.074-6.561-.82-13.398-1.357-19.959-1.357-6.837 0-13.398.537-19.959 1.357 1.365-22.235 2.185-43.658 2.185-64.805m-99.803 26.849c0 15.452 5.741 23.316 16.962 23.316 11.75 0 18.863-8.408 18.863-25.217v-31.448c-24.88 4.882-35.825 14.371-35.825 33.349zm0 41.214c-22.971 0-36.913-14.372-36.913-37.688 0-17.353 9.297-27.93 28.712-34.43 16.954-5.703 32.268-8.684 43.206-16.004.269-1.625.269-3.25.269-4.607 0-16.54-10.386-26.841-25.976-26.841-12.302 0-22.151 6.775-30.629 20.878-1.64-5.158-3.548-11.121-6.016-17.353 15.866-13.835 31.456-20.61 48.678-20.61 32.813 0 50.864 15.46 50.864 43.382v1.357l-.821 47.176v5.151c0 19.254 1.917 26.037 18.051 26.037h.82v6.768c-9.841 4.07-20.235 5.971-28.712 5.971-12.854 0-21.607-6.507-24.612-19.522-7.657 13.015-20.786 20.335-36.921 20.335m-91.601-68.063c0-23.317-.82-45.008-2.192-65.074 6.837.812 13.674 1.088 20.511 1.088 7.105 0 13.95-.276 20.511-1.088-1.365 20.066-2.193 41.757-2.193 65.074 0 21.147.828 42.57 2.193 64.805-6.561-.82-13.406-1.357-20.511-1.357-6.837 0-13.674.537-20.511 1.357 1.372-22.235 2.192-43.658 2.192-64.805zm18.594-124.369c11.482 0 20.504 9.221 20.504 20.603 0 11.39-9.29 20.335-20.78 20.335-11.481 0-20.51-8.945-20.51-20.335 0-11.382 9.029-20.603 20.786-20.603m-240.627 124.1c0-14.371-.551-35.786-1.64-64.805 6.561.812 12.846 1.088 19.139 1.088 6.561 0 12.854-.276 18.863-1.088v18.173c10.401-13.291 22.427-20.879 40.202-20.879 18.326 0 31.724 8.677 38.017 25.21 10.661-17.077 24.604-25.21 43.474-25.21 13.398 0 24.067 4.607 31.449 13.015 9.849 11.382 10.117 28.467 10.117 53.416v16.808c0 16.809.552 33.35 1.364 49.346-7.105-.82-13.942-1.357-20.779-1.357s-13.398.537-19.959 1.357c1.633-23.316 2.461-43.382 2.461-61.004 0-33.081-2.192-49.077-21.883-49.077-18.043 0-22.42 14.371-22.42 42.57v42.838c0 7.044.545 15.452 1.096 24.673-6.836-.82-13.681-1.357-20.51-1.357-6.837 0-13.398.537-20.235 1.357 1.64-23.048 2.184-41.757 2.184-56.397 0-36.331-.82-53.684-21.875-53.684-18.051 0-22.151 14.64-22.151 42.57v42.838c0 7.044.552 15.452 1.096 24.673-6.293-.82-12.854-1.357-19.691-1.357-6.561 0-13.13.537-19.959 1.357 1.089-29.287 1.64-51.246 1.64-65.074m-100.63 27.931c6.009 17.897 19.139 27.922 35.273 27.922 13.13 0 20.511-6.775 20.511-18.157 0-12.203-11.758-15.728-31.993-24.137-22.151-9.22-33.088-18.165-33.088-37.143 0-26.03 19.138-44.195 50.043-44.195 14.218 0 27.072 3.794 39.374 11.39-3.557 7.856-6.286 16.264-7.926 25.485h-2.736c-7.933-16.54-18.595-24.949-32.269-24.949-11.757 0-19.69 7.32-19.69 16.817 0 10.569 7.933 14.095 23.247 20.058 28.712 11.122 44.57 17.353 44.57 41.49 0 27.11-20.511 46.088-51.951 46.088-16.142 0-29.264-2.982-40.746-10.57.82-5.427 1.908-15.46 3.549-30.099zm-84.335 36.085-55.401-128.813c7.113.812 14.226 1.08 21.331 1.08 7.113 0 14.218-.268 21.331-1.08 9.297 27.378 20.235 55.308 32.544 83.775l31.717-83.775c3.833.812 7.657 1.08 11.214 1.08 3.824 0 7.657-.268 11.213-1.08-32.544 71.305-61.532 139.36-87.232 203.889-3.557-.544-7.389-.812-11.49-.812-4.1 0-8.201.269-12.853.812 6.016-9.213 11.757-20.058 17.774-32.536zm-142.074-64.016c0-25.217-.276-46.632-1.916-64.805 6.293.812 12.585 1.088 19.146 1.088 6.285 0 12.578-.276 18.871-1.088-.828 14.103-1.372 25.761-1.372 34.706h1.372c6.561-24.941 21.055-37.956 42.11-37.956h1.364c-1.096 6.507-1.64 13.015-1.64 19.522 0 6.776.545 13.559 1.64 20.335-6.561-2.438-12.577-4.07-17.774-4.07-18.595 0-25.7 12.478-25.7 38.507 0 23.861 1.088 43.651 2.46 58.835-6.568-.82-13.405-1.357-20.234-1.357-6.837 0-13.406.537-20.243 1.357 1.372-19.254 1.916-40.945 1.916-65.074m-54.994-70.224c0-23.592-10.118-34.982-30.905-34.982-2.736 0-5.465.276-8.477.545-1.088 10.033-1.916 20.066-1.916 30.091v44.747c29.264 0 41.298-11.666 41.298-40.401zm-80.128 42.838c0-33.893-.82-65.073-3.28-92.728 7.381.813 13.674 1.081 19.146 1.081 12.578 0 27.616-1.349 45.391-1.349 42.118 0 62.077 14.64 62.077 48.801 0 38.5-24.612 56.666-75.199 56.666-3.012 0-6.025-.269-9.029-.269v39.857c0 5.151 1.096 18.702 3.004 40.401-7.649-.82-15.306-1.357-22.963-1.357s-15.046.537-22.427 1.357c2.736-29.287 3.28-59.923 3.28-92.46" fill="#0e070d"/><path d="m961.648 271.416c-17.552 0-28.673 15.061-28.673 41.796 0 27.585 11.121 42.861 28.673 42.861 17.116 0 28.245-15.491 28.245-42.432 0-27.379-10.915-42.225-28.245-42.225zm-46.011 91.019c0-48.587-.429-81.898-1.28-100.355 3.426.636 6.845.851 10.263.851 3.212 0 6.638-.215 10.064-.851-.859 6.362-1.28 12.302-1.495 18.672 8.125-14.648 19.039-21.217 35.089-21.217 26.321 0 43.442 20.151 43.442 53.884 0 32.682-17.55 52.833-43.012 52.833-16.265 0-27.179-5.511-34.453-18.028v30.973c0 15.698 0 29.701 1.28 42.433-3.419-.637-7.06-1.058-10.486-1.058-3.633 0-7.059.422-10.692 1.058 1.28-21.002 1.28-40.731 1.28-59.195m-18.664-39.244c0 14.004 0 27.578 1.503 40.524-3.427-.636-6.845-1.066-10.064-1.066-3.419 0-6.845.43-10.271 1.066.215-5.734.644-11.881.858-18.25-8.99 14.218-19.905 20.794-35.089 20.794-23.967 0-34.246-12.516-34.246-38.4v-30.13c0-9.972 0-21.86-.858-35.649 3.648.644 7.059.851 10.707.851 3.633 0 7.267-.207 10.693-.851-1.495 31.41-1.924 52.626-1.924 63.227 0 18.886 7.067 27.792 23.109 27.792 19.691 0 27.179-13.996 27.179-42.424 0-16.556-.429-32.89-1.065-48.595 3.633.644 7.059.851 10.478.851 3.426 0 7.066-.207 10.493-.851-1.288 13.368-1.503 33.74-1.503 61.111m-152.574-55.807c-19.047 0-30.812 16.334-30.812 45.613 0 29.072 11.98 45.414 30.812 45.414 18.618 0 30.391-16.342 30.391-45.414 0-29.486-11.559-45.613-30.391-45.613zm-.215 98.868c-32.744 0-52.641-19.944-52.641-53.255 0-32.46 20.756-53.462 52.641-53.462 32.529 0 52.642 20.366 52.642 53.462 0 32.468-20.756 53.255-52.642 53.255m-113.584-69.795c0-10.401 0-21.853-1.709-34.369 3.84.636 7.489.851 11.336.851 3.641 0 7.496-.215 11.129-.851-1.073 6.783-1.716 13.153-1.716 18.878v2.552c8.354-16.126 19.047-23.768 33.602-23.768 1.495 0 3.204 0 4.921.215-.43 3.181-.859 6.576-.859 9.972 0 3.395.429 6.791.859 10.401-6.209-1.487-10.915-2.338-14.341-2.338-6.63 0-12.624 2.759-16.686 7.212-7.496 8.278-7.926 16.549-7.926 25.884v22.067c0 8.7.43 18.886 1.288 30.559-3.641-.643-7.274-1.065-10.915-1.065-3.633 0-7.059.421-10.692 1.065 1.495-10.822 1.709-33.318 1.709-67.265m-75.543 70.224c-51.354 0-80.886-28.007-80.886-75.743 0-45.406 32.092-74.9 83.024-74.9 21.615 0 40.018 4.461 54.78 12.731-3.426 6.155-5.342 12.946-5.565 20.166h-3.418c-10.7-15.705-25.899-23.983-47.292-23.983-34.023 0-57.562 25.248-57.562 64.921 0 42.225 22.036 67.051 58.842 67.051 11.559 0 22.68-2.545 33.595-7.642.429-6.998.652-13.789.652-20.794 0-9.965-.437-20.151-1.503-30.338 3.848.637 7.489 1.066 11.344 1.066 4.277 0 8.562-.429 12.839-1.28-.644 10.401-1.074 20.587-1.074 30.552 0 9.979.43 19.951 1.074 29.708-20.971 5.733-40.662 8.485-58.85 8.485" fill="#898a8c"/></g></svg>