<svg id="Ebene_1" xmlns="http://www.w3.org/2000/svg" xmlns:xlink="http://www.w3.org/1999/xlink" viewBox="0 0 128.7 91"><style>.st0{clip-path:url(#SVGID_2_);fill:#909793;}</style><defs><path id="SVGID_1_" d="M0 0h128.7v91H0z"/></defs><clipPath id="SVGID_2_"><use xlink:href="#SVGID_1_" overflow="visible"/></clipPath><path class="st0" d="M74.9 77.7c0 3.1 1 6.3 3.8 6.3 2.7 0 3.8-3.1 3.8-6.3 0-3.3-1-6.4-3.8-6.4s-3.8 3.1-3.8 6.4m-30.9 0c0 3.1 1 6.3 3.8 6.3 2.7 0 3.8-3.1 3.8-6.3 0-3.3-1-6.4-3.8-6.4-2.7 0-3.8 3.1-3.8 6.4m-33.8-4.8l-1.8 6.9H12l-1.8-6.9zm29.3-49.7c0-3.6-2.1-5.7-9.1-5.7h-9.8v11.4h10.8c3.4 0 8.1-.6 8.1-5.7M124.6 47c-1.7 6.1-6.4 9.7-12.1 11.7 0 0-3.1 1.8-12.4 1.8-9.1 0-11.9-1.8-11.9-1.8-6.4-2.4-12.6-7.4-12.7-17.8h17c0 1.4.2 2.6.6 3.6 1.2 3.3 5 4 8.1 4 2.8 0 7-.9 7-5 0-2.9-2.4-3.6-11.9-6.3-8.7-2.5-18.7-4.9-18.7-16 0-3 .6-5.6 1.7-7.8 1.7-3.9 5-6.6 9-8.4 0 0 2.9-2 12.2-2 8.2 0 12.2 2 12.2 2 3.1 1.4 5.8 3.5 7.6 6.3.2.3.4.5.5.8.1.1.1.2.2.3 1.2 2.3 2 5.1 2.1 8.5H107c.3-2.1-.6-3.5-2-4.4-1.4-1-3.3-1.4-5-1.4-2.3 0-6.1.6-6.1 3.7.3 3.9 8.2 4.8 16 6.9 6.4 1.8 12.6 4.3 14.8 11 1.5 5-.1 10.3-.1 10.3M71.5 32h8.4v6.7h-8.4v8.4h-6.7v-8.4h-8.4V32h8.4v-8.4h6.7V32zM57.9 20.4c0 5.9-2.8 12.1-8.9 14.3 5 1.8 8.1 7.1 8.8 14.2.2 2.4.3 7.6 1.4 10.8H41c-.6-2.4-.9-4.9-1.1-7.4-.5-5.4-1-11.1-8.3-11.1h-11v18.6H3.4V4.2h38.3c9 1.1 16.2 6.6 16.2 16.2M3.4 86.9l5.3-18.7h3.1L17 86.9h-3.2l-1.1-4.2H7.6l-1.1 4.2H3.4zm13.6-7V68.3h3v11.6c0 2 .4 4.1 2.9 4.1 2.2 0 2.9-1.3 2.9-4.1V68.3h3.1v11.6c0 5-2.2 7.5-5.9 7.5-3.8 0-6-2.4-6-7.5m12.8-11.6h11.4v3.5H37V87h-3V71.7h-4.2v-3.4zM41 77.7c0-5.5 2.5-9.9 6.8-9.9s6.8 4.3 6.8 9.9c0 5.4-2.5 9.7-6.8 9.7S41 83.1 41 77.7m14.8-9.4h4.3l3.2 12.8 3.1-12.8h4.3V87h-2.9V73.7l-3.4 13.2H62l-3.4-13.1v13.1h-2.9V68.3zm16 9.4c0-5.5 2.5-9.9 6.8-9.9s6.8 4.3 6.8 9.9c0 5.4-2.5 9.7-6.8 9.7s-6.8-4.3-6.8-9.7m13.7-9.4h11.4v3.5h-4.2V87h-3.1V71.7h-4.2v-3.4zm12.4 0h3.1V87h-3.1V68.3zm3.6 0h3.2l3.1 13.1 3.1-13.1h3.2L109.5 87h-3.4l-4.6-18.7zm13.2 0h10.4v3.5h-7.3v4h6.7V79h-6.7v4.6h7.5v3.5h-10.5V68.3zm14-68.3H0v91h128.7V0z"/></svg>