<?xml version="1.0" encoding="utf-8"?>
<!-- Generator: Adobe Illustrator 16.0.0, SVG Export Plug-In . SVG Version: 6.00 Build 0)  -->
<!DOCTYPE svg PUBLIC "-//W3C//DTD SVG 1.1//EN" "http://www.w3.org/Graphics/SVG/1.1/DTD/svg11.dtd">
<svg version="1.1" id="Ebene_1" xmlns="http://www.w3.org/2000/svg" xmlns:xlink="http://www.w3.org/1999/xlink" x="0px" y="0px"
	 width="198.43px" height="42.43px" viewBox="0 0 198.43 42.43" enable-background="new 0 0 198.43 42.43" xml:space="preserve">
<rect y="-0.001" fill="#FFF000" width="198.425" height="42.431"/>
<polygon fill="#F60720" points="14.156,21.316 15.68,23.184 28.433,23.184 28.433,24.316 16.57,24.316 19.762,28.281 33.216,28.281 
	33.216,19.272 22.011,19.272 22.94,18.14 33.216,18.14 33.216,14.134 19.793,14.134 "/>
<polygon fill="#F60720" points="39.156,18.14 50.26,18.14 50.26,14.133 34.355,14.133 34.355,23.182 45.443,23.182 45.443,24.316 
	34.355,24.316 34.355,28.283 50.276,28.283 50.276,19.272 39.156,19.272 "/>
<rect x="51.411" y="14.134" fill="#F60720" width="5.669" height="14.147"/>
<rect x="117.006" y="14.1" width="3.749" height="2.675"/>
<rect x="131.099" y="14.1" width="3.748" height="2.675"/>
<polygon points="110.686,19.39 104.657,19.39 104.657,14.1 99.223,14.1 99.223,28.283 104.657,28.283 104.657,22.809 
	110.686,22.809 110.686,28.283 116.121,28.283 116.121,14.1 110.686,14.1 "/>
<polygon points="135.688,28.283 141.186,28.283 141.186,22.816 148.9,22.816 148.9,19.485 141.186,19.485 141.186,17.737 
	149.933,17.737 149.933,14.1 135.688,14.1 "/>
<polygon points="155.976,22.811 164.174,22.811 164.174,19.481 155.976,19.481 155.976,17.739 166.33,17.739 166.33,14.101 
	150.524,14.101 150.524,28.273 166.626,28.273 166.626,24.627 155.976,24.627 "/>
<path d="M122.35,14.1l-5.683,14.183h5.683l0.519-1.367h5.84l0.578,1.357h5.902L129.474,14.1H122.35z M124.069,23.604l1.75-4.525
	l1.748,4.525H124.069z"/>
<g>
	<defs>
		<rect id="SVGID_1_" y="-0.002" width="198.425" height="42.432"/>
	</defs>
	<clipPath id="SVGID_2_">
		<use xlink:href="#SVGID_1_"  overflow="visible"/>
	</clipPath>
	<path clip-path="url(#SVGID_2_)" d="M92.863,22.514c0,0-0.029,0.367-0.093,0.59c-0.061,0.217-0.113,0.334-0.219,0.531
		c-0.098,0.178-0.165,0.277-0.297,0.434c-0.179,0.217-0.302,0.32-0.53,0.482c-0.187,0.131-0.3,0.199-0.511,0.291
		c-0.211,0.09-0.339,0.123-0.562,0.172c-0.311,0.064-0.494,0.074-0.812,0.076c-0.258,0.002-0.406,0.004-0.661-0.041
		c-0.776-0.129-1.504-0.641-1.775-0.951c-0.183-0.209-0.385-0.514-0.502-0.734c-0.233-0.436-0.375-0.863-0.466-1.326
		c-0.076-0.395-0.104-0.719-0.101-1.18c0.001-0.332,0.011-0.521,0.059-0.85c0.046-0.307,0.075-0.483,0.172-0.777
		c0.106-0.321,0.186-0.501,0.359-0.794c0.127-0.211,0.201-0.332,0.367-0.516c0.225-0.25,0.379-0.375,0.671-0.544
		c0.288-0.166,0.474-0.226,0.797-0.303c0.291-0.072,0.464-0.086,0.765-0.094c0.289-0.007,0.453,0.004,0.74,0.05
		c0.294,0.046,0.461,0.081,0.737,0.193c0.333,0.135,0.518,0.239,0.789,0.475c0.175,0.152,0.26,0.255,0.402,0.439
		c0.162,0.211,0.252,0.336,0.36,0.578c0.087,0.195,0.131,0.309,0.169,0.516c0.026,0.14,0.033,0.361,0.033,0.361h5.851
		c0,0-0.007-0.513-0.066-0.837c-0.144-0.79-0.306-1.182-0.699-1.846c-0.223-0.376-0.343-0.545-0.665-0.906
		c-0.317-0.354-0.471-0.516-1.026-0.887c-0.594-0.399-0.966-0.554-1.629-0.798c-0.493-0.182-0.785-0.253-1.298-0.37
		c-0.507-0.117-0.798-0.169-1.315-0.236c-0.68-0.09-1.07-0.106-1.756-0.121c-0.289-0.006-0.452-0.006-0.74,0
		c-0.495,0.01-0.775,0.023-1.268,0.07c-0.544,0.051-0.851,0.09-1.387,0.196c-0.437,0.082-0.683,0.139-1.109,0.264
		c-0.358,0.105-0.561,0.165-0.906,0.307c-0.35,0.145-0.543,0.238-0.875,0.422c-0.384,0.213-0.601,0.338-0.948,0.607
		c-0.338,0.264-0.52,0.427-0.803,0.748c-0.243,0.278-0.366,0.447-0.558,0.76c-0.244,0.399-0.356,0.643-0.514,1.082
		c-0.12,0.327-0.168,0.522-0.246,0.863c-0.087,0.377-0.127,0.595-0.171,0.979c-0.048,0.43-0.054,0.673-0.049,1.107
		c0.005,0.477,0.024,0.749,0.091,1.223c0.129,0.922,0.297,1.582,0.634,2.303c0.255,0.549,0.482,0.889,0.852,1.365
		c0.221,0.285,0.873,0.912,1.501,1.301c0.724,0.451,1.169,0.674,1.979,0.953c0.744,0.258,1.293,0.361,1.966,0.451
		c0.676,0.09,1.088,0.119,1.785,0.129c0.756,0.012,1.187,0,1.939-0.092c0.985-0.117,1.551-0.207,2.484-0.539
		c0.37-0.133,0.577-0.215,0.931-0.385c0.759-0.371,1.171-0.637,1.811-1.188c0.268-0.23,0.414-0.365,0.653-0.625
		c0.259-0.281,0.397-0.449,0.614-0.766c0.204-0.295,0.325-0.463,0.473-0.793c0.219-0.488,0.296-0.746,0.387-1.209
		c0.068-0.346,0.056-0.611,0.056-0.611H92.863z"/>
	<path clip-path="url(#SVGID_2_)" d="M183.901,27.443c-0.049-0.193-0.078-0.5-0.078-0.5l-0.046-2.564
		c-0.017-0.471,0.021-0.488-0.033-0.793c-0.042-0.24-0.075-0.383-0.173-0.607c-0.128-0.293-0.227-0.455-0.448-0.684
		c-0.278-0.281-0.496-0.385-0.863-0.533c-0.158-0.062-0.42-0.133-0.42-0.133s0.29-0.1,0.458-0.201
		c0.634-0.387,0.934-0.604,1.319-1.172c0.208-0.307,0.305-0.501,0.425-0.852c0.104-0.307,0.131-0.491,0.172-0.81
		c0.043-0.339,0.058-0.536,0.036-0.875c-0.038-0.635-0.114-1.017-0.412-1.58c-0.198-0.381-0.35-0.581-0.651-0.886
		c-0.562-0.566-1.233-0.867-1.782-1.011c-0.631-0.163-1.068-0.142-1.359-0.142h-12.791v14.175h5.402v-4.982h4.53
		c0.229,0,0.366,0.035,0.572,0.143c0.114,0.062,0.174,0.109,0.271,0.197c0.128,0.117,0.197,0.191,0.281,0.342
		c0.109,0.197,0.148,0.379,0.159,0.553c0.087,1.363,0.044,1.639,0.044,1.639s-0.044,0.635,0.125,1.121
		c0.072,0.209,0.126,0.424,0.271,0.662c0.082,0.135,0.244,0.326,0.244,0.326h5.123C184.276,28.275,183.99,27.787,183.901,27.443
		 M178.948,19.204c-0.05,0.154-0.097,0.242-0.207,0.361c-0.095,0.102-0.166,0.15-0.293,0.213c-0.177,0.087-0.299,0.108-0.498,0.108
		l-5.28,0.002v-2.132h5.28c0.199,0.003,0.321,0.024,0.498,0.111c0.127,0.063,0.198,0.109,0.293,0.213
		c0.11,0.119,0.157,0.207,0.207,0.359c0.046,0.145,0.046,0.232,0.046,0.383C178.994,18.972,178.994,19.062,178.948,19.204"/>
	<path clip-path="url(#SVGID_2_)" d="M80.077,22.592c-0.139-0.461-0.274-0.709-0.542-1.111c-0.175-0.264-0.284-0.408-0.504-0.634
		c-0.229-0.236-0.371-0.361-0.648-0.539c-0.307-0.196-0.507-0.265-0.849-0.39c-0.338-0.123-0.539-0.164-0.889-0.246
		c-0.486-0.118-0.769-0.148-1.26-0.241c-1.517-0.282-2.379-0.396-3.897-0.674c-0.819-0.149-1.109-0.161-2.097-0.393
		c-0.222-0.052-0.248-0.073-0.543-0.213c-0.136-0.064-0.213-0.131-0.277-0.269c-0.062-0.136-0.053-0.238-0.022-0.386
		c0.074-0.373,0.527-0.547,0.759-0.61c0.288-0.079,0.342-0.075,0.564-0.1c0.478-0.055,0.756-0.038,1.233,0.021
		c0.338,0.041,0.533,0.062,0.856,0.171c0.174,0.058,0.279,0.083,0.435,0.177c0.187,0.117,0.291,0.201,0.414,0.382
		c0.109,0.161,0.146,0.272,0.193,0.462c0.033,0.139,0.043,0.365,0.043,0.365h6.635c0,0-0.009-0.144-0.02-0.238
		c-0.046-0.405-0.103-0.635-0.245-1.021c-0.086-0.232-0.142-0.361-0.262-0.578c-0.205-0.366-0.361-0.554-0.653-0.854
		c-0.177-0.182-0.285-0.276-0.484-0.433c-0.295-0.234-0.497-0.363-0.809-0.53c-0.577-0.305-0.599-0.32-1.294-0.512
		c-0.613-0.169-0.743-0.169-1.224-0.252c-0.692-0.119-1.087-0.163-1.785-0.224c-0.758-0.064-1.188-0.081-1.948-0.085
		c-0.818-0.006-1.281-0.002-2.096,0.065c-0.527,0.043-0.825,0.069-1.346,0.154c-0.467,0.078-0.797,0.14-1.187,0.255
		c-0.512,0.148-0.608,0.163-0.974,0.325c-0.284,0.128-0.441,0.209-0.703,0.378c-0.447,0.287-0.615,0.402-1.037,0.883
		c-0.183,0.209-0.229,0.316-0.347,0.536c-0.265,0.501-0.323,0.766-0.411,1.396c-0.044,0.311-0.019,0.627,0.046,1.017
		c0.102,0.606,0.22,0.956,0.543,1.479c0.252,0.405,0.436,0.618,0.799,0.927c0.336,0.288,0.558,0.421,0.96,0.608
		c0.859,0.402,1.218,0.473,2.031,0.654c0.94,0.209,1.179,0.236,1.934,0.383c1.325,0.254,1.768,0.318,3.405,0.629
		c0.579,0.111,0.721,0.111,1.003,0.232c0.108,0.047,0.272,0.158,0.356,0.328c0.095,0.188,0.095,0.342,0.03,0.541
		c-0.056,0.176-0.131,0.277-0.278,0.383c-0.316,0.219-0.484,0.264-0.822,0.359c-0.333,0.09-0.535,0.104-0.881,0.111
		c-0.42,0.014-0.667,0.012-1.072-0.102c-0.225-0.059-0.352-0.104-0.559-0.211c-0.186-0.098-0.288-0.164-0.445-0.303
		c-0.131-0.115-0.2-0.186-0.3-0.326c-0.206-0.287-0.187-0.439-0.187-0.439H62.54c0,0,0.017,0.414,0.073,0.67
		c0.049,0.221,0.091,0.342,0.176,0.553c0.145,0.365,0.251,0.568,0.488,0.883c0.191,0.254,0.326,0.373,0.559,0.588
		c0.404,0.375,0.658,0.562,1.137,0.832c0.441,0.25,0.716,0.346,1.194,0.51c0.704,0.246,1.127,0.318,1.862,0.445
		c1.008,0.176,1.591,0.197,2.613,0.24c0.837,0.033,1.31,0.031,2.148-0.002c0.501-0.021,0.784-0.029,1.282-0.082
		c0.607-0.061,0.95-0.1,1.547-0.227c0.52-0.113,0.817-0.182,1.318-0.363c0.396-0.146,0.622-0.23,0.991-0.436
		c0.284-0.158,0.442-0.254,0.695-0.455c0.249-0.197,0.377-0.324,0.588-0.564c0.199-0.227,0.305-0.361,0.464-0.613
		c0.111-0.182,0.172-0.287,0.259-0.479c0.131-0.293,0.179-0.475,0.247-0.789c0.036-0.162,0.056-0.25,0.071-0.416
		c0.03-0.287,0.011-0.455-0.018-0.744C80.202,23.113,80.176,22.918,80.077,22.592"/>
</g>
</svg>
