<?xml version="1.0" encoding="UTF-8"?>
<svg width="197px" height="59px" viewBox="0 0 197 59" version="1.1" xmlns="http://www.w3.org/2000/svg" xmlns:xlink="http://www.w3.org/1999/xlink">
    <title>Group 7</title>
    <defs>
        <polygon id="path-1" points="0 0 197 0 197 33 0 33"></polygon>
        <polygon id="path-3" points="0 0 100 0 100 18 0 18"></polygon>
    </defs>
    <g id="Page-1" stroke="none" stroke-width="1" fill="none" fill-rule="evenodd">
        <g id="Startseite_Neu" transform="translate(-53, -38)">
            <g id="Group-7" transform="translate(53, 38)">
                <g id="Group-3">
                    <mask id="mask-2" fill="white">
                        <use xlink:href="#path-1"></use>
                    </mask>
                    <g id="Clip-2"></g>
                    <path d="M0.171414245,31.9165594 C2.46516927,32.6524264 4.84463141,33 8.34845479,33 C13.4531129,33 18.8613776,31.4860918 18.8613776,25.4639073 C18.8613776,16.8880026 7.26622079,19.658411 7.26622079,16.1521356 C7.26622079,14.8970897 9.16920944,14.5931446 10.857204,14.5931446 C12.8037725,14.5931446 15.2703944,15.1123235 16.9133564,16.1070528 L17.5191169,10.6956671 C15.0103677,9.70093779 12.2851718,9.39699272 9.60355571,9.39699272 C5.10320544,9.39699272 0,11.5187911 0,16.714943 C0,24.8589258 11.0736508,22.1728657 11.0736508,25.9845405 C11.0736508,27.5420772 9.51639592,27.8023938 7.91556119,27.8023938 C5.10320544,27.8023938 2.42158938,27.0243526 0.604307847,26.2434028 L0.171414245,31.9165594 Z M27.0500395,32.4808211 L36.0914145,32.4808211 L40.3738653,16.1521356 L40.4595725,16.1521356 L44.2670024,32.4808211 L53.3083775,32.4808211 L60.1867373,9.91762591 L52.6604898,9.91762591 L49.1116338,26.1561459 L49.0259267,26.1561459 L45.2199494,9.91762591 L35.8735151,9.91762591 L31.9818307,26.1561459 L31.8946709,26.1561459 L28.2601078,9.91762591 L20.1280998,9.91762591 L27.0500395,32.4808211 Z M73.2679684,33 C80.7099614,33 86.3768002,28.6691463 86.3768002,21.2203106 C86.3768002,13.7278464 80.7099614,9.39699272 73.2679684,9.39699272 C65.827428,9.39699272 60.1605893,13.7278464 60.1605893,21.2203106 C60.1605893,28.6691463 65.827428,33 73.2679684,33 L73.2679684,33 Z M73.2679684,27.5420772 C69.6784379,27.5420772 68.2068902,24.5549807 68.2068902,21.2203106 C68.2068902,17.8405577 69.6784379,14.8534612 73.2679684,14.8534612 C76.8589516,14.8534612 78.3304993,17.8405577 78.3304993,21.2203106 C78.3304993,24.5549807 76.8589516,27.5420772 73.2679684,27.5420772 L73.2679684,27.5420772 Z M89.0540582,32.4808211 L96.2360246,32.4808211 L96.2360246,28.4539125 L96.3231844,28.4539125 C97.3168059,30.9640043 100.476348,33 104.067331,33 C110.771371,33 114.360902,27.4548203 114.360902,20.7854801 C114.360902,15.3290116 110.945691,9.39699272 104.715219,9.39699272 C101.600709,9.39699272 98.9612205,10.3059194 96.9725248,12.8174655 L96.885365,12.8174655 L96.885365,-0.000581713057 L89.0540582,-0.000581713057 L89.0540582,32.4808211 Z M106.317506,20.9614483 C106.317506,24.5549807 104.542352,27.0243526 101.600709,27.0243526 C99.0048004,27.0243526 96.8417851,24.5549807 96.8417851,21.2653934 C96.8417851,17.8856405 98.7447737,15.3740944 101.600709,15.3740944 C104.630965,15.3740944 106.317506,17.9728975 106.317506,20.9614483 L106.317506,20.9614483 Z M130.219625,33 C137.660165,33 143.327004,28.6691463 143.327004,21.2203106 C143.327004,13.7278464 137.660165,9.39699272 130.219625,9.39699272 C122.777632,9.39699272 117.110793,13.7278464 117.110793,21.2203106 C117.110793,28.6691463 122.777632,33 130.219625,33 L130.219625,33 Z M130.219625,27.5420772 C126.630094,27.5420772 125.157094,24.5549807 125.157094,21.2203106 C125.157094,17.8405577 126.630094,14.8534612 130.219625,14.8534612 C133.810608,14.8534612 135.280703,17.8405577 135.280703,21.2203106 C135.280703,24.5549807 133.810608,27.5420772 130.219625,27.5420772 L130.219625,27.5420772 Z M171.35178,-0.000581713057 L163.519021,-0.000581713057 L163.519021,12.8174655 L163.434767,12.8174655 C161.444618,10.2201167 158.805129,9.39699272 155.69062,9.39699272 C149.4616,9.39699272 146.044937,15.2417547 146.044937,20.7854801 C146.044937,27.4548203 149.634467,33 156.33996,33 C159.929491,33 163.089033,30.9640043 164.082654,28.4539125 L164.169814,28.4539125 L164.169814,32.4808211 L171.35178,32.4808211 L171.35178,-0.000581713057 Z M154.089785,20.9614483 C154.089785,17.9728975 155.776327,15.3740944 158.805129,15.3740944 C161.661065,15.3740944 163.564054,17.8405577 163.564054,21.2653934 C163.564054,24.5549807 161.399586,27.0243526 158.805129,27.0243526 C155.862034,27.0243526 154.089785,24.5549807 154.089785,20.9614483 L154.089785,20.9614483 Z M197,32.4808211 C196.652814,30.7036877 196.568559,28.9294629 196.568559,27.1523295 L196.568559,18.7509387 C196.568559,11.8649104 191.591735,9.39699272 185.840642,9.39699272 C182.509686,9.39699272 179.608717,9.87254314 176.838489,10.9996122 L176.970681,16.283021 C179.133697,15.0701493 181.642446,14.5931446 184.152648,14.5931446 C186.963551,14.5931446 189.257306,15.4162686 189.299433,18.4920764 C188.305811,18.3190167 186.921423,18.1881313 185.66487,18.1881313 C181.513159,18.1881313 174.029039,19.0112553 174.029039,25.8987379 C174.029039,30.7894904 178.009335,33 182.464653,33 C185.66487,33 187.827885,31.7449541 189.604492,28.9294629 L189.688747,28.9294629 C189.688747,30.0987061 189.818034,31.2679494 189.863066,32.4808211 L197,32.4808211 Z M181.296712,25.3344762 C181.296712,23.1705036 183.37402,22.3473796 186.012056,22.3473796 C187.179997,22.3473796 188.305811,22.431728 189.299433,22.4753565 C189.299433,25.1177881 187.438572,27.8023938 184.498381,27.8023938 C182.679647,27.8023938 181.296712,26.8934672 181.296712,25.3344762 L181.296712,25.3344762 Z" id="Fill-1" fill="#113981" mask="url(#mask-2)"></path>
                </g>
                <g id="Group-6" transform="translate(97, 41)">
                    <mask id="mask-4" fill="white">
                        <use xlink:href="#path-3"></use>
                    </mask>
                    <g id="Clip-5"></g>
                    <path d="M6.19064054,4.44539827 L3.7603051,4.44539827 L3.7603051,1.70416839 L2.07076709,2.25984317 L2.07076709,4.44539827 L0,4.44539827 L0,5.8509286 L2.07076709,5.8509286 L2.07076709,11.3720182 C2.07076709,13.260421 3.14947213,14.1102765 4.89388402,14.1102765 C5.43395856,14.1102765 5.95670451,13.9631861 6.33504549,13.851754 L6.33504549,12.3719356 C6.08233682,12.5383409 5.70399583,12.7062319 5.18269393,12.7062319 C4.40868336,12.7062319 3.7603051,12.1134131 3.7603051,11.0198927 L3.7603051,5.8509286 L6.19064054,5.8509286 L6.19064054,4.44539827 Z M15.0513287,11.7598019 C14.6383306,12.1119274 13.3430181,12.7062319 12.2267678,12.7062319 C10.6238727,12.7062319 9.20003986,11.4269913 9.20003986,9.5549319 L15.7531368,9.5549319 C15.7531368,6.51803549 14.7639629,4.22253405 11.7040218,4.22253405 C9.11050878,4.22253405 7.40219813,6.20305407 7.40219813,9.00074288 C7.40219813,12.0747833 8.89534539,14.1102765 12.1545653,14.1102765 C13.6664852,14.1102765 14.4043945,13.7418077 15.0513287,13.5011143 L15.0513287,11.7598019 Z M9.20003986,8.26083368 C9.32711622,7.03656624 10.0115957,5.62806438 11.6679206,5.62806438 C13.1264107,5.62806438 13.9552951,6.81518778 13.9552951,8.26083368 L9.20003986,8.26083368 Z M23.9640027,4.59100289 C23.477358,4.38893933 22.5950437,4.22253405 21.9120083,4.22253405 C19.1033319,4.22253405 17.2332877,6.29517128 17.2332877,9.16714816 C17.2332877,11.871234 19.1394331,14.1102765 21.9120083,14.1102765 C22.5228413,14.1102765 23.3329531,14.0553033 24.0347612,13.7224928 L23.9091288,12.1683863 C23.387827,12.5205118 22.6672462,12.7062319 22.0910704,12.7062319 C19.9134437,12.7062319 19.0311294,10.8534874 19.0311294,9.16714816 C19.0311294,7.36937681 20.0939499,5.62806438 21.9827667,5.62806438 C22.5228413,5.62806438 23.1712195,5.75881139 23.8195978,6.03664878 L23.9640027,4.59100289 Z M25.6463205,13.8888981 L27.3358585,13.8888981 L27.3358585,9.51778787 C27.3358585,7.22080066 28.1994001,5.62806438 30.1272063,5.62806438 C31.604469,5.72166735 32.0723411,6.79587288 32.0723411,8.99925712 L32.0723411,13.8888981 L33.7618791,13.8888981 L33.7618791,8.27717705 C33.7618791,5.73949649 32.7019467,4.22253405 30.3250411,4.22253405 C29.0470572,4.22253405 27.9842368,4.79603797 27.3719597,5.79446967 L27.3358585,5.79446967 L27.3358585,0 L25.6463205,0 L25.6463205,13.8888981 Z M35.5698292,13.8888981 L37.2593672,13.8888981 L37.2593672,9.51778787 C37.2593672,7.22080066 38.1243529,5.62806438 40.050715,5.62806438 C41.5279777,5.72166735 41.9958498,6.79587288 41.9958498,8.99925712 L41.9958498,13.8888981 L43.6853878,13.8888981 L43.6853878,8.27717705 C43.6853878,5.73949649 42.6254554,4.22253405 40.2485498,4.22253405 C38.9705659,4.22253405 37.7460119,4.87032604 37.2420386,5.94304581 L37.2059374,5.94304581 L37.2059374,4.44539827 L35.5698292,4.44539827 L35.5698292,13.8888981 Z M45.351821,9.16714816 C45.351821,11.871234 47.2579665,14.1102765 50.0305416,14.1102765 C52.7857882,14.1102765 54.6919337,11.871234 54.6919337,9.16714816 C54.6919337,6.29517128 52.8218895,4.22253405 50.0305416,4.22253405 C47.2218652,4.22253405 45.351821,6.29517128 45.351821,9.16714816 L45.351821,9.16714816 Z M47.1496627,9.16714816 C47.1496627,7.36937681 48.2124832,5.62806438 50.0305416,5.62806438 C51.8312715,5.62806438 52.894092,7.36937681 52.894092,9.16714816 C52.894092,10.8534874 52.0117777,12.7062319 50.0305416,12.7062319 C48.031977,12.7062319 47.1496627,10.8534874 47.1496627,9.16714816 L47.1496627,9.16714816 Z M56.3728074,13.8888981 L58.0623454,13.8888981 L58.0623454,0 L56.3728074,0 L56.3728074,13.8888981 Z M59.7432191,9.16714816 C59.7432191,11.871234 61.6493645,14.1102765 64.4219397,14.1102765 C67.1771863,14.1102765 69.0833318,11.871234 69.0833318,9.16714816 C69.0833318,6.29517128 67.2132876,4.22253405 64.4219397,4.22253405 C61.6132633,4.22253405 59.7432191,6.29517128 59.7432191,9.16714816 L59.7432191,9.16714816 Z M61.5410608,9.16714816 C61.5410608,7.36937681 62.6038813,5.62806438 64.4219397,5.62806438 C66.2226696,5.62806438 67.28549,7.36937681 67.28549,9.16714816 C67.28549,10.8534874 66.4031758,12.7062319 64.4219397,12.7062319 C62.4233751,12.7062319 61.5410608,10.8534874 61.5410608,9.16714816 L61.5410608,9.16714816 Z M79.3014266,4.44539827 L77.7375209,4.44539827 L77.7375209,5.8509286 L77.7014196,5.8509286 C77.1974463,4.83318201 76.2963594,4.22253405 74.6761358,4.22253405 C71.9035606,4.22253405 70.5735909,6.81370202 70.5735909,9.24143624 C70.5735909,11.6869996 71.8674594,13.8888981 74.4956296,13.8888981 C75.6667538,13.8888981 76.8552066,13.4075113 77.5757873,12.4283946 L77.6118886,12.4283946 L77.6118886,13.3525382 C77.6118886,15.3523731 76.5490681,16.5944697 74.7656669,16.5944697 C73.5237842,16.5944697 72.7497736,16.3537763 71.4544612,15.7416426 L71.273955,17.3536938 C72.7497736,17.8707388 73.5959867,18 74.5678321,18 C77.8631532,18 79.3014266,16.3537763 79.3014266,13.4817994 L79.3014266,4.44539827 Z M74.9288445,12.4833677 C73.343278,12.4833677 72.3714327,10.9277755 72.3714327,9.14783326 C72.3714327,7.53726785 73.2176457,5.62806438 74.9288445,5.62806438 C76.7295743,5.62806438 77.6118886,7.31440363 77.6118886,9.27858027 C77.6118886,11.0377218 76.5129668,12.4833677 74.9288445,12.4833677 L74.9288445,12.4833677 Z M81.090604,13.8888981 L82.780142,13.8888981 L82.780142,4.44539827 L81.090604,4.44539827 L81.090604,13.8888981 Z M80.9823003,2.33264548 L82.8884457,2.33264548 L82.8884457,0.371440363 L80.9823003,0.371440363 L80.9823003,2.33264548 Z M92.1159225,11.7598019 C91.7014803,12.1119274 90.4061678,12.7062319 89.2899175,12.7062319 C87.6870225,12.7062319 86.2646336,11.4269913 86.2646336,9.5549319 L92.8162866,9.5549319 C92.8162866,6.51803549 91.8271126,4.22253405 88.7671716,4.22253405 C86.1736585,4.22253405 84.4667919,6.20305407 84.4667919,9.00074288 C84.4667919,12.0747833 85.9584951,14.1102765 89.217715,14.1102765 C90.731079,14.1102765 91.4675443,13.7418077 92.1159225,13.5011143 L92.1159225,11.7598019 Z M86.2646336,8.26083368 C86.390266,7.03656624 87.0747455,5.62806438 88.7310703,5.62806438 C90.1895604,5.62806438 91.0184448,6.81518778 91.0184448,8.26083368 L86.2646336,8.26083368 Z M94.2791088,13.5932315 C95.0516753,14.0181593 95.9325456,14.1102765 96.7975313,14.1102765 C98.4365275,14.1102765 100.000433,13.1861329 100.000433,11.1684688 C100.000433,8.14791581 96.0235207,8.70359059 96.0235207,6.77655799 C96.0235207,5.99950475 96.7802027,5.62806438 97.6451884,5.62806438 C98.0408579,5.62806438 99.0488045,5.86875774 99.4257015,6.10945109 L99.5701064,4.59100289 C98.9043996,4.38893933 98.2574654,4.22253405 97.4646822,4.22253405 C95.6451797,4.22253405 94.225679,5.16599257 94.225679,7.12868345 C94.225679,9.77779612 98.2040355,9.63070574 98.2040355,11.3527033 C98.2040355,12.3719356 97.2480747,12.7062319 96.4740641,12.7062319 C95.9874194,12.7062319 95.0343467,12.4833677 94.3686399,12.0391251 L94.2791088,13.5932315 Z" id="Fill-4" fill="#6F6F6E" mask="url(#mask-4)"></path>
                </g>
            </g>
        </g>
    </g>
</svg>