<?xml version="1.0" encoding="utf-8"?>
<!-- Generator: Adobe Illustrator 27.3.1, SVG Export Plug-In . SVG Version: 6.00 Build 0)  -->
<svg version="1.1" id="Layer_1" xmlns="http://www.w3.org/2000/svg" xmlns:xlink="http://www.w3.org/1999/xlink" x="0px" y="0px"
	 viewBox="0 0 451.8 93.6" style="enable-background:new 0 0 451.8 93.6;" xml:space="preserve">
<style type="text/css">
	.st0{fill:#1D1D1B;}
	.st1{fill:#54565A;}
</style>
<g>
	<g>
		<g>
			<g>
				<path class="st0" d="M441.7,7.7h2.7c1,0,1.6-0.5,1.6-1.5c0-1.2-0.8-1.4-1.6-1.4h-2.6V7.7z M440.1,3.5h4.4c2,0,3.1,0.9,3.1,2.5
					c0,1.8-1.2,2.2-1.5,2.3v0c0.6,0.1,1.4,0.5,1.4,2c0,1.1,0.2,2.1,0.5,2.4h-1.7c-0.2-0.4-0.2-0.9-0.2-1.4c0-1.7-0.3-2.5-1.8-2.5
					h-2.4v3.8h-1.6V3.5z"/>
				<path class="st0" d="M443.7,1.3c-3.8,0-6.9,3.1-6.9,6.9c0,3.8,3.1,6.9,6.9,6.9c3.8,0,6.9-3.1,6.9-6.9
					C450.5,4.4,447.5,1.3,443.7,1.3 M443.7,16.3c-4.5,0-8.2-3.7-8.2-8.2c0-4.5,3.7-8.2,8.2-8.2c4.5,0,8.2,3.7,8.2,8.2
					C451.8,12.7,448.2,16.3,443.7,16.3"/>
			</g>
			<g>
				<polygon class="st0" points="14.9,14.9 0,14.9 0,1.3 46,1.3 46,14.9 31.2,14.9 31.2,54.3 14.9,54.3 				"/>
				<g>
					<path class="st0" d="M65,30.7c0-3.6-2.6-6.5-6.3-6.5c-4.4,0-6.8,2.3-7.4,6.5H65z M51.1,38.3c0.4,4.5,2.8,7.5,7.4,7.5
						c2.3,0,4.9-0.9,6.1-2.8H78c-2.9,8.3-10.9,12.2-19.5,12.2c-12.1,0-21.2-7.3-21.2-20.1c0-11.2,7.9-20.4,20-20.4
						c15,0,21.5,8.5,21.5,23.6H51.1z"/>
					<path class="st0" d="M107.4,30.4c-0.1-1.6-0.7-2.8-1.6-3.6c-1-0.8-2.2-1.3-3.7-1.3c-5.6,0-6.5,4.9-6.5,9.6
						c0,4.8,0.8,9.5,6.5,9.5c3.2,0,5.4-2.6,5.7-5.6h14c-1.4,10.5-9.7,16.3-20.1,16.3c-11.6,0-20.9-8-20.9-20.2
						c0-12.2,9.3-20.3,20.9-20.3c10.2,0,18.7,4.9,19.6,15.6H107.4z"/>
					<path class="st0" d="M124.2,1.3h14.7v18.6h0.1c2.5-3,5.8-5.1,12-5.1c6.9,0,13.2,4.2,13.2,13.1v26.4h-14.7V34.1
						c0-4.5-0.5-7.6-4.8-7.6c-2.6,0-5.9,1.3-5.9,7.4v20.4h-14.7V1.3z"/>
					<path class="st0" d="M168.7,15.7h14.2v4.9h0.1c2.7-3.9,6.6-5.9,12.6-5.9c6.9,0,13.2,4.2,13.2,13.1v26.4h-14.7V34.1
						c0-4.5-0.5-7.6-4.8-7.6c-2.6,0-5.9,1.3-5.9,7.4v20.4h-14.7V15.7z"/>
				</g>
				<path class="st0" d="M213.1,15.7h14.7v38.5h-14.7V15.7z M227.8,11.6h-14.7V1.3h14.7V11.6z"/>
			</g>
			<g>
				<path class="st0" d="M246.7,36.5c0,1.3,0.2,2.5,0.6,3.5c1.2,3.2,4.8,3.9,7.8,3.9c2.7,0,6.8-0.9,6.8-4.8c0-2.7-2.3-3.5-11.4-6.1
					c-8.4-2.4-18-4.7-18-15.4C232.4,5.3,242.9,0,253.8,0c11.5,0,21.8,4.5,22.1,17.3h-15.4c0.3-2-0.5-3.3-1.9-4.2
					c-1.4-1-3.1-1.3-4.8-1.3c-2.2,0-5.9,0.6-5.9,3.6c0.2,3.7,7.9,4.8,15.4,6.7c7.5,2.2,14.9,5.5,14.9,15.3
					c0,13.8-12.6,18.3-24.5,18.3c-5.9,0-23.3-2.2-23.3-19.1H246.7z"/>
				<path class="st0" d="M298.7,15.7h7.9v9.1h-7.9v13.4c0,3.6,0.7,5.1,4.5,5.1c1.1,0,2.2-0.1,3.3-0.2v11.1c-3,0-6.2,0.4-9.4,0.4
					c-6.2,0-13.1-1-13.1-11.5V24.8h-6.5v-9.1h6.5V4h14.7V15.7z"/>
				<path class="st0" d="M328.4,25.5c-5.6,0-6.3,5.4-6.3,9.5c0,4.1,0.7,9.6,6.3,9.6c5.6,0,6.3-5.5,6.3-9.6
					C334.7,30.9,334.1,25.5,328.4,25.5 M328.4,55.3c-14.5,0-21-9.6-21-20.3c0-10.6,6.5-20.2,21-20.2c14.5,0,21,9.6,21,20.2
					C349.4,45.7,342.9,55.3,328.4,55.3"/>
				<path class="st0" d="M352.2,15.7h14.2v4.9h0.1c2.7-3.9,6.6-5.9,12.6-5.9c6.9,0,13.2,4.2,13.2,13.1v26.4h-14.7V34.1
					c0-4.5-0.5-7.6-4.8-7.6c-2.6,0-5.9,1.3-5.9,7.4v20.4h-14.7V15.7z"/>
				<path class="st0" d="M422.6,30.7c0-3.6-2.6-6.5-6.3-6.5c-4.4,0-6.8,2.3-7.4,6.5H422.6z M408.8,38.3c0.4,4.5,2.8,7.5,7.4,7.5
					c2.3,0,4.9-0.9,6.1-2.8h13.5c-2.9,8.3-10.9,12.2-19.5,12.2c-12.1,0-21.2-7.3-21.2-20.1c0-11.2,7.9-20.4,20-20.4
					c15,0,21.5,8.5,21.5,23.6H408.8z"/>
			</g>
		</g>
	</g>
	<g>
		<path class="st1" d="M13.3,93.3l-1.8-5.9H4.4l-1.8,5.9H0l6.2-19.9h3.7l6.2,19.9H13.3z M5.1,85.1h5.7L8,75.6H8L5.1,85.1z"/>
		<path class="st1" d="M38.3,93.3l-3.5-15.1h-0.1l-3.5,15.1h-2.7l-5.2-19.9h2.8l3.7,15.5H30l3.6-15.5h2.6l3.4,15.4h0.1l3.9-15.4h2.7
			l-5.3,19.9H38.3z"/>
		<path class="st1" d="M48.8,93.3V73.4h2.7v19.9H48.8z"/>
		<path class="st1" d="M55.9,93.3V73.4h2.7V91h8.7v2.3H55.9z"/>
		<path class="st1" d="M79.6,78.4c-0.9-2-2-3-4.2-3c-2.2,0-3.7,1.1-3.7,3c0,4.5,10.7,2.4,10.7,9.5c0,3.8-2.8,5.8-6.7,5.8
			c-3.8,0-5.9-1.5-7.1-5.1l2.5-0.8c0.8,2.5,2.1,3.7,4.7,3.7c2.4,0,4.1-1.2,4.1-3.3c0-5-10.6-2.6-10.6-9.6c0-3.3,2.6-5.3,6.2-5.3
			c3.5,0,5.6,1.6,6.4,4.5L79.6,78.4z"/>
		<path class="st1" d="M84.7,83.4c0-5.9,2.8-10.3,8.1-10.3c5.3,0,8.1,4.3,8.1,10.3c0,6.3-3,10.3-8.1,10.3
			C87.7,93.6,84.7,89.7,84.7,83.4z M98.3,83.4c0-5.1-2.1-8-5.5-8c-3.4,0-5.5,3-5.5,8c0,5,2.1,8,5.5,8C96.2,91.4,98.3,88.4,98.3,83.4
			z"/>
		<path class="st1" d="M116.7,93.3L107,76.6h-0.1v16.7h-2.5V73.4h3.8l8.6,15h0.1v-15h2.5v19.9H116.7z"/>
		<path class="st1" d="M135.4,93.3l-1.8-5.9h-7.1l-1.8,5.9h-2.7l6.2-19.9h3.7l6.2,19.9H135.4z M127.2,85.1h5.7l-2.8-9.4h-0.1
			L127.2,85.1z"/>
		<path class="st1" d="M152.4,93.3l-4.2-8.5h-4.6v8.5H141V73.4h6.1c5.1,0,7.4,1.9,7.4,5.5c0,2.7-1.5,4.3-3.8,5.1l4.7,9.2H152.4z
			 M147.2,82.4c1.7,0,4.7-0.3,4.7-3.4c0-3-2.4-3.3-4.5-3.3h-3.7v6.7H147.2z"/>
		<path class="st1" d="M162.4,93.3V75.8h-5.7v-2.3h14v2.3h-5.7v17.5H162.4z"/>
		<path class="st1" d="M194.2,87.5c-1.2,4.6-3.9,6.1-7.4,6.1c-5.3,0-7.7-3.9-7.7-10.4c0-6.4,3-10.1,7.8-10.1c3.6,0,5.9,1.7,7,5.9
			l-2.5,0.5c-0.9-2.9-2.3-4.1-4.5-4.1c-3.2,0-5.2,2.9-5.2,7.8c0,5.3,1.6,8,5.1,8c2.4,0,4-1.2,4.9-4.3L194.2,87.5z"/>
		<path class="st1" d="M196.3,83.4c0-5.9,2.8-10.3,8.1-10.3c5.3,0,8.1,4.3,8.1,10.3c0,6.3-3,10.3-8.1,10.3
			C199.3,93.6,196.3,89.7,196.3,83.4z M209.9,83.4c0-5.1-2.1-8-5.5-8c-3.4,0-5.5,3-5.5,8c0,5,2.1,8,5.5,8
			C207.9,91.4,209.9,88.4,209.9,83.4z"/>
		<path class="st1" d="M231.8,93.3V76.4h-0.1l-5.4,16.9H224l-5.4-16.9h-0.1v16.9h-2.4V73.4h4l5,16.2h0.1l5.1-16.2h4v19.9H231.8z"/>
		<path class="st1" d="M238.8,93.3V73.4h6.1c4.9,0,7.4,1.9,7.4,5.7c0,4-2.5,5.9-7.6,5.9h-3.2v8.2H238.8z M244.9,82.8
			c2.1,0,4.8-0.4,4.8-3.6c0-2.3-1.5-3.4-4.5-3.4h-3.7v7H244.9z"/>
		<path class="st1" d="M265.6,93.3l-1.8-5.9h-7.1l-1.8,5.9h-2.7l6.2-19.9h3.7l6.2,19.9H265.6z M257.4,85.1h5.7l-2.8-9.4h-0.1
			L257.4,85.1z"/>
		<path class="st1" d="M283.5,93.3l-9.8-16.7h-0.1v16.7h-2.5V73.4h3.8l8.6,15h0.1v-15h2.5v19.9H283.5z"/>
		<path class="st1" d="M295,93.3v-8.2l-6.2-11.7h2.9l4.5,9.1h0.1l4.8-9.1h2.8l-6.3,11.7v8.2H295z"/>
	</g>
</g>
</svg>
