<svg id="Vrstva_x0020_1" xmlns="http://www.w3.org/2000/svg" width="182.001" height="27.688" viewBox="0 0 182.001 27.688">
  <g id="_600674672">
    <path id="Path_2" data-name="Path 2" d="M3723,39v6.844h11.317V65.866h8.1V45.844h11.306V39Z" transform="translate(-3684.275 -38.594)" fill="#2b2a29"/>
    <path id="Path_3" data-name="Path 3" d="M6995.923,12.045V17.4h10.162v.77c0,2.975-.229,3.058-9.257,3.058l-4.524-.083c-2.174-.073-2.86-.2-3.5-.759-.843-.728-1.071-2.1-1.071-6.646,0-6.969.041-7.01,9.184-7.01,5.783,0,7.572.156,8.332.728.5.354.571.676.613,2.247h7.729c-.042-3.942-.344-5.6-1.4-6.927C7010.5.645,7007,0,6997.557,0,6981.113,0,6980,.842,6980,13.418c0,8.82.427,10.8,2.673,12.367,2.133,1.539,4.837,1.9,13.553,1.9,6.886,0,9.559-.166,12.139-.738a5.79,5.79,0,0,0,4.993-5.637c.114-1.29.271-5.887.271-8.539v-.728Z" transform="translate(-6907.398 0)" fill="#2b2a29"/>
    <path id="Path_4" data-name="Path 4" d="M10787,18.369v1.29c0,3.7.571,5.284,2.329,6.449,1.789,1.217,4.867,1.581,12.753,1.581,7.571,0,10.775-.208,12.294-.822,2.63-1.04,3.69-3.339,3.69-8.009,0-3.755-.644-5.565-2.391-6.771-1.644-1.092-3.276-1.29-11.65-1.571-5.376-.166-7.468-.281-8.152-.489-.8-.2-1.146-.718-1.146-1.727,0-1.976.541-2.132,7.083-2.132,5.482,0,6.438.073,7.083.478.572.364.688.728.76,2.215h7.468c.032-.52.032-1.082.032-1.248,0-3.183-.6-4.878-2.133-5.96-1.789-1.29-4.452-1.654-11.838-1.654-6.095,0-9.589.166-11.076.478-3.506.811-4.877,3.11-4.877,8.227,0,5.918,1.757,7.614,8.039,7.811l2.049.083,4.12.2,6.082.239c2.478.042,3.049.447,3.049,2.059,0,2.371,0,2.371-8.3,2.371-5.44,0-6.282-.073-7-.562-.614-.406-.77-.926-.77-2.538Z" transform="translate(-10674.802 0)" fill="#2b2a29"/>
    <path id="Path_5" data-name="Path 5" d="M0,1094.816H34.969V1090H0Z" transform="translate(0 -1078.662)" fill="#0676cf" fill-rule="evenodd"/>
    <path id="Path_6" data-name="Path 6" d="M14136,1094.816h34.969V1090H14136Z" transform="translate(-13988.967 -1078.662)" fill="#0676cf" fill-rule="evenodd"/>
    <path id="Path_7" data-name="Path 7" d="M0,36.938H34.969V30H0Z" transform="translate(0 -29.688)" fill="#0676cf" fill-rule="evenodd"/>
    <path id="Path_8" data-name="Path 8" d="M0,1952.938H34.969V1946H0Z" transform="translate(0 -1925.759)" fill="#0676cf" fill-rule="evenodd"/>
    <path id="Path_9" data-name="Path 9" d="M14136,36.938h34.969V30H14136Z" transform="translate(-13988.967 -29.688)" fill="#0676cf" fill-rule="evenodd"/>
    <path id="Path_10" data-name="Path 10" d="M14136,1952.938h34.969V1946H14136Z" transform="translate(-13988.967 -1925.759)" fill="#0676cf" fill-rule="evenodd"/>
  </g>
</svg>
