<?xml version="1.0" encoding="utf-8"?>
<!-- Generator: Adobe Illustrator 12.0.0, SVG Export Plug-In . SVG Version: 6.00 Build 51448)  -->
<!DOCTYPE svg PUBLIC "-//W3C//DTD SVG 1.1//EN" "http://www.w3.org/Graphics/SVG/1.1/DTD/svg11.dtd" [
	<!ENTITY ns_svg "http://www.w3.org/2000/svg">
	<!ENTITY ns_xlink "http://www.w3.org/1999/xlink">
]>
<svg  version="1.1" id="Ebene_1" xmlns="&ns_svg;" xmlns:xlink="&ns_xlink;" width="566.496" height="115.586"
	 viewBox="0 0 566.496 115.586" overflow="visible" enable-background="new 0 0 566.496 115.586" xml:space="preserve">
<g>
	<polygon fill="#008DCD" points="89.813,19.337 89.813,77.002 105.248,19.337 148.559,19.337 122.895,115.586 68.825,115.586 
		68.825,57.775 53.339,115.586 0,115.586 0,19.337 41.929,19.337 41.921,77.081 57.471,19.337 89.813,19.337 	"/>
	<path fill="#008DCD" d="M287.67,19.337c0,0,63.509,0,71.447,0c9.226,0,13.645,1.108,18.259,3.151
		c6.17,2.729,11.353,7.125,12.624,13.647c0.965,4.916-1.35,12.056-1.35,12.056l-18.05,67.395h-43.509l18.477-69.098
		c1.289-4.854-3.689-7.902-8.995-7.902l-0.335-0.012h-10.304l-20.601,77.012l-43.278-0.066L287.67,19.337L287.67,19.337z"/>
	<polygon fill="#008DCD" points="504.838,19.337 499.595,38.574 442.796,96.315 484.339,96.315 479.135,115.586 383.546,115.586 
		388.65,96.315 445.395,38.574 404.044,38.574 409.248,19.337 504.838,19.337 	"/>
	<polygon fill="#008DCD" points="535.549,115.586 492.084,115.586 522.986,0 566.496,0 535.549,115.586 	"/>
	<path fill="#008DCD" d="M196.642,96.315h9.613l13.265-49.924c1.283-4.852-2.211-7.817-9.032-7.817c-5.3,0-7.335,0.864-9.584,2.485
		c-1.885,1.363-2.802,4.731-2.802,4.731l-0.625,2.375l-43.564,0.025c0,0,0.452-1.166,2.38-8.631
		c2.437-9.432,10.876-14.758,17.546-17.372c4.705-1.84,9.113-2.852,18.34-2.852c0,0,32.726,0,40.666,0
		c9.227,0,14.172,0.943,18.768,3.045c6.38,2.921,10.702,7.26,12.122,13.753c0.929,4.244-1.14,12.011-1.14,12.011l-18.047,67.44
		c-7.104,0-67.978,0-71.027,0c-9.227,0-14.794-0.59-19.332-2.816c-6.108-2.991-10.859-6.822-11.691-13.825
		c-0.642-5.377,1.175-12.188,1.175-12.188s0.356-1.115,1.314-4.769c3.773-14.397,12.122-18.907,18.372-21.616
		c4.636-2.008,9.368-2.597,18.595-2.597c0,0,12.413,0,23.806,0l-5.256,19.306c-5.76,0-7.19,1.016-9.636,2.746
		c-2.636,1.859-3.284,4.562-3.284,4.562l-0.597,2.265C185.409,93.875,188.597,96.315,196.642,96.315L196.642,96.315z"/>
</g>
</svg>
