<svg xmlns="http://www.w3.org/2000/svg" height="800" width="1200" viewBox="-9.2556 -4.12535 80.2152 24.7521"><defs><linearGradient x1="0" y1="0" x2="1" y2="0" gradientUnits="userSpaceOnUse" gradientTransform="matrix(24.61223 -8.30102 -8.43491 -24.22156 351.51 115.7056)" spreadMethod="pad" id="g"><stop offset="0" stop-color="#575756"/><stop offset=".4426" stop-color="#b2b2b2"/><stop offset=".7869" stop-color="#fff"/><stop offset="1" stop-color="#fff"/></linearGradient><linearGradient x1="0" y1="0" x2="1" y2="0" gradientUnits="userSpaceOnUse" gradientTransform="matrix(-23.6998 0 0 23.32362 373.4314 114.7748)" spreadMethod="pad" id="f"><stop offset="0" stop-color="#706f6f"/><stop offset=".3169" stop-color="#a8a8a7"/><stop offset="1" stop-color="#fff"/></linearGradient><linearGradient x1="0" y1="0" x2="1" y2="0" gradientUnits="userSpaceOnUse" gradientTransform="matrix(18.76456 18.0533 18.34448 -18.46671 351.4432 105.2544)" spreadMethod="pad" id="e"><stop offset="0" stop-color="#fff"/><stop offset=".3224" stop-color="#fff"/><stop offset="1" stop-color="#575756"/></linearGradient><linearGradient x1="0" y1="0" x2="1" y2="0" gradientUnits="userSpaceOnUse" gradientTransform="matrix(0 -9.44308 -9.59538 0 351.7702 100.541)" spreadMethod="pad" id="d"><stop offset="0" stop-color="#706f6f"/><stop offset="1" stop-color="#fff"/></linearGradient><linearGradient x1="0" y1="0" x2="1" y2="0" gradientUnits="userSpaceOnUse" gradientTransform="matrix(9.59142 0 0 -9.43917 375.584 124.3825)" spreadMethod="pad" id="c"><stop offset="0" stop-color="#878787"/><stop offset=".6175" stop-color="#bdbcbc"/><stop offset="1" stop-color="#fff"/></linearGradient><radialGradient fx="-.1023" fy="-.0543" cx="0" cy="0" r="1" gradientUnits="userSpaceOnUse" gradientTransform="matrix(69.62291 0 0 -69.04542 396.337 84.9168)" spreadMethod="pad" id="b"><stop offset="0" stop-color="#a1daf8"/><stop offset=".4341" stop-color="#0075a0"/><stop offset=".9945" stop-color="#00386d"/><stop offset="1" stop-color="#00386d"/></radialGradient><clipPath clipPathUnits="userSpaceOnUse" id="a"><path d="M202.535 83.524H392.74v61.385H202.535z"/></clipPath></defs><g clip-path="url(#a)" transform="matrix(.35278 0 0 -.35278 -74.2276 48.441)" fill="#575756"><path d="M242.665 98.5382c-.3058-.0063-.958.0056-.958.0056v5.1634c1.942.0743 4.0894-.3064 4.0894-2.5803 0-1.5225-1.349-2.5477-3.1314-2.5887m5.7025-4.2996l-2.7481 3.3174c1.3244.4126 3.4863 1.1492 3.4863 3.718 0 1.0436-.6153 2.3012-1.8128 3.1564-.859.6161-2.18 1.1192-5.0338 1.1192-1.4404 0-1.9637-.0486-4.2364-.0486.3074-.6155.6134-1.0963.6134-2.1129v-9.0174c0-1.9524-.0607-2.0855-.5504-3.2374h4.141c-.4285.9098-.5197 1.4187-.5197 3.2907v3.4247h.2625l5.1173-6.7154h4.288c-.8205.6985-1.7199 1.498-3.0073 3.1053m23.5695 7.9179c0 .9642 1.107 1.7388 2.5499 1.7388 1.5357 0 2.6789-.66 3.4704-1.1746l.1515 2.5414c-.8268.1588-2.21.5062-3.7137.5062-3.1038 0-5.3745-1.9277-5.3745-4.3068 0-4.2626 7.031-4.0215 7.031-6.6621 0-1.2316-1.2876-2.061-2.9472-2.061-1.9331 0-2.9292.7578-4.0838 1.6323l-.1528-2.8079c.7496-.167 2.4513-.6949 4.5073-.6949 3.2191 0 5.5939 2.0042 5.5939 4.5223 0 4.0725-7.032 4.1545-7.032 6.7663m11.7118 1.6047h.7059c2.241 0 3.438-1.2565 3.438-2.6735 0-1.472-1.197-2.783-3.53-2.783h-.614zm1.2898-6.7413c3.5922 0 6.0153 1.6309 6.0153 4.2271 0 2.5972-2.5149 4.254-6.2925 4.254h-4.6684c.3693-.6156.5842-.911.5842-2.6233v-9.12c0-1.7146-.2149-2.007-.5842-2.6244h4.2394c-.3684.6174-.5836.9098-.5836 2.6245v3.3153c.3996-.027.8597-.0532 1.2898-.0532m39.3351-4.0125c-.3666 0-1.5345.0267-1.9007.0557v4.4098c.5231.03 1.2654.0561 1.7174.0561.957 0 2.0718-.0761 3.0547-.3495l.4006 2.2205h-5.1727v4.1752c.306.052 1.2879.052 1.588.052 2.2498 0 2.8652-.1257 4.0264-.4808l.3991 2.3546h-9.6685c.3682-.6155.583-.911.583-2.6233v-9.12c0-1.7146-.2148-2.007-.583-2.6244h9.5043l.8182 2.4642c-1.1672-.296-2.0933-.59-4.7668-.59m-93.9237.0555v4.4099c.5217.03 1.2655.0561 1.7163.0561.9567 0 2.0755-.0761 3.0573-.3495l.4003 2.2205h-5.174v4.1752c.3057.052 1.2882.052 1.5884.052 2.249 0 2.864-.1257 4.0263-.4808l.3998 2.3546h-9.6686c.3691-.6155.5842-.911.5842-2.6233v-9.12c0-1.7146-.215-2.007-.5842-2.6244h9.505l.8173 2.4642c-1.1659-.296-2.0935-.59-4.7668-.59-.3669 0-1.5335.0266-1.9014.0556m27.9101 17.9516l1.1145 2.8101c-2.3652-.8558-3.7139-.9108-7.9505-.9365l7.9505 12.4926h-10.5793l-1.1346-2.8362c1.3808.6705 2.4544.9638 5.3104.9638.6132 0 1.35-.0548 1.7506-.0548l-7.8309-12.439z"/><path d="M268.3283 112.4272c-3.4155 0-5.5146 2.3553-5.5146 5.8948 0 3.322 1.8144 5.6468 5.1998 5.6468 3.2294 0 5.5165-2.602 5.5165-5.8391 0-3.1839-2.1315-5.7025-5.2017-5.7025m8.7309 5.7562c0 4.2355-3.8754 7.7223-8.7629 7.7223-5.2007 0-9.0142-3.5138-9.0142-7.776 0-4.2624 3.9415-7.64 8.7934-7.64 5.0767 0 8.9837 3.4326 8.9837 7.6937m5.1256 5.3251h1.8128c4.328 0 5.8943-2.9154 5.8943-5.3495 0-3.5592-2.2393-5.2707-6.2342-5.2707-.4899 0-.9809.053-1.4729.053zm-3.6551-12.4938h4.1471c1.5671 0 4.2067 0 5.7406.563 3.5005 1.2843 4.881 3.9055 4.881 6.4472 0 2.006-1.1045 4.5468-3.4065 6.0209-1.3694.871-2.9922 1.335-6.4478 1.335h-4.9144c.3682-.6159.583-.909.583-2.6215v-9.1227c0-1.7098-.2148-2.0042-.583-2.622m16.3067.0001h4.2364c-.3693.6177-.5836.912-.5836 2.6219v9.1227c0 1.7126.2143 2.0056.5836 2.6216h-4.2364c.3672-.616.5824-.909.5824-2.6216v-9.1227c0-1.7098-.2152-2.0042-.5824-2.622m28.2976-.2663c3.0224 0 4.8967.8885 5.802.9614v2.6481c-1.0427-.802-2.3552-1.7378-5.2584-1.7378-3.5132 0-5.775 2.1926-5.775 5.6464 0 3.3981 2.2308 5.5108 5.9593 5.5108 2.719 0 3.785-.7758 4.4-1.178l.1826 2.7034s-.2429-.029-.3673-.029c-.6157 0-1.815.3764-4.0584.3764-5.6797 0-9.5729-3.2109-9.5729-7.678 0-3.8254 3.4677-7.2237 8.688-7.2237m-15.866 11.8182l2.086-5.4324h-4.1813zm-4.0494-10.883c-.0027.456.2385 1.0976.42 1.5527l.7883 1.991h5.6671l.7853-1.991c.1858-.4551.3727-.9092.3755-1.362.0041-.2964-.146-.591-.301-.8595h4.3864c-.6217.8294-.9628 1.4986-1.431 2.6482 0 0-3.851 9.0922-4.2162 9.9527-.3644.861-.532 1.5383-.532 1.7653h-3.808l.5246-.616-4.7034-11.102c-.513-1.2017-1.061-2.0581-1.425-2.6482h3.6292c-.1223.2414-.1579.376-.1598.6688m3.4145-13.2981c0 3.397 2.2312 5.5099 5.9601 5.5099 2.7186 0 3.784-.776 4.3986-1.1777l.1845 2.7023s-.2452-.0257-.3687-.0257c-.6148 0-1.8164.374-4.0585.374-5.68 0-9.5712-3.2123-9.5712-7.6776 0-3.8257 3.4666-7.2227 8.6864-7.2227 3.022 0 4.8967.8853 5.8019.96v2.649c-1.0424-.8021-2.3544-1.7386-5.2567-1.7386-3.5167 0-5.7764 2.1942-5.7764 5.6471m-10.629 4.2992l2.0833-5.4317h-4.1807zm2.4239 1.0496c-.364.8608-.5349 1.538-.5349 1.766h-3.8049l.5256-.6147-4.7088-11.104c-.516-1.2015-1.063-2.0578-1.4265-2.6482h3.633c-.1237.2414-.1555.3761-.1568.6685-.0043.4564.235 1.0966.4183 1.5523l.7886 1.9921h5.6674l.7845-1.992c.1863-.4558.3736-.9086.377-1.3651.0024-.2927-.149-.5867-.3015-.8558h4.3805c-.6177.8315-.958 1.498-1.4266 2.6482 0 0-3.8496 9.0953-4.215 9.9527m-80.4935-1.0496l2.0844-5.4317h-4.1802zm2.4256 1.0496c-.3647.8608-.5345 1.538-.5345 1.766h-3.8067l.5259-.6147-4.7088-11.104c-.5151-1.2015-1.062-2.0578-1.4269-2.6482h3.6348c-.1245.2414-.1583.3761-.1597.6685-.0041.4564.2368 1.0966.4195 1.5523l.7894 1.9921h5.668l.7834-1.992c.1863-.4558.3731-.9086.3753-1.3651.0043-.2927-.1458-.5867-.2997-.8558h4.3858c-.6203.8315-.9617 1.498-1.4307 2.6482 0 0-3.8524 9.0953-4.215 9.9527m38.8941-11.2429c-3.4172 0-5.5145 2.3751-5.5145 5.9522 0 3.3526 1.8165 5.6978 5.2015 5.6978 3.2275 0 5.517-2.6262 5.517-5.895 0-3.2118-2.1328-5.755-5.204-5.755m-.031 13.6061c-5.202 0-9.015-3.5488-9.015-7.851 0-4.3015 3.9401-7.709 8.7934-7.709 5.077 0 8.9865 3.4631 8.9865 7.7644 0 4.2758-3.879 7.7956-8.765 7.7956"/></g><path d="M338.296 91.051h47.021v46.262h-47.021z" fill="url(#b)" transform="matrix(.35278 0 0 -.35278 -74.2276 48.441)"/><path d="M375.468 125.877c3.736-.296 7.036-1.396 9.85-3.118v2.067c-2.742.968-5.512 1.179-7.413 1.179-1.483 0-2.437-.128-2.437-.128" fill="url(#c)" transform="matrix(.35278 0 0 -.35278 -74.2276 48.441)"/><path d="M349.261 100.494s.179-4.936 2.68-9.443h2.339c-2.31 2.531-4.052 5.687-5.019 9.443z" fill="url(#d)" transform="matrix(.35278 0 0 -.35278 -74.2276 48.441)"/><path d="M367.604 123.881c-.716-.22-1.735-.575-2.938-1.111-2.207-.979-5.031-2.566-7.756-5.042-.248-.227-.496-.46-.741-.701-1.452-1.419-2.586-2.886-3.472-4.311-.515-.827-.946-1.64-1.306-2.419-1.011-2.321-1.119-4.305-.091-5.397.209-.217.486-.409.717-.521.599-.313 1.279-.452 1.798-.514l.905.374c2.761 1.101 6.222 2.914 9.343 5.928 2.471 2.382 4.353 5.003 5.639 7.169.53.894 1.957 3.353 1.417 5.064-.21.665-.959 1.483-2.449 1.706-.542-.059-.951-.189-1.066-.225" fill="url(#e)" transform="matrix(.35278 0 0 -.35278 -74.2276 48.441)"/><path d="M351.216 125.727c-1.211 0-1.818-.857-1.822-2.029l.008-10.023c3.606 9.058 11.081 10.322 17.667 10.485.126.002.251.005.371.007.367.004.714-.002 1.018-.034.073-.007.142-.017.212-.027 1.49-.223 2.239-1.041 2.449-1.706.54-1.711-.887-4.17-1.417-5.064-1.286-2.166-3.168-4.787-5.639-7.169-3.121-3.014-6.582-4.827-9.343-5.928l-.905-.374c.236-.027.573-.039.744-.043l.107.043c2.723 1.098 6.457 3.027 9.618 6.083 3.508 3.385 5.826 7.23 6.977 9.63 1.616 3.186 2.324 6.149 2.324 6.149z" fill="url(#f)" transform="matrix(.35278 0 0 -.35278 -74.2276 48.441)"/><path d="M367.44 124.167c-1.975-.614-6.052-2.185-10.051-5.588-.486-.414-.971-.854-1.451-1.323-2.821-2.763-4.459-5.7-5.411-8.162-.787-2.035-1.104-3.744-1.232-4.758-.06-.478-.078-.803-.083-.935a17.298 17.298 0 01-.034-1.066v-.031h.002l22.613-.024c.982-.002 1.819.85 1.819 2.025v10.024c-3.591-9.002-11.294-10.684-18.945-10.509 0 0-.042 0-.108.002-.171.004-.508.016-.744.043-.519.062-1.199.201-1.798.514-.231.112-.508.304-.717.521-1.028 1.092-.92 3.076.091 5.397.36.779.791 1.592 1.306 2.419.886 1.425 2.02 2.892 3.472 4.311.245.241.493.474.741.701 2.725 2.476 5.549 4.063 7.756 5.042 1.203.536 2.222.891 2.938 1.111.115.036.524.166 1.066.225-.07.01-.139.02-.212.027-.247.027-.524.035-.816.035-.067 0-.133 0-.202-.001" fill="url(#g)" transform="matrix(.35278 0 0 -.35278 -74.2276 48.441)"/></svg>