<svg xmlns="http://www.w3.org/2000/svg" width="284.989" height="40" viewBox="0 0 284.989 40"><defs><style>.a{fill:#191b1d;}.b{opacity:0.6;}</style></defs><g transform="translate(-629 -434.839)"><g transform="translate(629 434.839)"><path class="a" d="M7.622,0,3.179,14.522-1.518,0H-7.391l-4.634,14.457L-16.446,0h-5.937l7,20.695h6.322l4.548-13.99L.084,20.695H6.447L13.453,0Z" transform="translate(22.383 10.358)"/><path class="a" d="M1.806.912A3.5,3.5,0,0,1-1.759,4.457,3.485,3.485,0,0,1-5.305.912,3.52,3.52,0,0,1-1.759-2.677,3.537,3.537,0,0,1,1.806.912M1.06,28.374H-4.514V7.68H1.06Z" transform="translate(43.864 2.677)"/><path class="a" d="M4.969,2.051V15.226H-.6V3.845C-.6.855-2.1-.79-4.641-.79-7.033-.79-9.019.769-9.019,3.888V15.226h-5.574V-5.467h5.425v2.434A6.931,6.931,0,0,1-3.082-6.022,7.707,7.707,0,0,1,4.969,2.051" transform="translate(65.371 15.825)"/><path class="a" d="M4.969,2.051V15.226H-.6V3.845C-.6.855-2.1-.79-4.641-.79-7.033-.79-9.019.769-9.019,3.888V15.226h-5.574V-5.467h5.425v2.434A6.93,6.93,0,0,1-3.083-6.022,7.708,7.708,0,0,1,4.969,2.051" transform="translate(91.775 15.825)"/><path class="a" d="M1.806.912A3.5,3.5,0,0,1-1.761,4.457,3.485,3.485,0,0,1-5.305.912,3.519,3.519,0,0,1-1.761-2.677,3.538,3.538,0,0,1,1.806.912M1.06,28.374H-4.514V7.68H1.06Z" transform="translate(107.801 2.677)"/><path class="a" d="M4.969,2.051V15.226H-.6V3.845C-.6.855-2.1-.79-4.641-.79-7.033-.79-9.019.769-9.019,3.888V15.226h-5.574V-5.467h5.425v2.434A6.931,6.931,0,0,1-3.082-6.022,7.707,7.707,0,0,1,4.969,2.051" transform="translate(129.308 15.825)"/><path class="a" d="M4.047.727V-1.579H9.514V17.405c0,6.642-4.337,10.657-11.17,10.657a16.35,16.35,0,0,1-9.055-2.5l1.987-4.548a12.23,12.23,0,0,0,6.834,2.114C1.569,23.129,4,21.207,4,17.64V16.188a7.806,7.806,0,0,1-6.365,2.8c-5.039,0-9.523-4.207-9.523-10.55,0-6.363,4.484-10.57,9.523-10.57A7.838,7.838,0,0,1,4.047.727M-6.161,8.436A5.139,5.139,0,0,0-.951,13.861,5.124,5.124,0,0,0,4.24,8.436,5.129,5.129,0,0,0-.951,2.991,5.144,5.144,0,0,0-6.161,8.436" transform="translate(150.568 11.938)"/></g><g class="b" transform="translate(795.369 444.641)"><path class="a" d="M4.047.727V-1.579H9.514V17.405c0,6.642-4.337,10.657-11.17,10.657a16.347,16.347,0,0,1-9.055-2.5l1.987-4.548a12.23,12.23,0,0,0,6.834,2.114C1.569,23.129,4,21.207,4,17.64V16.188a7.806,7.806,0,0,1-6.365,2.8c-5.039,0-9.523-4.207-9.523-10.55,0-6.363,4.484-10.57,9.523-10.57A7.838,7.838,0,0,1,4.047.727M-6.161,8.436A5.139,5.139,0,0,0-.951,13.861,5.124,5.124,0,0,0,4.24,8.436,5.129,5.129,0,0,0-.951,2.991,5.144,5.144,0,0,0-6.161,8.436" transform="translate(11.884 2.136)"/><path class="a" d="M3.591.114,2.759,5.645A9.073,9.073,0,0,0-.617,4.984c-2.583,0-4.355,1.579-4.355,4.654V20.915h-5.574V.22h5.4V2.484A6.538,6.538,0,0,1,.687-.335a8.469,8.469,0,0,1,2.9.449" transform="translate(38.659 0.335)"/><path class="a" d="M5.685,2.767C5.685,9,.922,13.658-5.527,13.658-11.955,13.658-16.7,9-16.7,2.767S-11.955-8.125-5.527-8.125C.922-8.125,5.685-3.469,5.685,2.767m-16.7,0a5.41,5.41,0,0,0,5.488,5.7,5.427,5.427,0,0,0,5.509-5.7,5.427,5.427,0,0,0-5.509-5.7,5.41,5.41,0,0,0-5.488,5.7" transform="translate(60.767 8.126)"/><path class="a" d="M4.974,3.016c0,6.534-4.613,9.354-9.78,9.354-5.19,0-9.8-2.82-9.8-9.354V-8.858h5.572V2.526c0,3.31,1.816,4.656,4.229,4.656,2.391,0,4.228-1.346,4.228-4.656V-8.858H4.974Z" transform="translate(86.302 9.414)"/><path class="a" d="M5.5,2.767c0,6.215-4.315,10.892-10.016,10.892a7.577,7.577,0,0,1-6.087-2.69v10.7h-5.552V-7.57h5.445v2.286A7.5,7.5,0,0,1-4.537-8.125C1.186-8.125,5.5-3.448,5.5,2.767m-16.381,0c0,3.267,2.157,5.7,5.318,5.7,3.288,0,5.339-2.542,5.339-5.7s-2.051-5.7-5.339-5.7c-3.161,0-5.318,2.434-5.318,5.7" transform="translate(113.119 8.126)"/></g></g></svg>