<svg fill="#0e1230" id="aisan" xmlns="http://www.w3.org/2000/svg" width="200" height="37" viewBox="0 0 200 37">
  <path id="合体_1" data-name="合体 1" d="M171.629,37a1.328,1.328,0,0,1-1.339-1.313l.011-.154,1.656-10.273.014-.184a1.021,1.021,0,0,0-1.028-1.013l-.433.1-3.922,1.8L164.967,35.9a1.357,1.357,0,0,1-1.338,1.087h-7.384a1.328,1.328,0,0,1-1.338-1.313l.01-.161,1.322-8.24.025-.174a1.012,1.012,0,0,0-.6-.9,1.04,1.04,0,0,0-1.372.49l-4.564,9.6a1.361,1.361,0,0,1-1.192.706H138.382a1.358,1.358,0,0,1-.842-.294l-2.757-2.256a9.8,9.8,0,0,1-2.246,2.282,1.25,1.25,0,0,1-.788.258h-5.04a8.329,8.329,0,0,1-6.325-2.925l-.177.386a4.127,4.127,0,0,1-3.832,2.544H97.6a1.329,1.329,0,0,1-1.34-1.312v-.288a1.339,1.339,0,0,1,.776-1.19l3.242-1.336a2.059,2.059,0,0,0,1.218-1.842,1.976,1.976,0,0,0-.411-1.185l-1.615-2.318a1.034,1.034,0,0,0-.844-.432,1.016,1.016,0,0,0-.842.423l-5.743,7.752a4.114,4.114,0,0,1-3.37,1.737H71.647a1.327,1.327,0,0,1-1.341-1.312l.038-.3.755-4.691.031-.257a1,1,0,0,0-.4-.8,1.039,1.039,0,0,0-1.439.178l-4.117,5.551a4.192,4.192,0,0,1-3.313,1.616H45.6a1.328,1.328,0,0,1-1.337-1.312l.007-.2,1.409-8.554-11.333.014L26.105,35.6A4.186,4.186,0,0,1,23,36.979L1.34,36.986h0a1.315,1.315,0,1,1,0-2.63l16.136-.012a1.465,1.465,0,0,0,1.087-.534l30.8-32.435A4.133,4.133,0,0,1,52.462,0l6.266.007h.007a1.325,1.325,0,0,1,1.332,1.318l-.017.22L54.975,32.788l-.017.251a1.34,1.34,0,0,0,1.352,1.317H61.5a1.37,1.37,0,0,0,1.089-.537l9.856-14.93a1.351,1.351,0,0,1,1.095-.552h7.9a.9.9,0,0,1,.119,0,1.267,1.267,0,0,1,1.223,1.313l-2.14,13.173-.025.225a1.326,1.326,0,0,0,1.339,1.312H88.1a1.358,1.358,0,0,0,1.16-.643L98.11,20.323a4.186,4.186,0,0,1,3.576-1.991h6.131a1.37,1.37,0,0,1,.706.2,1.307,1.307,0,0,1,.422,1.823l-1.5,2.276a1.332,1.332,0,0,0-.273.763,1.38,1.38,0,0,0,.483,1,7.558,7.558,0,0,1,2.089,5.161,7.439,7.439,0,0,1-1.757,4.805h8.418a1.433,1.433,0,0,0,1.374-.983l1-2.325a8.016,8.016,0,0,1,.852-6.336l1.69-2.781a8.26,8.26,0,0,1,6.826-3.559l13.864.021a1.327,1.327,0,0,1,1.336,1.316v.2l-2.108,12.963-.014.169a1.325,1.325,0,0,0,1.336,1.312h4.228a1.428,1.428,0,0,0,1.332-.86l6.064-12.765a4.128,4.128,0,0,1,3.737-2.34l8.339-.007a1.331,1.331,0,0,1,1.342,1.313l-.031.258-.194,1.185,5.69-2.632a1.356,1.356,0,0,1,.588-.128h8.106A1.328,1.328,0,0,1,183.1,19.7l-.018.223L181,32.778l-.027.257a1.339,1.339,0,0,0,1.346,1.321h16.346l-.009.014h0a1.315,1.315,0,1,1,0,2.63Zm-41.079-6.455a1.026,1.026,0,0,0,1.024-.833l.958-6.041.011-.163v0a1.02,1.02,0,0,0-1.028-1.011H131.1a.992.992,0,0,0-.871.488l-3.99,6a1.082,1.082,0,0,0-.169.558h0a1.02,1.02,0,0,0,1.032,1.007ZM45.71,14.984l-4.969,5.225a.985.985,0,0,0-.329.73,1.026,1.026,0,0,0,1.038,1.014h4.156a1.045,1.045,0,0,0,1.024-.809l.845-5.253.027-.218a1.022,1.022,0,0,0-1.032-1.008A1.062,1.062,0,0,0,45.71,14.984ZM78.8,13.006a1.327,1.327,0,0,1-1.339-1.316,1.239,1.239,0,0,1,.226-.716L81.961,4.52a1.377,1.377,0,0,1,1.069-.527h.736a1.328,1.328,0,0,1,1.342,1.313l-.036.257-.821,4.8h47.871a1.314,1.314,0,1,1,0,2.628H78.807l0,.011Z" transform="translate(0 0)" fill="#0e1230"/>
</svg>
